<svg id="Calque_1" data-name="Calque 1" xmlns="http://www.w3.org/2000/svg" xmlns:xlink="http://www.w3.org/1999/xlink" viewBox="0 0 595.28 427.4"><defs><style>.cls-1{fill:url(#Dégradé_sans_nom_42);}</style><linearGradient id="Dégradé_sans_nom_42" x1="-13.55" y1="50.79" x2="648.7" y2="228.24" gradientUnits="userSpaceOnUse"><stop offset="0.02" stop-color="#9cc99e" stop-opacity="0.1"/><stop offset="0.02" stop-color="#9cc99e" stop-opacity="0.11"/><stop offset="0.2" stop-color="#9cc99e" stop-opacity="0.42"/><stop offset="0.37" stop-color="#9bca9e" stop-opacity="0.67"/><stop offset="0.51" stop-color="#9bca9e" stop-opacity="0.85"/><stop offset="0.63" stop-color="#9bca9e" stop-opacity="0.96"/><stop offset="0.71" stop-color="#9bca9e"/><stop offset="0.82" stop-color="#91beb7"/><stop offset="0.92" stop-color="#8ab7c7"/><stop offset="1" stop-color="#88b4cd"/></linearGradient></defs><title>background-eligia</title><path class="cls-1" d="M0,.22H595.28v427.4c-4.44-1.7-8.71-3.22-12.82-4.92C556.78,412,538.2,397,524.91,378.87c-13.56-18.5-23.53-37.87-28.67-58.28a152.53,152.53,0,0,1-4.56-36.92c-.12-35.83-14.25-69.08-39.33-100.34-20.23-25.24-45.94-47.5-78.72-65.82-29.82-16.67-63.83-27.15-101.73-32a565.93,565.93,0,0,0-62.27-4.07c-22-.35-44-.5-65.94-1.11-20.64-.57-41.1-2.22-60.74-7C51,65.69,28.74,50.77,13.86,30.4A86.69,86.69,0,0,1,.18,1.45C.1,1.12.08.78,0,.22Z" transform="translate(0 -0.22)"/></svg>