<svg id="Calque_1" data-name="Calque 1" xmlns="http://www.w3.org/2000/svg" viewBox="0 0 51.8 33.6"><defs><style>.cls-1{fill:#010101;}</style></defs><title>eligia-e-vecto</title><path class="cls-1" d="M24.7,40.46a21.49,21.49,0,0,1-10.1-2.2,16,16,0,0,1-6.6-6,15.68,15.68,0,0,1-2.4-8.6A16.61,16.61,0,0,1,7.9,15a15.6,15.6,0,0,1,6.3-5.9,19.54,19.54,0,0,1,9.2-2.2,19.21,19.21,0,0,1,8.7,2,15.71,15.71,0,0,1,6.3,5.7,16.45,16.45,0,0,1,2.4,9.1,7.08,7.08,0,0,1-.1,1.4c0,.5-.1,1-.1,1.4H14.9v-6H34.5l-4.3,1.7a7.86,7.86,0,0,0-.8-3.8,6.42,6.42,0,0,0-2.4-2.5,6.76,6.76,0,0,0-3.5-.9,6.87,6.87,0,0,0-3.6.9,6.42,6.42,0,0,0-2.4,2.5,9.35,9.35,0,0,0-.8,3.9v1.8a7.56,7.56,0,0,0,1,4.1,7.27,7.27,0,0,0,2.8,2.7,9.86,9.86,0,0,0,4.4.9,10,10,0,0,0,4.1-.7A15.15,15.15,0,0,0,32.3,29l5.9,6.3a14.5,14.5,0,0,1-5.7,3.9A22.31,22.31,0,0,1,24.7,40.46Z" transform="translate(-5.6 -6.86)"/><path class="cls-1" d="M50.6,40.46a6.48,6.48,0,0,1-4.8-1.9,6.63,6.63,0,0,1-2-4.9,6.25,6.25,0,0,1,2-4.8,7.3,7.3,0,0,1,9.6,0,6.25,6.25,0,0,1,2,4.8,6.48,6.48,0,0,1-2,4.9A6.33,6.33,0,0,1,50.6,40.46Z" transform="translate(-5.6 -6.86)"/></svg>