<?xml version="1.0" encoding="utf-8"?>
<!-- Generator: Adobe Illustrator 23.0.3, SVG Export Plug-In . SVG Version: 6.00 Build 0)  -->
<svg version="1.1" id="Calque_1" xmlns="http://www.w3.org/2000/svg" xmlns:xlink="http://www.w3.org/1999/xlink" x="0px" y="0px"
	 viewBox="0 0 725.7 725.7" style="enable-background:new 0 0 725.7 725.7;" xml:space="preserve">
<style type="text/css">
	.st0{fill:#0D0A08;}
	.st1{fill:#DFAA4B;}
	.st2{fill:#E3AD4D;}
	.st3{fill:#F3F3F3;}
	.st4{fill:#FABE52;}
	.st5{fill:#C0CED8;}
	.st6{fill:#EB7C84;}
	.st7{fill:#8B99A3;}
	.st8{fill:#798892;}
	.st9{fill:#C3DADF;}
	.st10{fill:#E8E7E7;}
	.st11{fill:#090E0D;}
	.st12{fill:#0F1010;}
	.st13{fill:#65B19B;}
	.st14{fill:#020F0C;}
</style>
<g id="_x36_ptKmi.tif">
	<g>
		<path class="st0" d="M593.3,435.6c0.9,0.3,1.7,0.8,2.6,1c3.6,0.9,6.4,3.8,6.8,7.5c0.3,2.8,0.3,5.6,0.3,8.4c0,74,0,148,0.1,222.1
			c0,9.5-2.2,18.1-8.5,25.3c-6.9,7.9-15.6,12.5-26.3,12.5c-145.3,0-290.7,0-436,0c-15.9,0-30.4-12.7-33.5-26.9
			c-0.7-3.3-1.1-6.5-1.1-9.9c0-191,0-382,0-573c0-16.3,8.8-29.1,23.8-34.8c3.3-1.2,6.8-1.9,10.4-1.9c32.6,0,65.3-0.1,97.9,0
			c2.9,0,4.6-0.8,6.1-3.4c5.4-9.3,13.8-13.8,24.4-14.1c7.7-0.2,15.4-0.1,23.1,0c2.5,0,3.4-0.7,3.4-3.4c-0.1-5.6-0.5-11.2,1.6-16.6
			c3.4-8.7,9.4-14.3,18.2-17.4c3-1.1,6-1.2,9.1-1.2c23.3,0,46.6,0.2,69.9-0.1c15.8-0.2,28.4,12.6,28.9,28.1c0.1,2.6,0.2,5.2,0,7.8
			c-0.1,2.2,0.7,2.9,2.9,2.8c7.2-0.1,14.3,0,21.5,0c12,0,21.3,4.7,27,15.6c1,1.9,2.6,2,4.5,2c31.9,0,63.8,0.1,95.8-0.1
			c8.4,0,16,2,22.7,7c8.5,6.4,13.6,14.8,14.1,25.5c0.4,7.6,0.2,15.2,0.2,22.8c0,22.6,0,45.1,0,67.7c0,4.8-1.3,8.7-5.9,11.1
			c-1.4,0.7-2.9,0.5-4.2,1.1c-7.6-1.2-10.8-4.8-10.8-12.6c0-28.4-0.2-56.8,0.1-85.1c0.1-10.4-7.6-16.9-16.6-16.7
			c-19.5,0.4-39.1,0.1-58.6,0.1c-0.9,0-1.8,0.2-2.8,0.3c-3.9-0.6-7.8-0.3-11.7-0.2c-7.5,0.1-15.1-0.4-22.6,0.3
			c-1.7,0.4-1.1,1.8-1.1,2.8c-0.1,4.1,0,8.1,0,12.2c0,5.2,0,5.2,5,5.2c22.4,0,44.9,0,67.3-0.1c7.9,0,14,2.9,18.2,9.8
			c2.3,3.8,2.5,8.1,2.5,12.3c0,48.6,0,97.3,0,145.9c0,1.2,0,2.4,0,3.6c0.3,0.1,0.6,0.3,0.9,0.4c10.3-16.2,20.6-32.5,30.9-48.7
			c9-14.3,18-28.5,27.1-42.7c8.9-13.9,24-20.3,40.3-17.1c4.4,0.9,8.4,2.7,12.2,5.2c6.6,4.2,13.7,7.9,19.8,12.9
			c15.6,12.7,18.1,33.6,6.7,51.5c-24.3,38.1-48.4,76.4-72.6,114.6c-11.1,17.5-22.1,35-33.2,52.4c-0.5,0.8-1,1.6-1.2,2.5
			c-0.8,0.1-0.9,0.8-1.2,1.3c-9.2,14.5-18.3,29.1-27.6,43.6c-1.5,2.3-2.1,4.5-2.1,7.3c0.1,62,0,123.9,0,185.9c0,2.3,0,4.6-0.2,6.9
			c-0.6,6.9-6.1,13.3-12.6,15.6c-4.5,1.6-9,1-13.6,1.2c-8.9,0.2-17.9-0.3-26.8,0.3c-1.7-0.1-3.3-0.2-5-0.2c-113.6,0-227.1,0-340.7,0
			c-2.9,0-5.8,0-8.7,0c-1.8-1.4-4.2-1.6-6.2-2.6c-0.1-0.2-0.2-0.2-0.4-0.1c-4.6-3.7-7.7-8.4-9.1-14.2c0-2.1,0-4.2,0-6.2
			c0-172.6,0-345.3,0-517.9c0-2.1,0-4.2-0.1-6.2c0.9-2.5,1.7-5,2.6-7.5c0.2-0.1,0.2-0.2,0.1-0.3c2.1-2.1,4.3-4.3,6.4-6.4l0.2,0
			l0.1-0.1c2.1-0.9,4.1-1.7,6.2-2.6c1.2-0.1,2.5-0.1,3.7-0.2c0.1,0,0.2,0.1,0.3,0.1c23.8,0,47.5,0.1,71.3,0.1c1.8,0,2.3-0.8,2.3-2.5
			c0-5.3,0-10.6,0-15.9c0-1,0.2-2.3-1.6-1.9c-0.8-0.1-1.6-0.2-2.5-0.2c-31.1,0-62.2,0-93.2,0c-1.3,0-2.7,0.2-4,0.3
			c-1.1-0.3-1.9-0.1-2.5,0.9c-0.4,0.1-0.9,0.3-1.3,0.4c-1-0.1-1.6,0.4-2,1.3c-1.7,0.9-3.1,2.1-3.8,4c-0.7,0.3-1.2,0.8-1.1,1.6
			c-0.4,0.4-0.5,0.8-0.4,1.3c-1.2,1-1.4,2.3-1,3.7c-0.1,1.4-0.3,2.9-0.3,4.3c0,189.5,0,379.1,0,568.6c0,1.3,0.1,2.7,0.2,4
			c-0.4,1.6-0.3,3.1,1.1,4.3c-0.1,0.5,0,1,0.4,1.4c0,0.8,0.4,1.3,1.1,1.6c0.8,2,2.1,3.5,4.2,4.2c0.3,0.7,0.8,1.1,1.6,1.1
			c0.4,0.4,0.8,0.5,1.3,0.4c1,1.1,2.3,1.4,3.7,1.1c1.5,0.1,3.1,0.2,4.6,0.2c121.2,0,242.5,0,363.7,0c1.3,0,2.7-0.1,4-0.2
			c0.2,0.1,0.4,0.2,0.6,0.2c21.2,0,42.4,0.1,63.6-0.1c5.4-0.1,9.5-3.2,12.2-8c1.8-3.2,1.5-6.6,1.5-10c0-74.8,0-149.6,0-224.5
			C582.2,440.4,584.9,437.1,593.3,435.6z M457.4,618.1L457.4,618.1c-0.7,0.1-1.1,0.5-1.3,1.2l0.1,0.2l-0.1-0.2
			c-2.2,1-3.7,2.7-5.3,4.4c-0.7,0.2-1.1,0.7-1.5,1.3c-0.8,0-1.2,0.5-1.4,1.2c0.1,0.1,0.1,0.1,0.2,0.2c0-0.1-0.1-0.1-0.1-0.2
			c-2.3,1-4,2.6-5.6,4.5l0.1,0.1l-0.1-0.1c-0.7,0.1-1.1,0.5-1.4,1.1c0,0.1,0,0.1,0.1,0.2c0-0.1-0.1-0.1-0.1-0.2
			c-2.3,0.9-3.9,2.7-5.6,4.4c0.1,0,0.1,0.1,0.2,0.1c-0.1,0-0.1-0.1-0.2-0.1c-1.2,0.6-2.5,1.2-3.1,2.5l0.2,0.2l-0.1-0.2
			c-1.6,0.5-2.7,1.8-3.8,3l-0.1,0.1c-2.3,1.5-4.5,3-6.3,5.1c-0.5,0-0.8,0.2-0.9,0.7c-1.5,0.4-2.4,1.6-3.6,2.5
			c0.9,0.8,1.6,0.8,2.4,0.5c6.2,0.1,12.4,0.2,18.6,0.2c9.4,0,18.8-0.1,28.2-0.2c0.4,0.1,0.8,0.2,1.2,0.2c23.4,0,46.8,0,70.2,0.1
			c2.6,0,2.8-1.1,2.8-3.2c0-50.6,0-101.3,0-151.9c0-1.1,0.4-2.3-0.9-3.3c-0.7,1-1.4,2-2.1,3.1c-13.9,22-27.6,44-41.7,65.9
			c-11,17.1-21,34.9-33.5,51.1l0,0c-1.8,1.2-3.2,2.7-4.3,4.5l0,0C457.9,616.9,457.5,617.3,457.4,618.1z M465,433.5
			c0.1-0.2,0.2-0.5,0.3-0.7c0.4-0.3,0.9-0.6,1.1-1c24.3-38.4,48.6-76.7,72.8-115.1c1.3-2,1.8-4,1.8-6.4c0-59.6-0.1-119.3,0-178.9
			c0-2.8-0.8-3.5-3.5-3.5c-22.4,0.1-44.9,0.1-67.3,0.1c-0.9,0-1.8,0.1-2.8,0.2c-1-0.1-2.1-0.2-3.1-0.2c-100.3,0-200.7,0-301,0
			c-4,0-4,0-4,4.1c0,171.6,0,343.1-0.1,514.7c0,3,0.5,4,3.8,4c65.3-0.1,130.6-0.1,195.9-0.1c0.6,0,1.2,0,1.9,0
			c1.3,0,2.1-0.5,2.3-1.9c0.5-3.1,1.1-6.1,1.9-9.1c2.1-8.7,4.2-17.3,6.3-26c2.5-10.4,5-20.8,7.5-31.1c2.1-9,4.6-17.8,9.1-26
			c5.5-10.2,12.1-19.7,18.3-29.6c4.4-7.1,7.2-8.2,15.3-6.2c6.4,5.5,7.1,9.7,2.5,16.9c-2.5,4-5.1,7.8-7.5,11.8
			c-3.6,5.9-7.7,11.6-10.7,17.8c-1.3,2.8-1.1,3.1,2,3.9c2.9,0.7,5.8,1.6,8.6,2.8c2.4,1.1,3.6,0.4,4.9-1.7c6.2-10,12.6-20,18.9-29.9
			c19.3-30.4,38.6-60.9,57.9-91.3c27.4-43.2,54.7-86.4,82.1-129.7c9.6-15.2,19.3-30.4,29-45.6c1.7-2.6,1.5-4-1.4-5.5
			c-2.7-1.3-5.2-3.1-7.6-4.9c-2.1-1.5-3.2-1.2-4.5,1c-4.2,6.9-8.6,13.7-12.9,20.5c-25,39.5-49.9,79-74.9,118.4
			c-18.6,29.4-37.3,58.8-55.9,88.1c-1.3,2.1-2.9,3.9-5.2,5.2c-3.5,1.9-6.8,0.9-10.2-0.3c-0.2-0.3-0.4-0.7-0.7-1
			c-4.3-4.2-5-8.9-2-14.1c1.7-2.9,3.5-5.8,5.2-8.6c2.7-3.4,5-7.1,6.9-11l0.1-0.1c2.7-3.2,4.9-6.7,6.7-10.5l0.1-0.2
			c2.2-2.6,4.1-5.5,5.5-8.6l0.1-0.2c0.8-0.5,1.5-1.1,1.4-2.2l0-0.1C462,439.2,463.6,436.4,465,433.5z M350,107.1
			c31.5,0,63,0,94.5,0.1c2.7,0,3.6-0.8,3.6-3.5c-0.2-8.3,0-16.6-0.1-25c0-6.8-2.7-9.4-9.5-9.5c-9.7,0-19.3,0.1-29-0.2
			c-8.4-0.3-15.2-7.2-15.8-15.6c-0.3-4.7-0.2-9.3-0.3-14c-0.1-5.8-3.2-8.8-8.9-8.8c-22.9,0-45.7,0-68.6,0c-5.4,0-8.5,3-8.6,8.4
			c-0.1,4.1,0.1,8.1-0.1,12.2c-0.3,10.5-8,18-17.6,18.1c-9.6,0-19.1,0-28.7,0.1c-5.3,0-8.3,3-8.3,8.3c0,8.7,0.1,17.5-0.1,26.2
			c-0.1,2.8,0.9,3.4,3.6,3.4C287.4,107.1,318.7,107.1,350,107.1z M448,597c1.5-0.8,2.4-2.3,3.3-3.8c9.1-14.1,18.1-28.2,27.1-42.4
			c20.2-31.9,40.5-63.8,60.7-95.8c28.3-44.7,56.6-89.4,84.9-134.1c5.5-8.7,11-17.3,16.5-26c1.1-1.8,1.6-3.2-0.7-4.5
			c-2.4-1.3-4.6-2.8-6.8-4.3c-4.2-2.7-4.2-2.7-6.8,1.5c-24.7,39.1-49.5,78.2-74.2,117.3c-24.8,39.2-49.6,78.4-74.4,117.6
			c-12.9,20.4-25.9,40.7-38.8,61.1c-0.9,1.4-1.5,2.7,0.1,4.1c2.8,2.5,5.3,5.2,7.6,8.2C446.7,596.4,447.1,596.9,448,597z
			 M653.1,190.8c-5.6-0.2-10,1.8-13.1,6c-3.4,4.6-6.4,9.6-9.5,14.5c-0.7,1.1-0.9,2.1,0.6,3.1c13.6,8.5,27.1,17.2,40.6,25.8
			c1.5,1,2.7,1,3.8-0.9c2.4-4.1,5.3-7.9,7.7-12c5.4-9.5,3.2-18.3-6.1-24.4c-4.4-2.9-8.8-5.8-13.3-8.6
			C660.4,192.2,656.9,190.3,653.1,190.8z M384.6,647.7c0,0.3-0.4,1,0.4,1.3c0.7,0.3,1.1-0.4,1.6-0.8c14.6-11.7,29.1-23.3,43.7-35
			c1.5-1.2,1.2-2.4,0.2-3.7c-6.8-8.6-15.4-14.7-26-17.7c-6.3-1.8-6.1-1.6-7.6,4.8c-2.4,10.6-5.1,21.1-7.6,31.7
			C387.7,634.8,386.2,641.1,384.6,647.7z M652.7,274.1c0.9-0.2,1.5-0.8,1.9-1.5c2.3-3.8,4.6-7.6,7.1-11.3c1.1-1.6,0.8-2.4-0.8-3.4
			c-13.6-8.5-27.1-17.1-40.6-25.8c-2-1.3-2.8-0.5-3.8,1c-2.1,3.4-4.2,6.9-6.5,10.2c-1.3,1.9-1.2,3.1,1,4.4
			c13.3,8.3,26.6,16.8,39.8,25.3C651.4,273.5,652.1,273.8,652.7,274.1z"/>
		<path class="st1" d="M593.3,435.6c-8.4,1.5-11.1,4.8-11.1,13.5c0,74.8,0,149.6,0,224.5c0,3.4,0.2,6.9-1.5,10
			c-2.7,4.8-6.7,7.9-12.2,8c-21.2,0.2-42.4,0.1-63.6,0.1c-0.2,0-0.4-0.1-0.6-0.2c0.5-1.8,2-3,2.6-4.8c1.8-4.9,1.8-10,1.7-15.1
			c8.9-0.6,17.9,0,26.8-0.3c4.5-0.1,9.1,0.4,13.6-1.2c6.5-2.3,12-8.8,12.6-15.6c0.2-2.3,0.2-4.6,0.2-6.9c0-62,0-123.9,0-185.9
			c0-2.7,0.7-5,2.1-7.3c9.3-14.5,18.4-29,27.6-43.6c0.3-0.5,0.4-1.2,1.2-1.3c0.1,7.3,0.1,14.6,0.2,21.9
			C592.9,433,593.2,434.3,593.3,435.6z"/>
		<path class="st2" d="M593.7,230.4c-10.3,16.2-20.6,32.5-30.9,48.7c-0.3-0.1-0.6-0.3-0.9-0.4c0-1.2,0-2.4,0-3.6
			c0-48.6,0-97.3,0-145.9c0-4.3-0.2-8.5-2.5-12.3c-4.1-6.9-10.3-9.8-18.2-9.8c-22.4,0.1-44.9,0.1-67.3,0.1c-5,0-5,0-5-5.2
			c0-4.1,0-8.1,0-12.2c0-1-0.6-2.4,1.1-2.8c0,5.4,0.1,10.8,0,16.2c0,1.9,0.5,2.8,2.6,2.8c10.9-0.1,21.8-0.1,32.7,0
			c2.8,0,3.7-1.2,3.4-3.8c-0.5-5.3-1.3-10.6-4.4-15.2c0.9-0.1,1.8-0.3,2.8-0.3c19.5,0,39.1,0.2,58.6-0.1c9-0.2,16.7,6.4,16.6,16.7
			c-0.4,28.4-0.1,56.8-0.1,85.1c0,7.8,3.1,11.4,10.8,12.6c0,8.6,0,17.2,0,25.8C592.9,228.2,592.8,229.4,593.7,230.4z"/>
		<path class="st3" d="M458.3,443.9c0,0-0.1,0.2-0.1,0.2c-3.3,1.9-4.6,5.1-5.5,8.6c0,0-0.1,0.2-0.1,0.2c-3.8,2.5-5.6,6.3-6.7,10.5
			c0,0-0.1,0.1-0.1,0.1c-1.5-0.2-1.8,1.1-2.4,2c-1.3,1.9-2.4,4-3.7,5.9c-0.7,1-1.2,1.9-0.8,3.1c-1.7,2.9-3.5,5.7-5.2,8.6
			c-3,5.2-2.3,9.9,2,14.1c0.3,0.3,0.5,0.7,0.7,1c-2.3,3.6-4.5,7.4-6.9,10.9c-2.7,3.8-4.4,8.3-8.1,11.5c-8-2-10.8-0.9-15.3,6.2
			c-6.2,9.8-12.7,19.4-18.3,29.6c-4.4,8.2-7,17-9.1,26c-2.4,10.4-5,20.8-7.5,31.1c-2.1,8.7-4.2,17.3-6.3,26c-0.7,3-1.3,6.1-1.9,9.1
			c-0.2,1.4-1,2-2.3,1.9c-0.6,0-1.2,0-1.9,0c-65.3,0-130.6,0-195.9,0.1c-3.3,0-3.8-1-3.8-4c0.1-171.6,0.1-343.1,0.1-514.7
			c0-4.1,0-4.1,4-4.1c100.3,0,200.7,0,301,0c1,0,2.1,0.1,3.1,0.2c0,18.8,0,37.6,0,56.4c0,7,0.7,6.3-6.4,6.3c-31.6,0-63.2,0-94.8,0.1
			c-1.2,0-3-1-3.7,1.2c-0.9,0.1-1.7,0.2-2.6,0.3c-1.1-0.5-1.7-0.2-1.8,1l-0.2,0.1c-1.3-0.4-1.7,0.2-1.7,1.4c-0.3,0.3-0.6,0.7-0.9,1
			c-2.9,0.9-3.1,3.5-3.3,5.8c-0.3,2.9,0.4,5.6,3.2,7.2l0.1,0.1c-0.2,1.1,0,1.8,1.3,1.4l0,0c-0.4,2,0.9,1.5,2,1.4l0.2,0
			c0.1,1.3,0.6,1.9,1.8,0.9c0.6,0.1,1.3,0.2,1.9,0.3c0.9,1.6,2.4,0.9,3.6,0.9c32.3,0,64.6,0,97,0c4.2,0,4.2,0,4.2,4.2
			c0,67.2,0,134.5,0,201.7c0,4.1,0.9,8.3-2.3,11.8c-0.2,0.2,0,0.8,0.1,1.2c-0.1,0.2-0.2,0.5-0.3,0.7c-2.9,1.9-4.7,4.6-5.2,8
			c0,0,0,0.1,0,0.1C458.1,441.7,458.1,442.8,458.3,443.9z M322.9,224.3c0-13.2,0-26.4,0-39.6c0-0.4,0-0.8,0-1.2
			c-0.4-13.9-11.8-25.2-25.6-25.3c-26.8-0.1-53.6-0.1-80.5,0c-13.5,0.1-25.5,11.6-25.6,25.1c-0.2,27.2-0.2,54.5,0,81.7
			c0.1,13.4,12.1,24.9,25.4,24.9c27,0.1,54.1,0,81.1,0c3.3,0,6.4-0.7,9.3-2.1c10.5-4.9,15.9-13.2,15.9-24.9
			C322.9,250,322.9,237.2,322.9,224.3z M257.2,488.6c-13.2,0-26.4,0.2-39.6-0.1c-14.2-0.3-26.6,11.6-26.6,26.7
			c0,26.1-0.1,52.2,0,78.3c0,15.2,11.5,26.8,26.8,26.9c26.1,0.1,52.2,0,78.3,0c15.1,0,27-12.3,26.8-26.9
			c-0.2-26.1-0.1-52.2-0.1-78.3c0-2.3,0-4.6-0.6-6.8c-3.3-12.2-14.1-20.3-26.7-20C282.8,488.9,270,488.6,257.2,488.6z M322.9,389.5
			c0-13,0-26,0-39c0-0.2,0-0.4,0-0.6c0.4-13.9-10.6-26.5-26.2-26.6c-26.4-0.2-52.8-0.2-79.2,0c-15,0.1-26.3,11.7-26.4,26.6
			c-0.1,26.3,0,52.6,0,78.9c0,3.4,0.7,6.6,2,9.7c5,11.6,14.2,16.7,26.6,16.7c24.9,0,49.9,0,74.8,0c3.4,0,6.9-0.2,10.2-1.3
			c10.5-3.4,18.6-13.5,18.3-26.4C322.6,414.9,322.9,402.2,322.9,389.5z M406.5,378C406.5,378,406.5,378,406.5,378
			c10.3,0,20.6,0,30.9,0c4.4,0,8.7,0.2,13.1-0.2c6.4-0.4,10.6-7.1,8.5-13.1c-1.7-4.9-5.3-7.4-11-7.4c-15.2,0-30.4,0-45.5,0
			c-12.6,0-25.2,0-37.7,0c-5.1,0-9.5,3-10.6,7.1c-2.1,7.4,2.3,13.5,10,13.6C378.3,378,392.4,378,406.5,378z M395.9,400.4
			C395.9,400.4,395.9,400.4,395.9,400.4c-5.5,0-11-0.1-16.5,0c-5.8,0.1-11.6-0.5-17.4,0.3c-5.4,0.7-9.1,5.9-8.3,11.3
			c0.8,5.6,4.9,9.1,11.1,9.2c9.5,0.1,18.9,0,28.4,0c11.1,0,22.2,0.1,33.3,0c8.8-0.1,13.8-7.7,10.2-15.1c-2.1-4.2-5.7-5.7-10.2-5.7
			C416.2,400.4,406,400.4,395.9,400.4z M395.6,255.7C395.6,255.8,395.6,255.8,395.6,255.7c10.2,0,20.4,0,30.5,0
			c1.9,0,3.7,0.1,5.5-0.8c4.4-2.2,6.9-6.8,6.1-11.2c-0.9-4.8-5-8.6-10.1-8.7c-21.4-0.1-42.8-0.1-64.2,0c-2,0-3.8,0.8-5.5,2
			c-3.9,2.8-5.3,7-3.9,11.8c1.1,3.9,4.9,6.8,9.4,6.8C374.2,255.8,384.9,255.7,395.6,255.7z"/>
		<path class="st4" d="M508.7,671.6c0.1,5.1,0.1,10.2-1.7,15.1c-0.7,1.8-2.1,3-2.6,4.8c-1.3,0.1-2.7,0.2-4,0.2
			c-121.2,0-242.5,0-363.7,0c-1.5,0-3.1-0.2-4.6-0.2c-0.9-1.4-2.1-2-3.7-1.1c-0.5,0.1-1,0-1.3-0.4c0-1.1-0.6-1.4-1.6-1.1
			c-2-0.7-3.4-2.2-4.2-4.2c0.3-1,0-1.6-1.1-1.6c-0.4-0.4-0.5-0.8-0.4-1.4c0.9-1.7,0.5-3.2-1.1-4.3c-0.1-1.3-0.2-2.7-0.2-4
			c0-189.5,0-379.1,0-568.6c0-1.4,0.2-2.9,0.3-4.3c1.8-0.8,1.8-2.2,1-3.7c-0.1-0.5,0-1,0.4-1.3c1.1,0,1.4-0.6,1.1-1.6
			c0.6-1.9,2.1-3.1,3.8-4c1,0.2,2,0.2,2-1.3c0.4-0.1,0.9-0.3,1.3-0.4c1.3,1.1,2,0.2,2.5-0.9c1.3-0.1,2.7-0.3,4-0.3
			c31.1,0,62.2,0,93.2,0c0.8,0,1.6,0.1,2.5,0.2c0,5.1-0.1,10.2,0.1,15.3c0.1,3-0.8,3.8-3.8,3.8c-21.8-0.1-43.6-0.1-65.4,0
			c-1.1,0-2.6-0.7-3.3,1c-1.2,0.1-2.5,0.1-3.7,0.2c-2.9-1.1-4.7,0.5-6.2,2.6l-0.1,0.1c0,0-0.2,0-0.2,0c-3.5,0.8-5.6,2.9-6.4,6.4
			c0.1,0.2,0,0.3-0.1,0.3c-2.3,1.5-3.4,4.8-2.6,7.5c0,2.1,0.1,4.2,0.1,6.2c0,172.6,0,345.3,0,517.9c0,2.1,0,4.2,0,6.2
			c-1.6,2.2,0,4,0.9,5.7c1.9,3.5,3.5,7.6,8.2,8.5c0.2-0.1,0.3,0,0.4,0.1c1.5,2.1,3.5,3.3,6.2,2.6c2.9,0,5.8,0,8.7,0
			c113.6,0,227.1,0,340.7,0C505.4,671.4,507,671.5,508.7,671.6z"/>
		<path class="st3" d="M362.7,192.1c0.6-2.2,2.4-1.2,3.7-1.2c31.6-0.1,63.2,0,94.8-0.1c7.1,0,6.4,0.7,6.4-6.3c0-18.8,0-37.6,0-56.4
			c0.9-0.1,1.8-0.2,2.8-0.2c22.4,0,44.9,0,67.3-0.1c2.7,0,3.5,0.7,3.5,3.5c-0.1,59.6-0.1,119.3,0,178.9c0,2.4-0.6,4.4-1.8,6.4
			c-24.3,38.4-48.6,76.7-72.8,115.1c-0.3,0.4-0.7,0.7-1.1,1c0-0.4-0.3-1-0.1-1.2c3.2-3.5,2.3-7.7,2.3-11.8c0-67.2,0-134.5,0-201.7
			c0-4.2,0-4.2-4.2-4.2c-32.3,0-64.6,0-97,0c-1.2,0-2.8,0.8-3.6-0.9c0.5,0,1-0.1,1.5-0.1c35.1,0,70.2,0,105.3,0.1
			c7.2,0,14.3,0.1,21.5-0.1c4.3-0.1,7.6-2.3,9.3-6.2c1.6-3.5,1.3-7.1-1.1-10.3c-2.5-3.4-6.1-4.2-10.1-4.2
			c-41.1,0.1-82.3,0.1-123.4,0.1C364.8,192.3,363.7,192.2,362.7,192.1z"/>
		<path class="st5" d="M350,107.1c-31.3,0-62.6,0-93.9,0.1c-2.7,0-3.6-0.6-3.6-3.4c0.2-8.7,0-17.5,0.1-26.2c0-5.3,3-8.3,8.3-8.3
			c9.6-0.1,19.1-0.1,28.7-0.1c9.6,0,17.3-7.6,17.6-18.1c0.1-4.1,0-8.1,0.1-12.2c0.1-5.4,3.1-8.4,8.6-8.4c22.9,0,45.7,0,68.6,0
			c5.8,0,8.8,3,8.9,8.8c0.1,4.7,0,9.4,0.3,14c0.6,8.4,7.4,15.3,15.8,15.6c9.7,0.3,19.3,0.2,29,0.2c6.7,0,9.4,2.7,9.5,9.5
			c0,8.3-0.1,16.6,0.1,25c0.1,2.8-0.9,3.5-3.6,3.5C413,107.1,381.5,107.1,350,107.1z"/>
		<path class="st3" d="M462.9,612.3c12.5-16.1,22.5-34,33.5-51.1c14.1-21.8,27.8-43.9,41.7-65.9c0.6-1,1.4-2,2.1-3.1
			c1.3,1,0.9,2.2,0.9,3.3c0,50.6,0,101.3,0,151.9c0,2.1-0.2,3.2-2.8,3.2c-23.4-0.1-46.8,0-70.2-0.1c-0.4,0-0.8-0.1-1.2-0.2
			c0-13.3,0-26.7,0-40C464.9,610.7,464.7,612.8,462.9,612.3z"/>
		<path class="st6" d="M421.5,520.7c3.7-3.1,5.4-7.6,8.1-11.5c2.5-3.5,4.6-7.3,6.9-10.9c3.4,1.2,6.7,2.2,10.2,0.3
			c2.3-1.2,3.9-3.1,5.2-5.2c18.6-29.4,37.3-58.7,55.9-88.1c25-39.5,49.9-78.9,74.9-118.4c4.3-6.8,8.8-13.6,12.9-20.5
			c1.4-2.2,2.5-2.5,4.5-1c2.4,1.8,4.9,3.5,7.6,4.9c2.9,1.4,3.1,2.8,1.4,5.5c-9.7,15.2-19.4,30.4-29,45.6
			c-27.4,43.2-54.7,86.4-82.1,129.7c-19.3,30.4-38.6,60.9-57.9,91.3c-6.3,10-12.7,19.9-18.9,29.9c-1.3,2.1-2.5,2.8-4.9,1.7
			c-2.7-1.2-5.7-2-8.6-2.8c-3-0.8-3.3-1.1-2-3.9c3-6.3,7.1-11.9,10.7-17.8c2.4-4,5-7.8,7.5-11.8
			C428.5,530.4,427.9,526.1,421.5,520.7z"/>
		<path class="st6" d="M448,597c-0.9-0.1-1.3-0.6-1.7-1.1c-2.3-3-4.8-5.7-7.6-8.2c-1.6-1.4-1-2.7-0.1-4.1
			c12.9-20.4,25.9-40.7,38.8-61.1c24.8-39.2,49.6-78.4,74.4-117.6c24.7-39.1,49.5-78.2,74.2-117.3c2.7-4.2,2.7-4.2,6.8-1.5
			c2.3,1.5,4.5,3,6.8,4.3c2.3,1.3,1.9,2.8,0.7,4.5c-5.5,8.6-11,17.3-16.5,26c-28.3,44.7-56.6,89.4-84.9,134.1
			c-20.2,31.9-40.4,63.9-60.7,95.8c-9,14.2-18,28.3-27.1,42.4C450.4,594.7,449.4,596.2,448,597z"/>
		<path class="st7" d="M653.1,190.8c3.8-0.5,7.3,1.4,10.7,3.5c4.5,2.8,8.9,5.7,13.3,8.6c9.2,6,11.5,14.9,6.1,24.4
			c-2.4,4.1-5.2,8-7.7,12c-1.1,1.8-2.3,1.9-3.8,0.9c-13.5-8.6-27-17.2-40.6-25.8c-1.5-1-1.3-2-0.6-3.1c3.1-4.9,6.1-9.9,9.5-14.5
			C643.1,192.6,647.5,190.6,653.1,190.8z"/>
		<path class="st8" d="M384.6,647.7c1.6-6.6,3.1-13,4.6-19.3c2.5-10.6,5.3-21.1,7.6-31.7c1.4-6.4,1.3-6.6,7.6-4.8
			c10.6,3,19.2,9.1,26,17.7c1,1.3,1.4,2.5-0.2,3.7c-14.6,11.7-29.1,23.3-43.7,35c-0.5,0.4-0.8,1.1-1.6,0.8
			C384.2,648.8,384.6,648,384.6,647.7z"/>
		<path class="st9" d="M652.7,274.1c-0.6-0.3-1.2-0.6-1.8-1c-13.3-8.4-26.5-16.9-39.8-25.3c-2.2-1.4-2.3-2.5-1-4.4
			c2.2-3.4,4.4-6.8,6.5-10.2c1-1.6,1.8-2.4,3.8-1c13.5,8.7,27,17.2,40.6,25.8c1.6,1,1.9,1.8,0.8,3.4c-2.5,3.7-4.8,7.5-7.1,11.3
			C654.2,273.3,653.6,273.8,652.7,274.1z"/>
		<path class="st3" d="M462.9,612.3c1.7,0.5,2-1.6,4-1.9c0,13.3,0,26.7,0,40c-9.4,0.1-18.8,0.2-28.2,0.2c-6.2,0-12.4-0.1-18.6-0.2
			c0-1.2,1.4-1.7,1.2-3c0-0.6,0.3-0.8,0.9-0.7c2.9-0.8,5.6-1.7,6.3-5.1c0,0,0.1-0.1,0.1-0.1c2.2,0.2,3.4-0.9,3.8-3l0.1,0.2
			c0,0-0.2-0.2-0.2-0.2c2,0.4,3-0.5,3.1-2.5c0.1,0,0.1,0.1,0.2,0.1c-0.1,0-0.1-0.1-0.2-0.1c2.9-0.1,4.6-1.8,5.6-4.4
			c0,0.1,0.1,0.1,0.1,0.2c0-0.1,0-0.1-0.1-0.2c1.1,0.4,1.5-0.1,1.4-1.1l0.1,0.1c0,0-0.1-0.1-0.1-0.1c2.6-0.6,4.7-1.7,5.6-4.5
			c0,0.1,0.1,0.1,0.1,0.2c-0.1-0.1-0.1-0.1-0.2-0.2c1.1,0.3,1.5-0.2,1.4-1.2c0.4-0.6,0.8-1.1,1.5-1.3c2.7-0.4,4.8-1.3,5.3-4.4
			l0.1,0.2c0,0-0.1-0.2-0.1-0.2c1,0.3,1.5-0.2,1.3-1.2c0,0,0,0,0,0c1,0.2,1.4-0.2,1.3-1.3c0,0,0,0,0,0
			C461,616.3,462.7,615,462.9,612.3L462.9,612.3z"/>
		<path class="st4" d="M504.3,87c3.1,4.6,3.9,9.8,4.4,15.2c0.2,2.6-0.7,3.9-3.4,3.8c-10.9-0.1-21.8-0.1-32.7,0
			c-2.1,0-2.6-0.8-2.6-2.8c0.1-5.4,0-10.8,0-16.2c7.5-0.7,15.1-0.2,22.6-0.3C496.5,86.8,500.4,86.4,504.3,87z"/>
		<path class="st1" d="M158,107c0.7-1.7,2.1-1,3.3-1c21.8,0,43.6-0.1,65.4,0c3,0,3.9-0.8,3.8-3.8c-0.3-5.1-0.1-10.2-0.1-15.3
			c1.8-0.4,1.6,0.9,1.6,1.9c0,5.3,0,10.6,0,15.9c0,1.6-0.5,2.5-2.3,2.5c-23.8-0.1-47.5-0.1-71.3-0.1C158.2,107.1,158.1,107,158,107z
			"/>
		<path class="st1" d="M147.7,668.6c-4.7-0.9-6.2-5-8.2-8.5c-0.9-1.6-2.5-3.5-0.9-5.7C140,660.2,143.1,664.9,147.7,668.6z"/>
		<path class="st10" d="M446,463.4c1.1-4.2,2.9-8,6.7-10.5C450.8,456.6,448.7,460.2,446,463.4z"/>
		<path class="st10" d="M439,474.5c-0.4-1.2,0.1-2.1,0.8-3.1c1.3-1.9,2.4-4,3.7-5.9c0.6-0.9,1-2.2,2.4-2
			C444,467.5,441.7,471.1,439,474.5z"/>
		<path class="st10" d="M452.8,452.7c0.9-3.5,2.1-6.7,5.5-8.6C456.8,447.3,455,450.1,452.8,452.7z"/>
		<path class="st10" d="M459.8,441.6c0.5-3.5,2.3-6.1,5.2-8C463.6,436.4,462,439.2,459.8,441.6z"/>
		<path class="st1" d="M141.4,116.3c0.8-3.5,2.9-5.6,6.4-6.4C145.6,112,143.5,114.1,141.4,116.3z"/>
		<path class="st10" d="M428.5,641.6c-0.7,3.4-3.4,4.4-6.3,5.1C423.9,644.6,426.2,643.1,428.5,641.6z"/>
		<path class="st1" d="M138.6,124.1c-0.8-2.6,0.4-5.9,2.6-7.5C140.4,119.1,139.5,121.6,138.6,124.1z"/>
		<path class="st10" d="M441,631.6c-0.9,2.6-2.6,4.3-5.6,4.4C437.1,634.3,438.7,632.6,441,631.6z"/>
		<path class="st10" d="M447.9,626c-0.8,2.8-3,3.8-5.6,4.5C443.9,628.7,445.7,627,447.9,626z"/>
		<path class="st10" d="M456.1,619.2c-0.4,3-2.6,4-5.3,4.4C452.4,621.9,453.9,620.2,456.1,619.2z"/>
		<path class="st1" d="M154.3,671.3c-2.7,0.7-4.7-0.4-6.2-2.6C150.1,669.7,152.5,669.9,154.3,671.3z"/>
		<path class="st1" d="M148.1,109.8c1.6-2.1,3.3-3.7,6.2-2.6C152.3,108.1,150.2,108.9,148.1,109.8z"/>
		<path class="st10" d="M462.9,612.3c-0.2,2.6-1.9,3.9-4.3,4.5C459.7,615,461.1,613.5,462.9,612.3z"/>
		<path class="st1" d="M118.5,677.4c1.6,1.1,1.9,2.6,1.1,4.3C118.2,680.6,118.2,679.1,118.5,677.4z"/>
		<path class="st10" d="M421.3,647.5c0.2,1.3-1.2,1.8-1.2,3c-0.8,0.3-1.5,0.3-2.4-0.5C418.9,649,419.8,647.9,421.3,647.5z"/>
		<path class="st1" d="M119.6,96.7c0.8,1.5,0.8,2.9-1,3.7C118.1,99,118.4,97.7,119.6,96.7z"/>
		<path class="st1" d="M128.2,690.5c1.6-1,2.8-0.4,3.7,1.1C130.5,691.9,129.2,691.6,128.2,690.5z"/>
		<path class="st10" d="M432.4,638.5c-0.4,2.1-1.6,3.2-3.8,3C429.6,640.3,430.7,639.1,432.4,638.5z"/>
		<path class="st10" d="M435.4,636c-0.1,2-1.1,2.9-3.1,2.5C433,637.2,434.2,636.7,435.4,636z"/>
		<path class="st1" d="M130.7,87.1c-0.5,1.1-1.2,2-2.5,0.9C128.8,87.1,129.6,86.8,130.7,87.1z"/>
		<path class="st1" d="M126.8,88.4c0,1.4-1,1.4-2,1.3C125.2,88.9,125.8,88.3,126.8,88.4z"/>
		<path class="st10" d="M458.3,443.9c-0.2-1.2-0.3-2.2,1.4-2.2C459.8,442.8,459.1,443.4,458.3,443.9z"/>
		<path class="st10" d="M457.4,618c0.1,1-0.3,1.5-1.3,1.2C456.3,618.6,456.7,618.1,457.4,618z"/>
		<path class="st10" d="M458.7,616.8c0.1,1-0.3,1.4-1.3,1.3C457.5,617.3,457.9,616.9,458.7,616.8z"/>
		<path class="st10" d="M449.3,624.9c0,1-0.3,1.5-1.4,1.2C448.2,625.4,448.6,624.9,449.3,624.9z"/>
		<path class="st10" d="M442.4,630.5c0.2,1.1-0.3,1.5-1.4,1.1C441.3,631,441.7,630.5,442.4,630.5z"/>
		<path class="st1" d="M121,93.7c0.3,1,0,1.6-1.1,1.6C119.9,94.5,120.3,94,121,93.7z"/>
		<path class="st1" d="M119.9,683.1c1.1,0,1.4,0.6,1.1,1.6C120.4,684.4,119.9,684,119.9,683.1z"/>
		<path class="st1" d="M125.2,689c1-0.3,1.6,0,1.6,1.1C126,690.1,125.5,689.6,125.2,689z"/>
		<path class="st11" d="M322.9,224.3c0,12.9,0,25.8,0,38.7c0,11.7-5.5,19.9-15.9,24.9c-2.9,1.4-6,2.1-9.3,2.1c-27,0-54.1,0.1-81.1,0
			c-13.3,0-25.3-11.5-25.4-24.9c-0.3-27.2-0.2-54.5,0-81.7c0.1-13.5,12.1-25,25.6-25.1c26.8-0.1,53.6-0.1,80.5,0
			c13.9,0,25.2,11.4,25.6,25.3c0,0.4,0,0.8,0,1.2C322.9,197.9,322.9,211.1,322.9,224.3z M257,269.1c12.8,0,25.6,0,38.4,0
			c4.8,0,6.7-2,6.7-6.8c0-25.5,0-50.9,0-76.4c0-5-2-7-7-7c-25.4,0-50.7,0-76.1,0c-5,0-7.2,2.2-7.2,7.2c0,25.3,0,50.5,0,75.8
			c0,5.2,2.1,7.2,7.4,7.2C231.8,269.1,244.4,269.1,257,269.1z"/>
		<path class="st11" d="M257.2,488.6c12.8,0,25.6,0.3,38.4-0.1c12.6-0.3,23.4,7.8,26.7,20c0.6,2.2,0.6,4.5,0.6,6.8
			c0,26.1-0.2,52.2,0.1,78.3c0.1,14.6-11.7,26.9-26.8,26.9c-26.1,0-52.2,0.1-78.3,0c-15.3-0.1-26.8-11.7-26.8-26.9
			c-0.1-26.1,0-52.2,0-78.3c0-15.1,12.4-27,26.6-26.7C230.8,488.8,244,488.6,257.2,488.6z M257.1,509.4c-12.9,0-25.8,0-38.7,0
			c-4.3,0-6.6,2.1-6.6,6.4c0,25.7,0,51.3,0,77c0,4.4,2.4,6.7,6.8,6.7c25.6,0,51.1,0,76.7,0c4.8,0,6.8-2.1,6.8-6.9
			c0-25.6,0-51.1,0-76.7c0-4.7-1.9-6.6-6.6-6.6C282.6,509.4,269.9,509.4,257.1,509.4z"/>
		<path class="st12" d="M322.9,389.5c0,12.7-0.3,25.4,0.1,38c0.3,12.9-7.8,23-18.3,26.4c-3.3,1.1-6.7,1.3-10.2,1.3
			c-24.9,0-49.9,0-74.8,0c-12.4,0-21.6-5.1-26.6-16.7c-1.3-3-2-6.3-2-9.7c0-26.3-0.1-52.6,0-78.9c0.1-14.9,11.4-26.5,26.4-26.6
			c26.4-0.2,52.8-0.2,79.2,0c15.6,0.1,26.7,12.8,26.2,26.6c0,0.2,0,0.4,0,0.6C322.9,363.5,322.9,376.5,322.9,389.5z M302.1,389.4
			c0-12.8,0-25.6,0-38.4c0-4.9-1.6-6.7-6.4-6.7c-25.7,0-51.4,0-77,0c-4.7,0-6.8,2.1-6.8,6.9c0,25.4,0,50.7,0,76.1
			c0,4.8,2,6.9,6.8,6.9c25.6,0,51.1,0,76.7,0c5.1,0,6.7-1.7,6.8-6.8C302.1,414.7,302.1,402.1,302.1,389.4z"/>
		<path class="st11" d="M362.7,192.1c1,0.1,2.1,0.1,3.1,0.1c41.1,0,82.3,0,123.4-0.1c4.1,0,7.6,0.8,10.1,4.2
			c2.3,3.2,2.6,6.8,1.1,10.3c-1.7,3.9-5,6.1-9.3,6.2c-7.2,0.1-14.3,0.1-21.5,0.1c-35.1,0-70.2,0-105.3-0.1c-0.5,0-1,0.1-1.5,0.1
			c-0.6-0.1-1.3-0.2-1.9-0.3c-0.4-0.8-1-1-1.8-0.9c0,0-0.2,0-0.2,0c-0.5-0.6-1-1.3-2-1.4c0,0,0,0,0,0c-0.1-0.7-0.6-1.2-1.3-1.4
			c0,0-0.1-0.1-0.1-0.1c-2.3-4.3-2.3-8.7,0.1-13c0.3-0.3,0.6-0.7,0.9-1c0.8-0.1,1.3-0.8,1.7-1.4c0,0,0.2-0.1,0.2-0.1
			c0.9,0.1,1.4-0.3,1.8-1C361,192.3,361.9,192.2,362.7,192.1z"/>
		<path class="st12" d="M406.5,378c-14.1,0-28.3,0.1-42.4,0c-7.7-0.1-12.1-6.2-10-13.6c1.2-4.1,5.5-7.1,10.6-7.1
			c12.6,0,25.2,0,37.7,0c15.2,0,30.4,0,45.5,0c5.7,0,9.3,2.5,11,7.4c2.1,6-2.1,12.7-8.5,13.1c-4.3,0.3-8.7,0.1-13.1,0.2
			C427.1,378,416.8,378,406.5,378C406.5,378,406.5,378,406.5,378z"/>
		<path class="st12" d="M395.9,400.4c10.2,0,20.4,0,30.5,0c4.5,0,8.2,1.5,10.2,5.7c3.7,7.4-1.4,15-10.2,15.1
			c-11.1,0.1-22.2,0-33.3,0c-9.5,0-18.9,0.1-28.4,0c-6.2-0.1-10.3-3.6-11.1-9.2c-0.8-5.4,2.8-10.6,8.3-11.3
			c5.8-0.8,11.6-0.2,17.4-0.3C384.8,400.3,390.3,400.4,395.9,400.4C395.9,400.4,395.9,400.4,395.9,400.4z"/>
		<path class="st12" d="M395.6,255.7c-10.7,0-21.4,0.1-32.1,0c-4.5,0-8.3-2.9-9.4-6.8c-1.4-4.9,0-9.1,3.9-11.8c1.6-1.2,3.5-2,5.5-2
			c21.4,0,42.8-0.1,64.2,0c5,0,9.1,3.8,10.1,8.7c0.8,4.4-1.7,9-6.1,11.2c-1.8,0.9-3.6,0.8-5.5,0.8
			C416,255.8,405.8,255.8,395.6,255.7C395.6,255.8,395.6,255.8,395.6,255.7z"/>
		<path class="st10" d="M355.5,195.9c-2.4,4.3-2.4,8.6-0.1,13c-2.8-1.6-3.6-4.3-3.2-7.2C352.4,199.5,352.7,196.9,355.5,195.9z"/>
		<path class="st10" d="M359,211.9c0.8-0.1,1.5,0.1,1.8,0.9C359.6,213.8,359.1,213.2,359,211.9z"/>
		<path class="st10" d="M356.9,210.5c0.9,0.1,1.4,0.8,2,1.4C357.7,212,356.4,212.5,356.9,210.5z"/>
		<path class="st10" d="M358.2,193.6c-0.4,0.6-0.9,1.3-1.7,1.4C356.4,193.8,356.9,193.2,358.2,193.6z"/>
		<path class="st10" d="M355.5,209c0.7,0.2,1.2,0.6,1.3,1.4C355.5,210.9,355.2,210.2,355.5,209z"/>
		<path class="st10" d="M360.2,192.5c-0.4,0.7-0.9,1.1-1.8,1C358.5,192.3,359.1,192,360.2,192.5z"/>
		<path class="st13" d="M257,269.1c-12.6,0-25.2,0-37.7,0c-5.3,0-7.4-2-7.4-7.2c0-25.3,0-50.5,0-75.8c0-5,2.2-7.2,7.2-7.2
			c25.4,0,50.7,0,76.1,0c4.9,0,7,2,7,7c0,25.5,0,50.9,0,76.4c0,4.8-2,6.8-6.7,6.8C282.5,269.1,269.8,269.1,257,269.1z M224.8,224.6
			c0.2,1.1,0.1,2.8,1.1,4.3c4.4,6.4,8.7,12.9,13.8,18.7c6.3,7.1,16.4,6.7,22.2-0.8c8.8-11.6,17.3-23.3,25.8-35.1
			c3.2-4.5,2.1-10.5-2.2-13.9c-5.4-4.2-11.5-2.9-16.2,3.7c-5.7,7.8-11.4,15.6-17,23.4c-1.4,1.9-2.3,1.9-3.6,0
			c-1.9-2.7-3.8-5.4-6-7.9c-3-3.4-7.5-4.2-11.7-2.5C227.1,216,224.8,219.7,224.8,224.6z"/>
		<path class="st13" d="M257.1,509.4c12.8,0,25.6,0,38.3,0c4.7,0,6.6,1.9,6.6,6.6c0,25.6,0,51.1,0,76.7c0,4.8-2,6.9-6.8,6.9
			c-25.6,0-51.1,0-76.7,0c-4.4,0-6.8-2.4-6.8-6.7c0-25.7,0-51.3,0-77c0-4.3,2.2-6.4,6.6-6.4C231.3,509.4,244.2,509.4,257.1,509.4z
			 M224.8,555c-0.2,1.7,0.5,3.8,1.8,5.6c4.1,5.7,8.1,11.6,12.5,17c5.8,7.2,16.6,7.4,22.2,0.1c9.1-11.7,17.7-23.7,26.4-35.7
			c3.1-4.4,2.2-9.7-1.6-13.2c-4.7-4.4-11.3-3.9-15.5,1.6c-6.2,7.9-12,16.1-17.9,24.2c-2.3,3.1-2.2,3.2-4.5,0c-1.7-2.3-3.3-4.6-5-6.7
			c-2.9-3.6-7.4-4.6-11.8-3C227.3,546.2,224.8,549.9,224.8,555z"/>
		<path class="st13" d="M302.1,389.4c0,12.7,0,25.4,0,38c0,5.1-1.6,6.8-6.8,6.8c-25.6,0-51.1,0-76.7,0c-4.7,0-6.8-2.1-6.8-6.9
			c0-25.4,0-50.7,0-76.1c0-4.8,2-6.9,6.8-6.9c25.7,0,51.4,0,77,0c4.8,0,6.4,1.8,6.4,6.7C302.1,363.8,302.1,376.6,302.1,389.4z
			 M235,382.4c-3.8,0.2-7.1,1.7-9,5.4c-2,3.8-1.8,7.7,0.7,11.2c4,5.7,8,11.4,12.4,16.8c6.3,7.8,16.6,7.9,22.8-0.1
			c8.9-11.5,17.3-23.3,25.8-35.1c3-4.2,2.6-8.9-0.7-12.6c-4.7-5.3-12-4.9-16.6,1.1c-6,7.9-11.8,16-17.7,24c-2.1,2.9-2.2,2.9-4.2,0.1
			c-1.7-2.2-3.3-4.5-5-6.7C241.3,383.8,238.5,382.6,235,382.4z"/>
		<path class="st14" d="M224.8,224.6c0-4.9,2.3-8.6,6.1-10.2c4.2-1.7,8.6-0.9,11.7,2.5c2.2,2.5,4.1,5.2,6,7.9c1.3,1.9,2.3,1.9,3.6,0
			c5.6-7.8,11.4-15.6,17-23.4c4.7-6.5,10.8-7.9,16.2-3.7c4.4,3.4,5.5,9.4,2.2,13.9c-8.5,11.8-17,23.5-25.8,35.1
			c-5.7,7.6-15.8,7.9-22.2,0.8c-5.2-5.8-9.4-12.4-13.8-18.7C224.9,227.4,225,225.7,224.8,224.6z"/>
		<path class="st14" d="M224.8,555c0-5.1,2.5-8.7,6.5-10.2c4.4-1.6,8.9-0.5,11.8,3c1.8,2.2,3.4,4.5,5,6.7c2.4,3.2,2.3,3.2,4.5,0
			c5.9-8.1,11.8-16.3,17.9-24.2c4.2-5.5,10.8-6,15.5-1.6c3.9,3.6,4.8,8.9,1.6,13.2c-8.6,12-17.3,24-26.4,35.7
			c-5.6,7.3-16.4,7.1-22.2-0.1c-4.4-5.5-8.4-11.3-12.5-17C225.3,558.7,224.6,556.7,224.8,555z"/>
		<path class="st14" d="M235,382.4c3.5,0.2,6.2,1.4,8.3,4.1c1.7,2.2,3.4,4.5,5,6.7c2.1,2.8,2.1,2.8,4.2-0.1c5.9-8,11.7-16.1,17.7-24
			c4.6-6,11.9-6.4,16.6-1.1c3.3,3.7,3.7,8.4,0.7,12.6c-8.5,11.8-16.9,23.6-25.8,35.1c-6.1,8-16.5,7.9-22.8,0.1
			c-4.4-5.4-8.4-11.1-12.4-16.8c-2.4-3.5-2.6-7.4-0.7-11.2C227.9,384.1,231.2,382.6,235,382.4z"/>
	</g>
</g>
</svg>
