<svg id="Calque_1" data-name="Calque 1" xmlns="http://www.w3.org/2000/svg" viewBox="0 0 701.01 669.13"><defs><style>.cls-1{fill:#0a0a0c;}.cls-2{fill:#f9ccc0;}.cls-3{fill:#e9f5fd;}.cls-4{fill:#eaf6fe;}.cls-5{fill:#5a85c4;}.cls-6{fill:#c8e5f4;}.cls-7{fill:#f4ae9f;}.cls-8{fill:#c5e1f0;}.cls-9{fill:#fed067;}.cls-10{fill:#a1d9f0;}.cls-11{fill:#47b;}.cls-12{fill:#f8be51;}.cls-13{fill:#74c8e8;}.cls-14{fill:#030406;}</style></defs><title>icon-souscription</title><path class="cls-1" d="M315,687.87c-1.46,6.55-5.76,9.47-13.18,9.29-10-.26-20.06,0-30.09-.09-7.48-.07-11.51-3.52-11.61-10.37-.19-12.85-.23-25.7,0-38.54a11.08,11.08,0,0,0-4.85-10.07c-12.26-9.36-24.47-18.8-36.18-28.72-23.32-19.75-32.58-43.89-28.06-73,4.34-28,7-56.13,10.7-84.17,1.45-10.93,1.46-22.11,6.39-33.48H179.26c-10.87,0-14.42-3.21-14.46-13.33-.06-20.25-.24-40.51.13-60.75.09-5.46-1-7.25-7.58-7.19-43,.33-86,.17-129,.16-11.78,0-15.32-3.18-15.32-14q0-124.77,0-249.55c0-10.56,3.31-13.46,15-13.46,42.76,0,85.52-.23,128.27.2,7.64.07,9.45-2.07,8.6-8.29-.48-3.43.14-7-.14-10.44-.46-5.83,1.62-10.5,6.71-14.05H551.29c4.81,4.31,6.38,9.53,5.77,15.6-.41,4.11.19,8.29-.16,12.41-.32,3.79,1.23,4.7,5.21,4.64,14.09-.2,28.18-.08,42.28-.08q47.65,0,95.31,0c10.74,0,14.28,3,14.29,12.74q.07,125.76,0,251.53c0,9.14-4,12.74-13.84,12.75q-50.52.06-101,0c-8.58,0-11.73-2.5-13.62-10.34,1-4.67,3.65-8.05,8.86-9.44,30.06,0,60.12-.18,90.17.22,6.59.09,7.69-1.74,7.67-7.25-.22-61.33-.14-122.66-.14-184a32.19,32.19,0,0,1,0-3.26c.27-2.77-.94-3.9-4.09-3.79-7.37.25-14.76.27-22.14.38l-2.8,0Q611,120,559,119.87c-.53,0-1.05.62-1.58,1-.14,2.37-.42,4.74-.42,7.11q0,78.51,0,157c0,14.11.17,28.22.26,42.33q-.12,39.15-.25,78.3c0,10-3.44,13.14-14.5,13.16H523.35c2.18,8.93,4.55,17.45,6.33,26.07,7.48,36.16,3.78,71.63-7.62,106.76-9,27.78-17.21,55.79-25.91,83.65a23.15,23.15,0,0,0-.88,7.06c0,14.15,0,28.29,0,42.43,0,8.79-3.89,12.35-13.3,12.35-41.52,0-83.05,0-124.57.07-6.61,0-11-2.15-12.74-8.09.68-8.72,3.89-11.55,13.31-11.58q45.06-.12,90.13-.21c4.05.07,8.09.19,12.14.2,13.22,0,13,0,13.29-12.31.29-11.26-1.91-22.7,1.35-33.75,6.91-23.4,14.37-46.65,21.48-70,6.35-20.86,13.06-41.58,15-63.39,3.43-38.61-9.35-74.63-20.22-111-3.11-10.38-15.33-13.53-25.87-7.61-5.91,2.73-6.89,7.71-7.61,13.06-.79,5.86-5.1,8.94-11.38,8.62s-10-3.69-10.16-9.73c-.07-2.83,0-5.66-.1-8.49-.41-8.82-4.07-13-13.37-15.36C408.78,364,400,369.17,397.68,382.2q-1.73,9.51-11.57,9.18c-6.56-.23-9.82-3.45-10.11-10.28-.22-5.21.26-10.49-.41-15.64-1.21-9.29-9.12-14.26-20.72-13.61-10.43.59-17,6.51-17.27,15.64-.09,3.26.19,6.55-.2,9.78-.75,6.2-5.2,10.11-11,10.06s-9.94-4.05-10.51-10.32c-.22-2.38-.18-4.78-.19-7.17q0-56.18,0-112.34a42.34,42.34,0,0,0-.79-9.07c-1.44-6.54-7.22-11-14.44-11.61-11.29-.92-18.69,5.86-18.7,17.32q0,129,0,258c0,2.39.32,4.88-.31,7.15-1.46,5.18-5.09,8.37-11.34,7.92s-9.38-3.76-9.87-9.27c-.24-2.6-.22-5.21-.32-7.82.08-24.78.42-49.57.13-74.34-.15-12.54-11.49-19-24.11-14.44-7,2.3-9.27,7.5-10,13.65-4.17,32.58-7.29,65.32-12.87,97.7-4.82,27.93,3.91,49.92,27.49,67.7,11.95,9,23.43,18.53,35.26,27.68,4.35,3.36,6.22,7.27,6.08,12.5-.28,10.88.07,21.76-.17,32.64-.08,3.46,1,4.57,4.8,4.35,5-.29,10-.1,15-.07C310.21,677.54,313,679.74,315,687.87ZM127,80.52c-29.12-.08-58.23,0-87.34-.33-6.35-.07-5.37,3.84-4.45,6.33C36.88,91,29.7,99.6,39.64,99.84c30.52.73,61.08.11,91.62,0,5.94.1,11.88.27,17.81.28,16.94,0,16.81,0,16.29-15.47-.11-3.34-1-4.53-4.82-4.44C149.37,80.49,138.19,80.44,127,80.52ZM665.89,99.85c3.33.1,6.66.29,10,.29,16.78,0,16.67,0,16.25-15.44-.09-3.25-.75-4.64-4.7-4.48-8.09.32-16.21.22-24.32.29-34.08-.07-68.16-.07-102.24-.27-6.23,0-4.37,4.31-3.68,6.27,1.59,4.49-5.2,13,3.62,13.25C595.81,100.59,630.86,99.94,665.89,99.85ZM415.21,299.39c6.17.08,12.34.37,18.5.2,7.65-.21,11.37-3.68,11.54-10.47q.19-8.44,0-16.89c-.16-6.54-3.9-10.12-10.88-10.28-5.93-.13-11.87.11-17.8.18-24.79-.07-49.58-.11-74.37-.26-3,0-4.83.24-4.76,3.75.29,14.55.28,29.11.38,43.66v25.37a4,4,0,0,0,1.4.16c23.7-6.69,38.35-2.66,53,15,1.91,2.3,3.13,1.54,5.12.76,19.76-7.7,37.15-4.45,51.91,9.69,1.45,1.39,2.23,3.1,5.1,1.52,14.28-7.84,28.51-6.4,42.56.73,9.86,6.7,14.95,15.83,17.42,26.68,2.3,10.06,2.74,9.69,14.14,10.07,5.59.19,7-1.22,7-6.38q-.28-133.24,0-266.49c0-5.55-1.79-6.71-7.58-6.7q-166.94.23-333.88.15c-2.17,0-4.74-1.16-6.61,1a17.53,17.53,0,0,0-.58,3.16q0,135.24-.16,270.48c0,4.49,1.91,4.77,5.82,4.74,20.31-.14,40.62-.31,60.92.09,6,.12,6.82-1.79,6.8-6.58q-.25-70.23-.06-140.46c0-16.89,12.72-31.39,29.74-34.64,18.46-3.53,35.89,4.19,43.61,19.86,1.9,3.86,4.06,4.88,8.46,4.86q46.23-.27,92.45-.06c19,.08,32.15,12.3,32.38,29.67.07,5.44,0,10.89,0,16.33-.13,18.8-13.45,31-34,31.06-17.44.05-34.88,0-52.32,0-10.16,0-12.34-1.43-15.63-10.07,1.74-7.37,6.83-10,14.91-9.75C391.59,299.85,403.4,299.47,415.21,299.39ZM492.55,47.86a6,6,0,0,0-.71-.09q-150.06-.06-300.11-.2c-4.5,0-4.91,1.72-4.88,5,.16,13.49.4,27-.09,40.47-.21,5.73,1.41,7.18,7.79,7.16q148.62-.3,297.25-.15c2.14,0,4.28-.17,6.42-.26,10.94.09,21.87.09,32.81.31,3.46.07,4.45-1.11,4.43-4.16q-.21-22.12,0-44.24c0-3-.89-4.21-4.39-4.15C518.23,47.81,505.39,47.79,492.55,47.86Zm-457,73a38.09,38.09,0,0,0-.51,4.49q0,93.5,0,187a42.85,42.85,0,0,0,.45,4.5c.9,2.05,2.87,1.08,4.31,1.08,39.89.06,79.77-.08,119.66.15,5.82,0,5.83-2.45,5.83-6.33q-.12-92.76.07-185.51c0-5.17-1.48-6.55-7.15-6.52-38.93.22-77.86.08-116.79.16C39.49,119.85,37.13,118.73,35.55,120.83Z" transform="translate(-13.02 -28.04)"/><path class="cls-2" d="M448.06,677.27q-45.07.11-90.13.21c-9.42,0-12.63,2.86-13.31,11.58-9.78-2.62-19.78-.62-29.66-1.19-1.92-8.13-4.75-10.33-13.46-10.39-5,0-10-.22-15,.07-3.78.22-4.88-.89-4.8-4.35.24-10.88-.11-21.76.17-32.64.14-5.23-1.73-9.14-6.08-12.5-11.83-9.15-23.31-18.67-35.26-27.68-23.58-17.78-32.31-39.77-27.49-67.7,5.58-32.38,8.7-65.12,12.87-97.7.78-6.15,3-11.35,10-13.65,5.93,4.67,7,11.1,7.11,17.61.27,11,.48,22.11,0,33.14-.68,15.14,4.06,28,16.89,38,.1,2.61.08,5.22.32,7.82.49,5.51,3.74,8.82,9.87,9.27s9.88-2.74,11.34-7.92c.63-2.27.31-4.76.31-7.15q0-129,0-258c0-11.46,7.41-18.24,18.7-17.32,7.22.59,13,5.07,14.44,11.61a42.34,42.34,0,0,1,.79,9.07q.09,56.16,0,112.34c0,2.39,0,4.79.19,7.17.57,6.27,4.72,10.27,10.51,10.32s10.22-3.86,11-10.06c.39-3.23.11-6.52.2-9.78.28-9.13,6.84-15.05,17.27-15.64,11.6-.65,19.51,4.32,20.72,13.61.67,5.15.19,10.43.41,15.64.29,6.83,3.55,10,10.11,10.28s10.42-2.84,11.57-9.18c2.35-13,11.1-18.18,24.92-14.66,9.3,2.37,13,6.54,13.37,15.36.13,2.83,0,5.66.1,8.49.14,6,3.87,9.41,10.16,9.73s10.59-2.76,11.38-8.62c.72-5.35,1.7-10.33,7.61-13.06,4.1,14.44,7.86,29,12.37,43.31,10.82,34.36,13.29,69.18,4.62,104-6.78,27.19-15.63,54-24.2,80.76-5.42,16.94-10.34,33.76-8.62,51.68C450,665.19,450,671.33,448.06,677.27Z" transform="translate(-13.02 -28.04)"/><path class="cls-3" d="M663,120.15l2.8,0q.06,90,0,180c0,3.42-.94,6.86-1.62,10.25-.88,4.34-3.11,6.56-8.72,6.44-17.88-.36-35.77-.16-53.66-.09-2.53,0-5.28-.8-7.54,1.05-5.21,1.39-7.86,4.77-8.86,9.44H557.23c-.09-14.11-.26-28.22-.26-42.33q-.06-78.53,0-157c0-2.37.28-4.74.42-7.11q50.42,0,100.81,0A32.19,32.19,0,0,0,663,120.15Zm-41.5,51.38c-10.25,0-20.5-.07-30.74,0-8,.07-12.36,3.56-12.34,9.67s4.5,9.91,12.28,10q30.38.21,60.77,0c7.9-.06,11.75-3.75,11.62-10.24-.12-6.26-3.71-9.29-11.56-9.38C641.55,171.45,631.54,171.53,621.53,171.53Zm-.19,42.06c-10.24,0-20.49-.06-30.73,0-7.69.06-12.25,3.87-12.16,9.91.08,5.78,4.54,9.61,11.75,9.65q30.74.14,61.48,0c7.49,0,11.37-3.45,11.43-9.61.07-6.54-3.78-9.89-11.74-9.95C641.36,213.53,631.35,213.59,621.34,213.59Z" transform="translate(-13.02 -28.04)"/><path class="cls-3" d="M364.89,309.28c3.29,8.64,5.47,10.06,15.63,10.07,17.44,0,34.88,0,52.32,0,20.56-.07,33.88-12.26,34-31.06,0-5.44.06-10.89,0-16.33-.23-17.37-13.42-29.59-32.38-29.67q-46.21-.18-92.45.06c-4.4,0-6.56-1-8.46-4.86-7.72-15.67-25.15-23.39-43.61-19.86-17,3.25-29.7,17.75-29.74,34.64q-.18,70.23.06,140.46c0,4.79-.8,6.7-6.8,6.58-20.3-.4-40.61-.23-60.92-.09-3.91,0-5.83-.25-5.82-4.74q.25-135.24.16-270.48a17.53,17.53,0,0,1,.58-3.16q151.06,0,302.14-.07c6.75,0,8.86,1.38,8.84,7.81-.25,75.72-.15,151.43-.2,227.15,0,2.29.94,4.83-1.3,6.81-14.05-7.13-28.28-8.57-42.56-.73-2.87,1.58-3.65-.13-5.1-1.52-14.76-14.14-32.15-17.39-51.91-9.69-2,.78-3.21,1.54-5.12-.76-14.68-17.68-29.33-21.71-53-15a4,4,0,0,1-1.4-.16V309.28Zm-91-170.41c-13.35,0-26.71-.06-40.06,0-9,.06-12.63,3.19-12.72,11.35q-.23,20.55,0,41.09c.08,8.46,3.84,11.78,13.07,11.8q40.07.06,80.12,0c9.13,0,13.18-3.57,13.24-11.78.12-13.48.1-27,0-40.44-.05-8.66-3.84-12-13.6-12C300.62,138.83,287.26,138.87,273.91,138.87Zm153.37,22.36c-18.38,0-36.76,0-55.15,0-7.79,0-12.65,3.65-12.85,9.39-.21,6.05,4.83,10.2,12.87,10.21q54.8.09,109.59,0c8.12,0,13.29-4,13.29-9.93s-5-9.67-13.31-9.69C463.57,161.2,445.43,161.23,427.28,161.23Z" transform="translate(-13.02 -28.04)"/><path class="cls-4" d="M35.49,316.82a42.85,42.85,0,0,1-.45-4.5q0-93.51,0-187a38.09,38.09,0,0,1,.51-4.49c29.77,0,59.55.15,89.32,0,4.9,0,6.67,1.2,6.55,5.84-.3,12.59-.36,25.2,0,37.78.16,5.16-2,6.12-7.09,6.05-17.15-.24-34.3-.13-51.45-.06-2.53,0-5.28-.78-7.54,1.06-6.29,1.85-9.74,5.74-8.39,11.76s6.55,8,12.9,8q30.69.06,61.39.21,0,11,0,21.93l-60.76.2c-9,0-13.78,3.41-13.77,9.79s4.75,9.78,13.77,9.82l60.76.2q0,9.45,0,18.91c0,17.61.08,35.22,0,52.83-.06,9.66-2.24,11.61-12.1,11.62Z" transform="translate(-13.02 -28.04)"/><path class="cls-5" d="M498.22,99.83c-2.14.09-4.28.26-6.42.26q-148.64,0-297.25.15c-6.38,0-8-1.43-7.79-7.16.49-13.47.25-27,.09-40.47,0-3.32.38-5,4.88-5q150.06.23,300.11.2a6,6,0,0,1,.71.09,31.4,31.4,0,0,1,5.84,20.86C497.85,79.07,498.23,89.46,498.22,99.83ZM360.84,84.25q30.06,0,60.1,0c8.4,0,13-3.6,12.92-9.88s-4.66-9.71-13.15-9.72q-59.74,0-119.49,0c-8.26,0-13.34,3.68-13.51,9.6-.18,6.12,5.07,10,13.74,10Q331.15,84.29,360.84,84.25Z" transform="translate(-13.02 -28.04)"/><path class="cls-6" d="M496.94,362.53c2.24-2,1.3-4.52,1.3-6.81.05-75.72-.05-151.43.2-227.15,0-6.43-2.09-7.82-8.84-7.81q-151.07.27-302.14.07c1.87-2.13,4.44-1,6.61-1Q361,119.77,528,119.71c5.79,0,7.6,1.15,7.58,6.7q-.28,133.24,0,266.49c0,5.16-1.44,6.57-7,6.38-11.4-.38-11.84,0-14.14-10.07C511.89,378.36,506.8,369.23,496.94,362.53Z" transform="translate(-13.02 -28.04)"/><path class="cls-7" d="M448.06,677.27c1.92-5.94,1.91-12.08,1.33-18.09-1.72-17.92,3.2-34.74,8.62-51.68,8.57-26.79,17.42-53.57,24.2-80.76,8.67-34.81,6.2-69.63-4.62-104-4.51-14.34-8.27-28.87-12.37-43.31,10.54-5.92,22.76-2.77,25.87,7.61,10.87,36.34,23.65,72.36,20.22,111-1.93,21.81-8.64,42.53-15,63.39-7.11,23.35-14.57,46.6-21.48,70-3.26,11.05-1.06,22.49-1.35,33.75-.31,12.31-.07,12.34-13.29,12.31C456.15,677.46,452.11,677.34,448.06,677.27Z" transform="translate(-13.02 -28.04)"/><path class="cls-8" d="M35.49,316.82l83.7-.06c9.86,0,12-2,12.1-11.62.11-17.61,0-35.22,0-52.83q0-9.45,0-18.91c6.29-.92,10.55-4,10.55-10s-4.22-9.12-10.55-10q0-11,0-21.93c6.57-1.59,11.35-4.58,10.43-11.66-.76-5.84-4.74-8.17-13.7-8.2l-62.63-.1c2.26-1.84,5-1.05,7.54-1.06,17.15-.07,34.3-.18,51.45.06,5,.07,7.25-.89,7.09-6.05-.39-12.58-.33-25.19,0-37.78.12-4.64-1.65-5.86-6.55-5.84-29.77.15-59.55,0-89.32,0,1.58-2.1,3.94-1,5.87-1,38.93-.08,77.86.06,116.79-.16,5.67,0,7.17,1.35,7.15,6.52q-.3,92.76-.07,185.51c0,3.88,0,6.36-5.83,6.33-39.89-.23-79.77-.09-119.66-.15C38.36,317.9,36.39,318.87,35.49,316.82Z" transform="translate(-13.02 -28.04)"/><path class="cls-6" d="M594.34,317.86c2.26-1.85,5-1,7.54-1.05,17.89-.07,35.78-.27,53.66.09,5.61.12,7.84-2.1,8.72-6.44.68-3.39,1.61-6.83,1.62-10.25q.09-90,0-180c7.38-.11,14.77-.13,22.14-.38,3.15-.11,4.36,1,4.09,3.79a32.19,32.19,0,0,0,0,3.26c0,61.33-.08,122.66.14,184,0,5.51-1.08,7.34-7.67,7.25C654.46,317.68,624.4,317.88,594.34,317.86Z" transform="translate(-13.02 -28.04)"/><path class="cls-9" d="M364.89,309.28H337.82c-.1-14.55-.09-29.11-.38-43.66-.07-3.51,1.73-3.76,4.76-3.75,24.79.15,49.58.19,74.37.26,4.92,11.33,3.25,22.88,1.25,34.4-.18,1.05-1.71,1.91-2.61,2.86-11.81.08-23.62.46-35.41.14C371.72,299.31,366.63,301.91,364.89,309.28Z" transform="translate(-13.02 -28.04)"/><path class="cls-10" d="M665.89,99.85c-35,.09-70.08.74-105.08-.09-8.82-.21-2-8.76-3.62-13.25-.69-2-2.55-6.3,3.68-6.27,34.08.2,68.16.2,102.24.27A57.62,57.62,0,0,1,665.89,99.85Z" transform="translate(-13.02 -28.04)"/><path class="cls-11" d="M498.22,99.83c0-10.37-.37-20.76.17-31.11a31.4,31.4,0,0,0-5.84-20.86c12.84-.07,25.68,0,38.52-.27,3.5-.06,4.42,1.12,4.39,4.15q-.21,22.11,0,44.24c0,3-1,4.23-4.43,4.16C520.09,99.92,509.16,99.92,498.22,99.83Z" transform="translate(-13.02 -28.04)"/><path class="cls-10" d="M131.26,99.86c-30.54.09-61.1.71-91.62,0C29.7,99.6,36.88,91,35.23,86.52c-.92-2.49-1.9-6.4,4.45-6.33,29.11.33,58.22.25,87.34.33C131.22,86.45,131.8,93.05,131.26,99.86Z" transform="translate(-13.02 -28.04)"/><path class="cls-7" d="M259.9,510.11c-12.83-10-17.57-22.89-16.89-38,.5-11,.29-22.1,0-33.14-.15-6.51-1.18-12.94-7.11-17.61,12.62-4.55,24,1.9,24.11,14.44C260.32,460.54,260,485.33,259.9,510.11Z" transform="translate(-13.02 -28.04)"/><path class="cls-12" d="M415.21,299.39c.9-.95,2.43-1.81,2.61-2.86,2-11.52,3.67-23.07-1.25-34.4,5.93-.07,11.87-.31,17.8-.18,7,.16,10.72,3.74,10.88,10.28q.19,8.44,0,16.89c-.17,6.79-3.89,10.26-11.54,10.47C427.55,299.76,421.38,299.47,415.21,299.39Z" transform="translate(-13.02 -28.04)"/><path class="cls-13" d="M131.26,99.86c.54-6.81,0-13.41-4.24-19.34,11.17-.08,22.35,0,33.52-.29,3.8-.09,4.71,1.1,4.82,4.44.52,15.49.65,15.51-16.29,15.47C143.14,100.13,137.2,100,131.26,99.86Z" transform="translate(-13.02 -28.04)"/><path class="cls-13" d="M665.89,99.85a57.62,57.62,0,0,0-2.78-19.34c8.11-.07,16.23,0,24.32-.29,4-.16,4.61,1.23,4.7,4.48.42,15.46.53,15.47-16.25,15.44C672.55,100.14,669.22,100,665.89,99.85Z" transform="translate(-13.02 -28.04)"/><path class="cls-6" d="M663,120.15a32.19,32.19,0,0,1-4.83.72q-50.4,0-100.81,0c.53-.34,1.05-1,1.58-1Q611,120,663,120.15Z" transform="translate(-13.02 -28.04)"/><path class="cls-1" d="M621.53,171.53c10,0,20-.08,30,0,7.85.09,11.44,3.12,11.56,9.38.13,6.49-3.72,10.18-11.62,10.24q-30.39.24-60.77,0c-7.78-.05-12.27-3.94-12.28-10s4.31-9.6,12.34-9.67C601,171.46,611.28,171.53,621.53,171.53Z" transform="translate(-13.02 -28.04)"/><path class="cls-14" d="M621.34,213.59c10,0,20-.06,30,0,8,.06,11.81,3.41,11.74,9.95-.06,6.16-3.94,9.58-11.43,9.61q-30.75.12-61.48,0c-7.21,0-11.67-3.87-11.75-9.65-.09-6,4.47-9.85,12.16-9.91C600.85,213.53,611.1,213.59,621.34,213.59Z" transform="translate(-13.02 -28.04)"/><path class="cls-14" d="M273.91,138.87c13.35,0,26.71,0,40.06,0,9.76,0,13.55,3.36,13.6,12,.09,13.48.11,27,0,40.44-.06,8.21-4.11,11.76-13.24,11.78q-40.06.06-80.12,0c-9.23,0-13-3.34-13.07-11.8q-.19-20.55,0-41.09c.09-8.16,3.68-11.29,12.72-11.35C247.2,138.81,260.56,138.87,273.91,138.87Zm.3,44.66c8.82,0,17.65-.24,26.45.1,4.59.18,5.74-1.28,5.47-5.19a122.9,122.9,0,0,1,0-15c.19-3.48-.7-5-5-4.95q-26.8.31-53.63,0c-3.92,0-4.86,1.28-4.72,4.54a161.13,161.13,0,0,1,0,16.3c-.22,3.66,1.5,4.31,5,4.23C256.56,183.41,265.38,183.53,274.21,183.53Z" transform="translate(-13.02 -28.04)"/><path class="cls-14" d="M427.28,161.23c18.15,0,36.29,0,54.44,0,8.34,0,13.31,3.7,13.31,9.69s-5.17,9.92-13.29,9.93q-54.8.06-109.59,0c-8,0-13.08-4.16-12.87-10.21.2-5.74,5.06-9.37,12.85-9.39C390.52,161.2,408.9,161.23,427.28,161.23Z" transform="translate(-13.02 -28.04)"/><path class="cls-1" d="M65.37,171.5l62.63.1c9,0,12.94,2.36,13.7,8.2.92,7.08-3.86,10.07-10.43,11.66q-30.69-.12-61.39-.21c-6.35,0-11.53-1.92-12.9-8S59.08,173.35,65.37,171.5Z" transform="translate(-13.02 -28.04)"/><path class="cls-14" d="M131.28,213.39c6.33.87,10.55,3.93,10.55,10s-4.26,9.1-10.55,10l-60.76-.2c-9,0-13.77-3.43-13.77-9.82s4.73-9.75,13.77-9.79Z" transform="translate(-13.02 -28.04)"/><path class="cls-14" d="M360.84,84.25q-29.68,0-59.39,0c-8.67,0-13.92-3.88-13.74-10,.17-5.92,5.25-9.59,13.51-9.6q59.75,0,119.49,0c8.49,0,13.08,3.47,13.15,9.72s-4.52,9.86-12.92,9.88Q390.9,84.3,360.84,84.25Z" transform="translate(-13.02 -28.04)"/><path class="cls-5" d="M274.21,183.53c-8.83,0-17.65-.12-26.47.06-3.51.08-5.23-.57-5-4.23a161.13,161.13,0,0,0,0-16.3c-.14-3.26.8-4.58,4.72-4.54q26.8.25,53.63,0c4.32-.05,5.21,1.47,5,4.95a122.9,122.9,0,0,0,0,15c.27,3.91-.88,5.37-5.47,5.19C291.86,183.29,283,183.53,274.21,183.53Z" transform="translate(-13.02 -28.04)"/></svg>