<svg id="Calque_1" data-name="Calque 1" xmlns="http://www.w3.org/2000/svg" viewBox="0 0 718.7 667.54"><defs><style>.cls-1{fill:#fff;}.cls-2{fill:#080a06;}.cls-3{fill:#74c9e6;}.cls-4{fill:#fac42a;}.cls-5{fill:#e3e6ea;}.cls-6{fill:#cacfd7;}.cls-7{fill:#f0cfb3;}.cls-8{fill:#f8d36d;}.cls-9{fill:#b1d07e;}.cls-10{fill:#959ea9;}.cls-11{fill:#9bc366;}.cls-12{fill:#d4d3d3;}.cls-13{fill:#010d0f;}.cls-14{fill:#100f08;}</style></defs><title>icon-administration</title><g id="NVDGvY.tif"><path class="cls-1" d="M8.17,29.1l-.7.66C7.33,29.19,7.57,29,8.17,29.1Z" transform="translate(-7.43 -29.07)"/><path class="cls-1" d="M726.1,29.76l-.7-.66C726,29,726.24,29.19,726.1,29.76Z" transform="translate(-7.43 -29.07)"/><path class="cls-1" d="M7.47,695.91l.7.66C7.57,696.7,7.33,696.48,7.47,695.91Z" transform="translate(-7.43 -29.07)"/><path class="cls-2" d="M414.65,688.73q-147,0-294,0c-9.84,0-17-3.81-21.69-11.89a16.76,16.76,0,0,1-2.35-8.5c0-7.47-.08-14.93,0-22.4.17-11.2,10-20.49,22-20.59q21.08-.17,42.14,0c2.62,0,3.39-.63,3.36-3.12-.13-11.86-.15-23.72,0-35.58,0-2.77-.82-3.47-3.72-3.46-28.21.1-56.43.17-84.64,0-24.42-.12-42.09-10.65-52.85-31.18A43.25,43.25,0,0,1,18,533.38c-.14-4-.1-7.9-.1-11.86q0-121.23,0-242.46c0-16.14,5.93-29.8,18.62-40.67,10-8.59,22-13.1,35.56-13.61,2.34-.08,4.69-.05,7-.05h294c4.51,0,4.51,0,4.51-4.23,0-21.2.06-42.39-.07-63.59,0-3,1-4.14,4.18-4.75,8.23-1.59,16.36-3.59,24.52-5.49,1.89-.43,2.86-1.66,3.94-3.3,3.73-5.66,2.63-10.37-1.4-15.5s-6.85-10.68-10.42-15.94c-1.19-1.75-1.08-2.81.44-4.23Q427,81.36,455.05,54.92c1.67-1.57,2.86-1.52,4.8-.38,7.41,4.35,15,8.44,22.43,12.77a5.81,5.81,0,0,0,5.6.31,2.2,2.2,0,0,1,.31-.15c6.8-1.23,9.05-5.76,10.15-11.57,1.17-6.14,3-12.15,4.48-18.24.46-1.91,1.42-2.73,3.6-2.73q39.87.07,79.73,0c2,0,3,.61,3.49,2.43,1.94,7.78,4,15.54,5.91,23.33.59,2.38,1.82,3.72,4.29,5,5.61,3,10.15,2.43,15.3-1,5.66-3.83,12-6.76,17.9-10.28,1.93-1.15,3-.81,4.48.56q28,26.31,56,52.55c1.56,1.47,1.87,2.56.57,4.49-4.55,6.75-8.72,13.72-13.27,20.47-1.49,2.23-1.11,4-.57,6.41,1.56,7,7.08,8.32,13.22,9.46,6.41,1.2,12.73,2.8,19.08,4.22,1.58.35,2.47,1.17,2.34,2.78,0,.54,0,1.09,0,1.64,0,24.16-.06,48.32.07,72.48,0,3.06-1.08,4.12-4.21,4.72-8.22,1.6-16.36,3.61-24.51,5.5-1.9.44-2.85,1.68-3.93,3.31-3.75,5.67-2.62,10.37,1.42,15.51s7,10.84,10.61,16.21c1,1.52.88,2.49-.42,3.71Q665.55,305,637.19,331.67c-1.47,1.38-2.57,1.22-4.23.25-7.24-4.22-14.64-8.18-21.83-12.45-2.48-1.47-4.46-1-7.13-.48-7.15,1.41-8.66,6.26-9.86,11.82-1.08,5-2.53,10-4,14.95-.49,1.64.21,2.39,1.4,3.29a83.71,83.71,0,0,1,27.14,34.5A77,77,0,0,1,624,426.8c-3.78,23-15.73,41.37-35.31,55.51-.75.53-2.16.81-1.82,2.13.27,1,1.4,1,2.27,1.25Q640,501,674.06,539.61a162.88,162.88,0,0,1,33.43,58.66,148,148,0,0,1,7.35,43.4c.18,14.39,0,28.78.17,43.16,0,3.2-.93,4-4.28,4Q562.69,688.67,414.65,688.73ZM265.5,288.07q-88,0-176-.06c-3.08,0-4.16.55-4.15,3.73q.15,101.79,0,203.59c0,3,.88,3.62,3.93,3.61q40.92-.17,81.83,0c3.36,0,4.28-.78,4.27-4-.13-32.5,0-65-.18-97.51,0-3.47,1.07-4.12,4.51-4.09q29.33.22,58.65,0c3.41,0,4.55.58,4.52,4.08-.19,23-.1,45.9-.1,68.85,0,9.88.07,19.76,0,29.65,0,2.31.71,3.05,3.17,3,4.68-.16,9.37,0,14.05-.05,6-.05,5.25.72,5.26-4.86q0-69.49-.07-139c0-3.1.93-3.81,4.11-3.78q29.85.19,59.7,0c3.22,0,3.86.92,3.82,3.72-.17,11-.07,22-.07,32.94q0,53.86-.06,107.72c0,2.56.63,3.48,3.5,3.35,4.79-.23,9.59-.06,14.39-.06,4.6,0,4.6,0,4.6-4.17q0-90.93-.07-181.84c0-3,.81-3.85,4.06-3.83q29.85.21,59.71,0c3.16,0,3.86.82,3.85,3.69q-.15,51.72-.07,103.43c0,26.47,0,52.93,0,79.39,0,2.49.51,3.54,3.45,3.39a125,125,0,0,1,14.74,0c3.73.26,4.38-1,4.37-4.22q-.15-101.3,0-202.59c0-3.34-.85-4.17-4.42-4.16Q353.12,288.16,265.5,288.07Zm134.74-91v19.76c0,7.9,0,7.9,8.36,7.9,13,0,26-.06,39,0,2.87,0,3.38-.63,2.38-3.23a80.46,80.46,0,0,1-3.87-15.63A81.63,81.63,0,0,1,452.7,157c15.18-32.37,41.46-51.89,78.91-57.68a98.26,98.26,0,0,1,53.22,6.11c34.51,14.23,55.38,38.86,61.5,74a84,84,0,0,1-9.39,55.89c-14.49,26.55-37.27,43.54-68.4,50.47A101.75,101.75,0,0,1,516,283.48c-2.84-.86-3.43-.37-3.42,2.27q.13,22.06,0,44.14c0,2.4.5,2.93,3.2,2.33A86.29,86.29,0,0,1,547.48,331a97.18,97.18,0,0,1,18.29,4.33c2.61.94,3.9.35,4.58-2.52,2-8.22,4.46-16.33,6.45-24.55a4.46,4.46,0,0,1,3.65-3.73,142.74,142.74,0,0,0,26.4-10.43c1.67-.85,2.78-.42,4.15.37,6.06,3.5,12.2,6.87,18.22,10.42,2.06,1.22,3.41,1,5.13-.59q15-14.31,30.29-28.42c1.85-1.7,2.06-3,.69-5.08-3.8-5.65-7.39-11.41-11.11-17.11-.76-1.17-1.29-2.15-.43-3.6a129.82,129.82,0,0,0,11.4-25.36,3.8,3.8,0,0,1,3.3-2.83c7.16-1.53,14.25-3.4,21.41-4.94,2-.42,2.42-1.25,2.41-2.91q0-20.91,0-41.83c0-1.69-.55-2.48-2.46-2.89-7.05-1.51-14-3.38-21.08-4.84a4.28,4.28,0,0,1-3.73-3.26,118.45,118.45,0,0,0-10.81-24.16c-1.17-2-.82-3.37.32-5.08,3.64-5.48,7.1-11.07,10.8-16.51,1.41-2.07,1.06-3.39-.75-5.07Q649.36,96.32,634.32,82c-1.75-1.67-3.12-1.72-5.14-.54-6.13,3.59-12.38,7-18.55,10.55-1.17.66-2.14,1.09-3.53.36a153.43,153.43,0,0,0-27.69-11A3,3,0,0,1,577,79c-1.73-6.82-3.68-13.58-5.36-20.41-.42-1.73-1.1-2.4-3-2.4q-22.47.07-44.95,0a2.43,2.43,0,0,0-2.82,2.17c-1.64,6.61-3.71,13.13-5.15,19.77-.53,2.46-2,3.34-4,3.87A131.73,131.73,0,0,0,486,92.11a4.1,4.1,0,0,1-4.46-.32c-6-3.45-12-6.76-17.94-10.25-2.11-1.25-3.56-1.25-5.43.54q-15,14.34-30.29,28.42c-1.89,1.74-1.93,3.1-.6,5.09,3.78,5.66,7.39,11.42,11.09,17.12.68,1.06,1.31,2,.52,3.3a134.71,134.71,0,0,0-11.79,26.28,2.85,2.85,0,0,1-2.44,2c-7,1.62-14,3.58-21.06,4.9-3,.56-3.42,1.74-3.39,4.15C400.31,181.24,400.24,189.15,400.24,197.06Zm67.4,160.39.82.45a94.33,94.33,0,0,1,20.46-15.7c1.28-.73,1.09-1.84,1.09-2.9q0-31.47-.05-62.93a25.89,25.89,0,0,0-3.44-12.63c-6.8-12.12-17.64-17.83-32.19-17.83q-188.44,0-376.88,0c-1.4,0-2.81,0-4.21,0a31.63,31.63,0,0,0-13.8,3.28c-12.63,6.26-18.89,16.2-18.89,29.59q0,108.23,0,216.45a9.69,9.69,0,0,1,0,1.32c-.21,1.72.59,2.31,2.42,2.28,5.15-.09,10.3,0,15.45,0,4.51,0,4.51,0,4.51-4.24,0-68.41.14-136.83-.11-205.24,0-12.49,10.63-22.58,24-22.56q178.43.27,356.85,0c13.31,0,24.34,10.11,24.09,22.53-.43,21.51-.12,43-.12,64.57ZM415.55,520.63a12,12,0,0,0-5.23-.57H42.37c-1.1,0-1.8.35-1.8,1.5,0,6.56-.65,13.21,2,19.52,5.63,13.46,17.5,21,33.1,21q149.93,0,299.84.08c3,0,4.66-.92,6.12-3.25a146.49,146.49,0,0,1,22.2-27.41C407.53,527.89,411.42,524.45,415.55,520.63ZM535.16,477.7c37-.08,67.34-28.73,67.18-63.36s-30.46-62.91-67.28-62.93S467.67,380,467.71,414.6,498.25,477.79,535.16,477.7Zm89.67-286.8a68.83,68.83,0,0,0-12.63-37.59c-12-17.24-28.94-28.08-50.37-32.35a78.43,78.43,0,0,0-43.36,3.49c-26.58,9.89-42.8,28.19-49.16,54.08-3.51,14.25-1.71,28.37,4.18,41.91,1.48,3.42,2.28,7.5,6.53,9.34a52.79,52.79,0,0,1,27.16,25.41,8.11,8.11,0,0,0,4.14,3.8c19.16,8.7,38.84,10.29,59.19,4.14C602.63,253.44,624.9,224.77,624.83,190.9ZM433.92,625.07c0,13.06.07,26.12-.06,39.19,0,2.59.71,3.35,3.52,3.33,17-.12,33.94-.06,50.91-.06,4.78,0,4.76,0,2.41-3.85-11.46-18.8-22.87-37.63-34.4-56.4a4.61,4.61,0,0,1-.11-5.41c2.65-4.62,4.86-9.47,7.57-14,1.17-2,.72-3.12-.81-4.53-5.1-4.67-10.08-9.45-15.15-14.15a7.59,7.59,0,0,1-2.61-4.5q-2.62-15.25-5.42-30.48c-.75-4.14-.83-4.14-4.39-1.41a148.58,148.58,0,0,0-30.24,30.91,142.56,142.56,0,0,0-24.89,57c-2.88,14.7-2.44,29.49-2.58,44.3,0,2.36,1.07,2.66,3.17,2.64,8.77-.07,17.56-.18,26.33.05,3.39.08,4.27-.84,4.25-4-.14-25.47,0-50.94-.15-76.4,0-3.05.63-4.3,4.16-4.09a129.43,129.43,0,0,0,14.74,0c3.26-.18,3.85,1,3.82,3.75C433.84,599.6,433.92,612.33,433.92,625.07Zm224.79.15c0,13.06.06,26.12-.05,39.18,0,2.43.64,3.23,3.32,3.19,9.13-.15,18.26-.12,27.38,0,2.28,0,3.06-.6,3-2.79-.14-6.91,0-13.83-.12-20.74a139,139,0,0,0-18.35-66.47,151.58,151.58,0,0,0-39.83-45.38c-2.92-2.26-3.06-2.19-3.7,1.41-1.42,8-3.14,16-4.16,24-.86,6.73-3.34,12.25-9.17,16.55-3.46,2.55-6.22,5.93-9.49,8.74-1.9,1.65-2.51,3-1.06,5.3,2.56,4.16,4.48,8.67,7,12.84,1.63,2.65,1.25,4.69-.3,7.2-11.52,18.66-22.9,37.39-34.31,56.1-1.83,3-1.71,3.18,2,3.18,17,0,33.94-.09,50.9.09,3.56,0,4.47-.8,4.45-4.16-.16-25.46,0-50.93-.17-76.4,0-3.25,1-4.1,4.34-3.93,4.9.26,9.83.24,14.73,0,3-.15,3.68.91,3.65,3.56C658.64,599.53,658.71,612.37,658.71,625.22Zm-381.35-41.9c-28.92,0-57.83,0-86.75-.06-3,0-4.05.58-4,3.6q.3,17.46,0,34.92c-.05,3,1,3.61,4,3.6q81.13-.12,162.26,0c2.78,0,3.92-.75,4.29-3.31a160.39,160.39,0,0,1,9.47-34.94c1.47-3.81,1.45-3.82-2.87-3.82ZM532.4,499a153.88,153.88,0,0,0-30.58,3.65c-6.25,1.41-6.39,1.44-4.77,7.12,3.87,13.52,7.85,27,11.84,40.5s8.07,27,12.06,40.44q6.46,21.81,12.83,43.65c.18.63.3,1.41,1.12,1.48,1.11.1,1.18-.83,1.39-1.56,1.08-3.8,2.1-7.62,3.23-11.41,5.44-18.22,10.94-36.42,16.36-54.65,6-20.32,12-40.67,18.11-61,.78-2.59-.15-3.62-2.71-4.13A188.06,188.06,0,0,0,532.4,499ZM237.53,646.58H227.7c-34.88,0-69.76,0-104.64-.07-3.16,0-4,.81-3.87,3.69a103.35,103.35,0,0,1,0,13.17c-.24,3.3.76,4.21,4.4,4.21q113.6-.17,227.2-.09a17,17,0,0,1,1.75,0c2,.21,2.64-.65,2.61-2.48-.1-4.83-.24-9.67,0-14.49.18-3.14-.81-4-4.23-4C313.15,646.62,275.34,646.58,237.53,646.58ZM377.72,414.66c0,26.78,0,53.57-.06,80.36,0,2.89.57,4.13,4,3.91a113.4,113.4,0,0,1,14,0c3.46.21,4.52-.63,4.51-4.1-.15-44.35-.1-88.7-.1-133.06,0-9.22-.11-18.44.07-27.66.05-2.89-.57-4.12-4-3.91a130.33,130.33,0,0,1-14.39,0c-3.14-.16-4.16.61-4.15,3.75C377.79,360.86,377.72,387.76,377.72,414.66Zm-89.91,21c0,20,.05,40-.07,59.94,0,2.63.77,3.41,3.55,3.31,5.38-.2,10.77-.14,16.15,0,2.19.05,2.83-.69,2.78-2.67-.11-5.49,0-11,0-16.46,0-34.58,0-69.16.07-103.74,0-2.93-.8-3.8-3.91-3.65-5,.25-10.07.22-15.09,0-2.86-.12-3.52.79-3.51,3.35C287.85,395.7,287.81,415.68,287.81,435.66ZM550.37,666.29c2-.69,2.55-2.13,3.34-3.42Q570.84,634.82,588,606.8a5.06,5.06,0,0,0,.15-5.75c-3-5.43-5.7-11-8.88-16.37-1.62-2.73-1.14-4.41,1.16-6.48,6.91-6.23,13.61-12.66,20.4-19a8.29,8.29,0,0,0,2.88-4.75q2.64-15.4,5.46-30.8c1.2-6.61,1.25-6.62-5.16-9.7-1.45-.7-3-1.17-4.43-1.94-2.55-1.39-3.5-.77-4.26,1.92-4.21,14.8-8.63,29.54-13,44.29-4.45,15-9,29.91-13.42,44.87q-7.62,25.6-15.15,51.23C552.58,658.31,551.49,662.31,550.37,666.29Zm-31.6.62a2.16,2.16,0,0,0,.52-2.55q-6.33-21.5-12.71-43c-5-16.64-10-33.25-15-49.89q-8.62-29.09-17.08-58.2c-.52-1.77-1.32-2.44-3.23-1.53-2.81,1.33-5.6,2.71-8.52,3.79-2.32.86-2.81,2.14-2.41,4.34,2.09,11.67,4.05,23.35,6,35,.31,1.87,1.55,3.14,2.88,4.38,6.95,6.51,13.81,13.09,20.86,19.48,2,1.79,2.09,3.3.89,5.43-3.09,5.52-6,11.14-9.06,16.64a5.2,5.2,0,0,0,.11,6c4.64,7.33,9.09,14.78,13.61,22.18C503.34,641.59,511,654.11,518.77,666.91ZM197.89,456.74c0,13.06.06,26.12,0,39.18,0,2.31.71,3.05,3.18,3,5.49-.15,11-.13,16.49,0,2.18.05,2.8-.67,2.8-2.66q-.09-39.51,0-79c0-2-.67-2.69-2.81-2.64-5.39.11-10.78.18-16.15,0-2.83-.11-3.55.76-3.52,3.34C198,430.83,197.89,443.79,197.89,456.74Zm269.73,14.68c0,5.65,0,11.3,0,16.95,0,1.48,1.11,1.52,2.21,1.1a122.51,122.51,0,0,1,12.51-4.06c1.43-.39,2-1.27.43-2.3C477.58,479.62,472.87,475.58,467.62,471.42Z" transform="translate(-7.43 -29.07)"/><path class="cls-3" d="M265.5,288.07q87.62,0,175.25-.08c3.57,0,4.43.82,4.42,4.16q-.17,101.3,0,202.59c0,3.24-.64,4.48-4.37,4.22a125,125,0,0,0-14.74,0c-2.94.15-3.46-.9-3.45-3.39.09-26.46,0-52.92,0-79.39q0-51.71.07-103.43c0-2.87-.69-3.71-3.85-3.69q-29.85.21-59.71,0c-3.25,0-4.06.8-4.06,3.83q.15,90.92.07,181.84c0,4.16,0,4.17-4.6,4.17-4.8,0-9.6-.17-14.39.06-2.87.13-3.5-.79-3.5-3.35q.13-53.85.06-107.72c0-11-.1-22,.07-32.94,0-2.8-.6-3.75-3.82-3.72q-29.85.23-59.7,0c-3.18,0-4.12.68-4.11,3.78q.17,69.51.07,139c0,5.58.75,4.81-5.26,4.86-4.68,0-9.37-.11-14.05.05-2.46.09-3.2-.65-3.17-3,.12-9.89,0-19.77,0-29.65,0-22.95-.09-45.9.1-68.85,0-3.5-1.11-4.11-4.52-4.08q-29.33.22-58.65,0c-3.44,0-4.53.62-4.51,4.09.17,32.5,0,65,.18,97.51,0,3.19-.91,4-4.27,4q-40.9-.19-81.83,0c-3,0-3.93-.65-3.93-3.61q.15-101.79,0-203.59c0-3.18,1.07-3.73,4.15-3.73Q177.52,288.13,265.5,288.07ZM163.76,372.41c17.79,0,35.57,0,53.36,0,2.29,0,3.37-.4,3.28-2.86-.19-5.15-.14-10.32,0-15.47.06-2.07-.49-2.89-2.9-2.88q-53.34.09-106.7,0c-2.39,0-3,.77-2.92,2.86.13,4.72.25,9.45,0,14.15-.19,3.21.59,4.31,4.34,4.26C129.36,372.29,146.56,372.41,163.76,372.41Zm-43.82-63.3c-3.52,0-6.45.07-9.37,0-1.88-.07-2.75.42-2.71,2.37.11,5.48.08,11,0,16.45,0,1.62.43,2.4,2.35,2.37q8.94-.12,17.89,0c1.91,0,2.4-.75,2.35-2.37-.09-2.74,0-5.48-.05-8.22-.11-3.37,1.51-7.69-.64-9.86S122.91,309.47,119.94,309.11Zm55.45,10.71c0-2.74-.08-5.49,0-8.23.08-1.79-.5-2.55-2.56-2.52-5.84.1-11.69.11-17.53,0-2.12,0-2.53.83-2.51,2.57.09,5.37.13,10.75,0,16.12-.06,2.15.92,2.55,2.92,2.52,5.61-.09,11.23-.14,16.83,0,2.46.07,3-.88,2.87-2.91C175.28,324.87,175.39,322.34,175.39,319.82Zm45-.07c0-2.85-.06-5.7,0-8.55,0-1.56-.62-2.13-2.27-2.11q-9.12.07-18.24,0c-1.5,0-2.07.57-2.06,2,0,5.7,0,11.4,0,17.11,0,1.56.63,2.12,2.27,2.1,6-.05,11.92-.06,17.88,0,1.84,0,2.5-.59,2.43-2.3C220.27,325.23,220.35,322.49,220.35,319.75Z" transform="translate(-7.43 -29.07)"/><path class="cls-4" d="M400.24,197.06c0-7.91.07-15.82-.05-23.72,0-2.41.4-3.59,3.39-4.15,7.09-1.32,14-3.28,21.06-4.9a2.85,2.85,0,0,0,2.44-2A134.71,134.71,0,0,1,438.87,136c.79-1.34.16-2.24-.52-3.3-3.7-5.7-7.31-11.46-11.09-17.12-1.33-2-1.29-3.35.6-5.09q15.28-14.09,30.29-28.42c1.87-1.79,3.32-1.79,5.43-.54,5.93,3.49,12,6.8,17.94,10.25a4.1,4.1,0,0,0,4.46.32A131.73,131.73,0,0,1,511.74,82c2-.53,3.49-1.41,4-3.87,1.44-6.64,3.51-13.16,5.15-19.77a2.43,2.43,0,0,1,2.82-2.17q22.49,0,44.95,0c1.88,0,2.56.67,3,2.4C573.34,65.4,575.29,72.16,577,79a3,3,0,0,0,2.39,2.44,153.43,153.43,0,0,1,27.69,11c1.39.73,2.36.3,3.53-.36,6.17-3.53,12.42-7,18.55-10.55,2-1.18,3.39-1.13,5.14.54q15,14.32,30.29,28.42c1.81,1.68,2.16,3,.75,5.07-3.7,5.44-7.16,11-10.8,16.51-1.14,1.71-1.49,3.1-.32,5.08a118.45,118.45,0,0,1,10.81,24.16,4.28,4.28,0,0,0,3.73,3.26c7.06,1.46,14,3.33,21.08,4.84,1.91.41,2.46,1.2,2.46,2.89q-.06,20.91,0,41.83c0,1.66-.46,2.49-2.41,2.91-7.16,1.54-14.25,3.41-21.41,4.94a3.8,3.8,0,0,0-3.3,2.83,129.82,129.82,0,0,1-11.4,25.36c-.86,1.45-.33,2.43.43,3.6,3.72,5.7,7.31,11.46,11.11,17.11,1.37,2,1.16,3.38-.69,5.08q-15.27,14.1-30.29,28.42c-1.72,1.63-3.07,1.81-5.13.59-6-3.55-12.16-6.92-18.22-10.42-1.37-.79-2.48-1.22-4.15-.37a142.74,142.74,0,0,1-26.4,10.43,4.46,4.46,0,0,0-3.65,3.73c-2,8.22-4.49,16.33-6.45,24.55-.68,2.87-2,3.46-4.58,2.52A97.18,97.18,0,0,0,547.48,331a86.29,86.29,0,0,0-31.68,1.21c-2.7.6-3.22.07-3.2-2.33q.1-22.06,0-44.14c0-2.64.58-3.13,3.42-2.27a101.75,101.75,0,0,0,52.53,2.27c31.13-6.93,53.91-23.92,68.4-50.47a84,84,0,0,0,9.39-55.89c-6.12-35.14-27-59.77-61.5-74a98.26,98.26,0,0,0-53.22-6.11c-37.45,5.79-63.73,25.31-78.91,57.68a81.63,81.63,0,0,0-6.61,48.94A80.46,80.46,0,0,0,450,221.53c1,2.6.49,3.25-2.38,3.23-13-.1-26,0-39,0-8.36,0-8.36,0-8.36-7.9Z" transform="translate(-7.43 -29.07)"/><path class="cls-5" d="M467.64,357.45V353.9c0-21.53-.31-43.06.12-64.57.25-12.42-10.78-22.56-24.09-22.53q-178.42.3-356.85,0c-13.39,0-24.07,10.07-24,22.56.25,68.41.11,136.83.11,205.24,0,4.24,0,4.24-4.51,4.24-5.15,0-10.3-.06-15.45,0-1.83,0-2.63-.56-2.42-2.28a9.69,9.69,0,0,0,0-1.32q0-108.22,0-216.45c0-13.39,6.26-23.33,18.89-29.59A31.63,31.63,0,0,1,73.24,246c1.4,0,2.81,0,4.21,0q188.45,0,376.88,0c14.55,0,25.39,5.71,32.19,17.83A25.89,25.89,0,0,1,490,276.37q.07,31.47.05,62.93c0,1.06.19,2.17-1.09,2.9a94.33,94.33,0,0,0-20.46,15.7Z" transform="translate(-7.43 -29.07)"/><path class="cls-6" d="M415.55,520.63c-4.13,3.82-8,7.26-11.73,10.87a146.49,146.49,0,0,0-22.2,27.41c-1.46,2.33-3.13,3.25-6.12,3.25q-149.92-.13-299.84-.08c-15.6,0-27.47-7.55-33.1-21-2.64-6.31-2-13-2-19.52,0-1.15.7-1.51,1.8-1.5h368A12,12,0,0,1,415.55,520.63Z" transform="translate(-7.43 -29.07)"/><path class="cls-7" d="M535.16,477.7c-36.91.09-67.42-28.45-67.45-63.1s30.41-63.21,67.35-63.19,67.13,28.36,67.28,62.93S572.13,477.62,535.16,477.7Z" transform="translate(-7.43 -29.07)"/><path class="cls-8" d="M624.83,190.9c.07,33.87-22.2,62.54-54.32,72.23-20.35,6.15-40,4.56-59.19-4.14a8.11,8.11,0,0,1-4.14-3.8A52.79,52.79,0,0,0,480,229.78c-4.25-1.84-5-5.92-6.53-9.34-5.89-13.54-7.69-27.66-4.18-41.91,6.36-25.89,22.58-44.19,49.16-54.08A78.43,78.43,0,0,1,561.83,121c21.43,4.27,38.34,15.11,50.37,32.35A68.83,68.83,0,0,1,624.83,190.9Zm-78.44-50.51c-31,0-56.3,23.48-56.39,52.48-.09,29.28,25,53,56.13,53.07s56.3-23.48,56.4-52.49C602.63,164.15,577.53,140.43,546.39,140.39Z" transform="translate(-7.43 -29.07)"/><path class="cls-9" d="M433.92,625.07c0-12.74-.08-25.47.07-38.2,0-2.79-.56-3.93-3.82-3.75a129.43,129.43,0,0,1-14.74,0c-3.53-.21-4.17,1-4.16,4.09.13,25.46,0,50.93.15,76.4,0,3.16-.86,4.08-4.25,4-8.77-.23-17.56-.12-26.33-.05-2.1,0-3.19-.28-3.17-2.64.14-14.81-.3-29.6,2.58-44.3a142.56,142.56,0,0,1,24.89-57,148.58,148.58,0,0,1,30.24-30.91c3.56-2.73,3.64-2.73,4.39,1.41q2.78,15.23,5.42,30.48a7.59,7.59,0,0,0,2.61,4.5c5.07,4.7,10.05,9.48,15.15,14.15,1.53,1.41,2,2.53.81,4.53-2.71,4.58-4.92,9.43-7.57,14a4.61,4.61,0,0,0,.11,5.41c11.53,18.77,22.94,37.6,34.4,56.4,2.35,3.85,2.37,3.85-2.41,3.85-17,0-33.94-.06-50.91.06-2.81,0-3.55-.74-3.52-3.33C434,651.19,433.92,638.13,433.92,625.07Z" transform="translate(-7.43 -29.07)"/><path class="cls-9" d="M658.71,625.22c0-12.85-.07-25.69.06-38.53,0-2.65-.6-3.71-3.65-3.56-4.9.23-9.83.25-14.73,0-3.31-.17-4.36.68-4.34,3.93.15,25.47,0,50.94.17,76.4,0,3.36-.89,4.2-4.45,4.16-17-.18-33.93-.07-50.9-.09-3.66,0-3.78-.18-2-3.18,11.41-18.71,22.79-37.44,34.31-56.1,1.55-2.51,1.93-4.55.3-7.2-2.55-4.17-4.47-8.68-7-12.84-1.45-2.35-.84-3.65,1.06-5.3,3.27-2.81,6-6.19,9.49-8.74,5.83-4.3,8.31-9.82,9.17-16.55,1-8.05,2.74-16,4.16-24,.64-3.6.78-3.67,3.7-1.41a151.58,151.58,0,0,1,39.83,45.38A139,139,0,0,1,692.26,644c.16,6.91,0,13.83.12,20.74,0,2.19-.74,2.82-3,2.79-9.12-.1-18.25-.13-27.38,0-2.68,0-3.34-.76-3.32-3.19C658.77,651.34,658.71,638.28,658.71,625.22Z" transform="translate(-7.43 -29.07)"/><path class="cls-10" d="M277.36,583.32h86.4c4.32,0,4.34,0,2.87,3.82a160.39,160.39,0,0,0-9.47,34.94c-.37,2.56-1.51,3.31-4.29,3.31q-81.14-.14-162.26,0c-3,0-4.05-.58-4-3.6q.3-17.46,0-34.92c-.05-3,1-3.61,4-3.6C219.53,583.36,248.44,583.32,277.36,583.32Z" transform="translate(-7.43 -29.07)"/><path class="cls-6" d="M532.4,499a188.06,188.06,0,0,1,38.88,4.1c2.56.51,3.49,1.54,2.71,4.13-6.09,20.32-12.06,40.67-18.11,61-5.42,18.23-10.92,36.43-16.36,54.65-1.13,3.79-2.15,7.61-3.23,11.41-.21.73-.28,1.66-1.39,1.56-.82-.07-.94-.85-1.12-1.48q-6.4-21.83-12.83-43.65c-4-13.48-8.07-27-12.06-40.44s-8-27-11.84-40.5c-1.62-5.68-1.48-5.71,4.77-7.12A153.88,153.88,0,0,1,532.4,499Z" transform="translate(-7.43 -29.07)"/><path class="cls-10" d="M237.53,646.58c37.81,0,75.62,0,113.42-.08,3.42,0,4.41.89,4.23,4-.28,4.82-.14,9.66,0,14.49,0,1.83-.6,2.69-2.61,2.48a17,17,0,0,0-1.75,0q-113.61,0-227.2.09c-3.64,0-4.64-.91-4.4-4.21a103.35,103.35,0,0,0,0-13.17c-.17-2.88.71-3.7,3.87-3.69,34.88.11,69.76.07,104.64.07Z" transform="translate(-7.43 -29.07)"/><path class="cls-9" d="M377.72,414.66c0-26.9.07-53.8-.08-80.7,0-3.14,1-3.91,4.15-3.75a130.33,130.33,0,0,0,14.39,0c3.42-.21,4,1,4,3.91-.18,9.22-.07,18.44-.07,27.66,0,44.36-.05,88.71.1,133.06,0,3.47-1.05,4.31-4.51,4.1a113.4,113.4,0,0,0-14,0c-3.42.22-4-1-4-3.91C377.77,468.23,377.72,441.44,377.72,414.66Z" transform="translate(-7.43 -29.07)"/><path class="cls-9" d="M287.81,435.66c0-20,0-40-.06-59.94,0-2.56.65-3.47,3.51-3.35,5,.22,10.07.25,15.09,0,3.11-.15,3.92.72,3.91,3.65-.11,34.58-.07,69.16-.07,103.74,0,5.48-.08,11,0,16.46,0,2-.59,2.72-2.78,2.67-5.38-.12-10.77-.18-16.15,0-2.78.1-3.56-.68-3.55-3.31C287.86,475.62,287.81,455.64,287.81,435.66Z" transform="translate(-7.43 -29.07)"/><path class="cls-11" d="M550.37,666.29c1.12-4,2.21-8,3.39-12q7.54-25.62,15.15-51.23c4.45-15,9-29.9,13.42-44.87,4.39-14.75,8.81-29.49,13-44.29.76-2.69,1.71-3.31,4.26-1.92,1.4.77,3,1.24,4.43,1.94,6.41,3.08,6.36,3.09,5.16,9.7q-2.79,15.39-5.46,30.8a8.29,8.29,0,0,1-2.88,4.75c-6.79,6.33-13.49,12.76-20.4,19-2.3,2.07-2.78,3.75-1.16,6.48,3.18,5.34,5.87,10.94,8.88,16.37a5.06,5.06,0,0,1-.15,5.75q-17.25,28-34.32,56.07C552.92,664.16,552.39,665.6,550.37,666.29Z" transform="translate(-7.43 -29.07)"/><path class="cls-11" d="M518.77,666.91c-7.8-12.8-15.43-25.32-23.07-37.84-4.52-7.4-9-14.85-13.61-22.18a5.2,5.2,0,0,1-.11-6c3.11-5.5,6-11.12,9.06-16.64,1.2-2.13,1.1-3.64-.89-5.43-7-6.39-13.91-13-20.86-19.48-1.33-1.24-2.57-2.51-2.88-4.38-2-11.68-3.94-23.36-6-35-.4-2.2.09-3.48,2.41-4.34,2.92-1.08,5.71-2.46,8.52-3.79,1.91-.91,2.71-.24,3.23,1.53q8.49,29.12,17.08,58.2c4.93,16.64,10,33.25,15,49.89q6.41,21.48,12.71,43A2.16,2.16,0,0,1,518.77,666.91Z" transform="translate(-7.43 -29.07)"/><path class="cls-9" d="M197.89,456.74c0-12.95.07-25.91-.06-38.86,0-2.58.69-3.45,3.52-3.34,5.37.21,10.76.14,16.15,0,2.14-.05,2.81.62,2.81,2.64q-.09,39.51,0,79c0,2-.62,2.71-2.8,2.66-5.49-.12-11-.14-16.49,0-2.47.07-3.2-.67-3.18-3C198,482.86,197.89,469.8,197.89,456.74Z" transform="translate(-7.43 -29.07)"/><path class="cls-12" d="M467.62,471.42c5.25,4.16,10,8.2,15.17,11.69,1.54,1,1,1.91-.43,2.3a122.51,122.51,0,0,0-12.51,4.06c-1.1.42-2.2.38-2.21-1.1C467.6,482.72,467.62,477.07,467.62,471.42Z" transform="translate(-7.43 -29.07)"/><path class="cls-2" d="M163.76,372.41c-17.2,0-34.4-.12-51.59.1-3.75.05-4.53-1.05-4.34-4.26.28-4.7.16-9.43,0-14.15-.06-2.09.53-2.87,2.92-2.86q53.35.09,106.7,0c2.41,0,3,.81,2.9,2.88-.12,5.15-.17,10.32,0,15.47.09,2.46-1,2.87-3.28,2.86C199.33,372.38,181.55,372.41,163.76,372.41Z" transform="translate(-7.43 -29.07)"/><path class="cls-13" d="M119.94,309.11c3,.36,7.63-1.51,9.83.71s.53,6.49.64,9.86c.1,2.74,0,5.48.05,8.22,0,1.62-.44,2.4-2.35,2.37q-9-.12-17.89,0c-1.92,0-2.37-.75-2.35-2.37.07-5.48.1-11,0-16.45,0-1.95.83-2.44,2.71-2.37C113.49,309.18,116.42,309.11,119.94,309.11Z" transform="translate(-7.43 -29.07)"/><path class="cls-13" d="M175.39,319.82c0,2.52-.11,5.05,0,7.56.11,2-.41,3-2.87,2.91-5.6-.15-11.22-.1-16.83,0-2,0-3-.37-2.92-2.52.14-5.37.1-10.75,0-16.12,0-1.74.39-2.61,2.51-2.57,5.84.11,11.69.1,17.53,0,2.06,0,2.64.73,2.56,2.52C175.31,314.33,175.39,317.08,175.39,319.82Z" transform="translate(-7.43 -29.07)"/><path class="cls-13" d="M220.35,319.75c0,2.74-.08,5.48,0,8.22.07,1.71-.59,2.33-2.43,2.3-6-.07-11.92-.06-17.88,0-1.64,0-2.28-.54-2.27-2.1.06-5.71.05-11.41,0-17.11,0-1.39.56-2,2.06-2q9.12.06,18.24,0c1.65,0,2.31.55,2.27,2.11C220.29,314.05,220.35,316.9,220.35,319.75Z" transform="translate(-7.43 -29.07)"/><path class="cls-14" d="M546.39,140.39c31.14,0,56.24,23.76,56.14,53.06-.1,29-25.37,52.53-56.4,52.49S489.91,222.15,490,192.87C490.09,163.87,515.35,140.36,546.39,140.39Zm-33.75,52.76c0,17.31,15.23,31.58,33.7,31.56,18.28,0,33.5-14.26,33.55-31.38.05-17.36-15.09-31.68-33.53-31.7S512.64,175.84,512.64,193.15Z" transform="translate(-7.43 -29.07)"/></g></svg>