<svg id="Calque_1" data-name="Calque 1" xmlns="http://www.w3.org/2000/svg" viewBox="0 0 246.62 246.98"><defs><style>.cls-1{fill:#010101;}.cls-2{fill:#ed8873;}.cls-3{fill:#fbeaae;}.cls-4{fill:#e5e7eb;}.cls-5{fill:#f5d77e;}</style></defs><title>icon-upload</title><path class="cls-1" d="M120.72,251.68c-2.55,0-5.81.91-7.46-.32s-.43-4.64-.45-7.09c-.07-7.46-.08-14.92,0-22.37,0-1.67-.47-2-2-2-13.51.06-27,0-40.52,0-11.92,0-21.27-4.79-27.92-14.69A2.67,2.67,0,0,0,39.69,204q-10.82,0-21.63,0c-7.6,0-12.66-5-12.67-12.57q0-55.06,0-110.15c0-7.54,5.08-12.51,12.69-12.55,3.22,0,3.22,0,3.22-3.25,0-19.32,0-38.63-.06-57.94,0-2.11.54-2.52,2.57-2.52q96.95.09,193.89,0c2.09,0,2.63.51,2.53,2.56-.18,3.89,0,7.79-.09,11.68,0,1.45.43,1.79,1.81,1.76,4.05-.09,8.12.06,12.17-.08,1.69-.05,2,.5,2,2.07-.07,9.2,0,18.4-.08,27.6,0,1.93.54,2.26,2.33,2.25,9-.06,13.63,4.62,13.63,13.56V190.5c0,8.78-4.72,13.5-13.48,13.51-6,0-11.93.05-17.9,0a2.33,2.33,0,0,0-2.53,1.66c-4.46,9.31-11.9,14.21-22.25,14.27-16.32.09-32.65,0-49,0-1.81,0-2.34.36-2.32,2.26.12,9.2,0,18.4.09,27.6,0,1.6-.35,2.19-2,2-2-.17-4-.09-6-.11,0-17.8,0-35.61-.07-53.41,0-1.94.57-2.33,2.36-2.26,3.55.14,7.11.08,10.67,0,2.7,0,3.65-1.62,2.29-3.9Q141.71,175,131.37,157.89c-1.44-2.36-3.92-2.36-5.35,0Q115.69,175,105.47,192.14c-1.36,2.29-.41,3.85,2.28,3.9,3.56.05,7.13.11,10.68,0,1.79-.07,2.37.32,2.36,2.26C120.7,216.07,120.73,233.88,120.72,251.68ZM38.12,196a8.57,8.57,0,0,0-.06-.92,31.69,31.69,0,0,1,31.49-38.78c1.89,0,2.47-.69,3.09-2.23,12.44-30.4,51.6-39.54,75.71-17.48A13.1,13.1,0,0,0,159,140.54c19-.91,35.08,11.34,40,29.81.29,1.09.37,2,1.95,2.38a23.57,23.57,0,0,1,19.07,21.62c.13,1.42.53,1.75,1.87,1.73,5.55-.07,11.1,0,16.65,0,4.21,0,5.44-1.25,5.44-5.49q0-47.73.06-95.47c0-2.08-.51-2.54-2.56-2.54q-112.83.09-225.67,0c-2,0-2.59.39-2.58,2.51q.12,47.73.05,95.46a16.79,16.79,0,0,0,0,1.74c.25,2.18,1.49,3.67,3.65,3.71C24,196.1,31.07,196,38.12,196ZM171.74,212c8.28,0,16.57.08,24.85,0a15.88,15.88,0,0,0,15.63-16c-.06-9-7.22-15.81-16.62-15.74-1.92,0-3.16.13-3.43-2.62-2-20.23-20.08-33-39.7-28.14-2,.5-3,.07-4.3-1.48-10.33-12.66-23.62-18-39.66-14.52s-26,13.76-30.36,29.43c-.55,2-1.06,2.7-3.27,2.11a22.53,22.53,0,0,0-11.78,0c-11.5,3.06-19.27,14.19-17.83,25.62,1.54,12.22,11.36,21.22,23.56,21.32,13.92.11,27.84,0,41.76.08,2,0,2.4-.58,2.22-2.35s.54-4.15-.37-5.27-3.4-.34-5.2-.38c-8.13-.19-13-8.33-8.9-15.35q10.43-17.89,21.31-35.53a10.65,10.65,0,0,1,18-.14q11.06,17.81,21.56,36c3.92,6.78-1,14.82-8.88,15.06-1.87.06-4.42-.86-5.41.44s-.15,3.65-.33,5.54c-.16,1.69.5,2,2.06,2C155,211.93,163.37,212,171.74,212Zm-35.1-183q-44.62,0-89.24,0c-1.87,0-2.3.45-2.28,2.3q.14,17.52,0,35.05c0,2.1.53,2.54,2.56,2.53q54.69-.11,109.37-.06c3,0,6.56.9,8.73-.45s3-4.95,4.25-7.63c2.58-5.46,6.81-7.92,12.87-7.87,14.42.14,28.83,0,43.25.09,1.63,0,2.06-.42,2-2-.09-6.47-.14-12.93,0-19.4.05-2.1-.53-2.53-2.57-2.53Q181.13,29,136.64,28.94ZM128.7,84.65h23.11q44.88,0,89.75,0c2.09,0,2.59-.52,2.54-2.57-.16-5.55,0-11.11-.07-16.66,0-3.23-1.48-4.68-4.73-4.69q-28.59,0-57.18,0a4.71,4.71,0,0,0-4.71,2.92c-1.71,3.58-3.67,7-5.25,10.68-.84,1.93-2,2.38-3.93,2.38q-74.32-.08-148.66,0a20.7,20.7,0,0,0-2.73,0c-2.73.39-3.91,2.61-3.48,6.64.28,2.64,2.39,1.18,3.47,1.19Q72.77,84.71,128.7,84.65Zm-7.8-71.6q-44.62,0-89.24-.05c-1.92,0-2.45.44-2.44,2.41.09,15.91.05,31.83.05,47.74,0,5.59,0,5.51,5.65,5.61,1.8,0,2.34-.35,2.32-2.27-.09-14.25,0-28.51-.1-42.77,0-2.24.53-2.81,2.8-2.8q83.52.1,167,0c5.23,0,5.08,0,5.29-5.24.1-2.41-.76-2.73-2.88-2.73Q165.16,13.11,120.9,13.05Z" transform="translate(-5.38 -5.02)"/><path class="cls-2" d="M120.72,251.68c0-17.8,0-35.61.07-53.41,0-1.94-.57-2.33-2.36-2.26-3.55.14-7.12.08-10.68,0-2.69,0-3.64-1.61-2.28-3.9Q115.69,175,126,157.9c1.43-2.37,3.91-2.37,5.35,0q10.33,17.1,20.55,34.25c1.36,2.28.41,3.85-2.29,3.9-3.56.05-7.12.11-10.67,0-1.79-.07-2.37.32-2.36,2.26.09,17.8.06,35.61.07,53.41Z" transform="translate(-5.38 -5.02)"/><path class="cls-3" d="M38.12,196c-7,0-14.08.07-21.1-.05-2.16,0-3.4-1.53-3.65-3.71a16.79,16.79,0,0,1,0-1.74q0-47.73-.05-95.46c0-2.12.57-2.51,2.58-2.51q112.83.07,225.67,0c2.05,0,2.56.46,2.56,2.54q-.12,47.73-.06,95.47c0,4.24-1.23,5.48-5.44,5.49-5.55,0-11.1,0-16.65,0-1.34,0-1.74-.31-1.87-1.73A23.57,23.57,0,0,0,201,172.73c-1.58-.35-1.66-1.29-1.95-2.38-4.95-18.47-21-30.72-40-29.81a13.1,13.1,0,0,1-10.68-3.92c-24.11-22.06-63.27-12.92-75.71,17.48-.62,1.54-1.2,2.26-3.09,2.23a31.69,31.69,0,0,0-31.49,38.78A8.57,8.57,0,0,1,38.12,196Z" transform="translate(-5.38 -5.02)"/><path class="cls-4" d="M171.74,212c-8.37,0-16.74,0-25.11,0-1.56,0-2.22-.31-2.06-2,.18-1.89-.6-4.33.33-5.54s3.54-.38,5.41-.44c7.85-.24,12.8-8.28,8.88-15.06q-10.49-18.15-21.56-36a10.65,10.65,0,0,0-18,.14q-10.87,17.63-21.31,35.53c-4.1,7,.77,15.16,8.9,15.35,1.8,0,4.24-.81,5.2.38s.19,3.47.37,5.27-.26,2.36-2.22,2.35c-13.92-.1-27.84,0-41.76-.08-12.2-.1-22-9.1-23.56-21.32C43.83,179.19,51.6,168.06,63.1,165a22.53,22.53,0,0,1,11.78,0c2.21.59,2.72-.15,3.27-2.11,4.4-15.67,14.34-26,30.36-29.43s29.33,1.86,39.66,14.52c1.27,1.55,2.27,2,4.3,1.48,19.62-4.88,37.72,7.91,39.7,28.14.27,2.75,1.51,2.63,3.43,2.62,9.4-.07,16.56,6.76,16.62,15.74a15.88,15.88,0,0,1-15.63,16C188.31,212,180,212,171.74,212Z" transform="translate(-5.38 -5.02)"/><path class="cls-4" d="M136.64,28.94q44.49,0,89-.05c2,0,2.62.43,2.57,2.53-.16,6.47-.11,12.93,0,19.4,0,1.62-.4,2-2,2-14.42-.07-28.83,0-43.25-.09-6.06-.05-10.29,2.41-12.87,7.87-1.27,2.68-2.09,6.29-4.25,7.63s-5.76.45-8.73.45q-54.67,0-109.37.06c-2,0-2.58-.43-2.56-2.53q.16-17.52,0-35c0-1.85.41-2.31,2.28-2.3Q92,29,136.64,28.94Zm-8.2,15.92H199c5.24,0,5.11,0,5.3-5.22.08-2.27-.57-2.79-2.81-2.79q-71.46.1-142.91,0c-5.5,0-5.39,0-5.55,5.47-.06,2.08.5,2.55,2.56,2.54C79.89,44.83,104.17,44.86,128.44,44.86Zm-11.42,8H74.52c-5.5,0-5.39,0-5.55,5.46,0,2.06.48,2.55,2.55,2.55q43.62-.12,87.23-.06c5.77,0,5.68,0,5.79-5.7,0-1.86-.43-2.31-2.29-2.3C147.17,52.85,132.1,52.82,117,52.82Zm99.2-15.92c-4,0-4,0-4,4s0,4,4,4,4,0,4-4S220.18,36.9,216.22,36.9ZM61.07,56.58c0-3.76,0-3.76-3.69-3.76-4.26,0-4.26,0-4.26,4.19,0,3.76,0,3.76,3.69,3.76C61.07,60.77,61.07,60.77,61.07,56.58Z" transform="translate(-5.38 -5.02)"/><path class="cls-5" d="M128.7,84.65q-55.93,0-111.87-.08c-1.08,0-3.19,1.45-3.47-1.19-.43-4,.75-6.25,3.48-6.64a20.7,20.7,0,0,1,2.73,0q74.34,0,148.66,0c2,0,3.09-.45,3.93-2.38,1.58-3.64,3.54-7.1,5.25-10.68a4.71,4.71,0,0,1,4.71-2.92q28.59.06,57.18,0c3.25,0,4.71,1.46,4.73,4.69,0,5.55-.09,11.11.07,16.66.05,2.05-.45,2.57-2.54,2.57q-44.88-.12-89.75,0Zm59.66-11.74c0-4.18,0-4.18-4-4.18s-3.93,0-3.93,4,0,3.93,4,3.93S188.36,76.69,188.36,72.91Zm12.06-4.18c-4.11,0-4.11,0-4.11,4.1,0,3.86,0,3.86,3.85,3.86,4.11,0,4.11,0,4.11-4.1C204.27,68.73,204.27,68.73,200.42,68.73Zm15.83,0c-4,0-4,0-4,3.93s0,4,3.93,4,4,0,4-3.93S220.18,68.73,216.25,68.73Zm11.88,3.74c0,4.22,0,4.22,4.24,4.22,3.72,0,3.72,0,3.72-3.74,0-4.22,0-4.22-4.23-4.22C228.13,68.73,228.13,68.73,228.13,72.47Z" transform="translate(-5.38 -5.02)"/><path class="cls-3" d="M120.9,13.05q44.25,0,88.49-.05c2.12,0,3,.32,2.88,2.73C212.06,21,212.21,21,207,21q-83.52,0-167,0c-2.27,0-2.82.56-2.8,2.8.11,14.26,0,28.52.1,42.77,0,1.92-.52,2.3-2.32,2.27-5.65-.1-5.65,0-5.65-5.61,0-15.91,0-31.83-.05-47.74,0-2,.52-2.41,2.44-2.41Q76.27,13.11,120.9,13.05Z" transform="translate(-5.38 -5.02)"/><path class="cls-1" d="M128.44,44.86c-24.27,0-48.55,0-72.82,0-2.06,0-2.62-.46-2.56-2.54.16-5.46,0-5.47,5.55-5.47q71.45,0,142.91,0c2.24,0,2.89.52,2.81,2.79-.19,5.21-.06,5.22-5.3,5.22Z" transform="translate(-5.38 -5.02)"/><path class="cls-1" d="M117,52.82c15.08,0,30.15,0,45.23,0,1.86,0,2.33.44,2.29,2.3-.11,5.7,0,5.7-5.79,5.7q-43.62,0-87.23.06c-2.07,0-2.6-.49-2.55-2.55.16-5.46,0-5.46,5.55-5.46Z" transform="translate(-5.38 -5.02)"/><path class="cls-1" d="M216.22,36.9c4,0,4,0,4,4s0,4-4,4-4,0-4-4S212.22,36.9,216.22,36.9Z" transform="translate(-5.38 -5.02)"/><path class="cls-1" d="M61.07,56.58c0,4.19,0,4.19-4.26,4.19-3.69,0-3.69,0-3.69-3.76,0-4.19,0-4.19,4.26-4.19C61.07,52.82,61.07,52.82,61.07,56.58Z" transform="translate(-5.38 -5.02)"/><path class="cls-1" d="M188.36,72.91c0,3.78,0,3.78-3.93,3.78s-4,0-4-3.93,0-4,3.93-4S188.36,68.73,188.36,72.91Z" transform="translate(-5.38 -5.02)"/><path class="cls-1" d="M200.42,68.73c3.85,0,3.85,0,3.85,3.86,0,4.1,0,4.1-4.11,4.1-3.85,0-3.85,0-3.85-3.86C196.31,68.73,196.31,68.73,200.42,68.73Z" transform="translate(-5.38 -5.02)"/><path class="cls-1" d="M216.25,68.73c3.93,0,3.93,0,3.93,4s0,3.93-4,3.93-3.93,0-3.93-4S212.22,68.73,216.25,68.73Z" transform="translate(-5.38 -5.02)"/><path class="cls-1" d="M228.13,72.47c0-3.74,0-3.74,3.73-3.74,4.23,0,4.23,0,4.23,4.22,0,3.74,0,3.74-3.72,3.74C228.13,76.69,228.13,76.69,228.13,72.47Z" transform="translate(-5.38 -5.02)"/></svg>