<svg id="Calque_1" data-name="Calque 1" xmlns="http://www.w3.org/2000/svg" viewBox="0 0 247.48 253.62"><defs><style>.cls-1{fill:#fdfdfd;}.cls-2{fill:#030202;}.cls-3{fill:#040404;}.cls-4{fill:#020303;}.cls-5{fill:#e6ebef;}.cls-6{fill:#a97f7f;}.cls-7{fill:#b68d8d;}.cls-8{fill:#8b9aa5;}.cls-9{fill:#9c6a6a;}.cls-10{fill:#6d7a84;}.cls-11{fill:#f67d83;}.cls-12{fill:#77cfb0;}.cls-13{fill:#65b39c;}.cls-14{fill:#020403;}</style></defs><title>icon-recap</title><g id="V1tOVD.tif"><path class="cls-1" d="M3.5,3.07l-.43.43C3,3.13,3.13,3,3.5,3.07Z" transform="translate(-3.04 -3.04)"/><path class="cls-1" d="M250.5,3.5l-.43-.43C250.44,3,250.59,3.13,250.5,3.5Z" transform="translate(-3.04 -3.04)"/><path class="cls-1" d="M3.07,256.2l.43.43C3.13,256.72,3,256.57,3.07,256.2Z" transform="translate(-3.04 -3.04)"/><path class="cls-2" d="M189.63,104.65a4,4,0,0,0,.54.37c17.48,8,23.15,31.79,11.16,46.88-7.08,8.91-9.3,19.25-6.65,30.47a24.23,24.23,0,0,0,3.66,7.88,60,60,0,0,1,6.18,11c.43,1.08,1.12,1.1,2,1.1,6.28,0,12.56-.09,18.83,0a15.44,15.44,0,0,1,12.88,6.72,15.78,15.78,0,0,1,3.08,8.26c.17,3.13.18,6.27.14,9.41a6.34,6.34,0,0,1-4.23,6.29c-1.05.41-1.18,1-1.17,2a21.33,21.33,0,0,1-.2,3.92,8,8,0,0,1-8,6.74c-4.6.06-9.19,0-13.79,0H130.05c-6.61,0-9.73-3-9.69-9.56,0-1.65-.1-2.79-2-3.48a4.88,4.88,0,0,1-3.2-4.14c-.48-5.73-1-11.46,1.59-16.95,2.89-6,7.78-8.93,14.23-9.17,6-.23,12.11-.12,18.17,0,1.57,0,2.41-.3,3.06-1.89a49.4,49.4,0,0,1,5-8.92c7.82-11.61,7-23.41.62-35.27a69.52,69.52,0,0,0-4.11-6.4c-7.45-10.77-6.6-26.31,1.9-36.44a31,31,0,0,1,6.83-6.61C171.18,101.85,180.24,101.23,189.63,104.65Zm16.14,129.07c-.58,0-1.16-.12-1.74-.12H129.2c-.37,0-.73,0-1.1,0-.8,0-1.11.32-1.21,1.15-.38,3.22.2,3.92,3.44,3.93H154.4l51.42,0,13.53.08c2.69,0,5.39,0,8.08,0,2,0,2.24-1.3,2.1-2.82-.08-.93.63-2.37-1.29-2.34C220.75,233.66,213.25,233.31,205.77,233.72ZM168,112c-12.47,5.67-16.73,23.28-8.38,34.8a50.27,50.27,0,0,1,5.48,8.88c6.08,13.57,6.21,26.75-2.27,39.48-1.49,2.24-2.74,4.63-4.2,7.12h19.64c6,0,11.95,0,17.93.09,1.57,0,1.54-.51.86-1.61-1.15-1.85-2.12-3.82-3.39-5.58-10.22-14.06-7.79-34.16,2-46.74a23.59,23.59,0,0,0,5.17-11.16c1.95-13.47-5.27-23.71-17.21-27.44A17.39,17.39,0,0,0,168,112Zm42.22,97c-.65,0-1.3-.08-2-.08H132.28a10.31,10.31,0,0,0-10.71,9.56,56.47,56.47,0,0,0-.14,5.68c0,2.87,0,2.87,2.78,2.87h84.71c.87,0,1.74-.07,2.61-.11q10.92,0,21.85.11c.93,0,1.54-.19,1.51-1.31-.07-2.69,0-5.39-.14-8.08-.18-3.43-4.68-8.73-9.05-8.69C220.53,209,215.36,209,210.19,209Z" transform="translate(-3.04 -3.04)"/><path class="cls-3" d="M162.51,62.89a24.8,24.8,0,0,1-5.5-1.33c-7.08-3-10.77-8.61-11.13-16.11s-.15-14.74-.06-22.11c0-1.74-.32-2.36-2.23-2.36q-52.87.09-105.75,0c-6.58,0-11,4.86-11.68,10.91a21.48,21.48,0,0,0-.08,2.41q0,95.79-.06,191.58c0,7.85,4.84,11.81,9.44,12.6a19.74,19.74,0,0,0,3.27.18q34.59,0,69.18,0c1.78,0,3.06.44,3.92,2.06a3.32,3.32,0,0,1-2.24,4.92,9.29,9.29,0,0,1-1.75.07q-34.82,0-69.63,0A17.45,17.45,0,0,1,27,242.23a18.8,18.8,0,0,1-7.24-12.47,30.13,30.13,0,0,1-.21-4.15q0-95.56,0-191.15c0-6.69,1.82-12.5,7.48-16.61a18.89,18.89,0,0,1,11.52-3.42q51.88,0,103.78,0c.59,0,1.17,0,1.75,0a14.14,14.14,0,0,1,10.65,4.28c6.5,6.57,13.1,13.06,19.35,19.86,3.84,4.18,7.84,8.2,11.89,12.16,4.77,4.67,7.37,9.93,7,16.86-.43,7.93-.14,15.9-.08,23.86,0,2.3-.8,3.79-3.18,4.19-2.7-.62-3.41-1.5-3.41-4.42,0-8.81,0-17.62,0-26.43,0-1.46-.31-2-1.91-2C177.06,62.94,169.78,62.89,162.51,62.89Zm19.17-6.54C171.87,46,162.42,36.11,152.43,26.21c0,6.92-.17,13.39.06,19.84.14,4,4.3,9.45,8.79,9.94C167.86,56.72,174.47,56.15,181.68,56.35Z" transform="translate(-3.04 -3.04)"/><path class="cls-4" d="M102.05,67.67c0,7.29,0,14.58,0,21.88,0,6.19-4.06,11-10.64,10.86q-21.22-.31-42.45,0C42.55,100.5,38.39,96.1,38.35,90q-.12-22.65,0-45.29c0-6.51,4-10.21,10.5-10.22q21.33,0,42.66,0c6.65,0,10.5,3.91,10.52,10.64C102.06,52.64,102.05,60.15,102.05,67.67ZM71.82,41.61q-11.25-.06-22.52-.1c-3.64,0-4.37.72-4.38,4.35V89c0,.36,0,.73,0,1.09.15,2.18,1.13,3.26,3.27,3.27,7.72,0,15.45,0,23.18-.08,6.92,0,13.85.09,20.77.08a3,3,0,0,0,3.3-3.25q0-22.65,0-45.29c0-2-1-3.22-3.08-3.23C85.53,41.52,78.68,41.58,71.82,41.61Z" transform="translate(-3.04 -3.04)"/><path class="cls-5" d="M162.51,62.89c7.27,0,14.55,0,21.83,0,1.6,0,1.92.51,1.91,2-.06,8.81,0,17.62,0,26.43,0,2.92.71,3.8,3.41,4.42v9c-9.39-3.42-18.45-2.8-27.16,2.19Z" transform="translate(-3.04 -3.04)"/><path class="cls-6" d="M211.53,226.89c-.87,0-1.74.11-2.61.11H124.21c-2.78,0-2.79,0-2.78-2.87a56.47,56.47,0,0,1,.14-5.68,10.31,10.31,0,0,1,10.71-9.56h75.95c.66,0,1.31.05,2,.08C212.06,214.85,211.42,220.9,211.53,226.89Z" transform="translate(-3.04 -3.04)"/><path class="cls-6" d="M168,112a17.39,17.39,0,0,1,15.62-2.16c11.94,3.73,19.16,14,17.21,27.44a23.59,23.59,0,0,1-5.17,11.16c-9.78,12.58-12.21,32.68-2,46.74,1.27,1.76,2.24,3.73,3.39,5.58.68,1.1.71,1.63-.86,1.61-6-.08-12-.07-17.93-.09q0-34.27,0-68.53a26.68,26.68,0,0,0-.44-5.42C176.44,121.7,173.8,115.89,168,112Z" transform="translate(-3.04 -3.04)"/><path class="cls-7" d="M168,112c5.83,3.91,8.47,9.72,9.84,16.33a26.68,26.68,0,0,1,.44,5.42q0,34.26,0,68.53H158.6c1.46-2.49,2.71-4.88,4.2-7.12,8.48-12.73,8.35-25.91,2.27-39.48a50.27,50.27,0,0,0-5.48-8.88C151.24,135.26,155.5,117.65,168,112Z" transform="translate(-3.04 -3.04)"/><path class="cls-8" d="M205.82,238.62l-51.42,0H130.33c-3.24,0-3.82-.71-3.44-3.93.1-.83.41-1.18,1.21-1.15.37,0,.73,0,1.1,0H204c.58,0,1.16.08,1.74.12C205.78,235.35,205.8,237,205.82,238.62Z" transform="translate(-3.04 -3.04)"/><path class="cls-9" d="M211.53,226.89c-.11-6,.53-12-1.34-17.9,5.17,0,10.34,0,15.51-.07,4.37,0,8.87,5.26,9.05,8.69.13,2.69.07,5.39.14,8.08,0,1.12-.58,1.31-1.51,1.31Q222.46,226.93,211.53,226.89Z" transform="translate(-3.04 -3.04)"/><path class="cls-10" d="M205.82,238.62c0-1.63,0-3.27,0-4.9,7.48-.41,15-.06,22.47-.18,1.92,0,1.21,1.41,1.29,2.34.14,1.52-.14,2.82-2.1,2.82-2.69,0-5.39,0-8.08,0Z" transform="translate(-3.04 -3.04)"/><path class="cls-11" d="M181.68,56.35c-7.21-.2-13.82.37-20.4-.36-4.49-.49-8.65-6-8.79-9.94-.23-6.45-.06-12.92-.06-19.84C162.42,36.11,171.87,46,181.68,56.35Z" transform="translate(-3.04 -3.04)"/><path class="cls-12" d="M71.38,93.23c-7.73,0-15.46.09-23.18.08-2.14,0-3.12-1.09-3.27-3.27,0-.36,0-.73,0-1.09V45.86c0-3.63.74-4.36,4.38-4.35q11.27,0,22.52.1l.08,26c-.66,2.25-2.59,3.61-3.8,5.47-.34.52-.73.26-1.09,0-2.21-1.65-4.54-3.16-6.57-5-1.19-1.09-2.23-2-3.91-1.69s-2.13,1.63-2.44,3c-.4,1.77.64,2.84,1.94,3.8,3.17,2.31,6.31,4.66,9.47,7C68,82,69,81.87,71.36,79.7c.15.31.44.63.43.94C71.67,84.84,72.25,89.06,71.38,93.23Z" transform="translate(-3.04 -3.04)"/><path class="cls-13" d="M71.38,93.23c.87-4.17.29-8.39.41-12.59,0-.31-.28-.63-.43-.94L87.2,58.88a11.17,11.17,0,0,0,1.23-1.79c.75-1.58,0-4.11-1.54-4.7-1.74-.68-3-.24-4.21,1.45C79.25,58.54,75.51,63,71.9,67.56l-.08-25.95c6.86,0,13.71-.09,20.56-.07,2,0,3.07,1.25,3.08,3.23q0,22.64,0,45.29a3,3,0,0,1-3.3,3.25C85.23,93.32,78.3,93.26,71.38,93.23Z" transform="translate(-3.04 -3.04)"/><path class="cls-14" d="M71.9,67.56c3.61-4.56,7.35-9,10.78-13.72,1.24-1.69,2.47-2.13,4.21-1.45,1.51.59,2.29,3.12,1.54,4.7a11.17,11.17,0,0,1-1.23,1.79L71.36,79.7C69,81.87,68,82,65.5,80.1c-3.16-2.32-6.3-4.67-9.47-7-1.3-1-2.34-2-1.94-3.8.31-1.37.81-2.69,2.44-3s2.72.6,3.91,1.69c2,1.85,4.36,3.36,6.57,5,.36.27.75.53,1.09,0C69.31,71.17,71.24,69.81,71.9,67.56Z" transform="translate(-3.04 -3.04)"/></g></svg>