<svg id="Calque_1" data-name="Calque 1" xmlns="http://www.w3.org/2000/svg" viewBox="0 0 632.65 691.15"><defs><style>.cls-1{fill:#383737;}.cls-2{fill:#3a3a3a;}.cls-3{fill:#3c3c3c;}.cls-4{fill:#3c3b3c;}.cls-5{fill:#3d3d3d;}.cls-6{fill:#79797a;}.cls-7{fill:#ddb489;}.cls-8{fill:#bb926c;}.cls-9{fill:#fafafa;}.cls-10{fill:#767575;}.cls-11{fill:#353535;}.cls-12{fill:#8a7560;}</style></defs><title>icon-price</title><g id="Ph89T3.tif"><path class="cls-1" d="M368.39,531.34q-61.92,0-123.83,0c-14.24,0-26.13-5.15-35.05-16.21-6.22-7.71-9-16.64-9-26.43q0-46.1-.07-92.17-.06-85.5-.16-171a76.77,76.77,0,0,1,3.11-23.3,75.54,75.54,0,0,1,32-41.93,71.55,71.55,0,0,1,29.17-11c4.81-.66,5.13-.93,5.73-5.08,2-13.79,7.61-26.15,15.71-37.44a100.54,100.54,0,0,1,39.32-32.42,89.42,89.42,0,0,1,28.56-8.53c2.3-.25,2.25-1.72,2.25-3.31,0-10.78,0-21.56,0-32.35,0-5.5,2.35-9.61,7.67-12,5.55-2.47,13.25.47,15.44,6.13a17.33,17.33,0,0,1,1.25,6.51c-.06,10.27,0,20.54-.08,30.8,0,2.55.72,3.73,3.4,4,18,2,34,8.92,48.33,19.54A92.45,92.45,0,0,1,462,121.7a80.29,80.29,0,0,1,7.07,24.5c.21,2,1.31,2.92,3.34,3.27,21.37,3.68,37.82,14.81,50,32.21,9.2,13.16,13,27.88,13,43.76,0,30.38.22,60.76.32,91.14q.27,85.64.54,171.25c0,10.3-2.78,19.55-9.34,27.57-8.8,10.75-20.45,15.89-34.39,15.92Q430.43,531.41,368.39,531.34ZM232.34,504l.11-.09-.1.1a9.26,9.26,0,0,0,6.93,3.08c2.1.05,4.19.14,6.28.14H491.13c2.09,0,4.18-.08,6.28-.12,4.07.1,7.23-2,9.77-4.66,2-2.15,4.22-4.47,4-7.82,0-.42,0-.84.08-1.26,1.36-1.45.8-3.26.8-4.89q0-48.39-.15-96.77c0-.91.3-1.92-.65-2.61l-.12-137.86a4.86,4.86,0,0,0,.32-1.2c0-10.05,0-20.1-.1-30.16a16.65,16.65,0,0,0-1.48-7.15l-.15-1c-.09-3.46-1.66-6.5-3-9.54-1-2.17-1.68-4.66-3.85-6.17a.35.35,0,0,0-.12-.33c-1.71-3.19-3.62-6.23-6.84-8.23h0a6.84,6.84,0,0,0-4.08-3.68l0,0c-1.75-2.57-4.52-3.88-7.13-5.29-3.58-1.94-7.18-3.93-11.36-4.43l-1.3-.1a4.21,4.21,0,0,0-4-1.19l-1-.07c-4.12-1.14-8.35-1.15-12.57-1.27l-.76-.07c-.75-.56-1.48-1.14-2.25-1.67a11.76,11.76,0,0,1-5.41-9.11c-.08-1,.37-2.26-.76-3.07,0-2.14-.07-4.27-.1-6.41a9.58,9.58,0,0,0-1.43-7.48l-.1-1.25a12.36,12.36,0,0,0-2.58-7.44l-.1-.78c.59-1.38-.7-2.17-1.17-3.13-1.53-3.15-2.54-6.66-5.51-9l-.31-.74a10.29,10.29,0,0,0-4-5.22h0a26.26,26.26,0,0,0-9.37-9.3l-.1.12.09-.12a4.69,4.69,0,0,0-3.15-2.55l-.1.11.09-.11c-2.72-3.1-6.44-4.8-10-6.72-4.52-2.45-9.15-4.72-14.29-5.71l-1-.19c-1.46-.8-2.86-1.8-4.7-1.26l-1.3-.09a5.09,5.09,0,0,0-5.07-1.11c-1.67.68-.84,2.61-.84,4,0,18-.15,35.92.3,53.89a2.89,2.89,0,0,0,2.5,3.21,53,53,0,0,1,19.7,10.08,50.57,50.57,0,0,1,17.64,28,48.73,48.73,0,0,1-1.16,26.78,50,50,0,0,1-13.93,21.84A52.81,52.81,0,0,1,373.62,251c-7.18.6-14.34.26-21.17-2A55.74,55.74,0,0,1,327,232.3a48.21,48.21,0,0,1-9.58-17.12,50.55,50.55,0,0,1-.3-29.78,49.57,49.57,0,0,1,19.06-27,54.5,54.5,0,0,1,17.51-8.31c1-.26,2.3-.36,2.28-1.72-.09-4.42.43-8.86-.25-13.27l0-44.67c-.68-2.1-1.63-.91-2.54-.2l-1.31.07c-.67-.53-1.33-.17-2,0a84.6,84.6,0,0,0-18.95,7.61c-3.18,1.84-6.51,3.5-9,6.26l.09.11-.1-.1a7.44,7.44,0,0,0-4.25,3.57.42.42,0,0,0-.34.17,21.66,21.66,0,0,0-7.94,8.13.33.33,0,0,0-.16.29,1.33,1.33,0,0,0-1,1.1l0,0a6.5,6.5,0,0,0-1.39,1.07A64.48,64.48,0,0,0,298,133.73c-1,2.47-2.47,4.83-2.42,7.63l-.23,1.49c-1.12,1.73-1.92,3.53-1.26,5.65,0,.76-.06,1.52-.08,2.29-1.3,1.56-1.19,3.46-1.26,5.29-.12,3.31.17,6.65-1.21,9.81a.35.35,0,0,0-.12.33A19.58,19.58,0,0,1,281,171.85c-2.73.5-5.54-.23-8.17.8l-2.07.12a5.62,5.62,0,0,0-5,1.14l-1.28.08a19.85,19.85,0,0,0-10.76,4l-.82.17a2.45,2.45,0,0,0-2.33,1.36.34.34,0,0,0-.34.13c-1.49.52-3,.92-3.81,2.5a.35.35,0,0,0-.31.16A29.8,29.8,0,0,0,235,193.09a.33.33,0,0,0-.13.31,1.29,1.29,0,0,0-1,1.13l0,0A22.91,22.91,0,0,0,228.13,205l-.1.75c-2,2.53-2.45,5.49-2.63,8.55l-.19,2a25.66,25.66,0,0,0-1,8.78c.09,25.91.11,51.82.24,77.72.32,61.42.16,122.83.22,184.24,0,1.66-.47,3.41.54,5l.13,1.51a7.14,7.14,0,0,0,2.73,5.94.36.36,0,0,0,.1.35A7.43,7.43,0,0,0,232.34,504ZM387.88,178.87c-.38-2.44-2.8-2.83-4.39-3.87-3-2-4.29-1.11-4.3,2.49,0,7.34,0,14.68,0,22,0,6-2.3,8.87-8.25,10.68-.73.23-1.54.39-1.86,1.24l-1.93,0c-.62-1.29-2-1.19-3.09-1.63-3.22-1.3-5.76-3.44-6.35-6.83a50.5,50.5,0,0,1-.64-9.7c.11-5.56.06-11.12,0-16.68,0-2.48-.74-3-2.83-2a26,26,0,0,0-15.06,18.32,27.14,27.14,0,0,0,.86,16,28.69,28.69,0,0,0,14.23,16c3.61,1.87,7.33,3.78,11.71,2.83h4.78c2.17.64,4.1,0,6.23-.6a28,28,0,0,0,19.09-16.49c4.06-9.33,2.9-18.59-2.88-27C391.88,181.75,390.67,179.36,387.88,178.87Z" transform="translate(-51.96 -17.26)"/><path class="cls-2" d="M635,434.45v63.67c0,.77,0,1.54,0,2.31s.07,1.31.7,1.55,1.07-.39,1.48-.81c3.93-4,7.76-8.09,11.79-12,5.59-5.39,13.68-4.76,18.5,1.28a11,11,0,0,1-.15,14c-6.12,6.88-12.56,13.49-18.88,20.2-5.43,5.76-11,11.41-16.28,17.31-4.77,5.32-13.51,5.8-19-.67-7.86-9.23-15.59-18.58-23.35-27.89-3.3-3.95-7.09-7.57-9.64-12a11.46,11.46,0,0,1,3.71-15.2,12,12,0,0,1,15.63,1.91c3.23,3.57,6.17,7.4,9.26,11.08.35.41.51,1.29,1.29,1s.55-1,.57-1.58c0-.94,0-1.88,0-2.83q0-62.76,0-125.54c0-4.81,1.57-8.78,5.76-11.37a12.14,12.14,0,0,1,18.51,9.37,35.78,35.78,0,0,1,.09,3.59Z" transform="translate(-51.96 -17.26)"/><path class="cls-2" d="M123,434.56q0,32.08,0,64.17c0,1.11-.63,2.73.77,3.2,1.15.38,1.77-1.13,2.53-1.9,3.53-3.54,7-7.17,10.53-10.67a12,12,0,0,1,14.33-2.46c4.61,2.16,7.12,6.86,6.52,12.3-.34,3-2.12,5.36-4.15,7.5Q138.9,522,124.26,537.37c-1.24,1.32-2.47,2.65-3.63,4-4.65,5.57-13.12,6.34-18.19,1.09s-9.83-11.28-14.65-17c-5.87-7-11.67-14-17.52-21-4.21-5-4.79-10.72-1.51-15.31a12,12,0,0,1,18.56-1.28c3.3,3.51,6.17,7.39,9.28,11.06.37.44.53,1.5,1.48,1.07.64-.28.47-1,.5-1.62,0-.85,0-1.71,0-2.56q0-62.76,0-125.52c0-4.88,1.53-9,5.87-11.54a12.13,12.13,0,0,1,18.43,9.52c.09,1.1.06,2.22.06,3.33Z" transform="translate(-51.96 -17.26)"/><path class="cls-2" d="M379,626.44v34.4c0,.77,0,1.55.05,2.31.05.57,0,1.29.75,1.47s.91-.43,1.25-.78c3.72-3.84,7.39-7.73,11.16-11.53,5.5-5.54,12.91-5.82,18.08-.76a11.26,11.26,0,0,1,1,15.37c-5.43,6.56-11.64,12.45-17.49,18.65S382.08,698,376.31,704.26c-4.57,5-12.94,5.77-17.87.76-4.6-4.68-8.53-9.91-12.74-14.91-6.87-8.15-13.73-16.32-20.46-24.59a11.4,11.4,0,0,1,1.82-16.26,11.62,11.62,0,0,1,16.39,1.26c3,3.31,5.72,6.87,8.62,10.28.52.61,1,1.81,1.88,1.51,1.1-.37.64-1.64.64-2.53q0-34.14,0-68.29c0-4.83,1.78-8.72,6-11.24,8-4.81,17.94.73,18.32,10.25.22,5.38.06,10.78.07,16.17Z" transform="translate(-51.96 -17.26)"/><path class="cls-3" d="M636.44,151c-.37,3.38.7,7.83-1,12.18a12.56,12.56,0,0,1-10.73,7.69c-4.73.17-9.83-3-11.47-7a16.67,16.67,0,0,1-1.27-6.48c.08-5.38-.09-10.76.09-16.13a12.17,12.17,0,0,1,24.32-.2C636.53,144,636.44,147,636.44,151Z" transform="translate(-51.96 -17.26)"/><path class="cls-4" d="M636.43,74.48c-.4,3.11.73,7.32-.78,11.44a12,12,0,0,1-12.89,8.21c-5.17-.49-10.08-5.1-10.5-10.53a126.89,126.89,0,0,1,0-20.26c.5-6.16,6.19-10.82,12.31-10.65A12.32,12.32,0,0,1,636.4,64.21C636.55,67.28,636.43,70.37,636.43,74.48Z" transform="translate(-51.96 -17.26)"/><path class="cls-4" d="M151.4,108.92c-3.13,0-6.27.13-9.4,0a12.39,12.39,0,0,1-11.55-9.46c-1.21-4.61,1.33-10.09,6.08-12.76a11.93,11.93,0,0,1,5.72-1.58c6.18-.07,12.37-.2,18.54,0a11.86,11.86,0,0,1,.53,23.71c-3.29.21-6.61,0-9.92,0Z" transform="translate(-51.96 -17.26)"/><path class="cls-4" d="M72.88,109.07c-4.51-.47-9.07.64-13.48-1.2A12.18,12.18,0,0,1,52,96.53a11.74,11.74,0,0,1,8.39-10.62c6.43-1.8,13-.48,19.51-.88A17.82,17.82,0,0,1,86.3,86a12,12,0,0,1,8,10.66,12.26,12.26,0,0,1-7.23,11.2C82.41,109.78,77.58,108.57,72.88,109.07Z" transform="translate(-51.96 -17.26)"/><path class="cls-5" d="M662.16,123.71c-3.45-.4-8,.77-12.42-1a12.1,12.1,0,0,1-7.5-11.24,11.87,11.87,0,0,1,7.87-10.71,18.45,18.45,0,0,1,6.15-1c5.49,0,11-.12,16.47.12a11.89,11.89,0,0,1,.12,23.78C669.63,123.82,666.4,123.71,662.16,123.71Z" transform="translate(-51.96 -17.26)"/><path class="cls-5" d="M583.93,123.71c-3.48-.39-8,.78-12.45-1a12.46,12.46,0,0,1-7.59-11.24,12.22,12.22,0,0,1,8-10.71,18.36,18.36,0,0,1,6.15-1c5.4,0,10.8-.11,16.2.09,6.73.24,11.9,5.31,12,11.48a12.12,12.12,0,0,1-11.69,12.33C591.37,123.82,588.14,123.71,583.93,123.71Z" transform="translate(-51.96 -17.26)"/><path class="cls-5" d="M124.42,136.61c-.36,3.16.78,7.62-1,12a12.31,12.31,0,0,1-11.08,7.54c-4.81,0-9.62-3.18-11.22-7.38a16,16,0,0,1-1.08-6c.06-5.47-.08-10.94.07-16.4a12.14,12.14,0,0,1,24.25-.42C124.56,129.06,124.42,132.23,124.42,136.61Z" transform="translate(-51.96 -17.26)"/><path class="cls-6" d="M99.75,58.67c0-3.07-.06-6.15,0-9.22.15-5.83,4.75-10.73,11-11.85,5-.89,10.62,2.55,12.88,7.55a13.33,13.33,0,0,1,1.15,5.69c0,5.3-.12,10.6,0,15.89.19,7.16-5.91,14.46-15.64,12.71-4.57-.83-9.26-6.2-9.42-11-.1-3.24,0-6.49,0-9.74Zm23.39,0h0a72.51,72.51,0,0,1,0-8.21c.77-6.86-5.29-12.43-13.11-11.43-3.19.4-8.88,5.4-8.72,9,.32,7.09.08,14.2.11,21.3a5.25,5.25,0,0,0,.45,2.75c2.93,5.18,7.81,7.21,13.58,5.63,4.93-1.35,7.5-4.53,7.6-9.57C123.19,65,123.14,61.86,123.14,58.69Z" transform="translate(-51.96 -17.26)"/><path class="cls-7" d="M472,173.92l1.3.1a3,3,0,0,0,2.46,1.64c3,.71,5.64,2.3,8.38,3.65s4.76,3.53,7.65,4.43l0,0a6.13,6.13,0,0,0,4.09,3.67h0c1,2.66,3.43,4.38,4.95,6.71.42.63.72,1.68,1.89,1.51a.35.35,0,0,1,.12.33,1.78,1.78,0,0,0,.26,1.68c2.25,4.12,4.59,8.2,5.37,12.91a1.43,1.43,0,0,0,1.26,1.12l.15,1c-.88,1.16-.52,2.51-.36,3.71a87.33,87.33,0,0,1,1,12.72c0,6.49,0,13,0,19.49,0,.89-.37,1.92.63,2.59l.12,137.86a8.37,8.37,0,0,0-.27,3.3q0,49.09,0,98.19c0,.92.16,1.85.25,2.78,0,.42-.05.84-.08,1.26-1.16.38-1.33,1.43-1.74,2.37-1.77,4.17-4.55,7.32-9.21,8.5a4.49,4.49,0,0,0-2.86,1.61c-2.1,0-4.19.12-6.28.12H245.56c-2.09,0-4.18-.09-6.28-.14-1.89-1.94-4.41-2.49-6.93-3.08l.1-.1-.11.09c-1-1.79-2.1-3.43-4.18-4.14a.36.36,0,0,1-.1-.35c-.75-2.05-.65-4.48-2.73-5.94,0-.51-.09-1-.13-1.51.86-1,.43-2.14.43-3.21q0-134.91,0-269.82c0-.91.35-1.9-.42-2.7.07-.67.13-1.34.19-2,2-2.51,2.23-5.56,2.63-8.55,0-.25.07-.5.1-.75a34.7,34.7,0,0,0,5.73-10.42l0,0c1,.15,1.23-.27,1-1.13a.32.32,0,0,1,.14-.31,1.38,1.38,0,0,0,1.37-.52A59,59,0,0,1,245,184c.53-.46,1.11-.82,1-1.62a.32.32,0,0,1,.31-.15c1.73-.18,3.2-.72,3.81-2.51a.34.34,0,0,1,.34-.13c1.22.29,2.14.06,2.33-1.36l.82-.17c1.8.78,2.92-.82,4.25-1.36,2.16-.88,4.86-.6,6.51-2.66l1.28-.08c1.81.17,3.76,1,5-1.14l2.07-.12a20,20,0,0,0,14.41-1.79c1.78-1,4.17-1.93,4.22-4.64a.35.35,0,0,1,.12-.33c1,.07,1.3-.69,1.53-1.41a32.66,32.66,0,0,0,.94-13.69c0-.77.05-1.53.08-2.29,1.07-1.75,2.29-3.46,1.26-5.65.08-.5.15-1,.22-1.49,1-.24,1.21-1.1,1.47-1.93a63.56,63.56,0,0,1,10.48-20.13c.42-.55,1-1,.65-1.79l0,0c1,.19,1.23-.24,1-1.1a.33.33,0,0,1,.16-.29A29.67,29.67,0,0,0,317.3,108a.42.42,0,0,1,.34-.17,6.07,6.07,0,0,0,4.25-3.57l.1.1-.09-.11a2.36,2.36,0,0,0,2.15-.59,75.59,75.59,0,0,1,21.23-10.76c2.19-.71,5-.35,6.59-2.54l1.31-.07,2.54.2,0,44.67c-1.26.34-2.5.77-3.77,1a61.44,61.44,0,0,0-15.44,5.69c-8.18,4-14.87,10-20.78,16.73a56.71,56.71,0,0,0-9.38,14.86,73,73,0,0,0-4.89,17,59.16,59.16,0,0,0-.17,17.77,40.85,40.85,0,0,0,1.13,6.51,89.9,89.9,0,0,0,5.34,14.06,65.29,65.29,0,0,0,12.91,17.49,59.26,59.26,0,0,0,17.08,11.9,77.2,77.2,0,0,0,13.27,5c3.05.74,6.13,1,9.15,1.66,5.28,1.14,10.51.79,15.8.24a65,65,0,0,0,22.87-6.59c11.49-5.86,20.94-14,27.68-25.16A65.71,65.71,0,0,0,436.09,202a62.56,62.56,0,0,0-1.42-15.46,61.94,61.94,0,0,0-9.6-22.5,67.09,67.09,0,0,0-41.63-28.25c-2-.43-2.3-1.09-2.29-2.77.05-12.66,0-25.32,0-38,0-1.53-.38-3.36.33-4.5.59-1,2.53.21,3.87-.13l.76-.19,1.3.09c1.28,1.43,2.73,2.27,4.7,1.26l1,.18c.24,1,1.11,1.19,2,1.44a37,37,0,0,1,4.81,1.72c5.34,2.45,10.69,4.94,15.35,8.58a2.54,2.54,0,0,0,2.15.7l-.09.11.1-.1a3.37,3.37,0,0,0,3.15,2.54l-.09.12.1-.11c-.28.86.46,1.26.93,1.67a61.46,61.46,0,0,1,7.27,7.25c.21.26.77.26,1.17.37h0a8.26,8.26,0,0,0,4,5.22c.11.25.21.49.31.74a1.46,1.46,0,0,0,.21,1.42q2.24,3.84,4.42,7.71c.59,1.06.5,2.55,2.05,3,0,.26.07.52.1.78.25,2.68.49,5.37,2.58,7.44,0,.42.07.83.1,1.25-.75,2.72.22,5.12,1.43,7.48,0,2.14.07,4.27.1,6.41a11.51,11.51,0,0,0,3.88,11.62c1.21,1.09,2.32,2.9,4.54,2.23l.76.08c.25.33.46.91.76,1,3.92.69,7.84,1.33,11.81.3l1,.07C468.82,174.93,470.54,174.05,472,173.92ZM369.72,288.25c-3.05,0-6.11.09-9.16,0-2.45-.09-3.49.8-3.43,3.28.11,5.05-.17,10.11.11,15.15.16,2.92-1.3,3.86-3.71,4.59a38.83,38.83,0,0,0-19.94,13.54,34.22,34.22,0,0,0-7.25,19.45c-.51,9.59,1.39,18.33,8,25.77,5.35,6,12,10.12,19.22,13.52,6.74,3.17,13.88,5.5,20.35,9.26,3.9,2.26,7.63,5,8.78,9.29,2.87,10.72-3.19,16.82-12.75,18.48-6.16,1.06-12.38,0-18.31-1.63a54.1,54.1,0,0,1-17.55-8.37c-1.47-1.08-2.35-.43-2.9.73-.76,1.6-1.18,3.35-1.79,5-1.7,4.67-3.34,9.36-5.19,14-1,2.4-.75,4,1.5,5.42a69.17,69.17,0,0,0,9,4.93,51.87,51.87,0,0,0,18.57,5c1.86.12,2.37.74,2.34,2.46-.08,5,0,10.1,0,15.15,0,3.51.43,4,4.05,4,5.68,0,11.35,0,17,0,3.49,0,4.32-.82,4.33-4.24,0-5.56,0-11.12,0-16.69,0-.9-.16-1.76,1.22-2.14a44.5,44.5,0,0,0,14.15-6.67c8.13-5.8,13.8-13.39,16-23a42.62,42.62,0,0,0-.78-21.4,36.19,36.19,0,0,0-10.74-16.82c-7.76-7.17-17.55-11-27.07-15.16-5.34-2.36-10.82-4.52-15.06-8.76-2.85-2.84-3.81-9.12-1.77-12.58,2.55-4.32,6.77-6,11.43-6.37a41,41,0,0,1,12.12,1.13,66.08,66.08,0,0,1,16.12,5.79c4.06,2,5,1.58,6.44-2.71,1.84-5.53,3.74-11.07,6.12-16.39,1.06-2.38.22-3.33-1.49-4.3a67.94,67.94,0,0,0-23.18-8.1c-2-.32-2.43-1.08-2.4-2.82.07-4.87,0-9.75.05-14.63,0-2.34-.93-3.24-3.28-3.16C375.83,288.33,372.77,288.25,369.72,288.25Z" transform="translate(-51.96 -17.26)"/><path class="cls-8" d="M386.14,90.23l-.76.19c-1.34.34-3.28-.82-3.87.13-.71,1.14-.33,3-.33,4.5,0,12.66,0,25.32,0,38,0,1.68.29,2.34,2.29,2.77a67.09,67.09,0,0,1,41.63,28.25,61.94,61.94,0,0,1,9.6,22.5A62.56,62.56,0,0,1,436.09,202a65.71,65.71,0,0,1-9.54,31.31c-6.74,11.13-16.19,19.3-27.68,25.16A65,65,0,0,1,376,265.07c-5.29.55-10.52.9-15.8-.24-3-.65-6.1-.92-9.15-1.66a77.2,77.2,0,0,1-13.27-5,59.26,59.26,0,0,1-17.08-11.9,65.29,65.29,0,0,1-12.91-17.49,89.9,89.9,0,0,1-5.34-14.06,40.85,40.85,0,0,1-1.13-6.51,59.16,59.16,0,0,1,.17-17.77,73,73,0,0,1,4.89-17,56.71,56.71,0,0,1,9.38-14.86c5.91-6.76,12.6-12.71,20.78-16.73A61.44,61.44,0,0,1,352,136.12c1.27-.24,2.51-.67,3.77-1,.68,4.41.16,8.85.25,13.27,0,1.36-1.32,1.46-2.28,1.72a54.5,54.5,0,0,0-17.51,8.31,49.57,49.57,0,0,0-19.06,27,50.55,50.55,0,0,0,.3,29.78A48.21,48.21,0,0,0,327,232.3,55.74,55.74,0,0,0,352.45,249c6.83,2.25,14,2.59,21.17,2a52.81,52.81,0,0,0,31.66-14.07,50,50,0,0,0,13.93-21.84,48.73,48.73,0,0,0,1.16-26.78,50.57,50.57,0,0,0-17.64-28A53,53,0,0,0,383,150.19a2.89,2.89,0,0,1-2.5-3.21c-.45-18-.33-35.93-.3-53.89,0-1.36-.83-3.29.84-4A5.09,5.09,0,0,1,386.14,90.23Z" transform="translate(-51.96 -17.26)"/><path class="cls-9" d="M370.74,227.79H366c-1-.88-2.39-.9-3.64-1.14-12.17-2.36-20.47-11.31-22.47-22.1a26.46,26.46,0,0,1,13.32-28.26c2.33-1.26,2.6-1.15,2.61,1.46,0,6.66.06,13.33,0,20a17.37,17.37,0,0,0,1.39,7.22c1.55,3.6,6.39,6.81,10,6.47l1.93,0a3.12,3.12,0,0,0,2.54,0,12.62,12.62,0,0,0,9.05-12.08c.06-7.27,0-14.53,0-21.8,0-2.42.43-2.62,2.53-1.41l4.67,2.72a5.78,5.78,0,0,0,.69,1c8.07,8.08,10.59,17.56,7.17,28.37-2.51,7.92-8.1,13.19-15.63,16.78C377.1,226.5,373.65,226.18,370.74,227.79Z" transform="translate(-51.96 -17.26)"/><path class="cls-8" d="M225.21,216.29c.77.8.42,1.79.42,2.7q0,134.91,0,269.82c0,1.07.43,2.23-.43,3.21-1-1.58-.54-3.33-.54-5-.06-61.41.1-122.82-.22-184.24-.13-25.9-.15-51.81-.24-77.72A25.66,25.66,0,0,1,225.21,216.29Z" transform="translate(-51.96 -17.26)"/><path class="cls-10" d="M367.12,211.42c-3.58.34-8.42-2.87-10-6.47a17.37,17.37,0,0,1-1.39-7.22c.08-6.66,0-13.33,0-20,0-2.61-.28-2.72-2.61-1.46a26.46,26.46,0,0,0-13.32,28.26c2,10.79,10.3,19.74,22.47,22.1,1.25.24,2.59.26,3.64,1.14-4.38.95-8.1-1-11.71-2.83a28.69,28.69,0,0,1-14.23-16,27.14,27.14,0,0,1-.86-16,26,26,0,0,1,15.06-18.32c2.09-.93,2.81-.45,2.83,2,.05,5.56.1,11.12,0,16.68a50.5,50.5,0,0,0,.64,9.7c.59,3.39,3.13,5.53,6.35,6.83C365.11,210.23,366.5,210.13,367.12,211.42Z" transform="translate(-51.96 -17.26)"/><path class="cls-8" d="M511.3,493.33c-.09-.93-.25-1.86-.25-2.78q0-49.1,0-98.19a8.37,8.37,0,0,1,.27-3.3c.95.69.65,1.7.65,2.61q.1,48.39.15,96.77C512.1,490.07,512.66,491.88,511.3,493.33Z" transform="translate(-51.96 -17.26)"/><path class="cls-10" d="M370.74,227.79c2.91-1.61,6.36-1.29,9.37-2.74,7.53-3.59,13.12-8.86,15.63-16.78,3.42-10.81.9-20.29-7.17-28.37a5.78,5.78,0,0,1-.69-1c2.79.49,4,2.88,5.3,4.78,5.78,8.46,6.94,17.72,2.88,27A28,28,0,0,1,377,227.19C374.84,227.77,372.91,228.43,370.74,227.79Z" transform="translate(-51.96 -17.26)"/><path class="cls-10" d="M387.88,178.87l-4.67-2.72c-2.1-1.21-2.52-1-2.53,1.41,0,7.27,0,14.53,0,21.8a12.62,12.62,0,0,1-9.05,12.08,3.12,3.12,0,0,1-2.54,0c.32-.85,1.13-1,1.86-1.24,5.95-1.81,8.21-4.68,8.25-10.68,0-7.35,0-14.69,0-22,0-3.6,1.29-4.45,4.3-2.49C385.08,176,387.5,176.43,387.88,178.87Z" transform="translate(-51.96 -17.26)"/><path class="cls-8" d="M511.18,251.2c-1-.67-.62-1.7-.63-2.59,0-6.5-.07-13,0-19.49a87.33,87.33,0,0,0-1-12.72c-.16-1.2-.52-2.55.36-3.71a16.65,16.65,0,0,1,1.48,7.15c.14,10.06.1,20.11.1,30.16A4.86,4.86,0,0,1,511.18,251.2Z" transform="translate(-51.96 -17.26)"/><path class="cls-8" d="M351.87,90.31c-1.63,2.19-4.4,1.83-6.59,2.54a75.59,75.59,0,0,0-21.23,10.76,2.36,2.36,0,0,1-2.15.59c2.53-2.76,5.86-4.42,9-6.26a84.6,84.6,0,0,1,18.95-7.61C350.54,90.14,351.2,89.78,351.87,90.31Z" transform="translate(-51.96 -17.26)"/><path class="cls-8" d="M308.18,117.51c.33.79-.23,1.24-.65,1.79a63.56,63.56,0,0,0-10.48,20.13c-.26.83-.43,1.69-1.47,1.93,0-2.8,1.44-5.16,2.43-7.63a64.48,64.48,0,0,1,8.78-15.15A6.5,6.5,0,0,1,308.18,117.51Z" transform="translate(-51.96 -17.26)"/><path class="cls-8" d="M417.41,104.2a2.54,2.54,0,0,1-2.15-.7c-4.66-3.64-10-6.13-15.35-8.58a37,37,0,0,0-4.81-1.72c-.84-.25-1.71-.42-2-1.44,5.14,1,9.77,3.27,14.29,5.72C411,99.4,414.69,101.1,417.41,104.2Z" transform="translate(-51.96 -17.26)"/><path class="cls-8" d="M291.43,166.22c-.05,2.71-2.44,3.69-4.22,4.64a20,20,0,0,1-14.41,1.79c2.63-1,5.44-.3,8.17-.8A19.58,19.58,0,0,0,291.43,166.22Z" transform="translate(-51.96 -17.26)"/><path class="cls-8" d="M491.81,183.74c-2.89-.9-5-3.11-7.65-4.43s-5.35-2.94-8.38-3.65a3,3,0,0,1-2.46-1.64c4.18.5,7.78,2.49,11.36,4.43C487.29,179.86,490.06,181.17,491.81,183.74Z" transform="translate(-51.96 -17.26)"/><path class="cls-8" d="M497.41,507.07a4.49,4.49,0,0,1,2.86-1.61c4.66-1.18,7.44-4.33,9.21-8.5.41-.94.58-2,1.74-2.37.18,3.35-2,5.67-4,7.82C504.64,505.11,501.48,507.17,497.41,507.07Z" transform="translate(-51.96 -17.26)"/><path class="cls-8" d="M294,150.79a32.66,32.66,0,0,1-.94,13.69c-.23.72-.5,1.48-1.53,1.41,1.38-3.16,1.09-6.5,1.21-9.81C292.83,154.25,292.72,152.35,294,150.79Z" transform="translate(-51.96 -17.26)"/><path class="cls-8" d="M509.77,211.7a1.43,1.43,0,0,1-1.26-1.12c-.78-4.71-3.12-8.79-5.37-12.91a1.78,1.78,0,0,1-.26-1.68c2.17,1.51,2.85,4,3.85,6.17C508.11,205.2,509.68,208.24,509.77,211.7Z" transform="translate(-51.96 -17.26)"/><path class="cls-8" d="M453.71,171.32c-2.22.67-3.33-1.14-4.54-2.23a11.51,11.51,0,0,1-3.88-11.62c1.13.81.68,2,.76,3.07a11.76,11.76,0,0,0,5.41,9.11C452.23,170.18,453,170.76,453.71,171.32Z" transform="translate(-51.96 -17.26)"/><path class="cls-8" d="M246.05,182.33c.1.8-.48,1.16-1,1.62a59,59,0,0,0-8.69,8.62,1.38,1.38,0,0,1-1.37.52A29.7,29.7,0,0,1,246.05,182.33Z" transform="translate(-51.96 -17.26)"/><path class="cls-8" d="M467,172.66c-4,1-7.89.39-11.81-.3-.3-.05-.51-.63-.76-1C458.69,171.51,462.92,171.52,467,172.66Z" transform="translate(-51.96 -17.26)"/><path class="cls-8" d="M441,134.11c-1.55-.41-1.46-1.9-2.05-3q-2.18-3.87-4.42-7.71a1.46,1.46,0,0,1-.21-1.42c3,2.3,4,5.81,5.51,9C440.28,131.94,441.57,132.73,441,134.11Z" transform="translate(-51.96 -17.26)"/><path class="cls-8" d="M430,116.05c-.4-.11-1-.11-1.17-.37a61.46,61.46,0,0,0-7.27-7.25c-.47-.41-1.21-.81-.93-1.67A26.15,26.15,0,0,1,430,116.05Z" transform="translate(-51.96 -17.26)"/><path class="cls-8" d="M264.42,174c-1.65,2.06-4.35,1.78-6.51,2.66-1.33.54-2.45,2.14-4.25,1.36A19.85,19.85,0,0,1,264.42,174Z" transform="translate(-51.96 -17.26)"/><path class="cls-8" d="M233.86,194.56A34.7,34.7,0,0,1,228.13,205,22.91,22.91,0,0,1,233.86,194.56Z" transform="translate(-51.96 -17.26)"/><path class="cls-8" d="M317.3,108a29.67,29.67,0,0,1-7.94,8.13A21.66,21.66,0,0,1,317.3,108Z" transform="translate(-51.96 -17.26)"/><path class="cls-8" d="M502.76,195.66c-1.17.17-1.47-.88-1.89-1.51-1.52-2.33-3.91-4.05-4.95-6.71C499.14,189.43,501.05,192.47,502.76,195.66Z" transform="translate(-51.96 -17.26)"/><path class="cls-8" d="M228,205.73c-.4,3-.62,6-2.63,8.55C225.58,211.22,226.07,208.26,228,205.73Z" transform="translate(-51.96 -17.26)"/><path class="cls-8" d="M445.19,151.06c-1.21-2.36-2.18-4.76-1.43-7.48A9.58,9.58,0,0,1,445.19,151.06Z" transform="translate(-51.96 -17.26)"/><path class="cls-8" d="M443.66,142.33c-2.09-2.07-2.33-4.76-2.58-7.44A12.36,12.36,0,0,1,443.66,142.33Z" transform="translate(-51.96 -17.26)"/><path class="cls-8" d="M232.35,504c2.52.59,5,1.14,6.93,3.08A9.26,9.26,0,0,1,232.35,504Z" transform="translate(-51.96 -17.26)"/><path class="cls-8" d="M295.36,142.85c1,2.19-.19,3.9-1.26,5.65C293.44,146.38,294.24,144.58,295.36,142.85Z" transform="translate(-51.96 -17.26)"/><path class="cls-8" d="M225.33,493.53c2.08,1.46,2,3.89,2.73,5.94A7.14,7.14,0,0,1,225.33,493.53Z" transform="translate(-51.96 -17.26)"/><path class="cls-8" d="M434,121.28a8.26,8.26,0,0,1-4-5.22A10.29,10.29,0,0,1,434,121.28Z" transform="translate(-51.96 -17.26)"/><path class="cls-8" d="M270.73,172.77c-1.27,2.11-3.22,1.31-5,1.14A5.62,5.62,0,0,1,270.73,172.77Z" transform="translate(-51.96 -17.26)"/><path class="cls-8" d="M392.14,91.58c-2,1-3.42.17-4.7-1.26C389.28,89.78,390.68,90.78,392.14,91.58Z" transform="translate(-51.96 -17.26)"/><path class="cls-8" d="M228.16,499.82c2.08.71,3.2,2.35,4.18,4.14A7.43,7.43,0,0,1,228.16,499.82Z" transform="translate(-51.96 -17.26)"/><path class="cls-8" d="M495.92,187.44a6.13,6.13,0,0,1-4.09-3.67A6.79,6.79,0,0,1,495.92,187.44Z" transform="translate(-51.96 -17.26)"/><path class="cls-8" d="M321.89,104.21a6.07,6.07,0,0,1-4.25,3.57A7.44,7.44,0,0,1,321.89,104.21Z" transform="translate(-51.96 -17.26)"/><path class="cls-8" d="M472,173.92c-1.48.13-3.2,1-4-1.19A4.21,4.21,0,0,1,472,173.92Z" transform="translate(-51.96 -17.26)"/><path class="cls-8" d="M250.17,179.67c-.61,1.79-2.08,2.33-3.81,2.51C247.12,180.59,248.68,180.19,250.17,179.67Z" transform="translate(-51.96 -17.26)"/><path class="cls-8" d="M420.57,106.75a3.37,3.37,0,0,1-3.15-2.54A4.65,4.65,0,0,1,420.57,106.75Z" transform="translate(-51.96 -17.26)"/><path class="cls-8" d="M355.72,90.44l-2.54-.2C354.09,89.53,355,88.34,355.72,90.44Z" transform="translate(-51.96 -17.26)"/><path class="cls-8" d="M252.84,178.18c-.19,1.42-1.11,1.65-2.33,1.36A2.45,2.45,0,0,1,252.84,178.18Z" transform="translate(-51.96 -17.26)"/><path class="cls-8" d="M234.84,193.4c.27.86,0,1.28-1,1.13A1.29,1.29,0,0,1,234.84,193.4Z" transform="translate(-51.96 -17.26)"/><path class="cls-8" d="M309.2,116.37c.25.86,0,1.29-1,1.1A1.33,1.33,0,0,1,309.2,116.37Z" transform="translate(-51.96 -17.26)"/><path class="cls-11" d="M123.14,58.69c0,3.17,0,6.34,0,9.5-.1,5-2.67,8.22-7.6,9.57-5.77,1.58-10.65-.45-13.58-5.63a5.25,5.25,0,0,1-.45-2.75c0-7.1.21-14.21-.11-21.3-.16-3.63,5.53-8.63,8.72-9,7.82-1,13.88,4.57,13.11,11.43a72.51,72.51,0,0,0,0,8.21Z" transform="translate(-51.96 -17.26)"/><path class="cls-12" d="M369.72,288.25c3,0,6.11.08,9.16,0,2.35-.08,3.33.82,3.28,3.16-.09,4.88,0,9.76-.05,14.63,0,1.74.43,2.5,2.4,2.82a67.94,67.94,0,0,1,23.18,8.1c1.71,1,2.55,1.92,1.49,4.3-2.38,5.32-4.28,10.86-6.12,16.39-1.42,4.29-2.38,4.74-6.44,2.71a66.08,66.08,0,0,0-16.12-5.79,41,41,0,0,0-12.12-1.13c-4.66.42-8.88,2.05-11.43,6.37-2,3.46-1.08,9.74,1.77,12.58,4.24,4.24,9.72,6.4,15.06,8.76,9.52,4.21,19.31,8,27.07,15.16a36.19,36.19,0,0,1,10.74,16.82,42.62,42.62,0,0,1,.78,21.4c-2.16,9.6-7.83,17.19-16,23a44.5,44.5,0,0,1-14.15,6.67c-1.38.38-1.21,1.24-1.22,2.14,0,5.57,0,11.13,0,16.69,0,3.42-.84,4.23-4.33,4.24-5.67,0-11.34,0-17,0-3.62,0-4-.47-4.05-4,0-5.05-.05-10.1,0-15.15,0-1.72-.48-2.34-2.34-2.46a51.87,51.87,0,0,1-18.57-5,69.17,69.17,0,0,1-9-4.93c-2.25-1.47-2.46-3-1.5-5.42,1.85-4.61,3.49-9.3,5.19-14,.61-1.67,1-3.42,1.79-5,.55-1.16,1.43-1.81,2.9-.73a54.1,54.1,0,0,0,17.55,8.37c5.93,1.67,12.15,2.69,18.31,1.63,9.56-1.66,15.62-7.76,12.75-18.48-1.15-4.29-4.88-7-8.78-9.29-6.47-3.76-13.61-6.09-20.35-9.26-7.2-3.4-13.87-7.52-19.22-13.52-6.63-7.44-8.53-16.18-8-25.77a34.22,34.22,0,0,1,7.25-19.45,38.83,38.83,0,0,1,19.94-13.54c2.41-.73,3.87-1.67,3.71-4.59-.28-5,0-10.1-.11-15.15-.06-2.48,1-3.37,3.43-3.28C363.61,288.34,366.67,288.25,369.72,288.25ZM368,465.4h7.59c3.54,0,3.54,0,3.55-3.37V448.17c0-4.44.35-4.7,4.64-5.91a39,39,0,0,0,15.81-8.91,36.93,36.93,0,0,0,12.46-29.88c-.33-8.16-2.72-15.65-8.12-22.07-7.66-9.1-18.22-13.77-28.88-18.29-5.39-2.28-10.83-4.51-15.47-8.1-7.22-5.58-7.62-14.86.38-20.14a20,20,0,0,1,15.19-2.62,23.18,23.18,0,0,0,3.06.57c4.74.26,9,2,13.35,3.68,2.41.94,4.71,2.13,7.05,3.22,1,.45,1.93.61,2.36-.63,2-5.91,4.25-11.75,6.77-17.48.73-1.64.23-3.12-1.57-4.06A64.06,64.06,0,0,0,384,310.23c-3.16-.37-3.76-1.13-3.77-4.3,0-4.71,0-9.41,0-14.12,0-1.48-.39-2.18-2.05-2.17q-8.38.11-16.76,0c-1.83,0-2.43.76-2.41,2.48.07,4.71,0,9.41,0,14.12a23.6,23.6,0,0,1-.43,3.54,1.89,1.89,0,0,1-1.63,1.79c-1.82.08-3.26,1.08-4.89,1.56a31.77,31.77,0,0,0-12,6.85,37.15,37.15,0,0,0-11.8,19.56,33.47,33.47,0,0,0,.78,18.62c2.7,8.39,8.67,14.48,16.15,19.3,7.14,4.59,15.14,7.32,22.8,10.79,5.23,2.37,10.36,4.93,13.89,9.59,3.92,5.17,4.39,10.9,1.15,15.91-4.63,7.15-12,8.84-20.1,8.55-2.22-.08-4.18-1.05-6.36-1.2-4.25-.29-8.17-1.83-12.09-3.35a54,54,0,0,1-9.52-5.09c-2.14-1.36-2.92-.3-3.42,1.27A178.14,178.14,0,0,1,324.89,432c-.44,1-.18,1.56.88,2.23a93.81,93.81,0,0,0,8.22,4.7c6.46,3.27,13.48,4.66,20.53,5.82,2.19.36,3.06,1,3,3.19-.08,5.05,0,10.1-.06,15.15,0,1.79.57,2.43,2.4,2.35C362.58,465.31,365.29,465.4,368,465.4Z" transform="translate(-51.96 -17.26)"/><path class="cls-11" d="M368,465.4c-2.71,0-5.42-.09-8.12,0-1.83.08-2.43-.56-2.4-2.35.1-5.05,0-10.1.06-15.15,0-2.16-.83-2.83-3-3.19-7-1.16-14.07-2.55-20.53-5.82a93.81,93.81,0,0,1-8.22-4.7c-1.06-.67-1.32-1.21-.88-2.23a178.14,178.14,0,0,0,6.65-18.05c.5-1.57,1.28-2.63,3.42-1.27a54,54,0,0,0,9.52,5.09c3.92,1.52,7.84,3.06,12.09,3.35,2.18.15,4.14,1.12,6.36,1.2,8.14.29,15.47-1.4,20.1-8.55,3.24-5,2.77-10.74-1.15-15.91-3.53-4.66-8.66-7.22-13.89-9.59-7.66-3.47-15.66-6.2-22.8-10.79-7.48-4.82-13.45-10.91-16.15-19.3a33.47,33.47,0,0,1-.78-18.62A37.15,37.15,0,0,1,340.06,320a31.77,31.77,0,0,1,12-6.85c1.63-.48,3.07-1.48,4.89-1.56a1.89,1.89,0,0,0,1.63-1.79,23.6,23.6,0,0,0,.43-3.54c0-4.71.07-9.41,0-14.12,0-1.72.58-2.5,2.41-2.48q8.39.09,16.76,0c1.66,0,2.07.69,2.05,2.17-.05,4.71,0,9.41,0,14.12,0,3.17.61,3.93,3.77,4.3a64.06,64.06,0,0,1,22.15,7.32c1.8.94,2.3,2.42,1.57,4.06-2.52,5.73-4.73,11.57-6.77,17.48-.43,1.24-1.38,1.08-2.36.63-2.34-1.09-4.64-2.28-7.05-3.22-4.31-1.68-8.61-3.42-13.35-3.68a23.18,23.18,0,0,1-3.06-.57A20,20,0,0,0,360,334.87c-8,5.28-7.6,14.56-.38,20.14,4.64,3.59,10.08,5.82,15.47,8.1,10.66,4.52,21.22,9.19,28.88,18.29,5.4,6.42,7.79,13.91,8.12,22.07a36.93,36.93,0,0,1-12.46,29.88,39,39,0,0,1-15.81,8.91c-4.29,1.21-4.64,1.47-4.64,5.91V462c0,3.36,0,3.36-3.55,3.37Z" transform="translate(-51.96 -17.26)"/></g></svg>