<svg id="Calque_1" data-name="Calque 1" xmlns="http://www.w3.org/2000/svg" viewBox="0 0 229.64 229.64"><defs><style>.cls-1{fill:#040404;}.cls-2{fill:#e5eaee;}.cls-3{fill:#e7ae4d;}.cls-4{fill:#f9e57a;}.cls-5{fill:#fdce63;}</style></defs><title>icon-paiement</title><g id="MGaecR.tif"><path class="cls-1" d="M241.6,129.71c0,3.28.34,6.61-.06,9.85-1,8.25-7.42,14.12-15.92,14.53-5.52.26-8.84,2.89-10.65,7.94-1,2.81-2.26,5.51-3.39,8.27a10,10,0,0,0,1.94,11.2c7,7.77,6.71,17.12-.69,24.55q-4.82,4.84-9.67,9.66c-7.24,7.17-16.68,7.43-24.22.61-3.55-3.22-7.46-3.74-11.8-1.89q-4.32,1.83-8.67,3.58c-4.37,1.76-6.76,4.85-7,9.67-.51,10.15-7.45,16.7-17.55,16.73-4.78,0-9.57,0-14.35,0-9.48,0-16.65-6.53-17.13-15.94-.29-5.72-3-9.1-8.23-10.91-2.67-.92-5.23-2.15-7.84-3.23A10,10,0,0,0,75,216.25c-7.69,6.92-17,6.68-24.38-.61-3.34-3.31-6.68-6.63-10-10-7-7.08-7.18-16.59-.53-23.88A10.27,10.27,0,0,0,42.14,170q-1.94-4.63-3.86-9.28A9.89,9.89,0,0,0,29,154.18c-10.42-.55-16.88-7.42-16.89-17.85,0-4.71,0-9.41,0-14.12.05-9.46,6.55-16.6,16-17.08,5.6-.29,9-2.9,10.78-8.07.88-2.53,2-5,3.09-7.42,2-4.49,1.48-8.5-1.89-12.2-6.65-7.31-6.42-16.8.53-23.88q5.1-5.2,10.3-10.31c7.05-6.92,16.55-7.12,23.88-.45a10.22,10.22,0,0,0,12,1.91c2.85-1.28,5.75-2.45,8.66-3.58a10,10,0,0,0,6.91-9.5c.52-10.29,7.41-16.81,17.66-16.83,4.78,0,9.57,0,14.35,0,9.45.06,16.54,6.57,17,16,.29,5.5,2.83,8.87,7.9,10.68,2.59.92,5.11,2,7.63,3.16,4.5,2,8.5,1.43,12.19-1.94,7.17-6.57,16.76-6.37,23.72.43,3.48,3.4,6.9,6.84,10.31,10.3,7,7.15,7.27,16.62.53,24-3.22,3.56-3.78,7.45-2,11.8,1.24,3,2.44,5.92,3.67,8.88,1.77,4.25,4.83,6.6,9.55,6.84,10.28.52,16.77,7.43,16.79,17.72v7ZM63.2,214.45c2.75.09,5.1-1.18,7.22-3.13,5.53-5.06,11.81-5.95,18.68-3.17,2.83,1.15,5.62,2.39,8.46,3.51,7.28,2.87,11.2,8.08,11.53,16,.25,6.13,4.41,10,10.61,10,4.63,0,9.26,0,13.9,0,6.93,0,10.81-3.76,11.17-10.64.38-7.19,4-12.16,10.59-15,3-1.3,6-2.52,9.07-3.79,7-2.93,13.4-2.05,19.08,3.13,4.69,4.28,10.21,4.17,14.75-.31q5.1-5.06,10.15-10.15c4.47-4.53,4.55-10,.25-14.75-5.16-5.69-6-12.07-3.08-19.08,1.11-2.61,2.28-5.19,3.28-7.84,2.81-7.51,8.1-11.5,16.19-11.85,6-.25,9.89-4.43,9.92-10.48,0-4.63,0-9.27,0-13.9,0-7.09-3.7-10.9-10.75-11.29s-12-4-14.85-10.48c-1.3-3-2.48-6.06-3.77-9.08-3-7.09-2.09-13.51,3.16-19.26,4.19-4.58,4.06-10.13-.32-14.58q-5-5.1-10.15-10.15c-4.63-4.58-10-4.66-14.9-.25-5.65,5.09-12,5.91-18.91,3-2.55-1-5.06-2.21-7.64-3.18C149.2,45,145,39.66,144.7,31.34c-.24-5.91-4.45-9.76-10.37-9.8-4.7,0-9.41,0-14.12,0-6.93,0-10.82,3.76-11.18,10.63-.37,7.2-4,12.16-10.59,15-2.94,1.26-5.93,2.41-8.87,3.68-7.18,3.1-13.64,2.13-19.45-3.19-4.48-4.12-10-4-14.4.33-3.41,3.36-6.78,6.75-10.15,10.15-4.7,4.73-4.78,10.07-.28,15.07,5,5.5,5.83,11.71,3.11,18.51-1,2.55-2.22,5.05-3.16,7.63-2.86,7.83-8.18,12.16-16.71,12.48-5.78.21-9.65,4.47-9.69,10.24,0,4.78,0,9.56,0,14.35,0,6.85,3.81,10.72,10.74,11.07s11.89,3.94,14.77,10.25c1.21,2.64,2.06,5.45,3.31,8.06,3.69,7.72,2.86,14.65-3,21a9.61,9.61,0,0,0,.28,13.56c3.68,3.82,7.48,7.53,11.25,11.27A9.43,9.43,0,0,0,63.2,214.45Z" transform="translate(-12.1 -14.78)"/><path class="cls-2" d="M63.2,214.45a9.43,9.43,0,0,1-7.05-2.81c-3.77-3.74-7.57-7.45-11.25-11.27a9.61,9.61,0,0,1-.28-13.56c5.9-6.37,6.73-13.3,3-21-1.25-2.61-2.1-5.42-3.31-8.06-2.88-6.31-7.76-9.89-14.77-10.25s-10.73-4.22-10.74-11.07c0-4.79,0-9.57,0-14.35,0-5.77,3.91-10,9.69-10.24,8.53-.32,13.85-4.65,16.71-12.48.94-2.58,2.13-5.08,3.16-7.63,2.72-6.8,1.84-13-3.11-18.51-4.5-5-4.42-10.34.28-15.07,3.37-3.4,6.74-6.79,10.15-10.15,4.36-4.29,9.92-4.45,14.4-.33,5.81,5.32,12.27,6.29,19.45,3.19,2.94-1.27,5.93-2.42,8.87-3.68,6.59-2.83,10.22-7.79,10.59-15,.36-6.87,4.25-10.62,11.18-10.63,4.71,0,9.42,0,14.12,0,5.92,0,10.13,3.89,10.37,9.8C145,39.66,149.2,45,156.85,47.8c2.58,1,5.09,2.13,7.64,3.18,6.92,2.86,13.26,2,18.91-3,4.88-4.41,10.27-4.33,14.9.25q5.1,5.06,10.15,10.15c4.38,4.45,4.51,10,.32,14.58-5.25,5.75-6.18,12.17-3.16,19.26,1.29,3,2.47,6.08,3.77,9.08,2.83,6.48,7.75,10.09,14.85,10.48S235,115.93,235,123c0,4.63,0,9.27,0,13.9,0,6.05-3.89,10.23-9.92,10.48-8.09.35-13.38,4.34-16.19,11.85-1,2.65-2.17,5.23-3.28,7.84-3,7-2.08,13.39,3.08,19.08,4.3,4.74,4.22,10.22-.25,14.75q-5,5.1-10.15,10.15c-4.54,4.48-10.06,4.59-14.75.31-5.68-5.18-12.06-6.06-19.08-3.13-3,1.27-6.06,2.49-9.07,3.79-6.59,2.83-10.21,7.8-10.59,15-.36,6.88-4.24,10.63-11.17,10.64-4.64,0-9.27,0-13.9,0-6.2,0-10.36-3.89-10.61-10-.33-7.9-4.25-13.11-11.53-16-2.84-1.12-5.63-2.36-8.46-3.51-6.87-2.78-13.15-1.89-18.68,3.17C68.3,213.27,66,214.54,63.2,214.45Zm9.36-37.35,6,6.36c-1.1,2.67-.88,3.69,1.35,5.39,19.16,14.65,40.57,19.68,64.12,14.33,53.83-12.22,76.56-77.45,42.11-120.55-1.74-2.18-2.76-2.43-5.41-1.33l-6.52-6.44c1.07-2.68.87-3.66-1.44-5.37-19.86-14.7-42-19.59-65.67-12.71C75.57,66,56.87,87.55,52,120.2c-3,20.45,2.48,39.05,15,55.54C68.8,178.11,69.79,178.32,72.56,177.1Z" transform="translate(-12.1 -14.78)"/><path class="cls-3" d="M78.61,183.46l-6-6.36c1.67-2.09,1-3.88-.47-5.83-12.71-17-16.83-36-12.37-56.74C65.9,85.82,91,63.64,119.87,61c18-1.62,34.33,2.85,48.81,13.77,2.33,1.75,3.24,1.74,5.58,0l6.52,6.44c-1.59,2.39-1.48,3.33.33,5.8,16.43,22.37,19.45,46.43,8.06,71.76-11.51,25.61-38.47,41.28-66.47,39.47A68.58,68.58,0,0,1,84.39,183.8C81.94,181.91,81,181.85,78.61,183.46ZM127,71.08a58.52,58.52,0,1,0,58.45,58.48A58.61,58.61,0,0,0,127,71.08Z" transform="translate(-12.1 -14.78)"/><path class="cls-1" d="M78.61,183.46c2.36-1.61,3.33-1.55,5.78.34a68.58,68.58,0,0,0,38.31,14.53c28,1.81,55-13.86,66.47-39.47,11.39-25.33,8.37-49.39-8.06-71.76-1.81-2.47-1.92-3.41-.33-5.8,2.65-1.1,3.67-.85,5.41,1.33,34.45,43.1,11.72,108.33-42.11,120.55-23.55,5.35-45,.32-64.12-14.33C77.73,187.15,77.51,186.13,78.61,183.46Z" transform="translate(-12.1 -14.78)"/><path class="cls-1" d="M174.26,74.86c-2.34,1.69-3.25,1.7-5.58,0C154.2,63.89,137.88,59.42,119.87,61c-28.89,2.6-54,24.78-60.15,53.49-4.46,20.71-.34,39.72,12.37,56.74,1.46,1.95,2.14,3.74.47,5.83-2.77,1.22-3.76,1-5.56-1.36-12.49-16.49-18-35.09-15-55.54C56.87,87.55,75.57,66,107.15,56.78c23.64-6.88,45.81-2,65.67,12.71C175.13,71.2,175.33,72.18,174.26,74.86Z" transform="translate(-12.1 -14.78)"/><path class="cls-1" d="M127,71.08a58.52,58.52,0,1,1-58.6,58.56A58.59,58.59,0,0,1,127,71.08Zm-6.41,109.78a45.75,45.75,0,0,0,18-.8,51.76,51.76,0,0,0,10.32-97.33,48.88,48.88,0,0,0-28.31-4.39,27.83,27.83,0,0,0-7.24,1.31C75.87,90,62.57,136,88.84,164.61A49.1,49.1,0,0,0,120.58,180.86Z" transform="translate(-12.1 -14.78)"/><path class="cls-4" d="M120.58,180.86a49.1,49.1,0,0,1-31.74-16.25c-26.27-28.63-13-74.62,24.49-85a27.83,27.83,0,0,1,7.24-1.31,3.92,3.92,0,0,0,.83.71,53.7,53.7,0,0,1,22.39,17.87,55,55,0,0,1,10.8,32.9,48,48,0,0,1-1.67,13c-3.82,14.35-11.78,25.64-24.42,33.62C125.93,178.05,123,179.05,120.58,180.86Zm2.61-39.15c0,3.81-.06,7.62,0,11.43,0,1.41-.37,1.78-1.79,1.68-3.47-.26-6.42-1.78-9.37-3.42a3.33,3.33,0,1,0-3.51,5.65c3.61,2.33,7.47,4.15,11.83,4.36,2.08.09,3.2.5,2.86,2.9a3,3,0,0,0,2.19,3.27,3.21,3.21,0,0,0,3.51-.83,3.12,3.12,0,0,0,.95-2.66c-.39-2.25.7-2.88,2.68-3.32A17.82,17.82,0,0,0,141,155.9c10-9.73,7-24.62-6-29.55-1.33-.5-2.66-1-4-1.42a1.32,1.32,0,0,1-1.09-1.42q0-9.2,0-18.39c0-1.08.43-1.29,1.35-1.07a16.94,16.94,0,0,1,5.49,2.45c2,1.37,3.94,1.15,5.11-.5s.75-3.55-1.26-5a21,21,0,0,0-9-3.71c-1.09-.18-1.67-.45-1.7-1.78-.07-2.79-1.28-4.08-3.41-4.05s-3.28,1.35-3.23,4.17c0,1.41-.57,1.79-1.72,2a15.93,15.93,0,0,0-6.63,3.1c-7.52,5.73-9.37,19.51,1.52,25.13,1.72.89,3.42,1.84,5.21,2.57a2.23,2.23,0,0,1,1.6,2.51C123.13,134.53,123.19,138.12,123.19,141.71Z" transform="translate(-12.1 -14.78)"/><path class="cls-5" d="M120.58,180.86c2.45-1.81,5.35-2.81,7.92-4.44,12.64-8,20.6-19.27,24.42-33.62a48,48,0,0,0,1.67-13,55,55,0,0,0-10.8-32.9A53.7,53.7,0,0,0,121.4,79.05a3.92,3.92,0,0,1-.83-.71,48.88,48.88,0,0,1,28.31,4.39,51.76,51.76,0,0,1-10.32,97.33A45.75,45.75,0,0,1,120.58,180.86Z" transform="translate(-12.1 -14.78)"/><path class="cls-1" d="M123.19,141.71c0-3.59-.06-7.18,0-10.76a2.23,2.23,0,0,0-1.6-2.51c-1.79-.73-3.49-1.68-5.21-2.57-10.89-5.62-9-19.4-1.52-25.13a15.93,15.93,0,0,1,6.63-3.1c1.15-.22,1.75-.6,1.72-2,0-2.82,1.11-4.14,3.23-4.17s3.34,1.26,3.41,4.05c0,1.33.61,1.6,1.7,1.78a21,21,0,0,1,9,3.71c2,1.45,2.44,3.32,1.26,5s-3.07,1.87-5.11.5a16.94,16.94,0,0,0-5.49-2.45c-.92-.22-1.36,0-1.35,1.07q.06,9.19,0,18.39a1.32,1.32,0,0,0,1.09,1.42c1.34.45,2.67.92,4,1.42,13,4.93,16,19.82,6,29.55a17.82,17.82,0,0,1-8.43,4.87c-2,.44-3.07,1.07-2.68,3.32a3.12,3.12,0,0,1-.95,2.66,3.21,3.21,0,0,1-3.51.83,3,3,0,0,1-2.19-3.27c.34-2.4-.78-2.81-2.86-2.9-4.36-.21-8.22-2-11.83-4.36a3.33,3.33,0,1,1,3.51-5.65c3,1.64,5.9,3.16,9.37,3.42,1.42.1,1.82-.27,1.79-1.68C123.13,149.33,123.19,145.52,123.19,141.71Zm6.74-9.78c0,7.17,0,14.31,0,21.44,0,1.79,1.2.83,1.86.59a12.51,12.51,0,0,0,8.28-12.25C139.7,136.58,136.14,133.1,129.93,131.93ZM123.19,113c0-2.3-.08-4.61,0-6.91.07-1.68-.33-2.11-2-1.38A9.65,9.65,0,0,0,115.5,114c.24,3.23,3.37,6.59,6.82,7.41,1.12.26.86-.49.86-1C123.2,117.94,123.19,115.49,123.19,113Z" transform="translate(-12.1 -14.78)"/><path class="cls-4" d="M129.93,131.93c6.21,1.17,9.77,4.65,10.15,9.78A12.51,12.51,0,0,1,131.8,154c-.66.24-1.85,1.2-1.86-.59C129.91,146.24,129.93,139.1,129.93,131.93Z" transform="translate(-12.1 -14.78)"/><path class="cls-4" d="M123.19,113c0,2.46,0,4.91,0,7.37,0,.51.26,1.26-.86,1-3.45-.82-6.58-4.18-6.82-7.41a9.65,9.65,0,0,1,5.75-9.25c1.64-.73,2-.3,2,1.38C123.11,108.42,123.19,110.73,123.19,113Z" transform="translate(-12.1 -14.78)"/></g></svg>