<svg id="Calque_1" data-name="Calque 1" xmlns="http://www.w3.org/2000/svg" viewBox="0 0 693 693.07"><defs><style>.cls-1{fill:#040403;}.cls-2{fill:#cf9e76;}.cls-3{fill:#abb2bd;}.cls-4{fill:#b27946;}.cls-5{fill:#fdd770;}.cls-6{fill:#e5e8ec;}.cls-7{fill:#ef7f70;}.cls-8{fill:#b3d280;}.cls-9{fill:#b17845;}.cls-10{fill:#f0cfb4;}.cls-11{fill:#f08070;}.cls-12{fill:#fbc52c;}.cls-13{fill:#edceb2;}.cls-14{fill:#cbd0d8;}.cls-15{fill:#010101;}</style></defs><title>logo-funerailles</title><path class="cls-1" d="M109.13,660.71c-13.33.61-26.24.91-36.22-9.32-9.62-9.86-12.24-21.5-8.37-35.29-8.25,0-16.11.07-24,0-12.95-.13-22.36-9.49-22.39-22.46q-.11-44.68,0-89.39c0-12.83,9.59-22.16,22.58-22.24,10.87-.07,21.74,0,33.15,0-1.34-2.21-3.18-2.34-4.76-3-17.8-7.07-28.63-23-28.64-42.17q0-85.55.06-171.1c0-4.44.19-7.13-5.85-8.15-10-1.68-16.45-11.11-16.55-21.29-.08-7.45-.06-14.9,0-22.35.09-11.51,7.49-20.62,18.82-22.33,3.49-.53,4.41-1.62,5.07-4.94,4.72-23.7,15.48-44.72,31-62.93C85.57,109.12,102.33,102,121.75,102q62.51-.07,125,0h7.35c-2.93-13.42-1-25.6,6.72-36.63,6.83-9.76,16.05-17.39,27.74-18,10.95-.6,17.5-5.59,24.82-12.67,11.26-10.9,25.69-13.43,40.83-9.29,4.17,1.14,7,1,10.63-1.74,28.95-21.43,69.4-10.8,84.5,22,1.17,2.53,2.16,4.76,4.8,6.47,18.36,11.9,25,27.68,21.12,49.9h25.14q53.08,0,106.16,0c23.29,0,41.79,9.72,55.15,28.62,12.27,17.34,22,35.94,25.64,57.23.42,2.49,1.45,3.22,4,3.68,13.06,2.38,19.72,10.51,19.76,23.61,0,6.75,0,13.5,0,20.25-.07,11.73-7,20.73-18.36,22.77-3.32.6-4.45,1.38-4,4.59a24.86,24.86,0,0,1,0,4.88c-.54,7.37-.84,13.17,9.39,15.52,8.34,1.92,13,10,13,19.44q0,190.65,0,381.32c0,12.3-9.77,21.58-22.49,21.59q-167.26,0-334.53,0c-13.8,0-22.93-9.31-22.94-23.25q0-107.55.12-215.1c0-5.71-.77-7.84-7.3-7.71-24.9.48-49.82.37-74.73.06-5.73-.07-7.76.8-7.7,7.31.38,39.81.31,79.62.06,119.43,0,5.72.74,8.22,7.32,7.69,8.79-.72,17.68-.22,26.53-.17,15.87.09,28.81,10.45,32.71,26.11,3.62,14.54-3.8,30.41-17.87,37.26-4,2-5.7,3.17-4.45,8.49,4.68,20-11.49,39.79-32.11,39.86-36.78.13-73.56,0-110.34,0C118.21,705.51,103.16,686.42,109.13,660.71Zm55.21-268.28c1.06.05,2.13.13,3.19.13,17,0,34-.08,51,0,13.71.11,23.1,9.68,23.17,23.34,0,5.12.36,10.28-.1,15.36s1.42,6.13,6.22,6.09q38.42-.36,76.83,0c5.11.05,6.63-1.09,6.6-6.44-.25-41.45-.14-82.89-.14-124.34,0-17.58,8.34-25.81,26.16-25.81H650.63c15.87,0,15.65,0,15.89-15.88.08-5.09-1.06-6.6-6.43-6.6q-295.47.23-590.93,0c-5.41,0-6.43,1.58-6.41,6.62.22,37.72.1,75.44.18,113.16,0,1.62-1,3.67,1.33,5.18A83.1,83.1,0,0,1,70,377.21c10.92-9.45,19.35-9.43,30.34-.08a66.21,66.21,0,0,1,10.59,12c1.19,1.66,2.14,3.5,4.77,3.46,8.19-.12,16.37,0,24.56,0a19.48,19.48,0,0,0-6.65-4.19C115.51,380,104.33,360.18,108,341.68A104.42,104.42,0,0,1,133,291.74c13.22-14.74,25.65-14.59,38.88.22,11.51,12.89,19,28,23.58,44.6a40.57,40.57,0,0,1,.77,20C192.22,374.32,181,385.34,164.34,392.43Zm373-66.92h8.17c38,0,75.89.14,113.84-.14,5.79-.05,7.22,1.34,7.21,7.18q-.28,160.63,0,321.26c0,5.91-1.54,7.15-7.26,7.14q-138.28-.29-276.56,0c-6.05,0-7.08-1.76-7.06-7.35.23-52.84.15-105.69.1-158.53,0-2.31.71-4.84-1.07-7.49-6.06,6.17-11.64,12.12-17.54,17.73a11.35,11.35,0,0,0-3.78,9.1q.18,81.36,0,162.72c0,4.91,1.23,6.13,6.13,6.12q161.67-.22,323.36,0c5,0,6-1.45,6-6.21q-.2-184,0-368.06c0-5-1.45-6.08-6.21-6-31.9.22-63.79.12-95.68.16-9.08,0-19.4-2.58-26.9.89C551.55,308,545.55,317.36,537.32,325.51ZM665,191.39c-3.36-17.33-11.07-31.53-20-45.23-9.7-14.93-23.5-21.85-41.12-21.83q-68.43.06-136.87-.06a16.29,16.29,0,0,0-10.23,3.32,40.64,40.64,0,0,1-24.08,7.93c-8.77,0-12.2,3.6-12.22,12.64,0,12.1.37,24.22-.17,36.3-.28,6.13,1.86,7.07,7.4,7.06q115.23-.28,230.44-.13Zm-478.68,0c38.37,0,76.75-.18,115.12.18,6.44.07,8-1.86,7.4-7.75a86.11,86.11,0,0,1,0-14.63c.28-4.11-.77-6.93-4.47-9.19-5.26-3.19-9.89-7.78-11.85-13.39-3.13-9-8.66-14.45-17.52-17.31-3.82-1.23-6.22-5.09-11.08-5.07-47.21.19-94.42,0-141.63.21-12.84.06-24.35,4.69-32.63,14.74a127.43,127.43,0,0,0-24.13,45.89c-1.52,5.2-.63,6.5,5,6.46C109.12,191.27,147.73,191.39,186.33,191.39ZM364.72,236.1H675.4c13.35,0,12.88,0,13.53-13.52.37-7.47-2-9-9.16-9q-312.43.28-624.86.15c-14.42,0-14,0-14.56,14.57-.23,6.57,1.88,7.93,8.1,7.91Q206.58,236,364.72,236.1ZM96.62,480.61c.6.94.7,1.24.8,1.24q15,.09,30,.13c16.09,0,24.82,8.85,24.83,25.13,0,27,.12,54-.11,81,0,4.61,1.26,5.78,5.78,5.71,18.39-.25,36.79-.35,55.18,0,5.49.12,6.34-1.65,6.32-6.62-.18-52.15-.11-104.31-.11-156.46,0-15.89,0-15.89-15.65-15.89H124.86c4.94,13.49,7.54,26.51,1.56,39.8C120.52,467.86,110.44,476.13,96.62,480.61ZM644.05,622.07V616.5q0-132,.13-263.92c0-5.23-2.59-4.74-5.94-4.74q-59.36.06-118.69.06c-1.79,0-3.9-.8-5.36.66-7.9,7.9-15.7,15.88-23.54,23.84a226.28,226.28,0,0,1,30.22-2.56c35.32-.14,63.43,14.08,83.83,42.85,13.86,19.55,17.86,41.85,17.09,65.46-.64,19.62-12.42,37.44-31.19,42.39-10.53,2.77-19,7.11-26.34,15.12-3,3.23-4.1,5.66-2.57,9.43s.5,8.79,7.36,10.07c11.54,2.17,23.12,5,33.56,10.93C624.63,578.63,637.84,597.59,644.05,622.07ZM358.4,114.87c4.74,5.14,8.5,9.54,12.59,13.61,12.36,12.29,31.29,7.8,37.09-8.58,1.44-4.08.68-10.09,4.31-11.9s8,2.52,12.11,3.8c12,3.69,24.16-2.18,28.18-13.7s-1.58-24-13.66-28c-5-1.68-7.36-4.08-8.53-9.16-3.33-14.43-13-22.93-27.24-25.42-13.3-2.32-24.06,3-32.28,13.58-6.34,8.14-6.32,8.15-14.52,2.27-13.05-9.37-29.71-4.87-35,9.51-1.57,4.3-1.56,10.77-4.51,12.57-3.78,2.3-8.7-2.65-13.35-3.88-11.82-3.11-23.19,2.74-27.13,14.43a22.32,22.32,0,0,0,13.45,27.75c4.72,1.76,9.61,1.6,14.47,1.38,3.23-.14,4.79.77,4.39,4.24a43.27,43.27,0,0,0,0,5.58c.14,12.15,7.41,21.25,18.74,23.48,10.24,2,20.42-4.4,24.83-15.68C354.25,125.77,356.13,120.81,358.4,114.87ZM521.21,638.46c31.65,0,63.31-.11,95,.11,4.75,0,6.05-1.42,5.5-5.88-1.07-8.83-3.23-17.26-7.64-25.08C603.08,588.17,584.66,581,564.25,577c-3.1-.62-4,1.61-5.38,3.38-5.18,6.69-11.81,11.3-20.16,12.73-9.67,1.66-19.5.55-29.25.63-9,.07-17.55-2.87-22.8-10.06-5-6.84-10.12-7.41-17-4.58a31.69,31.69,0,0,1-4.07.93c-24.92,6.39-41.28,24.68-44.85,50.14-1.15,8.22-1.05,8.33,7.57,8.34ZM186,616.11q-43.29,0-86.57,0c-4.36,0-8.46.5-11.36,4.07-2.62,3.22-3.74,6.84-1.94,11,2.22,5.15,6.21,7.28,11.57,7.29h60c17.87,0,17.77,0,17,18.12-.14,3.32-1,4.39-4.34,4.31-9.3-.2-18.61-.18-27.92,0-7.58.12-12.55,4.75-12.49,11.23s5.05,11,12.69,11q54.45.12,108.91,0c7.52,0,12.53-4.86,12.4-11.31s-5.11-10.8-12.77-11c-5.12-.1-10.24,0-15.36,0-16.85,0-16.67,0-16.64-17.1,0-4.37,1.19-5.43,5.45-5.36,16.05.26,32.11.06,48.17.14,4.42,0,8.37-.87,11.1-4.58,2.51-3.39,3.28-7.06,1.3-11.11-2.48-5.06-6.66-6.72-12-6.71Q229.64,616.14,186,616.11ZM85.85,504.34c-13.26,0-26.52.11-39.77-.07-3.83,0-5.74.31-5.69,5.08.26,26.51.21,53,0,79.54,0,4.05,1.26,5,5.1,4.94q39.77-.23,79.53,0c4.05,0,5-1.27,4.95-5.1q-.24-39.76,0-79.54c0-4.05-1.26-5-5.11-4.94C111.89,504.48,98.87,504.34,85.85,504.34Zm337.9-65.46c-7.22,7.21-14.29,14.58-21.74,21.56-3,2.81-3.94,5.7-3.93,9.7q.18,73.29.08,146.59a15.15,15.15,0,0,0,0,2.78c.16.86-.71,2.1.86,2.61,8-34.13,28.79-55.73,62.82-64.35,4.26-1.08,8.58-2,12.82-3.14,3.82-1,8.86-13.91,6-16.14-7.61-5.94-12.75-14.43-23.95-16.58-23.16-4.46-36.09-22.29-36.3-46C420.36,463.52,420.94,451.31,423.75,438.88Zm163.63,58.6a21.77,21.77,0,0,0,10.77-12.78c1.85-5.48,1.24-11.07,1.14-16.61-.84-47.69-40.5-83-91.81-74.71-42.89,6.94-68.5,42.36-64.51,86,.71,7.75,4.13,14,11.94,17.88-1.48-10.1-.75-19.62-.83-29.12C454,458,458.83,450.46,468.21,447a119.63,119.63,0,0,0,49.11-33.26c3-3.35,4.87-3,7.68.11a120.32,120.32,0,0,0,49.13,33.22c9.39,3.42,14.08,11.07,14,21.22C588.06,477.78,588.67,487.25,587.38,497.48Zm-21.57-19.11c2.47-7.63-1.7-11.88-10.41-14.87-11.22-3.85-21.2-10.53-30.17-18.38-3-2.67-5.07-2.84-8.19-.08a110.62,110.62,0,0,1-25.66,16.58c-16.17,7.82-16.16,7.84-14.89,26a44.63,44.63,0,0,0,53.86,40.69C552.44,523.67,565.8,505.49,565.81,478.37ZM526.4,303.16c-10.6,0-20.58.13-30.55-.08-2.93-.06-4.71,1.23-6.57,3.1q-66.39,66.46-132.82,132.9c-1.25,1.25-3,2.23-3,4.45,0,10.77,0,21.53,0,32.61C411.36,418.25,468.58,361,526.4,303.16Zm-65.6,0c-35.05,0-68,.12-101-.14-5.21,0-6.53,1.25-6.48,6.48.26,31.39.11,62.78.18,94.17,0,1.67-.94,3.66,1.48,5.57,5.79-6,11.46-12.13,17.43-17.95a10.71,10.71,0,0,0,3.47-8.53c-.18-17.2.08-34.41-.19-51.62-.08-4.58,1.22-5.82,5.77-5.74,17.2.26,34.41.09,51.62.12,2.8,0,5.24,0,7.52-2.45C446.68,316.71,453.11,310.69,460.8,303.17Zm-286,44.1c-2.72-15.11-10-28.88-20.39-41.12-3-3.53-4.51.13-5.82,1.78-8.29,10.48-14.71,22-17.92,35.05-2.23,9.1.9,16.59,8,22.27,6.9,5.56,14.75,6.61,22.87,2.79C169.82,364.12,173.88,357.21,174.79,347.27Zm-67.22,91.05c-.12-10.69-12.47-35.79-19.95-42.66-3.3-3-4.54-.31-6,1.47-8.46,10.66-15,22.36-18.16,35.68-2.13,9.07,1.21,16.58,8.39,22.13,7,5.41,14.87,6.29,22.93,2.31A22,22,0,0,0,107.57,438.32ZM521.09,571.38v0h6.25c13.76,0,16.92-4.32,13.51-17.46-.92-3.56-2.17-4.44-5.63-3.62a64.79,64.79,0,0,1-28.23.1c-1.41-.28-3.59-1.69-4.34.32-1.68,4.47-4,9.13-2.37,14,1.43,4.34,5.16,6.42,9.69,6.62C513.67,571.51,517.38,571.38,521.09,571.38ZM398.16,156.67c-3.22.45-5.76.69-8.26,1.17-4.66.89-11.29-2.93-13.39.24-2.37,3.57-.64,9.87-.7,15v1.4c0,17.38,0,17.38,17.34,16.94a4.09,4.09,0,0,1,.7,0c3.23.48,4.47-.68,4.39-4.15C398,177.27,398.16,167.27,398.16,156.67Zm-44.71,6.39c-6,2.83-11.37,5.41-17.06,5.61-4.84.16-5.38,2.11-5.37,6.17,0,16.81-.08,16.81,17,16.56a7.06,7.06,0,0,1,1.38,0c3.49.55,4.25-1.14,4.17-4.33C353.32,179.45,353.45,171.82,353.45,163.06ZM399,365c3.05-3.19,5.56-5.92,8.19-8.52s5.2-4.87,8.45-7.89c-18.07-1.95-18.07-1.95-17.46,14.23A11.72,11.72,0,0,0,399,365Z" transform="translate(-18.12 -12.48)"/><path class="cls-2" d="M164.34,392.43c16.64-7.09,27.88-18.11,31.85-35.86a40.57,40.57,0,0,0-.77-20c-4.6-16.56-12.07-31.71-23.58-44.6-13.23-14.81-25.66-15-38.88-.22A104.42,104.42,0,0,0,108,341.68c-3.7,18.5,7.48,38.31,25.61,46.69a19.48,19.48,0,0,1,6.65,4.19c-8.19,0-16.37-.08-24.56,0-2.63,0-3.58-1.8-4.77-3.46a66.21,66.21,0,0,0-10.59-12c-11-9.35-19.42-9.37-30.34.08a83.1,83.1,0,0,0-5.77,6.08c-2.37-1.51-1.33-3.56-1.33-5.18-.08-37.72,0-75.44-.18-113.16,0-5,1-6.63,6.41-6.62q295.46.23,590.93,0c5.37,0,6.51,1.51,6.43,6.6-.24,15.87,0,15.88-15.89,15.88H357.26c-17.82,0-26.16,8.23-26.16,25.81,0,41.45-.11,82.89.14,124.34,0,5.35-1.49,6.49-6.6,6.44q-38.42-.4-76.83,0c-4.8,0-6.67-1-6.22-6.09s.13-10.24.1-15.36c-.07-13.66-9.46-23.23-23.17-23.34-17-.12-34,0-51,0C166.47,392.56,165.4,392.48,164.34,392.43Z" transform="translate(-18.12 -12.48)"/><path class="cls-3" d="M537.32,325.51c8.23-8.15,14.23-17.55,22.75-21.49,7.5-3.47,17.82-.88,26.9-.89,31.89,0,63.78.06,95.68-.16,4.76,0,6.22,1,6.21,6q-.23,184,0,368.06c0,4.76-1,6.22-6,6.21q-161.69-.24-323.36,0c-4.9,0-6.14-1.21-6.13-6.12q.29-81.36,0-162.72a11.35,11.35,0,0,1,3.78-9.1c5.9-5.61,11.48-11.56,17.54-17.73,1.78,2.65,1.06,5.18,1.07,7.49.05,52.84.13,105.69-.1,158.53,0,5.59,1,7.36,7.06,7.35q138.27-.35,276.56,0c5.72,0,7.27-1.23,7.26-7.14q-.3-160.63,0-321.26c0-5.84-1.42-7.23-7.21-7.18-38,.28-75.89.14-113.84.14Z" transform="translate(-18.12 -12.48)"/><path class="cls-2" d="M665,191.39H658.2q-115.22,0-230.44.13c-5.54,0-7.68-.93-7.4-7.06.54-12.08.13-24.2.17-36.3,0-9,3.45-12.6,12.22-12.64a40.64,40.64,0,0,0,24.08-7.93,16.29,16.29,0,0,1,10.23-3.32q68.43.17,136.87.06c17.62,0,31.42,6.9,41.12,21.83C653.94,159.86,661.65,174.06,665,191.39Z" transform="translate(-18.12 -12.48)"/><path class="cls-2" d="M186.33,191.39c-38.6,0-77.21-.12-115.81.14-5.63,0-6.52-1.26-5-6.46a127.43,127.43,0,0,1,24.13-45.89c8.28-10.05,19.79-14.68,32.63-14.74,47.21-.22,94.42,0,141.63-.21,4.86,0,7.26,3.84,11.08,5.07,8.86,2.86,14.39,8.32,17.52,17.31,2,5.61,6.59,10.2,11.85,13.39,3.7,2.26,4.75,5.08,4.47,9.19a86.11,86.11,0,0,0,0,14.63c.59,5.89-1,7.82-7.4,7.75C263.08,191.21,224.7,191.39,186.33,191.39Z" transform="translate(-18.12 -12.48)"/><path class="cls-4" d="M364.72,236.1q-158.15,0-316.27.13c-6.22,0-8.33-1.34-8.1-7.91.51-14.55.14-14.57,14.56-14.57q312.44,0,624.86-.15c7.11,0,9.53,1.51,9.16,9-.65,13.5-.18,13.52-13.53,13.52Z" transform="translate(-18.12 -12.48)"/><path class="cls-5" d="M96.62,480.61c13.82-4.48,23.9-12.75,29.8-25.88,6-13.29,3.38-26.31-1.56-39.8h78.83c15.65,0,15.65,0,15.65,15.89,0,52.15-.07,104.31.11,156.46,0,5-.83,6.74-6.32,6.62-18.39-.4-36.79-.3-55.18,0-4.52.07-5.82-1.1-5.78-5.71.23-27,.12-54,.11-81,0-16.28-8.74-25.09-24.83-25.13q-15,0-30-.13C97.32,481.85,97.22,481.55,96.62,480.61Z" transform="translate(-18.12 -12.48)"/><path class="cls-6" d="M644.05,622.07c-6.21-24.48-19.42-43.44-41.44-56-10.44-6-22-8.76-33.56-10.93-6.86-1.28-5.77-6.16-7.36-10.07s-.38-6.2,2.57-9.43c7.32-8,15.81-12.35,26.34-15.12,18.77-4.95,30.55-22.77,31.19-42.39.77-23.61-3.23-45.91-17.09-65.46-20.4-28.77-48.51-43-83.83-42.85a226.28,226.28,0,0,0-30.22,2.56c7.84-8,15.64-15.94,23.54-23.84,1.46-1.46,3.57-.66,5.36-.66q59.34-.06,118.69-.06c3.35,0,6-.49,5.94,4.74q-.28,132-.13,263.92Z" transform="translate(-18.12 -12.48)"/><path class="cls-7" d="M358.4,114.87c-2.27,5.94-4.15,10.9-6.08,15.85-4.41,11.28-14.59,17.69-24.83,15.68-11.33-2.23-18.6-11.33-18.74-23.48a43.27,43.27,0,0,1,0-5.58c.4-3.47-1.16-4.38-4.39-4.24-4.86.22-9.75.38-14.47-1.38A22.32,22.32,0,0,1,276.48,84c3.94-11.69,15.31-17.54,27.13-14.43,4.65,1.23,9.57,6.18,13.35,3.88,3-1.8,2.94-8.27,4.51-12.57,5.27-14.38,21.93-18.88,35-9.51,8.2,5.88,8.18,5.87,14.52-2.27,8.22-10.55,19-15.9,32.28-13.58,14.26,2.49,23.91,11,27.24,25.42C431.66,66,434,68.39,439,70.07c12.08,4,17.73,16.38,13.66,28s-16.21,17.39-28.18,13.7c-4.15-1.28-8.44-5.62-12.11-3.8s-2.87,7.82-4.31,11.9c-5.8,16.38-24.73,20.87-37.09,8.58C366.9,124.41,363.14,120,358.4,114.87Zm40.17-57.59c-11.58,0-11.58,0-11.58,11.46,0,10.89,0,10.89,10.76,10.89,11.59,0,11.59,0,11.58-11.46C409.33,57.28,409.33,57.28,398.57,57.28ZM342.28,91c0-11.35,0-11.35-11.69-11.35-10.66,0-10.66,0-10.66,11,0,11.36,0,11.36,11.68,11.36C342.28,102,342.28,102,342.28,91Z" transform="translate(-18.12 -12.48)"/><path class="cls-8" d="M521.21,638.46H428.33c-8.62,0-8.72-.12-7.57-8.34,3.57-25.46,19.93-43.75,44.85-50.14a31.69,31.69,0,0,0,4.07-.93c6.86-2.83,12-2.26,17,4.58,5.25,7.19,13.78,10.13,22.8,10.06,9.75-.08,19.58,1,29.25-.63,8.35-1.43,15-6,20.16-12.73,1.37-1.77,2.28-4,5.38-3.38,20.41,4,38.83,11.22,49.78,30.66,4.41,7.82,6.57,16.25,7.64,25.08.55,4.46-.75,5.91-5.5,5.88C584.52,638.35,552.86,638.46,521.21,638.46Z" transform="translate(-18.12 -12.48)"/><path class="cls-5" d="M186,616.11q43.63,0,87.27,0c5.3,0,9.48,1.65,12,6.71,2,4.05,1.21,7.72-1.3,11.11-2.73,3.71-6.68,4.6-11.1,4.58-16.06-.08-32.12.12-48.17-.14-4.26-.07-5.44,1-5.45,5.36,0,17.1-.21,17.1,16.64,17.1,5.12,0,10.24-.08,15.36,0,7.66.17,12.65,4.51,12.77,11s-4.88,11.29-12.4,11.31q-54.46.15-108.91,0c-7.64,0-12.62-4.58-12.69-11s4.91-11.11,12.49-11.23c9.31-.15,18.62-.17,27.92,0,3.36.08,4.2-1,4.34-4.31.78-18.12.88-18.12-17-18.12h-60c-5.36,0-9.35-2.14-11.57-7.29-1.8-4.18-.68-7.8,1.94-11,2.9-3.57,7-4.08,11.36-4.07Q142.72,616.17,186,616.11Z" transform="translate(-18.12 -12.48)"/><path class="cls-5" d="M85.85,504.34c13,0,26,.14,39.06-.08,3.85-.07,5.13.89,5.11,4.94q-.27,39.77,0,79.54c0,3.83-.9,5.13-4.95,5.1q-39.77-.27-79.53,0c-3.84,0-5.13-.89-5.1-4.94.17-26.52.22-53,0-79.54,0-4.77,1.86-5.13,5.69-5.08C59.33,504.45,72.59,504.34,85.85,504.34Z" transform="translate(-18.12 -12.48)"/><path class="cls-6" d="M423.75,438.88c-2.81,12.43-3.39,24.64-3.29,37,.21,23.75,13.14,41.58,36.3,46,11.2,2.15,16.34,10.64,23.95,16.58,2.85,2.23-2.19,15.09-6,16.14-4.24,1.16-8.56,2.06-12.82,3.14-34,8.62-54.81,30.22-62.82,64.35-1.57-.51-.7-1.75-.86-2.61a15.15,15.15,0,0,1,0-2.78q0-73.31-.08-146.59c0-4,.94-6.89,3.93-9.7C409.46,453.46,416.53,446.09,423.75,438.88Z" transform="translate(-18.12 -12.48)"/><path class="cls-9" d="M587.38,497.48c1.29-10.23.68-19.7.75-29.15.08-10.15-4.61-17.8-14-21.22A120.32,120.32,0,0,1,525,413.89c-2.81-3.13-4.7-3.46-7.68-.11A119.63,119.63,0,0,1,468.21,447c-9.38,3.42-14.21,11-14.13,21.12.08,9.5-.65,19,.83,29.12-7.81-3.9-11.23-10.13-11.94-17.88-4-43.66,21.62-79.08,64.51-86,51.31-8.32,91,27,91.81,74.71.1,5.54.71,11.13-1.14,16.61A21.77,21.77,0,0,1,587.38,497.48Z" transform="translate(-18.12 -12.48)"/><path class="cls-10" d="M565.81,478.37c0,27.12-13.37,45.3-35.46,49.91a44.63,44.63,0,0,1-53.86-40.69c-1.27-18.13-1.28-18.15,14.89-26A110.62,110.62,0,0,0,517,445c3.12-2.76,5.15-2.59,8.19.08,9,7.85,18.95,14.53,30.17,18.38C564.11,466.49,568.28,470.74,565.81,478.37Z" transform="translate(-18.12 -12.48)"/><path class="cls-11" d="M526.4,303.16c-57.82,57.84-115,115.09-172.92,173,0-11.08,0-21.84,0-32.61,0-2.22,1.75-3.2,3-4.45q66.39-66.48,132.82-132.9c1.86-1.87,3.64-3.16,6.57-3.1C505.82,303.29,515.8,303.16,526.4,303.16Z" transform="translate(-18.12 -12.48)"/><path class="cls-3" d="M460.8,303.17c-7.69,7.52-14.12,13.54-20.19,19.91-2.28,2.4-4.72,2.45-7.52,2.45-17.21,0-34.42.14-51.62-.12-4.55-.08-5.85,1.16-5.77,5.74.27,17.21,0,34.42.19,51.62a10.71,10.71,0,0,1-3.47,8.53c-6,5.82-11.64,11.94-17.43,17.95-2.42-1.91-1.48-3.9-1.48-5.57-.07-31.39.08-62.78-.18-94.17-.05-5.23,1.27-6.52,6.48-6.48C392.78,303.29,425.75,303.17,460.8,303.17Z" transform="translate(-18.12 -12.48)"/><path class="cls-12" d="M174.79,347.27c-.91,9.94-5,16.85-13.31,20.77-8.12,3.82-16,2.77-22.87-2.79-7.05-5.68-10.18-13.17-8-22.27,3.21-13.08,9.63-24.57,17.92-35.05,1.31-1.65,2.84-5.31,5.82-1.78C164.78,318.39,172.07,332.16,174.79,347.27Z" transform="translate(-18.12 -12.48)"/><path class="cls-12" d="M107.57,438.32a22,22,0,0,1-12.75,18.93c-8.06,4-15.92,3.1-22.93-2.31-7.18-5.55-10.52-13.06-8.39-22.13,3.13-13.32,9.7-25,18.16-35.68,1.42-1.78,2.66-4.5,6-1.47C95.1,402.53,107.45,427.63,107.57,438.32Z" transform="translate(-18.12 -12.48)"/><path class="cls-13" d="M521.09,571.38c-3.71,0-7.42.13-11.12,0-4.53-.2-8.26-2.28-9.69-6.62-1.61-4.85.69-9.51,2.37-14,.75-2,2.93-.6,4.34-.32a64.79,64.79,0,0,0,28.23-.1c3.46-.82,4.71.06,5.63,3.62,3.41,13.14.25,17.44-13.51,17.46h-6.25Z" transform="translate(-18.12 -12.48)"/><path class="cls-14" d="M398.16,156.67c0,10.6-.14,20.6.08,30.58.08,3.47-1.16,4.63-4.39,4.15a4.09,4.09,0,0,0-.7,0c-17.34.44-17.34.44-17.34-16.94v-1.4c.06-5.11-1.67-11.41.7-15,2.1-3.17,8.73.65,13.39-.24C392.4,157.36,394.94,157.12,398.16,156.67Z" transform="translate(-18.12 -12.48)"/><path class="cls-14" d="M353.45,163.06c0,8.76-.13,16.39.07,24,.08,3.19-.68,4.88-4.17,4.33a7.06,7.06,0,0,0-1.38,0c-17,.25-16.91.25-17-16.56,0-4.06.53-6,5.37-6.17C342.08,168.47,347.42,165.89,353.45,163.06Z" transform="translate(-18.12 -12.48)"/><path class="cls-6" d="M399,365a11.72,11.72,0,0,1-.82-2.18c-.61-16.18-.61-16.18,17.46-14.23-3.25,3-5.92,5.39-8.45,7.89S402.07,361.77,399,365Z" transform="translate(-18.12 -12.48)"/><path class="cls-15" d="M398.57,57.28c10.76,0,10.76,0,10.76,10.89,0,11.46,0,11.46-11.58,11.46-10.76,0-10.76,0-10.76-10.89C387,57.28,387,57.28,398.57,57.28Z" transform="translate(-18.12 -12.48)"/><path class="cls-15" d="M342.28,91c0,11,0,11-10.67,11-11.68,0-11.68,0-11.68-11.36,0-11,0-11,10.66-11C342.28,79.64,342.28,79.64,342.28,91Z" transform="translate(-18.12 -12.48)"/></svg>