<svg id="Calque_1" data-name="Calque 1" xmlns="http://www.w3.org/2000/svg" viewBox="0 0 698.62 619.71"><defs><style>.cls-1{fill:#6464ab;}.cls-2{fill:#463d82;}.cls-3{fill:#302654;}.cls-4{fill:#6766ab;}.cls-5{fill:#faf9fa;}.cls-6{fill:#e1def0;}.cls-7{fill:#605996;}.cls-8{fill:#e2dff1;}.cls-9{fill:#ffe27b;}.cls-10{fill:#e83b3a;}.cls-11{fill:#4f5ea8;}.cls-12{fill:#f9b358;}.cls-13{fill:#4bb272;}.cls-14{fill:#f1caa7;}</style></defs><title>icon-dashboard</title><g id="WP71l6.tif"><path class="cls-1" d="M72.94,53.56c1.27-.08,2.55-.24,3.83-.24q140.61,0,281.24,0c1.08,0,2.16.13,3.24.19q0,20.27,0,40.52c-1.38.07-2.76.19-4.14.19l-279.46,0c-2,0-4,.13-5.92.19-.52-.74-1.4-.2-2-.58-1.15,0-2.66-.68-2.72,1.42l-1.18.27c-1.87-1.5-2.69.71-3.6,1.34-3.48,2.41-7.11,4.9-7.57,9.74v.8c-2.29,1.35-2.38,3.22-1.27,5.38,0,.89.11,1.77.11,2.66q0,181.14,0,362.29c0,1.58-.07,3.16-.1,4.75-1.35,2.21-.48,3.92,1.24,5.43l.1.78c1,4.16,1.49,4.79,3.83,5.35l.57-.17c0,.42.07.84.1,1.26,1.05,3,3.71,3.66,6.31,4.43l.94-.36.51.51c.68,1.87,1.85,2.32,3.56,1.27l1.25-.41c1.58.09,3.15.26,4.73.26q140.87,0,281.73,0c1.18,0,2.35-.18,3.53-.27l.67.42c0,2,0,3.94,0,5.9l-.15,34.83c-1.27.08-2.55.23-3.83.23q-39.14,0-78.26,0c-1.38,0-2.77-.14-4,.61-1.1-1.26-2.58-.78-3.91-.78q-98.66,0-197.32,0c-16.51,0-31-5.53-43-17-12.76-12.2-19.17-27.26-19.16-45q0-73.11,0-146.21,0-107.88,0-215.75c0-1.48.1-3,.15-4.45.5-.07,1-.23,1.11-.79a18.61,18.61,0,0,0,.2-9.85c.05-.41.09-.83.14-1.24,2.52-.47,1.49-2.08,1.11-3.49.07-.42.13-.85.19-1.27a1.79,1.79,0,0,0,1.3-1.09c1.89-4.24,3.47-8.58,6-12.57a61.72,61.72,0,0,1,25.25-22.7,48,48,0,0,1,11.22-4c1-.22,1.94-.36,2.33-1.48a1.27,1.27,0,0,1,1.33.08c2.48,0,5,.07,7.42.12C71.63,55.12,72.68,55,72.94,53.56Z" transform="translate(-12.73 -52.98)"/><path class="cls-2" d="M362.26,541.72l.15-34.83c0-2,0-3.93,0-5.9,1.29,0,2.57-.13,3.86-.13H649c2.38,0,4.75-.17,7.12-.26,0,1.05.58,1.9,1.59,1.43,1.68-.8,4.24-.65,4.37-3.45a1.93,1.93,0,0,1,1.76-1.24c2.4.19,3-.78,2.35-3.67a1.13,1.13,0,0,1,.55-1.14l1.2.07a3.89,3.89,0,0,0,2.92-5.41c0-3.37.11-6.73.11-10.1l0-368.94a19.1,19.1,0,0,0,0-2.62c-.31-2.46-2.9-4.82-5.12-4.78l0,0c.26-2.48-.19-3.09-2-2.71a1.18,1.18,0,0,1-1.19-1.14c-.43-2.87-3.07-4.2-5.93-3-.76,0-1.58-.38-2.26.28-2.47,0-4.94-.07-7.42-.07H366c-1.19,0-2.38,0-3.56-.07q0-18-.07-35.93c0-4.15,0-4.16,4.14-4.16H646c1.19,0,2.37,0,3.56.06.12,1.45,1.45,2.38,2.31,2,1.38-.62,3-.5,4.23-1.48a21,21,0,0,0,5.35.67,2.32,2.32,0,0,0,2.44,2.74c7.17-.21,12.32,4.44,18.07,7.45,4.83,2.53,8.27,6.93,12.07,10.76,1,1,2.08,1.8,3.61,1.57.24.39.48.77.71,1.16-1.23,1.08-.57,2.24.08,3.15a38.51,38.51,0,0,1,5.8,10.43,2.59,2.59,0,0,0,2.39,1.9l.1,1.12c-1.17,1.51-1,2.41,1.1,2.45l.58,2.38c-.74.38-1.31.91-1,1.82.36,1.19,1.36,1.17,2.35,1.09l.13-.11c-.52,1.22-.13,2.49-.25,3.74-2.55.41-1.85,2.46-1.69,3.89.21,1.92.34,4.22,3.14,4.44.06,1.18.17,2.36.17,3.54q0,178.65,0,357.31c0,1.18-.11,2.36-.17,3.54-2.8.23-2.93,2.52-3.14,4.44-.16,1.44-.86,3.49,1.7,3.89.12,1.26-.28,2.55.27,3.77l-.13-.13c-1.12.06-2.19.24-2.45,1.57-.16.82.33,1.26,1.14,1.34l-.6,2.37c-.85.07-1.57.36-1.69,1.32-.11.79.47,1,1.1,1.06-.21.6-.43,1.19-.64,1.78a2.39,2.39,0,0,0-2.67,1.84,21.8,21.8,0,0,1-1.51,3.8c-2.74,4.33-4.88,9-8.78,12.66-2.66,2.51-5,5.76-7.87,7.79-4,2.83-8,6.05-13,7.29-1.4.35-2.62,1-2.41,2.85l-1.66.11c-1.35-.78-2.31-.7-2.51,1.12l-2.28.13c-1.63-1.45-2.16-.45-2.45,1.1-1.5.93-3.18.38-4.77.57-.31-2.39-2.2-1.94-3.59-1.72-1.61.26-3.6.51-3.55,3-1.28.07-2.56.18-3.84.18l-193.81,0c-1.38,0-2.76.14-4.14.21-1.68,0-3.36,0-5,0l-80.32.05Z" transform="translate(-12.73 -52.98)"/><path class="cls-1" d="M362.49,672.5c-.78.07-1.56.19-2.35.19H144.45c-8.85,0-15.28-4.05-19.31-11.83-5.43-10.48.75-24.53,12-27.94a28.37,28.37,0,0,1,8.45-1.14q63.29,0,126.56,0c1.35,0,2.8.39,4-.66a6.69,6.69,0,0,0,2.86.61q41.5-.06,83-.08l.35.2Z" transform="translate(-12.73 -52.98)"/><path class="cls-2" d="M362.49,672.5l-.15-40.66c1.39,0,2.77-.09,4.16-.09l81.37-.09c1.38.05,2.77.13,4.15.14H577.38c1.28,0,2.55.17,3.83.25,0,1.9,1.41,1.39,2.5,1.41s2.1.24,3.09-.32l-.08.13c-.18,1,.21,1.41,1.17,1.37l2-.19.87.3c.06.88.51,1.23,1.38,1a.38.38,0,0,1,.38.22c.13,1.16.7,1.78,1.94,1.57h0a.58.58,0,0,0,.62.63v0c.53,2.75,2.42,4.66,4.16,6.65l.15.89c-.07,1.06-.15,2.12-.22,3.17v6.75c.07,1.06.15,2.11.22,3.16l-.16.9-6.69,8.8a.39.39,0,0,1-.4.22l-1.34-.09c-.24-.36-.66-.67-.88-.19s.17.89.28,1.35a.25.25,0,0,1-.3.25l-1.47-.21c-1.83-1.07-1.55.38-1.66,1.38l.09.12c-1-.51-2-.21-3.08-.28-1.15.21-2.88-.91-3.1,1.38-1.07.09-2.15.25-3.22.25H365.44C364.46,672.66,363.48,672.56,362.49,672.5Z" transform="translate(-12.73 -52.98)"/><path class="cls-2" d="M362,631.64q-41.5,0-83,.08a6.69,6.69,0,0,1-2.86-.61q0-44.26,0-88.54c1.27-.75,2.66-.61,4-.61q39.13,0,78.26,0c1.28,0,2.56-.15,3.83-.23l.17.24a14.08,14.08,0,0,0-.58,4.66q0,36.89,0,73.77C361.87,624.14,362,627.89,362,631.64Z" transform="translate(-12.73 -52.98)"/><path class="cls-3" d="M362,631.64c0-3.75-.12-7.5-.12-11.25q0-36.89,0-73.77a14.08,14.08,0,0,1,.58-4.66l80.32-.05c1.68,0,3.36,0,5,0q0,40,0,80c0,3.26,0,6.52,0,9.78l-81.37.09c-1.39,0-2.77.06-4.16.09Z" transform="translate(-12.73 -52.98)"/><path class="cls-4" d="M649.58,54c-1.19,0-2.37-.06-3.56-.06H366.54c-4.14,0-4.14,0-4.14,4.16q0,18,.07,35.93l-.64.45-.57-.42q0-20.25,0-40.52a10.27,10.27,0,0,1,4.4-.45q140.94,0,281.9,0c1.05,0,2.18-.35,3.16.38Z" transform="translate(-12.73 -52.98)"/><path class="cls-4" d="M61.72,54.9c-.39,1.12-1.32,1.26-2.33,1.48a48,48,0,0,0-11.22,4,61.72,61.72,0,0,0-25.25,22.7c-2.51,4-4.09,8.33-6,12.57a1.79,1.79,0,0,1-1.3,1.09c.52-4.17,2.49-7.82,4.46-11.37a61.13,61.13,0,0,1,34.81-29C57.05,55.6,59.27,54.49,61.72,54.9Z" transform="translate(-12.73 -52.98)"/><path class="cls-2" d="M697.66,77.69c-1.53.23-2.57-.53-3.61-1.57-3.8-3.83-7.24-8.23-12.07-10.76-5.75-3-10.9-7.66-18.07-7.45a2.32,2.32,0,0,1-2.44-2.74l.55-.48,1.74.19c.84,1.89,2.39,1.48,3.9,1.19l.94.14c.27.88,1,1.13,1.78,1.38a61.7,61.7,0,0,1,16.06,8.6c.77.55,1.3,1.59,2.51,1.25-.16,1.55,1.1,1.63,2.07,2l.1.07a1.12,1.12,0,0,0,1.15,1.09l.05,0a4.15,4.15,0,0,0,2.86,3l.09.08c.36,1,.48,2.21,2,2.1C697,76.51,697.48,77.06,697.66,77.69Z" transform="translate(-12.73 -52.98)"/><path class="cls-4" d="M668.73,537.29l1.66-.11c5.29-1.37,9.81-4.24,14.21-7.32,2.41-1.68,4.71-3.5,7.06-5.25.11.11.22.22.32.34-4,4.78-9.3,7.77-14.68,10.64-6,3.22-12.59,4.84-19.23,6.1a7,7,0,0,1-4.36-.18c.65-1.26,2.29-.2,3-1.3,1.59-.19,3.27.36,4.77-.57.94-.09,2.1.31,2.45-1.1l2.28-.13C667.2,538.35,668.36,538.71,668.73,537.29Z" transform="translate(-12.73 -52.98)"/><path class="cls-4" d="M707.85,496.79l.6-2.37,1.26-1.2c1,2.44-.69,4.41-1.33,6.47a58.21,58.21,0,0,1-11,19.95c-.17.2-.51.26-.77.39l-.3-.3c1-1.54,2-3.09,3.07-4.62,3-4.42,5.93-8.88,7.25-14.16.21-.59.43-1.18.64-1.78C708.09,498.54,707.79,497.62,707.85,496.79Z" transform="translate(-12.73 -52.98)"/><path class="cls-4" d="M697.66,77.69c-.18-.63-.7-1.18-.4-1.9,4,3.35,6.11,8,8.39,12.5,1.76,3.45,2.8,7.26,4.11,10.92a2.28,2.28,0,0,1-.08,2.26l-1.26-1.19c-.19-.79-.39-1.59-.58-2.38-.07-1,.32-2.1-1.1-2.45,0-.37-.07-.74-.1-1.12a38.69,38.69,0,0,0-8.27-15.48C698.14,78.46,697.9,78.08,697.66,77.69Z" transform="translate(-12.73 -52.98)"/><path class="cls-4" d="M689,67.44c-1.21.34-1.74-.7-2.51-1.25a61.7,61.7,0,0,0-16.06-8.6c-.78-.25-1.51-.5-1.78-1.38,2.79-.21,5,1.42,7.27,2.53C680.6,61,685.39,63.34,689,67.44Z" transform="translate(-12.73 -52.98)"/><path class="cls-2" d="M709.62,487.87c-2.56-.4-1.86-2.45-1.7-3.89.21-1.92.34-4.21,3.14-4.44a24.7,24.7,0,0,1,.05,5.89C709.9,485.81,710.28,487.16,709.62,487.87Z" transform="translate(-12.73 -52.98)"/><path class="cls-2" d="M711.06,115.15c-2.8-.22-2.93-2.52-3.14-4.44-.16-1.43-.86-3.48,1.69-3.89.86.83.1,2.46,1.5,3Z" transform="translate(-12.73 -52.98)"/><path class="cls-2" d="M656.72,540.21c-.72,1.1-2.36,0-3,1.3l-4.13-.06c-.05-2.45,1.94-2.7,3.55-3C654.52,538.27,656.41,537.82,656.72,540.21Z" transform="translate(-12.73 -52.98)"/><path class="cls-4" d="M14.2,102.71a18.61,18.61,0,0,1-.2,9.85c-.13.56-.61.72-1.11.79C12.79,109.74,12.51,106.1,14.2,102.71Z" transform="translate(-12.73 -52.98)"/><path class="cls-4" d="M72.94,53.56c-.26,1.42-1.31,1.56-2.47,1.54C68,55.05,65.53,55,63.05,55,66.11,52.87,69.55,53.36,72.94,53.56Z" transform="translate(-12.73 -52.98)"/><path class="cls-1" d="M592.47,668.48l6.69-8.8A12.51,12.51,0,0,1,592.47,668.48Z" transform="translate(-12.73 -52.98)"/><path class="cls-2" d="M649.58,54l1.13-.53,5.34.09c0,.33.05.65.07,1-1.22,1-2.85.86-4.23,1.48C651,56.35,649.7,55.42,649.58,54Z" transform="translate(-12.73 -52.98)"/><path class="cls-2" d="M599.1,655.62v-6.75l1.35.19a19.45,19.45,0,0,1,0,6.37Z" transform="translate(-12.73 -52.98)"/><path class="cls-4" d="M711.11,109.85c-1.4-.57-.64-2.2-1.5-3,.12-1.25-.27-2.52.25-3.74C712,105,711.23,107.5,711.11,109.85Z" transform="translate(-12.73 -52.98)"/><path class="cls-1" d="M599.17,644.81c-1.74-2-3.63-3.9-4.16-6.65A9.71,9.71,0,0,1,599.17,644.81Z" transform="translate(-12.73 -52.98)"/><path class="cls-4" d="M709.62,487.87c.66-.71.28-2.06,1.49-2.44,0,2.16,1,4.49-1.22,6.21C709.34,490.42,709.74,489.13,709.62,487.87Z" transform="translate(-12.73 -52.98)"/><path class="cls-4" d="M656.12,54.5c0-.32,0-.64-.07-1a6.86,6.86,0,0,1,6,1.16l-.55.48A21,21,0,0,1,656.12,54.5Z" transform="translate(-12.73 -52.98)"/><path class="cls-2" d="M708.42,100.28l1.26,1.19c0,.57,0,1.14.05,1.72-1,.08-2,.1-2.35-1.09C707.11,101.19,707.68,100.66,708.42,100.28Z" transform="translate(-12.73 -52.98)"/><path class="cls-4" d="M15.45,98c.38,1.41,1.41,3-1.11,3.49A3.3,3.3,0,0,1,15.45,98Z" transform="translate(-12.73 -52.98)"/><path class="cls-2" d="M709.71,493.22l-1.26,1.2c-.81-.08-1.3-.52-1.14-1.34.26-1.33,1.33-1.51,2.45-1.57C709.74,492.08,709.72,492.65,709.71,493.22Z" transform="translate(-12.73 -52.98)"/><path class="cls-4" d="M667.66,56.07c-1.51.29-3.06.7-3.9-1.19A3.33,3.33,0,0,1,667.66,56.07Z" transform="translate(-12.73 -52.98)"/><path class="cls-2" d="M580.61,672.41c.22-2.29,1.95-1.17,3.1-1.38-.07.47-.13,1-.19,1.42A4.6,4.6,0,0,1,580.61,672.41Z" transform="translate(-12.73 -52.98)"/><path class="cls-1" d="M586.8,633.15c-1,.56-2.06.23-3.09.32-.06-.48-.12-1-.17-1.46A2.46,2.46,0,0,1,586.8,633.15Z" transform="translate(-12.73 -52.98)"/><path class="cls-1" d="M583.52,672.45c.06-.47.12-1,.19-1.42,1,.07,2.09-.23,3.08.28A2.44,2.44,0,0,1,583.52,672.45Z" transform="translate(-12.73 -52.98)"/><path class="cls-4" d="M695.18,73.61a4.15,4.15,0,0,1-2.86-3A3.4,3.4,0,0,1,695.18,73.61Z" transform="translate(-12.73 -52.98)"/><path class="cls-1" d="M600.45,649.06l-1.35-.19c.07-1,.15-2.11.22-3.17A2.63,2.63,0,0,1,600.45,649.06Z" transform="translate(-12.73 -52.98)"/><path class="cls-1" d="M599.1,655.62l1.35-.19a2.64,2.64,0,0,1-1.13,3.35C599.25,657.73,599.17,656.68,599.1,655.62Z" transform="translate(-12.73 -52.98)"/><path class="cls-2" d="M583.54,632c.05.49.11,1,.17,1.46-1.09,0-2.47.49-2.5-1.41A3.28,3.28,0,0,1,583.54,632Z" transform="translate(-12.73 -52.98)"/><path class="cls-4" d="M696.6,520a4.22,4.22,0,0,1-2.22,2.52l-.35-.33a4.25,4.25,0,0,1,2.27-2.49Z" transform="translate(-12.73 -52.98)"/><path class="cls-1" d="M589.85,634.46l-2,.19c0-.44-.11-.89-.16-1.34C588.89,632.85,589.47,633.46,589.85,634.46Z" transform="translate(-12.73 -52.98)"/><path class="cls-4" d="M691,69.45c-1-.38-2.23-.46-2.07-2C689.88,67.86,691,68.11,691,69.45Z" transform="translate(-12.73 -52.98)"/><path class="cls-4" d="M697.26,75.79c-1.51.11-1.63-1.11-2-2.1C696.54,73.81,696.89,74.81,697.26,75.79Z" transform="translate(-12.73 -52.98)"/><path class="cls-1" d="M594.42,637.56c-1.24.21-1.81-.41-1.94-1.57C593.66,635.85,594.06,636.68,594.42,637.56Z" transform="translate(-12.73 -52.98)"/><path class="cls-2" d="M586.7,671.19c.11-1-.17-2.45,1.66-1.38-.21.45-.41.89-.61,1.34Z" transform="translate(-12.73 -52.98)"/><path class="cls-1" d="M587.75,671.15c.2-.45.4-.89.61-1.34l1.47.21C589.46,671,588.92,671.64,587.75,671.15Z" transform="translate(-12.73 -52.98)"/><path class="cls-2" d="M590.13,669.77c-.11-.46-.43-1-.28-1.35s.64-.17.88.19c0,.37,0,.73,0,1.1Z" transform="translate(-12.73 -52.98)"/><path class="cls-4" d="M693.18,523.78A2,2,0,0,1,692,525c-.1-.12-.21-.23-.32-.34a1.44,1.44,0,0,1,1.22-1.16Z" transform="translate(-12.73 -52.98)"/><path class="cls-4" d="M692.27,70.61a1.12,1.12,0,0,1-1.15-1.09C692,69.41,692.33,69.78,692.27,70.61Z" transform="translate(-12.73 -52.98)"/><path class="cls-4" d="M694.38,522.55a2.11,2.11,0,0,1-1.2,1.23l-.3-.33a1.46,1.46,0,0,1,1.15-1.23Z" transform="translate(-12.73 -52.98)"/><path class="cls-2" d="M587.73,633.31c0,.45.11.9.16,1.34-1,0-1.35-.42-1.17-1.37Z" transform="translate(-12.73 -52.98)"/><path class="cls-1" d="M592.1,635.77c-.87.22-1.32-.13-1.38-1C591.55,634.6,592,635,592.1,635.77Z" transform="translate(-12.73 -52.98)"/><path class="cls-1" d="M590.71,669.71c0-.37,0-.73,0-1.1l1.34.09C592,669.49,591.54,669.88,590.71,669.71Z" transform="translate(-12.73 -52.98)"/><path class="cls-1" d="M595,638.18a.58.58,0,0,1-.62-.63C594.82,637.55,595,637.75,595,638.18Z" transform="translate(-12.73 -52.98)"/><path class="cls-5" d="M361.26,94l.57.42c0,.9,0,1.79,0,2.68q0,200.39,0,400.78c0,.89,0,1.78-.06,2.67-1.18.09-2.35.27-3.53.27q-140.86,0-281.73,0c-1.58,0-3.15-.17-4.73-.26-.67-1.44-1.61-2-3-.86H67l-.51-.51c-.26-2-1.7-1.89-3.15-1.78l-1.25-.94c.16-1.09-.3-1.51-1.38-1.28a.19.19,0,0,1-.29-.08c.05-.9-.37-1.33-1.28-1.25l-.57.17L56.82,491c.09-1.37.37-2.84-1.65-3.08l-.2-1.17c1-1.77.74-3.19-1.16-4.15a1.25,1.25,0,0,0-.42-.08c0-1.59.1-3.17.1-4.75q0-181.14,0-362.29c0-.89-.07-1.77-.11-2.66.15-.22.31-.43.47-.64Q56.54,110.64,55,108l-.34-.55c0-.27,0-.53,0-.8,1.76-.8,1.76-3,3.25-4,1.3.15,1.42-.69,1.39-1.66l.56-.63c1.36.09,2.37-.27,2.36-1.89A3,3,0,0,1,64.82,97c.68.09,1.83.72,1-.9l0-.59L67,95.26l1.18.2c1.65,1.24,2.78.66,3.57-1,2-.06,4-.19,5.92-.19l279.46,0C358.5,94.21,359.88,94.09,361.26,94ZM263.72,238.79c-18.71,0-37.43-.07-56.15,0-5.87,0-10.74,3-14.2,7.38-4.51,5.69-5.75,12.22-3.51,19.6,2.37,7.83,11.12,14,18.46,14,36.25,0,72.49-.05,108.74.07a22.12,22.12,0,0,0,13.42-4.32,19.57,19.57,0,0,0,8.12-13.19A19.24,19.24,0,0,0,335.22,248c-3.79-5.4-8.79-9.15-15.64-9.2C301,238.71,282.34,238.79,263.72,238.79Zm.12,87.39c-18.73,0-37.45-.06-56.17,0-5.71,0-10.37,2.75-14,7-5,5.89-6.18,12.53-3.77,20,2.57,8,10.44,13.86,18.24,13.89,37,.15,74.1,0,111.15.13a15.58,15.58,0,0,0,6.74-1.7c9.42-4.47,15.5-14.29,11.41-25.89-2.37-6.74-10.45-13.55-18.37-13.51C300.69,326.24,282.26,326.18,263.84,326.18Zm0-133.76h54.66a20.21,20.21,0,0,0,6-1c9.87-3,17.37-15.2,12.94-26.55-3-7.67-10.52-13.42-18.77-13.44-36.83-.08-73.67,0-110.5,0a16.94,16.94,0,0,0-8.38,2.43c-8.5,4.7-13.2,13.95-9.95,24.75,2.12,7.08,10.67,13.84,17.86,13.84ZM225.42,413.51c-5.35,0-10.69,0-16,0-9.53,0-16.24,5-19.76,14-4.22,10.7,3.36,26.71,19,27q16.78.31,33.57,0c11.32-.22,18.56-7.89,20.15-17.5,2-12.29-8.15-23.72-20-23.48C236.71,413.61,231.07,413.51,225.42,413.51Zm-104-221.08a20.42,20.42,0,0,0,20.89-20.36c.27-11.42-9.71-20.48-20.34-20.67-11.19-.21-20.84,9.68-20.75,20.29C101.34,183.18,110.2,192.41,121.45,192.43Zm.28,46.42c-10.8-.5-20.65,9.36-20.5,20.54a20.91,20.91,0,0,0,20.15,20.4c11.61.31,21-10.12,21-20.48S132.77,238.18,121.73,238.85Zm0,87.35c-11.13-.49-20.52,9.41-20.54,20.49a20.56,20.56,0,0,0,41.11-.12C142.39,335.55,132.7,325.6,121.75,326.2Z" transform="translate(-12.73 -52.98)"/><path class="cls-6" d="M361.79,500.57c0-.89.06-1.78.06-2.67q0-200.4,0-400.78c0-.89,0-1.78,0-2.68l.64-.45c1.18,0,2.37.07,3.56.07H647c2.48,0,4.95.05,7.42.07,1.25,1.49,3,1.77,4.74,1.8a1.65,1.65,0,0,0,1.57,1c.58,1.32,1.79,1.79,3,2.29l0,0a1.41,1.41,0,0,0,1.19,1.12l.84.36,0,0,.54,1.31c-.15,1.09.65,1.54,1.36,2,.54,1.3,1.09,2.59,1.63,3.89.79,2.39.65,4.86.65,7.32q0,173.8,0,347.61c0,8.32,1,16.7-.87,25,0,.32-.09.65-.13,1a1.48,1.48,0,0,0-1,1.34.53.53,0,0,0-.21.43,2.14,2.14,0,0,0-1,1.9,1.13,1.13,0,0,0-.55,1.14c-1.26.28-1.53,1.66-2.5,2.26-1.83,1.21-4,1.84-5.48,3.64a1.76,1.76,0,0,0-2.09,1c-2.37.09-4.74.26-7.12.26H366.32c-1.29,0-2.57.09-3.86.13Zm66.72-333c-4.61,1.71-7.18,5.88-10.63,9-1.55,1.37-3.35,2.81-3.79,5.11l0,0c-1.3.22-2,1.28-2.72,2.16a118.93,118.93,0,0,0-23.47,46.88c-.7,3-2.35,6.11-1.38,9.45l-.09,1.65c-1.12,1-1.18,2.41-1.33,3.78a124.51,124.51,0,0,0-.42,20.7c.21,3.51-.53,7.33,1.75,10.56,0,.55,0,1.1.08,1.65a6.13,6.13,0,0,0-.08,3.52c1.67,5.88,2.94,11.86,5.08,17.63A122.18,122.18,0,0,0,407,329.17c2,2.81,3.71,6.09,7,7.79h0a6.64,6.64,0,0,0,2,3.24c2.81,2.78,5.44,5.77,8.45,8.31a146.6,146.6,0,0,0,14.55,11,120.71,120.71,0,0,0,26.7,12.85c3.92,1.35,7.79,3.22,12.14,2.88l1.06.08c.64,1.06,1.73,1.12,2.8,1.36,10.11,2.26,20.37,1.68,30.6,1.73,5,0,9.69-1.49,14.59-1.88a2.25,2.25,0,0,0,1.91-1.24l1.06-.06c1.42.25,2.9.71,3.69-1.11l1-.16a6.2,6.2,0,0,0,2.32.15c4.34-1.47,8.72-2.87,12.93-4.67a123.68,123.68,0,0,0,24.66-14.13,114.7,114.7,0,0,0,25.19-25.25,120.46,120.46,0,0,0,15.8-28.84c1.25-3.32,2.82-6.61,2.83-10.3,0-.35.07-.7.11-1.05,1.84-1,1.36-2.9,1.83-4.43,1-3.21.89-6.62,1.65-9.83a32.19,32.19,0,0,0,.54-10.84,16.44,16.44,0,0,0-.18-5.33c1.25-7.77-.3-15.38-1.66-22.93a109.33,109.33,0,0,0-6.15-20.83A121.65,121.65,0,0,0,601,190.61a119.37,119.37,0,0,0-29-29A116.69,116.69,0,0,0,541,146.13a129.32,129.32,0,0,0-28.59-5.73c-9.8-.42-19.62-.78-29.3,1.3-1.42.3-3.32-.43-4.17,1.52l-1.07.1a7.59,7.59,0,0,0-2.63-.1c-5.74,1.83-11.56,3.52-17.15,5.76a118.63,118.63,0,0,0-26.05,14.82c-1.34,1-3.05,1.84-3.55,3.73ZM422,454.5c5.44,0,10.89-.14,16.32.05a20,20,0,0,0,10.93-3c7.36-4.27,11.47-14.09,9.41-22.25-2.32-9.21-10.54-16-19.57-16-11,0-22,.25-33-.08-10.62-.33-21.6,9.1-21.17,21.4.37,10.36,9.46,20.16,20.11,19.94C410.66,454.4,416.31,454.5,422,454.5Z" transform="translate(-12.73 -52.98)"/><path class="cls-4" d="M65.81,95.53c0,.2,0,.39,0,.59a1.18,1.18,0,0,0-1,.9,3,3,0,0,0-2.62,1.36,2.93,2.93,0,0,0-2.36,1.89l-.56.63a1.84,1.84,0,0,0-1.39,1.66c-1.49,1-1.49,3.25-3.25,4,.46-4.84,4.09-7.33,7.57-9.74C63.12,96.24,63.94,94,65.81,95.53Z" transform="translate(-12.73 -52.98)"/><path class="cls-4" d="M60.41,495.13a.2.2,0,0,0,.3.08,1.77,1.77,0,0,0,1.37,1.28l1.25.94c.53.93,1.84,1,2.21,2.14-2.6-.77-5.26-1.45-6.31-4.43Z" transform="translate(-12.73 -52.98)"/><path class="cls-4" d="M56.82,491l1.74,3.08c-2.34-.56-2.79-1.19-3.83-5.35Z" transform="translate(-12.73 -52.98)"/><path class="cls-4" d="M54.65,107.41c.12.18.23.37.34.55a5.88,5.88,0,0,0-1.14,4.19c-.16.21-.32.42-.47.64C52.27,110.63,52.36,108.76,54.65,107.41Z" transform="translate(-12.73 -52.98)"/><path class="cls-4" d="M55,486.72c.07.39.14.78.2,1.17a2.45,2.45,0,0,0-.54,0c-1.72-1.51-2.59-3.22-1.24-5.43a1.25,1.25,0,0,1,.42.08A4.87,4.87,0,0,0,55,486.72Z" transform="translate(-12.73 -52.98)"/><path class="cls-6" d="M71.74,94.42c-.79,1.7-1.92,2.28-3.57,1l1.54-1.62C70.34,94.22,71.22,93.68,71.74,94.42Z" transform="translate(-12.73 -52.98)"/><path class="cls-4" d="M67,499.72h1.8c.24.91,1.37.58,1.76,1.27C68.84,502,67.67,501.59,67,499.72Z" transform="translate(-12.73 -52.98)"/><path class="cls-6" d="M70.55,501c-.39-.69-1.52-.36-1.76-1.27,1.4-1.11,2.34-.58,3,.86Z" transform="translate(-12.73 -52.98)"/><path class="cls-6" d="M65.54,499.57c-.37-1.1-1.68-1.21-2.21-2.14,1.45-.11,2.89-.21,3.15,1.78Z" transform="translate(-12.73 -52.98)"/><path class="cls-6" d="M54.63,487.92a2.45,2.45,0,0,1,.54,0c2,.24,1.74,1.71,1.65,3.08l-2.09-2.27C54.7,488.44,54.67,488.18,54.63,487.92Z" transform="translate(-12.73 -52.98)"/><path class="cls-4" d="M69.71,93.84l-1.54,1.62L67,95.26C67.05,93.16,68.56,93.85,69.71,93.84Z" transform="translate(-12.73 -52.98)"/><path class="cls-6" d="M60.41,495.13H59.23c0-.42-.06-.84-.1-1.26C60,493.8,60.46,494.23,60.41,495.13Z" transform="translate(-12.73 -52.98)"/><path class="cls-4" d="M669.08,487.88c1.83-8.27.87-16.65.87-25q.12-173.8,0-347.61c0-2.46.14-4.93-.65-7.32l1.57.16,0,368.94c0,3.37-.07,6.73-.11,10.1Z" transform="translate(-12.73 -52.98)"/><path class="cls-2" d="M694,522.22a28.64,28.64,0,0,1-2.37,2.39c-2.35,1.75-4.65,3.57-7.06,5.25-4.4,3.08-8.92,5.95-14.21,7.32-.21-1.8,1-2.5,2.41-2.85,5-1.24,9-4.46,13-7.29,2.87-2,5.21-5.28,7.87-7.79,3.9-3.68,6-8.33,8.78-12.66a21.8,21.8,0,0,0,1.51-3.8,2.39,2.39,0,0,1,2.67-1.84c-1.32,5.28-4.25,9.74-7.25,14.16-1,1.53-2,3.08-3.07,4.62A4.25,4.25,0,0,0,694,522.22Z" transform="translate(-12.73 -52.98)"/><path class="cls-2" d="M698.37,78.85a38.69,38.69,0,0,1,8.27,15.48,2.59,2.59,0,0,1-2.39-1.9A38.51,38.51,0,0,0,698.45,82C697.8,81.09,697.14,79.93,698.37,78.85Z" transform="translate(-12.73 -52.98)"/><path class="cls-2" d="M670.92,108.14l-1.57-.16c-.54-1.3-1.09-2.59-1.63-3.89.45-1.28-.17-1.85-1.36-2l-.54-1.31c2.22,0,4.81,2.33,5.12,4.79A19.1,19.1,0,0,1,670.92,108.14Z" transform="translate(-12.73 -52.98)"/><path class="cls-2" d="M660.71,96.89a1.66,1.66,0,0,1-1.57-.94c-.12-1.54-2.41-.49-2.48-2.09,2.86-1.21,5.5.12,5.93,3Z" transform="translate(-12.73 -52.98)"/><path class="cls-2" d="M656.1,500.59a1.77,1.77,0,0,1,2.1-1c1.51.54,2.37-1.43,3.86-1-.13,2.8-2.69,2.65-4.37,3.45C656.68,502.49,656.12,501.64,656.1,500.59Z" transform="translate(-12.73 -52.98)"/><path class="cls-2" d="M669.08,487.88l1.76-.7a3.89,3.89,0,0,1-2.92,5.41c0-.65-.11-1.31-.16-2a.53.53,0,0,1,.21-.43c.93,0,1.32-.41,1-1.34C669,488.53,669,488.2,669.08,487.88Z" transform="translate(-12.73 -52.98)"/><path class="cls-2" d="M663.67,495.92c1-.6,1.24-2,2.5-2.26.67,2.89.05,3.86-2.35,3.67Z" transform="translate(-12.73 -52.98)"/><path class="cls-7" d="M663.67,495.92l.15,1.41a1.93,1.93,0,0,0-1.76,1.24c-1.49-.44-2.35,1.53-3.86,1C659.63,497.76,661.84,497.13,663.67,495.92Z" transform="translate(-12.73 -52.98)"/><path class="cls-4" d="M656.66,93.86c.07,1.6,2.36.55,2.48,2.09-1.79,0-3.49-.32-4.74-1.81C655.08,93.48,655.9,93.85,656.66,93.86Z" transform="translate(-12.73 -52.98)"/><path class="cls-2" d="M706.74,95.45c1.42.35,1,1.5,1.1,2.45C705.76,97.86,705.57,97,706.74,95.45Z" transform="translate(-12.73 -52.98)"/><path class="cls-4" d="M660.71,96.89l1.88,0A1.18,1.18,0,0,0,663.78,98c0,.39,0,.79-.07,1.19C662.5,98.68,661.29,98.21,660.71,96.89Z" transform="translate(-12.73 -52.98)"/><path class="cls-2" d="M663.71,99.18c0-.4,0-.8.07-1.19,1.81-.38,2.26.23,2,2.71l-.84-.36c.12-.91-.34-1.23-1.19-1.12Z" transform="translate(-12.73 -52.98)"/><path class="cls-2" d="M707.85,496.79c-.06.83.24,1.75-.59,2.38-.63-.08-1.21-.27-1.1-1.06C706.28,497.15,707,496.86,707.85,496.79Z" transform="translate(-12.73 -52.98)"/><path class="cls-2" d="M663.94,538.54c-.35,1.41-1.51,1-2.45,1.1C661.78,538.09,662.31,537.09,663.94,538.54Z" transform="translate(-12.73 -52.98)"/><path class="cls-2" d="M668.73,537.29c-.37,1.42-1.53,1.06-2.51,1.12C666.42,536.59,667.38,536.51,668.73,537.29Z" transform="translate(-12.73 -52.98)"/><path class="cls-4" d="M667.76,490.62c0,.66.11,1.32.16,2l-1.2-.07A2.14,2.14,0,0,1,667.76,490.62Z" transform="translate(-12.73 -52.98)"/><path class="cls-8" d="M263.72,238.79c18.62,0,37.24-.08,55.86,0,6.85,0,11.85,3.8,15.64,9.2a19.24,19.24,0,0,1,3.38,14.33,19.57,19.57,0,0,1-8.12,13.19,22.12,22.12,0,0,1-13.42,4.32c-36.25-.12-72.49-.06-108.74-.07-7.34,0-16.09-6.16-18.46-14-2.24-7.38-1-13.91,3.51-19.6,3.46-4.36,8.33-7.34,14.2-7.38C226.29,238.72,245,238.79,263.72,238.79Z" transform="translate(-12.73 -52.98)"/><path class="cls-8" d="M263.84,326.18c18.42,0,36.85.06,55.27,0,7.92,0,16,6.77,18.37,13.51,4.09,11.6-2,21.42-11.41,25.89a15.58,15.58,0,0,1-6.74,1.7c-37.05-.09-74.1,0-111.15-.13-7.8,0-15.67-5.93-18.24-13.89-2.41-7.47-1.18-14.11,3.77-20,3.59-4.27,8.25-7,14-7C226.39,326.12,245.11,326.18,263.84,326.18Z" transform="translate(-12.73 -52.98)"/><path class="cls-8" d="M263.87,192.42H207.73c-7.19,0-15.74-6.76-17.86-13.84-3.25-10.8,1.45-20.05,9.95-24.75a16.94,16.94,0,0,1,8.38-2.43c36.83,0,73.67,0,110.5,0,8.25,0,15.77,5.77,18.77,13.44,4.43,11.35-3.07,23.54-12.94,26.55a20.21,20.21,0,0,1-6,1Z" transform="translate(-12.73 -52.98)"/><path class="cls-9" d="M225.42,413.51c5.65,0,11.29.1,16.93,0,11.81-.24,22,11.19,20,23.48-1.59,9.61-8.83,17.28-20.15,17.5s-22.38.22-33.57,0c-15.61-.3-23.19-16.31-19-27,3.52-8.93,10.23-13.92,19.76-14C214.73,413.49,220.07,413.51,225.42,413.51Z" transform="translate(-12.73 -52.98)"/><path class="cls-10" d="M121.45,192.43c-11.25,0-20.11-9.25-20.2-20.74-.09-10.61,9.56-20.5,20.75-20.29,10.63.19,20.61,9.25,20.34,20.67A20.42,20.42,0,0,1,121.45,192.43Z" transform="translate(-12.73 -52.98)"/><path class="cls-11" d="M121.73,238.85c11-.67,20.64,10,20.65,20.46s-9.39,20.79-21,20.48a20.91,20.91,0,0,1-20.15-20.4C101.08,248.21,110.93,238.35,121.73,238.85Z" transform="translate(-12.73 -52.98)"/><path class="cls-4" d="M121.75,326.2c10.95-.6,20.64,9.35,20.57,20.37a20.56,20.56,0,0,1-41.11.12C101.23,335.61,110.62,325.71,121.75,326.2Z" transform="translate(-12.73 -52.98)"/><path class="cls-6" d="M55,486.72a4.87,4.87,0,0,1-1.16-4.15C55.71,483.53,56,485,55,486.72Z" transform="translate(-12.73 -52.98)"/><path class="cls-6" d="M53.85,112.15A5.88,5.88,0,0,1,55,108Q56.54,110.63,53.85,112.15Z" transform="translate(-12.73 -52.98)"/><path class="cls-6" d="M59.84,100.27a2.93,2.93,0,0,1,2.36-1.89C62.21,100,61.2,100.36,59.84,100.27Z" transform="translate(-12.73 -52.98)"/><path class="cls-6" d="M57.89,102.56a1.84,1.84,0,0,1,1.39-1.66C59.31,101.87,59.19,102.71,57.89,102.56Z" transform="translate(-12.73 -52.98)"/><path class="cls-6" d="M62.08,496.49a1.77,1.77,0,0,1-1.37-1.28C61.78,495,62.24,495.4,62.08,496.49Z" transform="translate(-12.73 -52.98)"/><path class="cls-6" d="M64.82,97a1.18,1.18,0,0,1,1-.9C66.65,97.74,65.5,97.11,64.82,97Z" transform="translate(-12.73 -52.98)"/><path class="cls-12" d="M534.68,374l-1,.16c-1.57-.76-2.85-.57-3.69,1.11l-1.06.06a4.49,4.49,0,0,0-3.46-.21,95.07,95.07,0,0,1-20.16,2.24,96.88,96.88,0,0,1-22.83-2.24,4.38,4.38,0,0,0-3.45.24l-1.06-.08a2.13,2.13,0,0,0-2-1.47c-4.3-.1-8.21-2-12.07-3.41a107.16,107.16,0,0,1-26.77-13.79c-7.49-5.48-14.74-11.19-20.88-18.21-.53-.61-1-1.57-2.09-1.42h0c-.42-2.76-2.77-4.23-4.27-6.22a118.59,118.59,0,0,1-15.37-27A94.7,94.7,0,0,1,388,281.21a3.27,3.27,0,0,0-1.48-2.74c0-.55-.05-1.1-.08-1.65a13,13,0,0,0,.14-6.69,56.58,56.58,0,0,1,0-21.66,12.67,12.67,0,0,0-.13-6.69c0-.55.06-1.1.08-1.65a3.37,3.37,0,0,0,1.49-3c.32-4.85,1.82-9.52,3.35-14a120.44,120.44,0,0,1,17.4-33.82c1.86-2.46,4.6-4.37,5.34-7.63l0,0c1.22.09,1.71-1,2.28-1.65,2.66-3.22,5.86-5.87,8.84-8.75,1.19-1.15,2.75-1.94,3.3-3.67l0,0a11.4,11.4,0,0,0,3.44-1.62c11.07-9.06,23.63-15.24,37.25-19.49,2.91-.91,6.27-.77,8.69-3.1l1.07-.1a4,4,0,0,0,3.41.27,95,95,0,0,1,21.13-2.25q0,56,0,112c0,1.09.06,2.18,0,3.27-.08,2.23.83,3,3.18,3q57.79-.12,115.61-.07a16.44,16.44,0,0,1,.18,5.33,1.77,1.77,0,0,0-.85,1.45c-.93,5.41-1,10.92-2.15,16.35-.48,2.31-2.53,4.65-1,7.3,0,.35-.08.7-.11,1.05a2,2,0,0,0-1.4,1.42c-.53,3.33-1.9,6.38-3.08,9.49a112.6,112.6,0,0,1-12.84,24.37,120.26,120.26,0,0,1-25.62,26.85A114,114,0,0,1,542,371C539.51,371.84,536.59,371.78,534.68,374Z" transform="translate(-12.73 -52.98)"/><path class="cls-13" d="M622.36,259.47q-57.81,0-115.61.07c-2.35,0-3.26-.76-3.18-3,0-1.09,0-2.18,0-3.27q0-56,0-112c2.86-1.5,6-.05,8.93-.84A129.32,129.32,0,0,1,541,146.13,116.69,116.69,0,0,1,572,161.64a119.37,119.37,0,0,1,29,29,121.65,121.65,0,0,1,13.56,25.1,109.33,109.33,0,0,1,6.15,20.83C622.06,244.09,623.61,251.7,622.36,259.47Z" transform="translate(-12.73 -52.98)"/><path class="cls-13" d="M422,454.5c-5.64,0-11.29-.1-16.92,0-10.65.22-19.74-9.58-20.11-19.94-.43-12.3,10.55-21.73,21.17-21.4,11,.33,22,0,33,.08,9,0,17.25,6.8,19.57,16,2.06,8.16-2.05,18-9.41,22.25a20,20,0,0,1-10.93,3C432.84,454.36,427.39,454.5,422,454.5Z" transform="translate(-12.73 -52.98)"/><path class="cls-14" d="M534.68,374c1.91-2.21,4.83-2.15,7.27-3a114,114,0,0,0,33.52-17.94,120.26,120.26,0,0,0,25.62-26.85,112.6,112.6,0,0,0,12.84-24.37c1.18-3.11,2.55-6.16,3.08-9.49a2,2,0,0,1,1.4-1.42c0,3.69-1.58,7-2.83,10.3a120.46,120.46,0,0,1-15.8,28.84,114.7,114.7,0,0,1-25.19,25.25,123.68,123.68,0,0,1-24.66,14.13c-4.21,1.8-8.59,3.2-12.93,4.67A6.2,6.2,0,0,1,534.68,374Z" transform="translate(-12.73 -52.98)"/><path class="cls-14" d="M414.09,337c1.12-.15,1.56.81,2.09,1.42,6.14,7,13.39,12.73,20.88,18.21a107.16,107.16,0,0,0,26.77,13.79c3.86,1.41,7.77,3.31,12.07,3.41a2.13,2.13,0,0,1,2,1.47c-4.35.34-8.22-1.53-12.14-2.88a120.71,120.71,0,0,1-26.7-12.85,146.6,146.6,0,0,1-14.55-11c-3-2.54-5.64-5.53-8.45-8.31A6.64,6.64,0,0,1,414.09,337Z" transform="translate(-12.73 -52.98)"/><path class="cls-14" d="M414.07,181.64c-.74,3.26-3.48,5.17-5.34,7.63a120.44,120.44,0,0,0-17.4,33.82c-1.53,4.48-3,9.15-3.35,14a3.37,3.37,0,0,1-1.49,3c-1-3.34.69-6.43,1.39-9.45a118.93,118.93,0,0,1,23.47-46.88C412.09,182.92,412.77,181.86,414.07,181.64Z" transform="translate(-12.73 -52.98)"/><path class="cls-14" d="M386.49,278.47a3.27,3.27,0,0,1,1.48,2.74,94.7,94.7,0,0,0,6.46,22.52,118.59,118.59,0,0,0,15.37,27c1.5,2,3.85,3.46,4.27,6.22-3.32-1.7-5-5-7-7.79a122.18,122.18,0,0,1-15.55-29.55c-2.14-5.77-3.41-11.75-5.08-17.63A6.13,6.13,0,0,1,386.49,278.47Z" transform="translate(-12.73 -52.98)"/><path class="cls-14" d="M477.91,143.32c-2.42,2.33-5.78,2.19-8.69,3.1C455.6,150.67,443,156.85,432,165.91a11.4,11.4,0,0,1-3.44,1.62c.5-1.89,2.21-2.75,3.55-3.73A118.63,118.63,0,0,1,458.13,149c5.59-2.24,11.41-3.93,17.15-5.76A7.59,7.59,0,0,1,477.91,143.32Z" transform="translate(-12.73 -52.98)"/><path class="cls-14" d="M479,375.35a4.38,4.38,0,0,1,3.45-.24,96.88,96.88,0,0,0,22.83,2.24,95.07,95.07,0,0,0,20.16-2.24,4.49,4.49,0,0,1,3.46.21,2.25,2.25,0,0,1-1.91,1.24c-4.9.39-9.63,1.91-14.59,1.88-10.23-.05-20.49.53-30.6-1.73C480.71,376.47,479.62,376.41,479,375.35Z" transform="translate(-12.73 -52.98)"/><path class="cls-14" d="M386.41,241.78a12.67,12.67,0,0,1,.13,6.69,56.58,56.58,0,0,0,0,21.66,13,13,0,0,1-.14,6.69c-2.28-3.23-1.54-7.05-1.75-10.56a124.51,124.51,0,0,1,.42-20.7C385.23,244.19,385.29,242.8,386.41,241.78Z" transform="translate(-12.73 -52.98)"/><path class="cls-14" d="M512.45,140.4c-2.93.79-6.07-.66-8.93.84a95,95,0,0,0-21.13,2.25,4,4,0,0,1-3.41-.27c.85-1.95,2.75-1.22,4.17-1.52C492.83,139.62,502.65,140,512.45,140.4Z" transform="translate(-12.73 -52.98)"/><path class="cls-14" d="M618.52,289.9c-1.51-2.65.54-5,1-7.3,1.14-5.43,1.22-10.94,2.15-16.35a1.77,1.77,0,0,1,.85-1.45,32.19,32.19,0,0,1-.54,10.84c-.76,3.21-.66,6.62-1.65,9.83C619.88,287,620.36,288.93,618.52,289.9Z" transform="translate(-12.73 -52.98)"/><path class="cls-14" d="M428.51,167.55c-.55,1.73-2.11,2.52-3.3,3.67-3,2.88-6.18,5.53-8.84,8.75-.57.7-1.06,1.74-2.28,1.65.44-2.3,2.24-3.74,3.79-5.11C421.33,173.43,423.9,169.26,428.51,167.55Z" transform="translate(-12.73 -52.98)"/><path class="cls-14" d="M529.94,375.26c.84-1.68,2.12-1.87,3.69-1.11C532.84,376,531.36,375.51,529.94,375.26Z" transform="translate(-12.73 -52.98)"/><path class="cls-4" d="M666.36,102c1.19.2,1.81.77,1.36,2C667,103.58,666.21,103.13,666.36,102Z" transform="translate(-12.73 -52.98)"/><path class="cls-4" d="M663.75,99.22c.85-.11,1.31.21,1.19,1.12A1.41,1.41,0,0,1,663.75,99.22Z" transform="translate(-12.73 -52.98)"/><path class="cls-4" d="M669,488.85c.34.93-.05,1.33-1,1.34A1.48,1.48,0,0,1,669,488.85Z" transform="translate(-12.73 -52.98)"/></g></svg>