<svg id="Calque_1" data-name="Calque 1" xmlns="http://www.w3.org/2000/svg" viewBox="0 0 691.73 664.25"><defs><style>.cls-1{fill:#080b0c;}.cls-2{fill:#73c8e2;}.cls-3{fill:#131414;}.cls-4{fill:#0c1415;}.cls-5{fill:#ec7280;}.cls-6{fill:#d2e9f0;}.cls-7{fill:#050c0d;}.cls-8{fill:#fefefe;}.cls-9{fill:#0d0c0c;}.cls-10{fill:#111212;}.cls-11{fill:#121313;}.cls-12{fill:#eb7e8a;}</style></defs><title>icon-fast</title><g id="_1a2TTr.tif" data-name="1a2TTr.tif"><path class="cls-1" d="M588.52,631.76c2.5,5,3.17,10,0,15a16.47,16.47,0,0,1-5.2,4.91A272.68,272.68,0,0,1,536,675.89a278,278,0,0,1-36.8,11.45,283.35,283.35,0,0,1-60.67,7.58,271.75,271.75,0,0,1-35-2,244.11,244.11,0,0,1-28.24-4.79,284.08,284.08,0,0,1-29.83-8.73,266.6,266.6,0,0,1-48-22.2,270.72,270.72,0,0,1-80.52-72.23,267,267,0,0,1-28.62-48c-2.35-5.13-4.59-10.29-6.59-15.55-.78-2.06-2.21-2.4-4.15-2.4q-45,.06-90.07,0c-3.92,0-7.8-.32-11.08-2.88-4.35-3.4-6.49-9.3-5.08-14.1,1.76-6,6.55-9.82,13-10.28,1.21-.09,2.42-.06,3.63-.06h79.75c3.86,0,4,0,3.2-3.84-1.55-7.16-3.19-14.29-4.32-21.54-1.17-7.52-2.44-15-2.6-22.67-.06-2.82-1-3.77-4-3.75q-28.31.18-56.61,0a13.43,13.43,0,0,1-13.54-13.64,13.58,13.58,0,0,1,12.94-13.42c1.3-.06,2.61,0,3.91,0,17.75,0,35.5,0,53.26,0,2.18,0,3-.45,3.17-2.85a331.82,331.82,0,0,1,3.9-36c.51-3.11,1.24-6.19,2-9.24.8-3.23.63-3.55-2.67-3.55H33.17c-5.64,0-10.61-1.36-14-6.41-5.32-8-.53-19.1,8.94-20.52a39.16,39.16,0,0,1,5.83-.33q70,0,140,.06c2.77,0,4-1,4.83-3.37a259.47,259.47,0,0,1,20.61-45c2-3.53,1.93-3.58-2.27-3.58-24.44,0-48.89-.05-73.33,0-5.34,0-9.57-1.75-12.53-6.29-5.48-8.39.14-19.92,10.17-20.81,1.39-.12,2.79-.09,4.18-.09q45.6,0,91.18,0a5.8,5.8,0,0,0,5.16-2.41,270.06,270.06,0,0,1,107-81.64,322.93,322.93,0,0,1,38-13,41.8,41.8,0,0,1,6.22-1.43c2.22-.26,2.66-1.45,2.65-3.39q-.08-14.35,0-28.72c0-1.77-.43-2.76-2.38-3.41-13.56-4.48-23.45-13.21-29-26.41a43.77,43.77,0,0,1-2.25-27.81c3.84-16.12,13.83-26.89,29-33a43.7,43.7,0,0,1,16.36-2.9q48,0,95.93,0c19.83.05,36.66,11.41,43.76,29.89a45.78,45.78,0,0,1-23.54,57.8,29.84,29.84,0,0,1-6.19,2.41c-2,.43-2.23,1.47-2.22,3.13,0,9.67.08,19.33,0,29,0,2.23.79,2.84,2.93,3.35,8.91,2.11,17.72,4.62,26.4,7.61a284.27,284.27,0,0,1,32.47,13.53,263.3,263.3,0,0,1,44.23,27.43A273.56,273.56,0,0,1,686,313.07a267.39,267.39,0,0,1,12.93,36.29,286.5,286.5,0,0,1,8.82,49.5,273.69,273.69,0,0,1,.83,33.13,283.81,283.81,0,0,1-13.61,75.6,260.54,260.54,0,0,1-20.72,47.13c-2.79,4.9-5.89,9.62-8.63,14.54a13.74,13.74,0,0,1-18.18,5.8,3.52,3.52,0,0,0-.81-.16c-.88-.8-1.84-1.53-2.64-2.4-4.55-5-5.7-11-.83-18.53a238.28,238.28,0,0,0,34.77-90.88,246.89,246.89,0,0,0,3.46-38A250.87,250.87,0,0,0,671,351.81,244.37,244.37,0,0,0,536.3,197.69a250.56,250.56,0,0,0-40.57-14.13,238.61,238.61,0,0,0-42.29-6.69,250.33,250.33,0,0,0-87.58,9.41,232.69,232.69,0,0,0-32.71,12.24A245.32,245.32,0,0,0,207.06,332,248.09,248.09,0,0,0,197,363.75a228.22,228.22,0,0,0-4.84,26.82,247.25,247.25,0,0,0-1.5,47.81,253.23,253.23,0,0,0,6.28,41.51,247.16,247.16,0,0,0,13,38.91A244.68,244.68,0,0,0,331.1,644.13a249.77,249.77,0,0,0,52.21,17.6,248,248,0,0,0,112.07-1.43,251.09,251.09,0,0,0,32-10.18,234,234,0,0,0,40.4-20.77,17.82,17.82,0,0,1,7.87-3.26C581.07,625.52,585,628.08,588.52,631.76Zm-153-536.24h0q23.4,0,46.82,0a24.57,24.57,0,0,0,9.26-1.48c7.29-2.88,12.81-12.7,11.09-20.15-2.34-10.14-9.17-15.81-19.6-15.83q-47.66-.1-95.32,0a21.06,21.06,0,0,0-9.9,2.39c-7.69,4-11.63,14-8.67,22.11,3,8.31,9.28,12.88,18.1,12.92C403.39,95.57,419.47,95.52,435.54,95.52Zm0,27.21c-9.85,0-19.71.06-29.55,0-2.17,0-3,.64-3,2.84q.12,11.41,0,22.86c0,2,.59,2.66,2.59,2.45,5.08-.51,10.17-1.09,15.27-1.28,14.87-.53,29.73-.58,44.53,1.25,2.28.28,2.88-.47,2.85-2.68-.12-7.53-.1-15.06,0-22.58,0-2.14-.62-2.89-2.87-2.87C455.41,122.8,445.47,122.73,435.53,122.73Z" transform="translate(-16.97 -30.71)"/><path class="cls-2" d="M588.52,631.76c-3.51-3.68-7.45-6.24-12.91-5.67a17.82,17.82,0,0,0-7.87,3.26,234,234,0,0,1-40.4,20.77,251.09,251.09,0,0,1-32,10.18,248,248,0,0,1-112.07,1.43,249.77,249.77,0,0,1-52.21-17.6A244.68,244.68,0,0,1,209.92,518.8a247.16,247.16,0,0,1-13-38.91,253.23,253.23,0,0,1-6.28-41.51,247.25,247.25,0,0,1,1.5-47.81A228.22,228.22,0,0,1,197,363.75a245.76,245.76,0,0,1,83.77-132.6,245,245,0,0,1,52.4-32.63,232.69,232.69,0,0,1,32.71-12.24,250.33,250.33,0,0,1,87.58-9.41,238.61,238.61,0,0,1,42.29,6.69,250.56,250.56,0,0,1,40.57,14.13A243.47,243.47,0,0,1,671,351.81a250.87,250.87,0,0,1,10.31,73.32,246.89,246.89,0,0,1-3.46,38A238.28,238.28,0,0,1,643.12,554c-4.87,7.52-3.72,13.56.83,18.53.8.87,1.76,1.6,2.64,2.4a6.77,6.77,0,0,0-3.56,3c-4.21,6.29-9.51,11.69-14.18,17.61a13.8,13.8,0,0,1-1.41-.79c-4.44-3.2-9.28-3.77-14.12-1.42-5.18,2.51-7.69,6.84-7.58,12.76.06,3.48,1.83,6.08,3.52,8.81-3,2.59-5.87,5.28-8.94,7.76C596.46,625.73,592.46,628.71,588.52,631.76ZM435.75,212.42c-116,0-209.67,94.67-209.5,209.71.18,115.54,94,209.41,209.66,209.37,116.13,0,209.56-94.75,209.36-209.94C645.08,306.2,551,212.28,435.75,212.42Z" transform="translate(-16.97 -30.71)"/><path class="cls-3" d="M17.06,505.27c-.56-6.32,5.33-13.55,13.55-13.54a13.56,13.56,0,0,1,0,27.12C22.31,518.81,16.52,511.63,17.06,505.27Z" transform="translate(-16.97 -30.71)"/><path class="cls-4" d="M609.26,614.83c-1.69-2.73-3.46-5.33-3.52-8.81-.11-5.92,2.4-10.25,7.58-12.76,4.84-2.35,9.68-1.78,14.12,1.42a13.8,13.8,0,0,0,1.41.79c1,1.86,2.23,3.5,3.12,5.45,2.32,5.05-.48,12.38-4.91,15.47a13.6,13.6,0,0,1-16.22-.44C610.32,615.56,609.79,615.2,609.26,614.83Z" transform="translate(-16.97 -30.71)"/><path class="cls-5" d="M435.54,95.52c-16.07,0-32.15,0-48.22,0-8.82,0-15.07-4.61-18.1-12.92-3-8.09,1-18.08,8.67-22.11a21.06,21.06,0,0,1,9.9-2.39q47.67,0,95.32,0c10.43,0,17.26,5.69,19.6,15.83,1.72,7.45-3.8,17.27-11.09,20.15a24.57,24.57,0,0,1-9.26,1.48q-23.42,0-46.82,0Z" transform="translate(-16.97 -30.71)"/><path class="cls-6" d="M435.53,122.73c9.94,0,19.88.07,29.82,0,2.25,0,2.9.73,2.87,2.87-.08,7.52-.1,15,0,22.58,0,2.21-.57,3-2.85,2.68-14.8-1.83-29.66-1.78-44.53-1.25-5.1.19-10.19.77-15.27,1.28-2,.21-2.61-.5-2.59-2.45q.12-11.43,0-22.86c0-2.2.81-2.86,3-2.84C415.82,122.79,425.68,122.73,435.53,122.73Z" transform="translate(-16.97 -30.71)"/><path class="cls-7" d="M435.75,212.42c115.2-.14,209.33,93.78,209.52,209.14.2,115.19-93.23,209.9-209.36,209.94-115.63,0-209.48-93.83-209.66-209.37C226.08,307.09,319.75,212.45,435.75,212.42Zm.11,27.17c-99.32-.37-182.06,80.65-182.51,181.6C252.9,521.57,334.21,604,435.14,604.39c100.26.41,182.45-80.63,183-181.66C618.73,323,537.59,239.47,435.86,239.59Z" transform="translate(-16.97 -30.71)"/><path class="cls-8" d="M435.86,239.59c101.73-.12,182.87,83.4,182.3,183.14-.57,101-82.76,182.07-183,181.66C334.21,604,252.9,521.57,253.35,421.19,253.8,320.24,336.54,239.22,435.86,239.59Zm-42,182.74A34.47,34.47,0,0,0,396.89,438a42.12,42.12,0,0,0,55.74,22.43c20.64-9.07,30.81-33.63,22-54.41-.87-2-.59-3.11.86-4.55q24.19-24.07,48.28-48.27c5.95-6,12.3-11.61,17.72-18.11,3.41-4.1,3.64-8.91,1.6-13.62-3.69-8.5-15-11.3-23.09-3-10.85,11.14-21.92,22-32.91,33-10.27,10.27-20.58,20.5-30.81,30.81-1.33,1.34-2.39,1.8-4.28,1a34.49,34.49,0,0,0-11.23-3c-7.31-.56-14.49-.12-21.26,3-1.77.8-2.82.42-4.06-.86q-5.31-5.49-10.78-10.82c-6.3-6.12-12.06-12.82-18.86-18.4-4.33-3.57-9.39-3.7-14.34-1.16-4.68,2.41-7,6.44-7.25,11.67-.2,4.87,2.44,8.36,5.7,11.59,8.83,8.76,17.6,17.59,26.42,26.38,1,1,1.79,1.9,1,3.6A37.15,37.15,0,0,0,393.82,422.33Zm-96.11,13.14c3.13-.12,6.63.22,10.12-.79a13.3,13.3,0,0,0,9.4-13.76c-.36-6.28-4.94-11.58-10.81-12.32a76.88,76.88,0,0,0-16.68-.11A13.27,13.27,0,0,0,278,419.05c-1.23,5.23,1.54,11.28,6.4,14.29C288.41,435.85,292.89,435.44,297.71,435.47ZM422.14,559.24c0,3.19-.07,5.41,0,7.64A13.65,13.65,0,0,0,435.64,580a13.89,13.89,0,0,0,13.52-12.9c.21-4.63.19-9.27,0-13.9-.24-6.6-5.11-11.66-12.06-12.85-5.4-.93-11.31,2.62-13.89,8C421.4,552.27,422.49,556.28,422.14,559.24ZM575,408.64c-3.26,0-5.58-.07-7.9,0A13.16,13.16,0,0,0,554.25,422a13.31,13.31,0,0,0,12.52,13.7c4.71.25,9.46.21,14.18,0a13.93,13.93,0,0,0,12.7-11.32,13.79,13.79,0,0,0-7.86-14.55C582,407.91,577.94,409,575,408.64ZM449.4,284.89c0-3.35.08-5.67,0-8a13.14,13.14,0,0,0-13-12.83c-7.47-.14-13.64,5.25-14,12.51-.23,4.81-.21,9.65,0,14.46a13.81,13.81,0,0,0,10.75,12.3,13.67,13.67,0,0,0,15.1-7.73C450.09,291.78,449.07,287.78,449.4,284.89Z" transform="translate(-16.97 -30.71)"/><path class="cls-9" d="M393.82,422.33a37.15,37.15,0,0,1,3.5-17.08c.77-1.7,0-2.56-1-3.6-8.82-8.79-17.59-17.62-26.42-26.38-3.26-3.23-5.9-6.72-5.7-11.59.23-5.23,2.57-9.26,7.25-11.67,4.95-2.54,10-2.41,14.34,1.16,6.8,5.58,12.56,12.28,18.86,18.4q5.47,5.32,10.78,10.82c1.24,1.28,2.29,1.66,4.06.86,6.77-3.1,13.95-3.54,21.26-3a34.49,34.49,0,0,1,11.23,3c1.89.82,3,.36,4.28-1,10.23-10.31,20.54-20.54,30.81-30.81,11-11,22.06-21.89,32.91-33,8.06-8.27,19.4-5.47,23.09,3,2,4.71,1.81,9.52-1.6,13.62-5.42,6.5-11.77,12.12-17.72,18.11q-24.08,24.21-48.28,48.27c-1.45,1.44-1.73,2.51-.86,4.55,8.85,20.78-1.32,45.34-22,54.41A42.12,42.12,0,0,1,396.89,438,34.47,34.47,0,0,1,393.82,422.33Zm41.93-15A14.58,14.58,0,0,0,421,421.78a14.78,14.78,0,1,0,29.56.25A14.62,14.62,0,0,0,435.75,407.3Z" transform="translate(-16.97 -30.71)"/><path class="cls-10" d="M297.71,435.47c-4.82,0-9.3.38-13.35-2.13-4.86-3-7.63-9.06-6.4-14.29a13.27,13.27,0,0,1,11.78-10.56,76.88,76.88,0,0,1,16.68.11c5.87.74,10.45,6,10.81,12.32a13.3,13.3,0,0,1-9.4,13.76C304.34,435.69,300.84,435.35,297.71,435.47Z" transform="translate(-16.97 -30.71)"/><path class="cls-11" d="M422.14,559.24c.35-3-.74-7,1.09-10.82,2.58-5.43,8.49-9,13.89-8,6.95,1.19,11.82,6.25,12.06,12.85.17,4.63.19,9.27,0,13.9A13.89,13.89,0,0,1,435.64,580a13.65,13.65,0,0,1-13.49-13.14C422.07,564.65,422.14,562.43,422.14,559.24Z" transform="translate(-16.97 -30.71)"/><path class="cls-11" d="M575,408.64c3,.36,7-.73,10.82,1.17a13.79,13.79,0,0,1,7.86,14.55A13.93,13.93,0,0,1,581,435.68c-4.72.19-9.47.23-14.18,0A13.31,13.31,0,0,1,554.25,422a13.16,13.16,0,0,1,12.82-13.3C569.39,408.57,571.71,408.64,575,408.64Z" transform="translate(-16.97 -30.71)"/><path class="cls-11" d="M449.4,284.89c-.33,2.89.69,6.89-1.17,10.73a13.67,13.67,0,0,1-15.1,7.73,13.81,13.81,0,0,1-10.75-12.3c-.21-4.81-.23-9.65,0-14.46.35-7.26,6.52-12.65,14-12.51a13.14,13.14,0,0,1,13,12.83C449.48,279.22,449.4,281.54,449.4,284.89Z" transform="translate(-16.97 -30.71)"/><path class="cls-12" d="M435.75,407.3A14.62,14.62,0,0,1,450.55,422a14.78,14.78,0,1,1-29.56-.25A14.58,14.58,0,0,1,435.75,407.3Z" transform="translate(-16.97 -30.71)"/></g></svg>