<svg id="Calque_1" data-name="Calque 1" xmlns="http://www.w3.org/2000/svg" viewBox="0 0 595.36 585.07"><defs><style>.cls-1{fill:#fff;}.cls-2{fill:#90c99a;}.cls-3{fill:#244d2c;}.cls-4{fill:#ffe64c;}.cls-5{fill:#dfdede;}.cls-6{fill:#888;}.cls-7{fill:#b57263;}.cls-8{fill:#333;}.cls-9{fill:#66acaa;}.cls-10{fill:#faecec;}.cls-11{fill:#d6b3c7;}.cls-12{fill:#03587d;}.cls-13{fill:#676766;}.cls-14{fill:#362a27;}.cls-15{fill:#d84942;}.cls-16{fill:#437a7a;}.cls-17{fill:#e2b3a7;}.cls-18{fill:#7bb5ce;}.cls-19{fill:#2f5c5e;}</style></defs><title>illustration-banner-blog</title><path class="cls-1" d="M298.11.47q147.76,0,295.53,0c1.75,0,2.15.4,2.15,2.15q-.07,290.39,0,580.77c0,1.76-.4,2.15-2.15,2.15q-295.53-.06-591.07,0c-1.75,0-2.15-.39-2.15-2.15Q.5,293,.42,2.57C.42.82.82.42,2.57.42Q150.34.5,298.11.47Zm206,536.21.3-.29a.21.21,0,0,1,.19-.16,1.14,1.14,0,0,0,1.24-1.21l.64-.66.27-.3a.24.24,0,0,1,.15-.2,2.33,2.33,0,0,0,1.63-2.26l.33-.54.22-.31.28-.59a5.67,5.67,0,0,0,2.09-4.52l.31-1.08c.59-.12.76-.36.22-.8l.13-1.1a.76.76,0,0,0,.71-.79c0-3.1.09-6.22-.1-9.32-.05-.72.14-1.95-1-2.36-2.57-9.13-8.11-13-18.6-12.44a61.48,61.48,0,0,0-14.42,2.63,89.92,89.92,0,0,1-22.4,4.16c-.21-6.89-.71-13.77-.47-20.67.84.28,1.73,1.16,2.39-.24l1-1.13c.84-.14,1.24-1.15,2.17-1.11a.24.24,0,0,1-.12.34c-.29.69-.51,1.35.44,1.72l.23.41c0,.57.08,1.17.89.61h1c.79.58.84,0,.91-.57l1.92-2.78c1,0,.74-1.11,1.36-1.43.59,1.22-1.56,2.66.32,3.76l1.06.66c.5,1,1,1,1.44,0,1.66-1.64,2.41-3.78,3.29-5.85.23-.56.32-1.38,1-1.47.88-.12,1,.82,1.32,1.39a27.13,27.13,0,0,0,5.08,6.64c4.65,4.19,9.11,3.5,12.32-1.91,2-3.42,2.39-7.18,2.21-11-.32-6.88-2.89-13.17-5.26-19.5,1.57-.35.55-1.41.38-2-1-3.56-2.37-7-3.28-10.61-.61-2.42-1.67-3.83-4.3-3.64-3.73-10.19-8.74-19.64-16.45-27.43-3.94-4-8.49-7.08-14.12-8.24a61.37,61.37,0,0,1,0-10.5,15.17,15.17,0,0,0-3.11-10,13.87,13.87,0,0,1-2.92-7.27,16.21,16.21,0,0,0-5.13-10.94,17.69,17.69,0,0,1-3.21-4.57c-2.51-4.57-4.72-9.32-7.7-13.62-3.19-4.61-7-8.37-13-9-.16-1.22.78-1.8,1.48-2.5A168.26,168.26,0,0,0,435.33,314a179.09,179.09,0,0,0,25.16-45.24,172.48,172.48,0,0,0,8.81-31,165.49,165.49,0,0,0,2.88-26.53,192.19,192.19,0,0,0-2.24-35,173.66,173.66,0,0,0-7.26-29.31,178.71,178.71,0,0,0-33.86-59.34,187.2,187.2,0,0,0-18.07-18.22,203.69,203.69,0,0,0-23-17,162.2,162.2,0,0,0-20.07-10.83,170.92,170.92,0,0,0-30.86-11,187.84,187.84,0,0,0-21.44-4c-6.86-.88-13.73-1.26-20.6-1.65a121.31,121.31,0,0,0-18.36.83c-6.25.6-12.49,1.34-18.62,2.55A187.32,187.32,0,0,0,221,39.68a168.06,168.06,0,0,0-27.67,14.94,196.45,196.45,0,0,0-23.08,18.06,187.37,187.37,0,0,0-20.16,21.93c-8.37,10.47-15,22.07-20.75,34.19A159,159,0,0,0,119.6,155a182,182,0,0,0-5.54,26.81c-.84,7.09-1.51,14.2-1.64,21.3a169.34,169.34,0,0,0,1.85,27.36,159.62,159.62,0,0,0,3.12,16.4,199.28,199.28,0,0,0,7,22.18,194.29,194.29,0,0,0,13.16,27.21,170.39,170.39,0,0,0,22.14,30.15,155.2,155.2,0,0,0,24.38,22c1.36,1,3.26,1.65,3.68,3.67a3.07,3.07,0,0,1-.49,1.53q-13,21-26,42.05Q148,416.9,134.73,438.2q-16,25.89-32,51.79-7.12,11.5-14.25,23c-.67,1.08-1.36,2,.42,3,7,3.77,13.91,7.65,20.84,11.53,6,3.38,12,6.81,18.07,10.22-.23,1.3-1.27.88-2.05.92-4.73.22-9.48.22-14.22.34-12.42.33-24.84.82-37.25,1.57-3.18.2-6.37.23-9.53.51-8.48.76-17,1-25.44,2.28-2.75.42-5.49.95-8.23,1.44A1.52,1.52,0,0,0,29.71,546c-.1.8.72.92,1.29,1.08a39,39,0,0,0,3.83,1c9.16,1.71,18.47,1.88,27.72,2.75,8.1.77,16.25,1.18,24.38,1.41,7.54.22,15.06.51,22.58.94,9.15.52,18.33.42,27.49,1,6.68.39,13.37-.07,20.07.4,8.45.61,17,0,25.44.48,10.25.62,20.54,0,30.83.44,14,.58,28.12.32,42.18.47,32.44.35,64.88.12,97.33.13,2.47,4.62,6.85,6.73,11.51,7.81,8,1.85,16.1,1.12,24.13-.26,1.26-.22,2.69.22,3.68-1a7.42,7.42,0,0,1,3.27,2.42c1.3,1.71,2.25,1.25,3.48-.09s2.34-3.29,4-4.47c2.21.92,4.4,1.89,6.64,2.74,5.34,2,10.13,5.38,15.79,6.62.3.85.77.92,1.4.34l2.39,0c4,4.18,9.08,5.11,14.55,4.51a109.73,109.73,0,0,1,27.52.63,12.5,12.5,0,0,0,12.16-4.62,8.5,8.5,0,0,0,1.66-8.88c-1.09-3-2.9-5.45-4.43-8.13,4-.19,8.06-.08,12.11-.38,8.42-.63,16.89-.7,25.35-1,5.8-.24,11.61-.64,17.41-.82,8.92-.27,17.76-1.35,26.64-2a75.28,75.28,0,0,0,15.8-2.34c.66-.19,1.61-.19,1.65-1s-.79-1.24-1.61-1.37c-5.12-.78-10.21-1.8-15.36-2.27-5.47-.51-11-.85-16.46-1.09-8.43-.36-16.82-1.46-25.25-1.69-6.52-.17-13-.67-19.57-.61a.35.35,0,0,0-.14-.2l.56-.33.3-.22.5-.36c.93.21,1.3-.27,1.37-1.11A.23.23,0,0,1,504.09,536.68Z" transform="translate(-0.42 -0.42)"/><path class="cls-2" d="M187.72,352c-.42-2-2.32-2.7-3.68-3.67a155.2,155.2,0,0,1-24.38-22,170.39,170.39,0,0,1-22.14-30.15A194.29,194.29,0,0,1,124.36,269a199.28,199.28,0,0,1-7-22.18,159.62,159.62,0,0,1-3.12-16.4,169.34,169.34,0,0,1-1.85-27.36c.13-7.1.8-14.21,1.64-21.3A182,182,0,0,1,119.6,155a159,159,0,0,1,9.73-26.15c5.74-12.12,12.38-23.72,20.75-34.19a187.37,187.37,0,0,1,20.16-21.93,196.45,196.45,0,0,1,23.08-18.06A168.06,168.06,0,0,1,221,39.68,187.32,187.32,0,0,1,257.8,28.24c6.13-1.21,12.37-1.95,18.62-2.55a121.31,121.31,0,0,1,18.36-.83c6.87.39,13.74.77,20.6,1.65a187.84,187.84,0,0,1,21.44,4,170.92,170.92,0,0,1,30.86,11,162.2,162.2,0,0,1,20.07,10.83,203.69,203.69,0,0,1,23,17,187.2,187.2,0,0,1,18.07,18.22,178.71,178.71,0,0,1,33.86,59.34,173.66,173.66,0,0,1,7.26,29.31,192.19,192.19,0,0,1,2.24,35,165.49,165.49,0,0,1-2.88,26.53,172.48,172.48,0,0,1-8.81,31A179.09,179.09,0,0,1,435.33,314,168.26,168.26,0,0,1,419.4,332c-.7.7-1.64,1.28-1.48,2.5A23,23,0,0,0,406,337a44.29,44.29,0,0,1-6.56,3,16.19,16.19,0,0,0-10,9.53c-1,2.46-.85,5-1.15,7.58-7.15,4-14.24,8.12-21.78,11.43a159.07,159.07,0,0,1-19.68,7.5c-1.44.42-3.12.53-4.07,2-.7-.71-1.44-.26-2.18-.07a194.38,194.38,0,0,1-21.91,4.66c-6.94,1-13.93,1.43-20.91,2l-9.34,0-4.43-.25a175.66,175.66,0,0,1-37.11-5.72c-4.28-.91-8.34-2.64-12.67-3.33a4.8,4.8,0,0,0-.94-.65c-6-2.24-12-4.68-17.81-7.38a215.55,215.55,0,0,1-19.92-11C193,354.82,191,352.25,187.72,352Zm151.08-5.7a13.94,13.94,0,0,0,1.59-.3,126.51,126.51,0,0,0,26.1-11.62,153.36,153.36,0,0,0,44.76-39.17A159.28,159.28,0,0,0,422,278.88a140.32,140.32,0,0,0,11.5-25.16A145.43,145.43,0,0,0,439.3,232a136.6,136.6,0,0,0,2.43-22.15c.08-4.89,0-9.77-.32-14.68a156.13,156.13,0,0,0-4.36-27.46,145.33,145.33,0,0,0-11.44-30.45,154.24,154.24,0,0,0-16.8-26A149.24,149.24,0,0,0,384.09,87a152.19,152.19,0,0,0-30-18.14,148,148,0,0,0-23.63-8.48,159.3,159.3,0,0,0-18.23-3.48A144.29,144.29,0,0,0,293,55.35a123.21,123.21,0,0,0-17.85,1.17A157.24,157.24,0,0,0,245.68,63,148.91,148.91,0,0,0,211.1,79.5,180.82,180.82,0,0,0,187.77,98c-4.88,4.48-8.91,9.74-13,14.89a140.67,140.67,0,0,0-16.9,27A153.26,153.26,0,0,0,148.65,164a134.55,134.55,0,0,0-5.35,32,177.64,177.64,0,0,0,.27,20.76,161.18,161.18,0,0,0,3.76,23.59,138.2,138.2,0,0,0,11.15,30.56,157.16,157.16,0,0,0,13.07,21.72,146.89,146.89,0,0,0,15.31,17.77A146,146,0,0,0,233.34,342a97.73,97.73,0,0,0,13.1,4.8c2.45.75,4.89,1.59,7.36,2.25a151,151,0,0,0,33.88,5.11c2.32.08,3-.69,2.94-2.86a8.51,8.51,0,0,1,.51-4.21,12.26,12.26,0,0,1,.86,4.65c.08,1.84.81,2.47,2.73,2.45a147,147,0,0,0,33.73-4.48C332,348.81,335.6,348.18,338.8,346.3Z" transform="translate(-0.42 -0.42)"/><path class="cls-3" d="M187.72,352c3.25.25,5.24,2.82,7.78,4.34a215.55,215.55,0,0,0,19.92,11c5.83,2.7,11.78,5.14,17.81,7.38a4.8,4.8,0,0,1,.94.65c-.45,1.07-.84,2.17-1.35,3.21q-6.78,13.85-13.6,27.66l-17.88,36.22Q192.67,460,184,477.64q-14.08,28.47-28.18,56.93a6.46,6.46,0,0,0-1,2.61c-1.69,3.3-3.47,6.56-5.06,9.92-.78,1.65-1.41,1.91-3.1.95-6.24-3.56-12.59-6.91-18.91-10.33-6-3.41-12-6.84-18.07-10.22-6.93-3.88-13.85-7.76-20.84-11.53-1.78-1-1.09-1.89-.42-3q7.11-11.5,14.25-23,16-25.89,32-51.79,13.2-21.31,26.45-42.62,13-21,26-42.05A3.07,3.07,0,0,0,187.72,352Z" transform="translate(-0.42 -0.42)"/><path class="cls-3" d="M511.74,524.56c-.1.36-.2.72-.31,1.08a22.07,22.07,0,0,0-2.09,4.52c-.09.19-.18.39-.28.59s-.14.21-.22.31l-.33.54a3.52,3.52,0,0,0-1.63,2.26.24.24,0,0,0-.15.2l-.27.3-.64.66a1.55,1.55,0,0,0-1.24,1.21.21.21,0,0,0-.19.16l-.3.29a.23.23,0,0,0-.17.17,2.14,2.14,0,0,0-1.37,1.11l-.5.36-.3.22-.56.33-.33.17-.7.35-.16,0,0,.16-.72.28a4.47,4.47,0,0,0-2.57,1.11.29.29,0,0,0-.3.12.52.52,0,0,0-.7.32l-.69.23a.45.45,0,0,0-.64.3l-.73.22a10.08,10.08,0,0,0-4,1.58l-15.63,5c-1.92.08-3.92-.15-5.74.31A92.27,92.27,0,0,1,458,551c-8.13,1.08-16.25,2.59-24.52,1.6-1.37-.6-2.83-.14-4.24-.31,0-1.83-.92-3.41-1.47-5.09-1.36-4.12-2.49-8.27-1.93-12.68,13-7.75,25.6-16.11,38.54-24.18a1.33,1.33,0,0,0-2-.13c-2.83,1.76-5.63,3.55-8.45,5.34l-25.71,16.32a2.62,2.62,0,0,1-1.93.67c-.22-.68.53-1.87-1-1.82-4.73.15-9.94,5.54-10.07,10.43a3.23,3.23,0,0,0-2.43.36c.22-1.94-1-3-2.45-3.8s-2.75-1.73-4.18-2.5a2.41,2.41,0,0,0-3.16.22,5.71,5.71,0,0,1-2.76-1.65c-4.42-3.55-8.72-7.25-13.22-10.69-9.7-7.42-19.17-15.1-28.73-22.68-1.2-.95-2.37-2.14-4-2.34-.27.67.15.82.43,1.05,4.55,3.65,9.06,7.34,13.63,10.95,8.41,6.65,16.79,13.34,25.32,19.82,3.07,2.34,5.71,5.28,9.32,6.89-.84,5.33-2.39,10.43-5.74,14.74-2.06,2.65-3.95,5.59-7.47,6.63a5.47,5.47,0,0,0-.82-.45,329.17,329.17,0,0,1-35-13.33l-1-.44c-7.82-4.14-15.39-8.64-21.93-14.69-2.57-2.91-5.59-5.41-8-8.49-3.76-4.82-6.74-9.94-6.49-16.35.19-5.05,2.52-9.23,5.44-13.16l5-3.52c3.47-1.11,7.08-.95,10.66-1.11,1.42.24,2.88.39,4.27.75a54.28,54.28,0,0,0,7.09,1.73v0a56.35,56.35,0,0,0,8.88,3.77c5,2.92,10.47,4.42,16,5.72,4.07,1.27,8.28,2,12.44,2.89a193.52,193.52,0,0,0,55.39,4.35c4.88-.36,9.82-.15,14.64-1.21a89.92,89.92,0,0,0,22.4-4.16,61.48,61.48,0,0,1,14.42-2.63c10.49-.56,16,3.31,18.6,12.43a36.09,36.09,0,0,1,.41,12.48l-.13,1.1A.6.6,0,0,0,511.74,524.56Z" transform="translate(-0.42 -0.42)"/><path class="cls-4" d="M456.26,504.54c-4.82,1.06-9.76.85-14.64,1.21a193.52,193.52,0,0,1-55.39-4.35c-4.16-.9-8.37-1.62-12.44-2.89-.12-3.62-.23-7.23-.35-10.85l28.06-.07a8.87,8.87,0,0,0,2.31-.17q14.4-4,28.77-8c.73-.2,1.7-.25,1.68-1.29s-1-1.39-1.81-1.52a51.77,51.77,0,0,0-5.57-.57c-7-.3-14-.67-21-.73-2.45,0-2.73-1.25-3-3.11-.83-6.47-1.76-12.93-2.63-19.4q-1.54-11.44-3.06-22.88c1.94,0,3.89,0,5.84.07,1.4,0,2.54-.29,2.57-2s-1-2.08-2.48-2.05c-2.18,0-4.36,0-6.55.05-.69-2.08-2.3-2.44-4.24-2.44-9.47,0-18.93,0-28.39-.07a32.44,32.44,0,0,1,3.85-8.7c3.85-6.9,9.38-11.71,17.24-13.5a1.44,1.44,0,0,1-.72,1.59c-.5.36-.88,1-.28,1.31,1.57.89.75,2.12.43,3.06a20.2,20.2,0,0,1-3.66,6.72c-.94,1.11-2.9,2.21-2.8,3.15.15,1.36,2.47,1.54,3.54,2.64,3,3.07,6.47,3.66,10.42,2.21a3.34,3.34,0,0,1,4.16,1.11c1.36,1.71,3.16,2,5.26,1.56,1.65-.34,2.26-.89,1.71-2.68a45,45,0,0,1-2-12.37c4,.69,4,.7,5-3.2a23.14,23.14,0,0,0,.6-2.69c.13-.91,0-1.89,1-2.39,2.28,5,3.29,10.42,4.19,15.89A60.43,60.43,0,0,1,420.21,400c1.25,2.37,2.06,5,3.8,7.09h0a.91.91,0,0,0,.46.89,17.65,17.65,0,0,1,1.33,13.87c1.2.16,1.87-.49,2.64-.79,3.68-1.42,7.39-2.71,11.31-1.09a7.15,7.15,0,0,0,8-1.27c1.81-1.56,3.83-2.63,6.41-1.83a5.24,5.24,0,0,0,2.55,0c3.2-.68,3.75-2.16,1.83-4.69-.33-.44-.73-.82-1.06-1.25-2.33-3.15-4.53-6.36-4.51-10.51,5.63,1.16,10.18,4.25,14.12,8.24,7.71,7.79,12.72,17.24,16.45,27.43-2.24.22-4.5-.11-6.74.32-7.32,1.43-12.81,5.29-16.17,12-.21-.32-.4-.66-.64-1-.84-1.09-1.61-2.62-3.18-2.33s-1.62,2.09-1.88,3.42a33.48,33.48,0,0,0,.12,11.12c-.7,1.67-2,2.92-3,4.39-1.3,1.91-2.36,4.13-1.61,6.32a19.13,19.13,0,0,1,.64,9.09,9.86,9.86,0,0,0,0,1.63c0,.67-.18,1.51.76,1.72s1.27-.48,1.6-1.08c.56-1,1-2.08,1.53-3.11l.8.52.05,3.49v1.2C455.55,490.77,456.05,497.65,456.26,504.54Zm-31.13-81.71-.33-.09c0,.06,0,.16.05.16A1.22,1.22,0,0,0,425.13,422.83Z" transform="translate(-0.42 -0.42)"/><path class="cls-5" d="M352.85,543.89l1,.44a4.91,4.91,0,0,1-.28,1.35,11.84,11.84,0,0,0-.68,10.3c-32.45,0-64.89.22-97.33-.13-14.06-.15-28.14.11-42.18-.47-10.29-.42-20.58.18-30.83-.44-8.49-.51-17,.13-25.44-.48-6.7-.47-13.39,0-20.07-.4-9.16-.54-18.34-.44-27.49-1-7.52-.43-15-.72-22.58-.94-8.13-.23-16.28-.64-24.38-1.41-9.25-.87-18.56-1-27.72-2.75A39,39,0,0,1,31,547c-.57-.16-1.39-.28-1.29-1.08A1.52,1.52,0,0,1,31,544.78c2.74-.49,5.48-1,8.23-1.44,8.43-1.26,17-1.52,25.44-2.28,3.16-.28,6.35-.31,9.53-.51,12.41-.75,24.83-1.24,37.25-1.57,4.74-.12,9.49-.12,14.22-.34.78,0,1.82.38,2.05-.92,6.32,3.42,12.67,6.77,18.91,10.33,1.69,1,2.32.7,3.1-.95,1.59-3.36,3.37-6.62,5.07-9.92,1.85,1.43,3.75,0,5.61,0,8.4-.11,16.79.13,25.2-.3,12.27-.64,24.58.05,36.89-.48,11-.47,22-.1,33-.1-.46.62-.94,1.22-1.38,1.86-1.57,2.29-1.26,3,1.24,4.15a26.1,26.1,0,0,0,10.41,1.92c4.7.12,9.41.09,14.11,0a28.47,28.47,0,0,0,6-.69c4.2-1,4.56-2.43,1.57-5.54-.37-.39-.68-.83-1-1.25.78-.78,1.77-.43,2.67-.44q18.78,0,37.58,0l-3.34,3.57c-.84.9-2.06,1.75-1.62,3.13s1.91,1.49,3.11,1.72c8.4,1.65,16.84,1.18,25.26.16C350.94,544.79,352.39,545.46,352.85,543.89Z" transform="translate(-0.42 -0.42)"/><path class="cls-6" d="M453,400.44c0,4.15,2.18,7.36,4.51,10.51.33.43.73.81,1.06,1.25,1.92,2.53,1.37,4-1.83,4.69a5.24,5.24,0,0,1-2.55,0c-2.58-.8-4.6.27-6.41,1.83a7.15,7.15,0,0,1-8,1.27c-3.92-1.62-7.63-.33-11.31,1.09-.77.3-1.44.95-2.64.79A17.65,17.65,0,0,0,424.48,408l-.46-.89h0c-.11-3-1.12-6-1-9,.12-2.48-.15-4.95.27-7.43.91-5.44,2.78-10.62,4.17-15.92a8.94,8.94,0,0,0-1.74-8.56,23.7,23.7,0,0,0-6.64-5.37,5.25,5.25,0,0,0-3-2.81c-3.66-4.61-7.92-8.75-11-13.83a2.07,2.07,0,0,0-3-.86,12.1,12.1,0,0,0-4.91,4.18c-2.75,4.59-3.63,9.66-3.91,14.89,0,.74-.05,1.48-.08,2.21.13,1.31.28,2.61.39,3.91.58,7.17,3,13.65,8.1,18.76,2.27,2.27,2.57,4.53,2,7.31-.23,1.06-.45,2.11-.68,3.17-1.84,3.75-2.05,7.77-1.86,11.84a45,45,0,0,0,2,12.37c.55,1.79-.06,2.34-1.71,2.68-2.1.43-3.9.15-5.26-1.56A3.34,3.34,0,0,0,392,422c-3.95,1.45-7.42.86-10.42-2.21-1.07-1.1-3.39-1.28-3.54-2.64-.1-.94,1.86-2,2.8-3.15a20.2,20.2,0,0,0,3.66-6.72c.32-.94,1.14-2.17-.43-3.06-.6-.33-.22-.95.28-1.31a1.44,1.44,0,0,0,.72-1.59c.54-3.61,0-7.35,1-10.9,2.91-10.95,4.16-22,2.23-33.25.3-2.54.14-5.12,1.15-7.58a16.19,16.19,0,0,1,10-9.53,44.29,44.29,0,0,0,6.56-3,23,23,0,0,1,12-2.54c5.95.67,9.78,4.43,13,9,3,4.3,5.19,9.05,7.7,13.62a17.69,17.69,0,0,0,3.21,4.57,16.21,16.21,0,0,1,5.13,10.94,13.87,13.87,0,0,0,2.92,7.27,15.17,15.17,0,0,1,3.11,10A61.37,61.37,0,0,0,453,400.44Z" transform="translate(-0.42 -0.42)"/><path class="cls-7" d="M455.8,482.67c0-1.16,0-2.33-.05-3.49.78-2.07,1.59-4.12,2.32-6.21s2.06-3.74,2.5-5.86l.65-1c.28-.36.37-.8-.15-.86s-.58.42-.57.85l-.22.79c-.35.28-.86.49-1,.86A41.48,41.48,0,0,0,455,478.65c-.51,1-1,2.11-1.54,3.12-.33.6-.76,1.28-1.6,1.08s-.74-1.05-.76-1.72a9.86,9.86,0,0,1,0-1.63,19.13,19.13,0,0,0-.64-9.09c-.75-2.19.31-4.41,1.61-6.32,1-1.47,2.31-2.72,3-4.39a58.68,58.68,0,0,0,6.61-8.06c.78.11,1.27-.45,1.86-.8,6.82-4.14,9.63-4,15.74,1.12a2.25,2.25,0,0,0,2.35.33,14.83,14.83,0,0,1,9.13,0c2.37,6.33,4.94,12.62,5.26,19.5.18,3.86-.17,7.62-2.21,11-3.21,5.41-7.67,6.1-12.32,1.91a27.13,27.13,0,0,1-5.08-6.64c-.33-.57-.44-1.51-1.32-1.39-.67.09-.76.91-1,1.47-.88,2.07-1.63,4.21-3.29,5.85l-1.44,0-1.06-.66c.15-1.27.29-2.54.44-3.81l-.06-.55a1.31,1.31,0,0,0,.67-1.27l.26-.89a13.66,13.66,0,0,0,1.77-6.44l-.8-.27-4,10.9-1.92,2.78-.91.57h-1l-.89-.61-.23-.41a2.34,2.34,0,0,0-.44-1.72.24.24,0,0,0,.12-.34,4.32,4.32,0,0,0,.5-2.82,52.92,52.92,0,0,0,4.08-10c.14-.45.4-1.2-.33-1.36s-.81.6-1,1.08q-1.63,4.69-3.23,9.41c-.26.08-.44.23-.39.53l-1.83,4.23-1,1.13A2.24,2.24,0,0,1,455.8,482.67Zm5.79-18.17.1.07v-.11Z" transform="translate(-0.42 -0.42)"/><path class="cls-5" d="M500.16,539.39l.7-.35.47,0c6.53-.06,13.05.44,19.57.61,8.43.23,16.82,1.33,25.25,1.69,5.5.24,11,.58,16.46,1.09,5.15.47,10.24,1.49,15.36,2.27.82.13,1.65.48,1.61,1.37s-1,.8-1.65,1a75.28,75.28,0,0,1-15.8,2.34c-8.88.61-17.72,1.69-26.64,2-5.8.18-11.61.58-17.41.82-8.46.35-16.93.42-25.35,1-4.05.3-8.08.19-12.11.38a18.45,18.45,0,0,1-2.69-2.07c-1.15-1.24-3.08-1.32-4-2.87l15.62-5c1.49-.16,3-.34,4-1.58l.73-.22c.3.08.54,0,.64-.3l.69-.23c.33.11.6.07.7-.32a.28.28,0,0,1,.29-.12c1-.06,2-.07,2.58-1.11l.72-.28h.14Z" transform="translate(-0.42 -0.42)"/><path class="cls-8" d="M474,548.7c.88,1.55,2.81,1.63,4,2.87a18.45,18.45,0,0,0,2.69,2.07c1.53,2.68,3.34,5.16,4.43,8.13a8.5,8.5,0,0,1-1.66,8.88,12.5,12.5,0,0,1-12.16,4.62,109.73,109.73,0,0,0-27.52-.63c-5.47.6-10.53-.33-14.55-4.51-.24-2.37-.89-4.75.07-7.1.77,1.14.32,2.41.36,3.62.07,2.89.82,3.5,3.64,2.85.6-.14,1-.85,1.8-.61.06.31.11.68.2,1,.15.6-.43,1.64.62,1.68.76,0,.95-.94,1.16-1.58.47-1.39.85-2.81,1.25-4.23A25.16,25.16,0,0,0,439,558c0-.86-.43-1.73-1.23-1.73-1.05,0-.51,1.06-.64,1.66s.21,1.34-.37,2.09c-1-1.54-2.08-2.9-3.94-3.14.35-1.41,1.28-2.73.66-4.29,8.27,1,16.39-.52,24.52-1.6a92.27,92.27,0,0,0,10.26-2C470.05,548.55,472.05,548.78,474,548.7Zm-27.6,12.35a3.67,3.67,0,0,1,.56,2.45c.31,2.57-.69,5.07-.47,7.63,0,.51-.25,1.25.44,1.41s1.06-.51,1.33-1.06a3.36,3.36,0,0,0,.35-1.1,85.08,85.08,0,0,0,.14-11.4c0-.93-1-2.1-1.75-1.79-1,.42-2.85-.11-2.82,1.86a24.07,24.07,0,0,1-2.79,11.14c-.27.56-1.08,1.49,0,2s1.46-.58,1.92-1.23a4.89,4.89,0,0,0,.4-1.31Zm-4.12-.45c0-.46,0-.93,0-1.4-.05-.89.2-2.19-1.13-2.13s-.75,1.36-.71,2.09a23.24,23.24,0,0,1-1.53,9.59,5.88,5.88,0,0,0-.36,1.81c0,.57-.29,1.38.5,1.62.94.28.85-.69,1.09-1.18C441.73,567.73,441.85,564.14,442.25,560.6Zm11.72-.14c-.09-1,.18-1.8-.28-2.49-.25-.36-.68-.8-1-.82-.62,0-.59.61-.57,1.06a30.92,30.92,0,0,1-1.9,11.15c-.2.61-.75,1.44.24,1.8s1.17-.59,1.4-1.18A34.07,34.07,0,0,0,454,560.46Zm7.83,1.78a29.63,29.63,0,0,0,0-3.5,1.38,1.38,0,0,0-1.47-1.25c-1,.12-.78,1-.64,1.66a18.91,18.91,0,0,1-.32,9.42c-.25.86-.53,1.91.58,2.12s1.35-1,1.44-1.76C461.6,566.78,462.22,564.65,461.8,562.24Zm-3-1.9c-.07-1.16-.42-2.08-1.58-2.38-.73-.19-.92.43-.89,1a20.55,20.55,0,0,1-1.79,10.16c-.24.49-.36,1.33.37,1.63s1.33-.38,1.51-1C457.22,566.61,458,563.47,458.77,560.34Z" transform="translate(-0.42 -0.42)"/><path class="cls-8" d="M352.85,556a11.84,11.84,0,0,1,.68-10.3,4.91,4.91,0,0,0,.28-1.35,329.17,329.17,0,0,0,35,13.33,5.47,5.47,0,0,1,.82.45c-.5,2.23,1.25,3.19,2.5,4.43-1,1.21-2.42.77-3.68,1-8,1.38-16.13,2.11-24.13.26C359.7,562.71,355.32,560.6,352.85,556Z" transform="translate(-0.42 -0.42)"/><path class="cls-7" d="M429.23,563c-1,2.35-.31,4.73-.07,7.1l-2.39,0a1.39,1.39,0,0,0-1.4-.34c-5.66-1.24-10.45-4.59-15.79-6.62-2.24-.85-4.43-1.82-6.64-2.74a6.89,6.89,0,0,1,1.61-2.5c3.64-5,7.07-10.15,8.16-16.43a3.23,3.23,0,0,1,2.43-.36c.92,5.77,7.62,11.08,14.07,11.14,1.41.17,2.87-.29,4.24.31.62,1.56-.31,2.88-.66,4.29a.44.44,0,0,0-.36.16,1,1,0,0,0-1.05.78,1.66,1.66,0,0,0-.94,1.22,3.48,3.48,0,0,0-1.07,2.59C429.32,562.08,429.28,562.55,429.23,563Z" transform="translate(-0.42 -0.42)"/><path class="cls-3" d="M490.76,452.34a14.83,14.83,0,0,0-9.13,0,2.25,2.25,0,0,1-2.35-.33c-6.11-5.08-8.92-5.26-15.74-1.12-.59.35-1.08.91-1.86.8-.35-1.06-.69-2.12-1-3.18,3.36-6.74,8.85-10.6,16.17-12,2.24-.43,4.5-.1,6.74-.32,2.63-.19,3.69,1.22,4.3,3.64.91,3.58,2.24,7.05,3.28,10.61C491.31,450.93,492.33,452,490.76,452.34Z" transform="translate(-0.42 -0.42)"/><path class="cls-9" d="M412.71,541.47c-1.09,6.28-4.52,11.41-8.16,16.43a6.89,6.89,0,0,0-1.61,2.5c-1.68,1.18-2.66,3-4,4.47s-2.18,1.8-3.48.09a7.42,7.42,0,0,0-3.27-2.42c-1.25-1.24-3-2.2-2.5-4.43,3.52-1,5.41-4,7.47-6.63,3.35-4.31,4.9-9.41,5.74-14.74l0-1.35a2.41,2.41,0,0,1,3.16-.22c1.43.77,2.77,1.69,4.18,2.5S412.93,539.53,412.71,541.47Z" transform="translate(-0.42 -0.42)"/><path class="cls-10" d="M466.63,481.11l4-10.9.8.27a13.66,13.66,0,0,1-1.77,6.44c-.36,0-.87-.12-.93.43,0,.36.37.41.67.46a1.31,1.31,0,0,1-.67,1.27l-.71.6h0C467.37,480,467.62,481.14,466.63,481.11Z" transform="translate(-0.42 -0.42)"/><path class="cls-11" d="M512.09,522.66a36.09,36.09,0,0,0-.41-12.48c1.16.42,1,1.65,1,2.37.19,3.1.1,6.22.1,9.32A.76.76,0,0,1,512.09,522.66Z" transform="translate(-0.42 -0.42)"/><path class="cls-10" d="M461.86,478.57a4.32,4.32,0,0,1-.5,2.82c-.93,0-1.33,1-2.17,1.11l1.83-4.23h.41Z" transform="translate(-0.42 -0.42)"/><path class="cls-11" d="M509.34,530.16a22.07,22.07,0,0,1,2.09-4.52A5.67,5.67,0,0,1,509.34,530.16Z" transform="translate(-0.42 -0.42)"/><path class="cls-10" d="M468.75,479.63c-.15,1.27-.29,2.54-.44,3.81-1.88-1.1.27-2.54-.32-3.76h0Z" transform="translate(-0.42 -0.42)"/><path class="cls-11" d="M506.88,533.86a3.52,3.52,0,0,1,1.63-2.26A2.33,2.33,0,0,1,506.88,533.86Z" transform="translate(-0.42 -0.42)"/><path class="cls-10" d="M455.8,482.67a2.24,2.24,0,0,0,2.38,1c-.66,1.4-1.55.52-2.39.24C455.8,483.47,455.8,483.07,455.8,482.67Z" transform="translate(-0.42 -0.42)"/><path class="cls-11" d="M504.58,536.23a1.55,1.55,0,0,1,1.24-1.21A1.14,1.14,0,0,1,504.58,536.23Z" transform="translate(-0.42 -0.42)"/><path class="cls-11" d="M502.55,538a2.14,2.14,0,0,1,1.37-1.11C503.85,537.69,503.48,538.17,502.55,538Z" transform="translate(-0.42 -0.42)"/><path class="cls-10" d="M469.37,484.1l1.44,0C470.35,485.12,469.87,485.14,469.37,484.1Z" transform="translate(-0.42 -0.42)"/><path class="cls-10" d="M461.24,481.73a2.34,2.34,0,0,1,.44,1.72C460.73,483.08,461,482.42,461.24,481.73Z" transform="translate(-0.42 -0.42)"/><path class="cls-10" d="M425.37,569.76a1.39,1.39,0,0,1,1.4.34C426.14,570.68,425.67,570.61,425.37,569.76Z" transform="translate(-0.42 -0.42)"/><path class="cls-11" d="M511.74,524.56a.6.6,0,0,1,.22-.8C512.5,524.2,512.33,524.44,511.74,524.56Z" transform="translate(-0.42 -0.42)"/><path class="cls-10" d="M463.8,484.46l.91-.57C464.64,484.45,464.59,485,463.8,484.46Z" transform="translate(-0.42 -0.42)"/><path class="cls-10" d="M461.91,483.86l.89.61C462,485,462,484.43,461.91,483.86Z" transform="translate(-0.42 -0.42)"/><path class="cls-11" d="M501.33,539.07l-.47,0,.33-.17A.35.35,0,0,1,501.33,539.07Z" transform="translate(-0.42 -0.42)"/><path class="cls-11" d="M501.75,538.54l.3-.22Z" transform="translate(-0.42 -0.42)"/><path class="cls-11" d="M504.09,536.68l.3-.29Z" transform="translate(-0.42 -0.42)"/><path class="cls-11" d="M506.46,534.36l.27-.3Z" transform="translate(-0.42 -0.42)"/><path class="cls-11" d="M508.84,531.06c.08-.1.15-.21.22-.31Z" transform="translate(-0.42 -0.42)"/><path class="cls-1" d="M246.44,346.77a97.73,97.73,0,0,1-13.1-4.8,146,146,0,0,1-46.48-31.61,146.89,146.89,0,0,1-15.31-17.77,157.16,157.16,0,0,1-13.07-21.72,138.2,138.2,0,0,1-11.15-30.56,161.18,161.18,0,0,1-3.76-23.59A177.64,177.64,0,0,1,143.3,196a134.55,134.55,0,0,1,5.35-32,153.26,153.26,0,0,1,9.19-24.12,140.67,140.67,0,0,1,16.9-27c4.12-5.15,8.15-10.41,13-14.89A180.82,180.82,0,0,1,211.1,79.5,148.91,148.91,0,0,1,245.68,63a157.24,157.24,0,0,1,29.46-6.46A123.21,123.21,0,0,1,293,55.35a144.29,144.29,0,0,1,19.2,1.54,159.3,159.3,0,0,1,18.23,3.48,148,148,0,0,1,23.63,8.48,152.19,152.19,0,0,1,30,18.14,149.24,149.24,0,0,1,24.72,24.25,154.24,154.24,0,0,1,16.8,26,145.33,145.33,0,0,1,11.44,30.45,156.13,156.13,0,0,1,4.36,27.46c.36,4.91.4,9.79.32,14.68A136.6,136.6,0,0,1,439.3,232a145.43,145.43,0,0,1-5.78,21.77A140.32,140.32,0,0,1,422,278.88a159.28,159.28,0,0,1-10.77,16.33,153.36,153.36,0,0,1-44.76,39.17A126.51,126.51,0,0,1,340.39,346a13.94,13.94,0,0,1-1.59.3l-.09-.89c.77-.48.54-.78-.18-1-.09-.92-.17-1.84-.25-2.76.73-.51.47-.8-.22-1-2.09-14.34-4-28.7-6.76-42.93a8.09,8.09,0,0,0,1-3.55c.75-7.25-.33-14.44-.77-21.65-.25-4.13-.77-8.26-1.19-12.68,1.84,1.63,3.29,3.15,5,4.37,4.08,3,8.3,5.19,13.56,2.52,8-4.06,14.84-9.67,21.95-15,1-.76.87-1.63.57-2.69-1-3.59-1.91-7.2-2.85-10.8,1.16-2.63,2.33-5.25,3.48-7.89,4.31-9.83,7.91-20,13.17-29.38a9.32,9.32,0,0,1,5.12-4.49c4.73-1.74,9.83-3.1,13.59-6.54,4.64-4.25,9.22-8.66,11.79-14.74,1-2.42-.5-4.44.05-6.64.07-.3-.6-.66-1.1-.71l-.23-.64a2.33,2.33,0,0,0,.74-3.59c-1.1-1.19-2.2.15-3.08,1-2.69,2.7-5.32,5.48-8.1,8.09a20.63,20.63,0,0,1-7,4.79,35.21,35.21,0,0,1,1.8-3.46c.84-1.58,1.89-3.07,2.17-4.88.1-.68.19-1.46-.54-1.9a1.62,1.62,0,0,0-2.11.4c-.79.75-1.58,1.51-2.34,2.29-2.71,2.79-5.34,5.66-8.69,7.73-4.67,2.89-7.92,7.23-11.3,11.36-5.4,6.61-10.51,13.46-15.75,20.21-1.06-.41-1.55.44-2.14,1-2.72,2.56-5.49,5.07-8.09,7.75-1.36,1.39-2.08,1.58-3.22-.27-2.17-3.5-4.6-6.84-6.92-10.24-5.22-7.64-11.33-14.19-20.32-17.51-4.29-1.59-8.43-3.63-12.62-5.5a7.62,7.62,0,0,0-3.14-.75,14.74,14.74,0,0,1-.41-2c-.13-2-.56-4,.88-5.79,5.29-6.72,7.27-14.59,7.86-22.93.63-.34.32-.84.24-1.3a48.09,48.09,0,0,0,.14-5.36c-.63-7.53-3.4-13.8-11-16.65-5.77-2.16-11.44-2.48-16.79,1.6-4.93,3.75-7.36,8.91-9,14.59-.37,1.27-.73,2.15-2.29,2a2.23,2.23,0,0,0-2.26,1.7c-1.14,2.91.11,8.07,2.44,10.11a3,3,0,0,1,1,2,20.49,20.49,0,0,0,4,10,2.58,2.58,0,0,1,.54,2.61c-1.44,3.82-3.28,7.36-6.43,10.09a8.63,8.63,0,0,0-1.84.17c-13.27,4.09-24.67,10.67-31.74,23.31a42.3,42.3,0,0,1-11,13c-2.54,2-2.82,2-4-.93a61.37,61.37,0,0,0-5.71-11.22c-2.7-4-3.21-4.09-7-1.29A3,3,0,0,1,210.4,206c-1.82-3.87-3.62-7.76-5.46-11.61-3.42-7.17-6.73-14.43-11.69-20.7-2.6-3.28-5.71-6.16-7.68-9.94a15.51,15.51,0,0,0-2.59-3.87c-.5-.51-.92-1.44-1.89-.91a2.09,2.09,0,0,0-.92,2,13.08,13.08,0,0,0,.77,4.33c.41,1.27,1.26,2.48.9,4.29a20.67,20.67,0,0,1-5.06-5.62c-2.45-3.5-4.71-7.14-7.05-10.72-.5-.77-1.1-1.36-2.1-1.09s-1,1.25-1,2.11.23,1.7-.56,2.38c-1.05.92-.93,2.06-.45,3.21l-.19.88c-2,1-1.42,2.06-.09,3.15l0,.65c-1.15,1-.51,2,0,2.94,1.08,2.15,2.18,4.31,3.4,6.39,1.92,3.29,3.69,6.7,6.76,9.16a78.33,78.33,0,0,0,9.13,6.45,9.65,9.65,0,0,1,4.4,5.52,50.14,50.14,0,0,1,1.55,5.61c2,9.58,4,19.16,5.95,28.75-1.28,2.49-2.53,5-3.84,7.48a6.47,6.47,0,0,0-.27,5.83,118.87,118.87,0,0,0,9.34,18,49.53,49.53,0,0,0,10.64,12.61c5.25,4.24,10.76,5.28,16.89,2a55.86,55.86,0,0,0,7.73-4.82,58.63,58.63,0,0,0,10.94-10.81c.37-.48.8-1.15,1.48-1s.52,1,.52,1.6c0,2.89,0,5.76-.25,8.64-.69,8.47-1.42,16.94-1.05,25.45a8.83,8.83,0,0,0,1.29,4.9c-1.21,8.59-1.7,17.24-2.45,25.87a1.74,1.74,0,0,0-.25,2.84l-.27,6.53a1.78,1.78,0,0,0-.21,2.83c-.1,2.5-.21,5-.32,7.49a.53.53,0,0,0,0,.86Z" transform="translate(-0.42 -0.42)"/><path class="cls-1" d="M255.5,536.31c-11,0-22-.37-33,.1-12.31.53-24.62-.16-36.89.48-8.41.43-16.8.19-25.2.3-1.86,0-3.76,1.42-5.61,0a6.3,6.3,0,0,1,1-2.61q14.1-28.46,28.18-56.93,8.7-17.58,17.36-35.18l17.88-36.22q6.81-13.82,13.6-27.66c.51-1,.9-2.14,1.35-3.21,4.33.69,8.39,2.42,12.67,3.33-.49,2,.17,4-.09,5.94-1.23,1-.3,1.91.16,2.83l.33,9.33c-.81.87-1.06,1.69.17,2.41q.6,13.77,1.21,27.54,1.32,30,2.65,60c.16,3.66.69,7.2-1.65,10.72-1.9,2.86.28,5.84,3.75,6,1.63.1,3.26.17,4.9.26a4,4,0,0,1,.89,2.82c0,3.5-.06,7-.1,10.51-.93.65-3.68.61-1,2.67.23.17.24.71.26,1.08C258.46,526.21,258.69,531.57,255.5,536.31Z" transform="translate(-0.42 -0.42)"/><path class="cls-8" d="M246.44,346.77l-.06-1c0-.29,0-.57,0-.86.11-2.5.22-5,.32-7.49a4.8,4.8,0,0,0,.21-2.83l.27-6.53a4.76,4.76,0,0,0,.25-2.84c.75-8.63,1.24-17.28,2.45-25.87A198,198,0,0,0,278,301.71c12.78.31,25.58.11,38.36.06a40.55,40.55,0,0,0,7-.57c2.89-.53,5.9-.95,8-3.46,2.75,14.23,4.67,28.59,6.76,42.93a.81.81,0,0,0,.22,1c.08.92.16,1.84.25,2.76a.87.87,0,0,0,.18,1l.09.89c-3.2,1.88-6.83,2.51-10.35,3.38a147,147,0,0,1-33.73,4.48c-1.92,0-2.65-.61-2.73-2.45a12.26,12.26,0,0,0-.86-4.65,8.51,8.51,0,0,0-.51,4.21c.07,2.17-.62,2.94-2.94,2.86A151,151,0,0,1,253.8,349C251.33,348.36,248.89,347.52,246.44,346.77Z" transform="translate(-0.42 -0.42)"/><path class="cls-8" d="M247.24,396.8l-.33-9.33a5,5,0,0,0-.16-2.83c.26-2-.4-4,.09-5.94A175.66,175.66,0,0,0,284,384.42l4.43.25-.24,7.45a1.59,1.59,0,0,0-.15,1.48l-.45,8.41,0,.45c-.2,2.87-.43,5.74-.6,8.62q-2.32,40.35-4.63,80.71a5.11,5.11,0,0,0,.37,2.49,11.06,11.06,0,0,1,.53,8.41l-.51.37c-1.27.1-2.57-.12-3.79.44l-20.6.28c-1.64-.09-3.27-.16-4.9-.26-3.47-.2-5.65-3.18-3.75-6,2.34-3.52,1.81-7.06,1.65-10.72q-1.31-30-2.65-60Q248,413,247.41,399.21A3.51,3.51,0,0,0,247.24,396.8Z" transform="translate(-0.42 -0.42)"/><path class="cls-1" d="M283.17,502.69a11.06,11.06,0,0,0-.53-8.41,5.11,5.11,0,0,1-.37-2.49q2.31-40.37,4.63-80.71c.17-2.88.4-5.75.6-8.62.05,0,.14-.09.14-.12s-.07-.22-.1-.33l.45-8.41c1-.4,1-.9.15-1.48l.24-7.45,9.34,0,7.95,38.76c-2.9,1.15-3.28,2-2.74,5.68q1.38,9.35,2.67,18.69c1.69,12.09,3.35,24.17,5.06,36.25.38,2.68,1.23,3.32,4,3.44,2.1.09,4.2-.21,6.28.21l.94,3.46c-2.92,3.93-5.25,8.11-5.44,13.16-.25,6.41,2.73,11.53,6.49,16.35,2.39,3.08,5.41,5.58,8,8.49-.23,3.09-1.93,5.29-4.27,7.11q-18.79,0-37.58,0c-.9,0-1.89-.34-2.67.44-1.32-1.4-2.76-2.72-3.95-4.23-3-3.78-3.49-8.25-2.92-12.81.14-1.1,1.22-2-.54-2.59l-.12-13.63c1.22-.56,2.52-.34,3.79-.44C283,503.13,283.12,503,283.17,502.69Z" transform="translate(-0.42 -0.42)"/><path class="cls-1" d="M388.25,357.13c1.93,11.26.68,22.3-2.23,33.25-.94,3.55-.42,7.29-1,10.9-7.86,1.79-13.39,6.6-17.24,13.5a32.44,32.44,0,0,0-3.85,8.7c-5.55.17-11.09.21-16.64,0q-2.31-22.69-4.61-45.39c.95-1.48,2.63-1.59,4.07-2a159.07,159.07,0,0,0,19.68-7.5C374,365.25,381.1,361.13,388.25,357.13Z" transform="translate(-0.42 -0.42)"/><path class="cls-8" d="M342.72,378.07q2.31,22.69,4.61,45.39H305.67l-7.95-38.76c7-.62,14-1.07,20.91-2A194.38,194.38,0,0,0,340.54,378C341.28,377.81,342,377.36,342.72,378.07Z" transform="translate(-0.42 -0.42)"/><path class="cls-12" d="M305.67,423.47h41.66c5.55.23,11.09.19,16.64,0,9.46,0,18.92.08,28.39.07,1.94,0,3.55.36,4.24,2.43.21,1.3.41,2.6.62,3.9q1.53,11.44,3.06,22.88c.87,6.47,1.8,12.93,2.63,19.4.24,1.86.52,3.08,3,3.11,7,.06,14,.43,21,.73a51.77,51.77,0,0,1,5.57.57c.82.13,1.79.44,1.81,1.52s-.95,1.09-1.68,1.29q-14.37,4-28.77,8a8.87,8.87,0,0,1-2.31.17l-28.06.07-14.29-.12a9.28,9.28,0,0,1-.38-5.71,12,12,0,0,0-1.57-9.2c-1.12-1.66-2.79-2.92-3.1-5.11a1.45,1.45,0,0,0-1.12-1.1c-3.06-.71-5,.46-5.94,3.57-1.36,4.41-1.2,9.07-2.19,13.55-.16.71-.12,1.51-1.14,2a7.26,7.26,0,0,1,.11-3.14c.5-2.5,1.41-4.95,1.21-7.56-.06-.85,0-1.78-1.1-2.06a1.94,1.94,0,0,0-2.18,1,9.54,9.54,0,0,0-1.18,2.26,54.78,54.78,0,0,0-3.05,10.49c-3.58.16-7.19,0-10.66,1.11a19.52,19.52,0,0,0-5.91.06c-2.08-.42-4.18-.12-6.28-.21-2.78-.12-3.63-.76-4-3.44-1.71-12.08-3.37-24.16-5.06-36.25q-1.31-9.34-2.67-18.69C302.39,425.5,302.77,424.62,305.67,423.47Z" transform="translate(-0.42 -0.42)"/><path class="cls-7" d="M337.52,486.57a54.78,54.78,0,0,1,3.05-10.49,9.54,9.54,0,0,1,1.18-2.26,1.94,1.94,0,0,1,2.18-1c1.11.28,1,1.21,1.1,2.06.2,2.61-.71,5.06-1.21,7.56a7.26,7.26,0,0,0-.11,3.14c1-.54,1-1.34,1.14-2,1-4.48.83-9.14,2.19-13.55,1-3.11,2.88-4.28,5.94-3.57a1.45,1.45,0,0,1,1.12,1.1c.31,2.19,2,3.45,3.1,5.11a12,12,0,0,1,1.57,9.2,9.28,9.28,0,0,0,.38,5.71c.31,2,.31,3.83-1.4,5.25a56.35,56.35,0,0,1-8.88-3.77c1.35-.45,1.27-1.75,1.39-2.73.68-5.62,1.25-11.26,1.83-16.89a1.63,1.63,0,0,0-1-1.8c-.26,7.36-1.83,14.34-2.25,21.45a54.28,54.28,0,0,1-7.09-1.73C340.4,487,338.94,486.81,337.52,486.57Zm18.11-13H355q-.52,7.05-1,14.11C355.8,483,355.83,478.29,355.63,473.53Z" transform="translate(-0.42 -0.42)"/><path class="cls-13" d="M326.65,536.31c2.34-1.82,4-4,4.27-7.11,6.54,6,14.11,10.55,21.93,14.69-.46,1.57-1.91.9-2.79,1-8.42,1-16.86,1.49-25.26-.16-1.2-.23-2.68-.35-3.11-1.72s.78-2.23,1.62-3.13Z" transform="translate(-0.42 -0.42)"/><path class="cls-9" d="M429.21,552.25c-6.45-.06-13.15-5.37-14.07-11.14.13-4.89,5.34-10.28,10.07-10.43,1.56,0,.81,1.14,1,1.82a2.42,2.42,0,0,0-.43,2c-.56,4.41.57,8.56,1.93,12.68C428.29,548.84,429.2,550.42,429.21,552.25Z" transform="translate(-0.42 -0.42)"/><path class="cls-1" d="M357.75,492.79c1.71-1.42,1.71-3.29,1.4-5.25l14.29.12c.12,3.62.23,7.23.35,10.85C368.22,497.21,362.74,495.71,357.75,492.79Z" transform="translate(-0.42 -0.42)"/><path class="cls-14" d="M402.92,535.39l0,1.35c-3.61-1.61-6.25-4.55-9.32-6.89-8.53-6.48-16.91-13.17-25.32-19.82-4.57-3.61-9.08-7.3-13.63-10.95-.28-.23-.7-.38-.43-1.05,1.66.2,2.83,1.39,4,2.34,9.56,7.58,19,15.26,28.73,22.68,4.5,3.44,8.8,7.14,13.22,10.69A5.71,5.71,0,0,0,402.92,535.39Z" transform="translate(-0.42 -0.42)"/><path class="cls-14" d="M425.81,534.48a2.42,2.42,0,0,1,.43-2,2.62,2.62,0,0,0,1.93-.67l25.71-16.32c2.82-1.79,5.62-3.58,8.45-5.34a1.33,1.33,0,0,1,2,.13C451.41,518.37,438.81,526.73,425.81,534.48Z" transform="translate(-0.42 -0.42)"/><path class="cls-14" d="M348.88,489.05c.42-7.11,2-14.09,2.25-21.45a1.63,1.63,0,0,1,1,1.8c-.58,5.63-1.15,11.27-1.83,16.89-.12,1,0,2.28-1.39,2.73Z" transform="translate(-0.42 -0.42)"/><path class="cls-15" d="M321,487.74a19.52,19.52,0,0,1,5.91-.06l-5,3.52C321.58,490,321.27,488.89,321,487.74Z" transform="translate(-0.42 -0.42)"/><path class="cls-11" d="M493.62,542.1c-1.06,1.24-2.54,1.42-4,1.58A10.19,10.19,0,0,1,493.62,542.1Z" transform="translate(-0.42 -0.42)"/><path class="cls-11" d="M499.25,539.8c-.58,1-1.59,1.05-2.58,1.11A4.52,4.52,0,0,1,499.25,539.8Z" transform="translate(-0.42 -0.42)"/><path class="cls-11" d="M496.38,541c-.1.39-.37.43-.7.32A.52.52,0,0,1,496.38,541Z" transform="translate(-0.42 -0.42)"/><path class="cls-11" d="M495,541.58c-.1.34-.34.38-.64.3A.45.45,0,0,1,495,541.58Z" transform="translate(-0.42 -0.42)"/><polygon class="cls-5" points="499.74 538.97 499.69 539.1 499.54 539.1 499.58 538.93 499.74 538.97"/><path class="cls-7" d="M419.09,360.81a23.7,23.7,0,0,1,6.64,5.37,8.94,8.94,0,0,1,1.74,8.56c-1.39,5.3-3.26,10.48-4.17,15.92-.42,2.48-.15,4.95-.27,7.43-1.31.11-2.51.39-2.82,2a60.43,60.43,0,0,0-8.31,17.15c-.9-5.47-1.91-10.85-4.19-15.89-.1-3.17-2.37-3.45-4.76-3.56.23-1.06.45-2.11.68-3.17.61-2.78.31-5-2-7.31-5.11-5.11-7.52-11.59-8.1-18.76-.11-1.3-.26-2.6-.39-3.91,2.53-1,5-2,7.87-1.46.84.16,1.34.27,1.63,1.23.78,2.48,1.36,4.92.5,7.49a2.92,2.92,0,0,0,1.4,3.8,3.33,3.33,0,0,0,4.22-.56c-.45-.81-1.13-.53-1.72-.54-2.78,0-3-.29-2.46-2.93.66-3.42-.34-6.62-1.33-9.82a1.27,1.27,0,0,0-1.27-.87c-3-.07-6.12-.69-8.76,1.45.28-5.23,1.16-10.3,3.91-14.89a12.1,12.1,0,0,1,4.91-4.18,2.07,2.07,0,0,1,3,.86c3.08,5.08,7.34,9.22,11,13.83a18.06,18.06,0,0,0-6.18,1c-.88.32-2,.58-1.7,1.79.35,1.36,1.43.75,2.3.48,1.93-.59,3.84-1.22,5.93-.86C417.32,360.55,418.09,361.45,419.09,360.81Zm.81,27.09c-3.74.82-7.22,2.64-11.16,2.5a.47.47,0,0,0-.46.64c.13.46.54.53.92.52A19.89,19.89,0,0,0,419.9,387.9Zm-12.17-7a15.84,15.84,0,0,0,4.93-1.21c.51-.21,1.11-.52.78-1.18-.24-.49-.81-.36-1.25-.18a11.15,11.15,0,0,1-4.52,1c-.67,0-1.69-.17-1.72.7C405.91,381.05,407,380.76,407.73,380.88Zm-7.21-14.09a1.1,1.1,0,0,0-.92-1.07,1,1,0,0,0-1.2,1,1,1,0,0,0,1,1.05C400,367.83,400.37,367.47,400.52,366.79Zm11.89,0a1.06,1.06,0,0,0,1-1,.9.9,0,0,0-.89-1.08,1,1,0,0,0-1.12,1.12A1,1,0,0,0,412.41,366.77Z" transform="translate(-0.42 -0.42)"/><path class="cls-1" d="M460.65,448.46c.34,1.06.68,2.12,1,3.18a58.68,58.68,0,0,1-6.61,8.06,33.48,33.48,0,0,1-.12-11.12c.26-1.33.21-3.1,1.88-3.42s2.34,1.24,3.18,2.33C460.25,447.8,460.44,448.14,460.65,448.46Z" transform="translate(-0.42 -0.42)"/><path class="cls-3" d="M403,397.74c2.39.11,4.66.39,4.76,3.56-1,.5-.9,1.48-1,2.39a23.14,23.14,0,0,1-.6,2.69c-1,3.9-1,3.89-5,3.2C400.9,405.51,401.11,401.49,403,397.74Z" transform="translate(-0.42 -0.42)"/><path class="cls-3" d="M397.22,429.88c-.21-1.3-.41-2.6-.62-3.9,2.19,0,4.37,0,6.55,0,1.44,0,2.51.4,2.48,2.05s-1.17,2-2.57,2C401.11,429.91,399.16,429.9,397.22,429.88Z" transform="translate(-0.42 -0.42)"/><path class="cls-10" d="M460.57,467.11c-.44,2.12-1.8,3.85-2.5,5.86s-1.54,4.14-2.32,6.21l-.8-.52a41.79,41.79,0,0,1,4.28-10.9c.19-.37.7-.58,1.06-.86A2.92,2.92,0,0,1,460.57,467.11Z" transform="translate(-0.42 -0.42)"/><path class="cls-3" d="M420.21,400c.31-1.56,1.51-1.84,2.82-2-.14,3.06.87,6,1,9C422.27,405,421.46,402.41,420.21,400Z" transform="translate(-0.42 -0.42)"/><path class="cls-16" d="M424,407.13l.46.89A.91.91,0,0,1,424,407.13Z" transform="translate(-0.42 -0.42)"/><path class="cls-6" d="M425.13,422.83a1.22,1.22,0,0,1-.28.07s0-.1-.05-.16Z" transform="translate(-0.42 -0.42)"/><path class="cls-13" d="M279,517.13c1.76.58.68,1.49.54,2.59-.57,4.56,0,9,2.92,12.81,1.19,1.51,2.63,2.83,3.95,4.23.34.42.65.86,1,1.25,3,3.11,2.63,4.56-1.57,5.54a28.47,28.47,0,0,1-6,.69c-4.7.09-9.41.12-14.11,0a26.1,26.1,0,0,1-10.41-1.92c-2.5-1.13-2.81-1.86-1.24-4.15.44-.64.92-1.24,1.38-1.86,3.19-4.74,3-10.1,2.82-15.45,0-.37,0-.91-.26-1.08-2.68-2.06.07-2,1-2.67.8.71,1.78.44,2.69.47C267.5,517.75,273.25,517.37,279,517.13Z" transform="translate(-0.42 -0.42)"/><path class="cls-14" d="M393.26,362.38c2.64-2.14,5.75-1.52,8.76-1.45a1.27,1.27,0,0,1,1.27.87c1,3.2,2,6.4,1.33,9.82-.52,2.64-.32,2.89,2.46,2.93.59,0,1.27-.27,1.72.54a3.33,3.33,0,0,1-4.22.56,2.92,2.92,0,0,1-1.4-3.8c.86-2.57.28-5-.5-7.49-.29-1-.79-1.07-1.63-1.23-2.84-.55-5.34.49-7.87,1.46C393.21,363.86,393.23,363.12,393.26,362.38Z" transform="translate(-0.42 -0.42)"/><path class="cls-14" d="M419.09,360.81c-1,.64-1.77-.26-2.65-.41-2.09-.36-4,.27-5.93.86-.87.27-1.95.88-2.3-.48-.31-1.21.82-1.47,1.7-1.79a18.06,18.06,0,0,1,6.18-1A5.25,5.25,0,0,1,419.09,360.81Z" transform="translate(-0.42 -0.42)"/><path class="cls-10" d="M461.41,477.74q1.6-4.71,3.23-9.41c.16-.48.28-1.23,1-1.08s.47.91.33,1.36a52.92,52.92,0,0,1-4.08,10l-.43-.29Z" transform="translate(-0.42 -0.42)"/><path class="cls-17" d="M460.5,466.11c0-.43.15-.9.57-.85s.43.5.15.86Z" transform="translate(-0.42 -0.42)"/><path class="cls-1" d="M469.36,477.81c-.3-.05-.7-.1-.67-.46.06-.55.57-.39.93-.43Z" transform="translate(-0.42 -0.42)"/><path class="cls-10" d="M460.5,466.11h.72l-.65,1a2.92,2.92,0,0,0-.28-.21Z" transform="translate(-0.42 -0.42)"/><path class="cls-1" d="M468.75,479.63l-.77.05.71-.6Z" transform="translate(-0.42 -0.42)"/><path class="cls-1" d="M461.41,477.74l0,.54H461C461,478,461.15,477.82,461.41,477.74Z" transform="translate(-0.42 -0.42)"/><polygon class="cls-17" points="461.17 464.08 461.28 464.03 461.27 464.15 461.17 464.08"/><path class="cls-1" d="M432.43,557a.44.44,0,0,1,.36-.16c1.86.24,2.9,1.6,3.94,3.14.58-.75.25-1.46.37-2.09s-.41-1.67.64-1.66c.8,0,1.2.87,1.23,1.73a25.16,25.16,0,0,1-.71,7.83c-.4,1.42-.78,2.84-1.25,4.23-.21.64-.4,1.62-1.16,1.58-1.05,0-.47-1.08-.62-1.68-.09-.36-.14-.73-.2-1-.84-.24-1.2.47-1.8.61-2.82.65-3.57,0-3.64-2.85,0-1.21.41-2.48-.36-3.62,0-.48.09-.95.14-1.43,1.06-.57,1-1.59,1.07-2.59a1.66,1.66,0,0,1,.94-1.22C432,557.86,432.36,557.65,432.43,557Z" transform="translate(-0.42 -0.42)"/><path class="cls-1" d="M446.37,561.05l-2.67,8.61a4.89,4.89,0,0,1-.4,1.31c-.46.65-.83,1.75-1.92,1.23s-.29-1.45,0-2a24.07,24.07,0,0,0,2.79-11.14c0-2,1.86-1.44,2.82-1.86.71-.31,1.73.86,1.75,1.79a85.08,85.08,0,0,1-.14,11.4,3.36,3.36,0,0,1-.35,1.1c-.27.55-.6,1.23-1.33,1.06s-.4-.9-.44-1.41c-.22-2.56.78-5.06.47-7.63A3.67,3.67,0,0,0,446.37,561.05Z" transform="translate(-0.42 -0.42)"/><path class="cls-1" d="M442.25,560.6c-.4,3.54-.52,7.13-2.14,10.4-.24.49-.15,1.46-1.09,1.18-.79-.24-.51-1-.5-1.62a5.88,5.88,0,0,1,.36-1.81,23.24,23.24,0,0,0,1.53-9.59c0-.73-.55-2,.71-2.09s1.08,1.24,1.13,2.13C442.27,559.67,442.25,560.14,442.25,560.6Z" transform="translate(-0.42 -0.42)"/><path class="cls-1" d="M454,560.46a34.07,34.07,0,0,1-2.15,9.52c-.23.59-.46,1.53-1.4,1.18s-.44-1.19-.24-1.8a30.92,30.92,0,0,0,1.9-11.15c0-.45-.05-1.1.57-1.06.36,0,.79.46,1,.82C454.15,558.66,453.88,559.48,454,560.46Z" transform="translate(-0.42 -0.42)"/><path class="cls-1" d="M461.8,562.24c.42,2.41-.2,4.54-.45,6.69-.09.77-.37,2-1.44,1.76s-.83-1.26-.58-2.12a18.91,18.91,0,0,0,.32-9.42c-.14-.62-.4-1.54.64-1.66a1.38,1.38,0,0,1,1.47,1.25A29.63,29.63,0,0,1,461.8,562.24Z" transform="translate(-0.42 -0.42)"/><path class="cls-1" d="M458.77,560.34c-.79,3.13-1.55,6.27-2.38,9.39-.18.66-.63,1.39-1.51,1s-.61-1.14-.37-1.63A20.55,20.55,0,0,0,456.3,559c0-.59.16-1.21.89-1C458.35,558.26,458.7,559.18,458.77,560.34Z" transform="translate(-0.42 -0.42)"/><path class="cls-10" d="M430.44,559c0,1,0,2-1.07,2.59A3.48,3.48,0,0,1,430.44,559Z" transform="translate(-0.42 -0.42)"/><path class="cls-10" d="M432.43,557c-.07.64-.46.85-1.05.78A1,1,0,0,1,432.43,557Z" transform="translate(-0.42 -0.42)"/><path class="cls-18" d="M331.3,297.74c-2.06,2.51-5.07,2.93-8,3.46a40.55,40.55,0,0,1-7,.57c-12.78.05-25.58.25-38.36-.06a198,198,0,0,1-28.12-2.33,8.83,8.83,0,0,1-1.29-4.9c-.37-8.51.36-17,1.05-25.45.24-2.88.24-5.75.25-8.64,0-.56.29-1.39-.52-1.6s-1.11.5-1.48,1A58.63,58.63,0,0,1,237,270.58a55.86,55.86,0,0,1-7.73,4.82c-6.13,3.25-11.64,2.21-16.89-2a49.53,49.53,0,0,1-10.64-12.61,118.87,118.87,0,0,1-9.34-18,6.47,6.47,0,0,1,.27-5.83c1.31-2.48,2.56-5,3.84-7.48,1.53-2.41,3.09-4.8,4.6-7.22,3.19-5.12,6.84-9.9,10.45-14.71,3.8-2.8,4.31-2.68,7,1.29A61.37,61.37,0,0,1,224.24,220c1.19,2.89,1.47,2.9,4,.93a42.3,42.3,0,0,0,11-13c7.07-12.64,18.47-19.22,31.74-23.31a8.63,8.63,0,0,1,1.84-.17,78.92,78.92,0,0,1,6.39,6.79,128.74,128.74,0,0,1,7.13,11.22c.72,1.17,1.2,1.31,1.84,0,1.64-3.48,4.2-6.33,6.51-9.35,2.68-3.49,6.26-6.06,9.16-9.31a7.62,7.62,0,0,1,3.14.75c4.19,1.87,8.33,3.91,12.62,5.5,9,3.32,15.1,9.87,20.32,17.51,2.32,3.4,4.75,6.74,6.92,10.24,1.14,1.85,1.86,1.66,3.22.27,2.6-2.68,5.37-5.19,8.09-7.75.59-.57,1.08-1.42,2.14-1,.35,3,1.58,5.81,2.4,8.71,1.91,6.76,3.91,13.5,5.88,20.25.94,3.6,1.86,7.21,2.85,10.8.3,1.06.46,1.93-.57,2.69-7.11,5.3-14,10.91-21.95,15-5.26,2.67-9.48.47-13.56-2.52-1.68-1.22-3.13-2.74-5-4.37.42,4.42.94,8.55,1.19,12.68.44,7.21,1.52,14.4.77,21.65A8.09,8.09,0,0,1,331.3,297.74Zm-11.75-32.29a13.12,13.12,0,0,0-1.27-5.84,7.73,7.73,0,0,0-8.07-5c-1.12.1-1.77.46-.93,1.55,2.92,3.81,5.89,7.58,8.86,11.35.76,1,1.19.37,1.38-.42A6.73,6.73,0,0,0,319.55,265.45Zm-94.62,5a13.86,13.86,0,0,0-3.4-7.92,7.59,7.59,0,0,0-8.86-2.15c-.55.24-1.29.39-1.42,1.08s.64,1,1.13,1.28c1.73,1.17,3.4,2.47,5.23,3.46C220,267.52,222,269.56,224.93,270.45ZM321.49,290a18.81,18.81,0,0,0-5.95-2.12c-5.88-.9-9.54,2.88-10.09,6.64-.19,1.31.32,1.43,1.2,1.1C311.51,293.82,316.35,292,321.49,290ZM226.71,242c2.09,3.51,4.45,5.83,7.91,7a6.29,6.29,0,0,0,5.58-.6c1.15-.7,3-1.27,2.85-2.74s-2.1-.86-3.19-1.11C235.68,243.56,231.44,242.85,226.71,242Zm40,4.92.49-.3c0-1.71.09-3.43,0-5.14A8.49,8.49,0,0,0,259,233.1c-.79,0-1.75-.09-2.15.6s.42,1.21.84,1.75c.9,1.17,1.78,2.35,2.7,3.51Q263.54,242.92,266.71,246.87Zm14.57-2.05a12.09,12.09,0,0,0,.33,1.58c.18.64-.07,1.6.78,1.78.63.13,1-.64,1.42-1.08,2.45-2.6,4.91-5.19,7.31-7.84.81-.89,2.34-2.1,1.93-2.9-.62-1.23-2.24-.09-3.37,0C285,237,281.26,240.64,281.28,244.82Zm-31.85-25.53a8.57,8.57,0,0,0-4.43-1.92c-5.32-.76-9.31-.38-11.11,5.55-.18.58-.6,1.23-.15,1.76s1.18,0,1.69-.15C240,222.85,244.58,221.12,249.43,219.29ZM300,271a13.62,13.62,0,0,0-8.4,1.86,7.88,7.88,0,0,0-3.44,9.49c.35,1,.68,1.43,1.51.48C293,279,296.33,275.2,300,271Zm41.77-29.57c-4.25,0-7.54,2.15-8.41,5.61a2.16,2.16,0,0,0,.1,2c.45.51,1,0,1.49-.17,4.23-1.53,8.43-3.1,12.64-4.66.43-.16,1-.31.86-.88a1.33,1.33,0,0,0-.81-.72A15,15,0,0,0,341.73,241.47Zm-133-7.84c.3-1.48-.68-2.74-1.12-4.13-.34-1-.88-1.24-1.51-.15l-7.27,12.51c-.43.73-.1,1.07.61,1C203.39,242.29,209.18,237.86,208.71,233.63Zm94.51-20.56c-3.81-2.19-7.63-2.82-11.52-1.49a6.6,6.6,0,0,0-4.36,5.86c-.13,1.05,0,1.65,1.39,1.12C293.43,216.72,298.17,215,303.22,213.07ZM312,194.68c-.49.17-1.5-.41-1.91.37s.42,1.4.87,2c2.57,3.29,5.17,6.55,7.75,9.83.28.36.49.86,1,.75s.73-.73.76-1.28a15.46,15.46,0,0,0-1.41-7.44A7,7,0,0,0,312,194.68Zm-53.07,72.06,13.83-2.82c.27-.05.68-.21.73-.4.16-.57-.36-.77-.76-1-2.75-1.52-5.61-2.61-8.84-2.32a8.24,8.24,0,0,0-6.23,5C257.19,266.58,257.74,266.85,258.94,266.74Zm51.81-35.88a6.8,6.8,0,0,0-2.41-4.63c-.67-.6-1.25-.8-1.52.23q-1.8,6.94-3.49,13.92c-.2.82.19,1.09,1.07.75C307.34,240,310.77,235,310.75,230.86Zm24.31-11.13a6.48,6.48,0,0,0-2.21-5.51c-.86-.86-1.49-.87-1.79.35-1.13,4.51-2.21,9-3.3,13.56-.23,1,.1,1.44,1.07,1C331.66,227.63,335.68,222.92,335.06,219.73Zm-74.73,62.14c.66.8,1.15,1.38,1.61,2,2.53,3.25,5.05,6.5,7.59,9.73.37.46.71,1.13,1.43,1,.45-.06.43-.58.45-1C271.76,287.64,269.82,280.27,260.33,281.87Zm9.5-83a24.26,24.26,0,0,0-3.7,0c-7.07,1.33-9.7,3.87-9.23,9.82.11,1.28.53,1.82,1.71.85C262.44,206.47,265.78,202.82,269.83,198.92Z" transform="translate(-0.42 -0.42)"/><path class="cls-17" d="M303.82,183.82c-2.9,3.25-6.48,5.82-9.16,9.31-2.31,3-4.87,5.87-6.51,9.35-.64,1.34-1.12,1.2-1.84,0a128.74,128.74,0,0,0-7.13-11.22,78.92,78.92,0,0,0-6.39-6.79c3.15-2.73,5-6.27,6.43-10.09a2.58,2.58,0,0,0-.54-2.61,20.49,20.49,0,0,1-4-10,3,3,0,0,0-1-2c-2.33-2-3.58-7.2-2.44-10.11a2.23,2.23,0,0,1,2.26-1.7c1.56.16,1.92-.72,2.29-2,1.64-5.68,4.07-10.84,9-14.59,5.35-4.08,11-3.76,16.79-1.6,7.61,2.85,10.38,9.12,11,16.65a48.09,48.09,0,0,1-.14,5.36c-1.47-2.27-3.94-2.26-6.19-2.68-1.11-.21-2.49-.12-2.65,1.21s1.36,1.3,2.24,1.42c2.16.28,4.35.38,6.36,1.35-.59,8.34-2.57,16.21-7.86,22.93-1.44,1.82-1,3.8-.88,5.79A14.74,14.74,0,0,0,303.82,183.82ZM285.3,151c2.81.31,5.58-.09,8.33.55,1.24.29,3.39,1.5,3.78-.46s-2.08-1.65-3.36-2C290.91,148.28,287.81,148.29,285.3,151ZM296,164.82a4,4,0,0,0,4.45.23,2.46,2.46,0,0,0,1.15-3c-.91-3-.3-5.83.5-8.69a1.73,1.73,0,0,0-.51-2.18,20,20,0,0,0-1.65,8.45c.33,4.23.48,4.22-3.75,4.84C296.11,164.43,296.09,164.55,296,164.82Zm-1.43,16.29c.67-.09,1.73.34,1.81-.55.09-1.08-1-.59-1.6-.63a21.75,21.75,0,0,1-8.07-2.12c-.56-.26-1.36-1.12-1.81-.36-.53.91.69,1,1.21,1.29A22.83,22.83,0,0,0,294.53,181.11ZM298,170.5a23.1,23.1,0,0,0-6.33-1.91C293.31,171.17,294.66,171.6,298,170.5Zm7.41-14.11a1.08,1.08,0,0,0-1,1.1,1,1,0,0,0,1,1,1,1,0,0,0,1.08-1.18A1.17,1.17,0,0,0,305.44,156.39ZM292.3,154c-.16-.42-.41-.92-1-1a1,1,0,0,0-1.07,1,1,1,0,0,0,.94,1.11C291.78,155.16,292.11,154.72,292.3,154Z" transform="translate(-0.42 -0.42)"/><path class="cls-17" d="M368.55,238.29c-2-6.75-4-13.49-5.88-20.25-.82-2.9-2.05-5.68-2.4-8.71,5.24-6.75,10.35-13.6,15.75-20.21,3.38-4.13,6.63-8.47,11.3-11.36,3.35-2.07,6-4.94,8.69-7.73.76-.78,1.55-1.54,2.34-2.29a1.62,1.62,0,0,1,2.11-.4c.73.44.64,1.22.54,1.9-.28,1.81-1.33,3.3-2.17,4.88a35.21,35.21,0,0,0-1.8,3.46,20.63,20.63,0,0,0,7-4.79c2.78-2.61,5.41-5.39,8.1-8.09.88-.88,2-2.22,3.08-1a2.33,2.33,0,0,1-.74,3.59,7,7,0,0,0-3.11,2.75,31.24,31.24,0,0,1-7.43,7.35c-.94.67-2.19,1.08-2.67,2.19.54.8,1.36-.18,1.74.6s-1.17.72-.88,1.81c1.9-.3,3.19-2,5.08-2.27.71,1.3-.65,1.45-1.17,2-.85.92-2.23,1.22-3.29,2.88,5.2-2,7.73-6.44,12.23-9.16-1.9-.18-2.64.81-3.58,1.39-.56.34-.93,1.43-1.87.56,1-2.54,3.41-3.72,5.43-5.41-1.52-.55-2.27.47-3.18,1.25-.66.56-.91,1.9-2.25,1.36a24.69,24.69,0,0,1,5.18-6.67c.5,0,1.17.41,1.1.71-.55,2.2,1,4.22-.05,6.64-2.57,6.08-7.15,10.49-11.79,14.74-3.76,3.44-8.86,4.8-13.59,6.54A9.32,9.32,0,0,0,385.2,201c-5.26,9.4-8.86,19.55-13.17,29.38C370.88,233,369.71,235.66,368.55,238.29Zm27-58.93c-1.95.43-4,.59-5.4,2.31C392,180.82,394.19,181,395.59,179.36Z" transform="translate(-0.42 -0.42)"/><path class="cls-17" d="M211.52,207.49c-3.61,4.81-7.26,9.59-10.45,14.71-1.51,2.42-3.07,4.81-4.6,7.22-2-9.59-3.93-19.17-5.95-28.75a50.14,50.14,0,0,0-1.55-5.61,9.65,9.65,0,0,0-4.4-5.52,78.33,78.33,0,0,1-9.13-6.45c-3.07-2.46-4.84-5.87-6.76-9.16-1.22-2.08-2.32-4.24-3.4-6.39-.48-.95-1.12-2,0-2.94a7.41,7.41,0,0,1,2.66,2.53,50.91,50.91,0,0,0,4.68,6.35,3.44,3.44,0,0,0,2.49,1.54c-2.9-2.79-4.81-6.26-7.15-9.4a3.49,3.49,0,0,0-2.66-1.67c-1.33-1.09-1.87-2.16.09-3.15,2.57,1.12,3.28,3.78,4.75,5.8a21.18,21.18,0,0,0,6.35,6.33,1,1,0,0,0-.2-.89c-3.34-2.67-5.55-6.21-7.72-9.8a4,4,0,0,0-3-2.32c-.48-1.15-.6-2.29.45-3.21.79-.68.54-1.55.56-2.38s-.1-1.8,1-2.11,1.6.32,2.1,1.09c2.34,3.58,4.6,7.22,7.05,10.72a20.67,20.67,0,0,0,5.06,5.62c.36-1.81-.49-3-.9-4.29a13.08,13.08,0,0,1-.77-4.33,2.09,2.09,0,0,1,.92-2c1-.53,1.39.4,1.89.91a15.51,15.51,0,0,1,2.59,3.87c2,3.78,5.08,6.66,7.68,9.94,5,6.27,8.27,13.53,11.69,20.7,1.84,3.85,3.64,7.74,5.46,11.61A3,3,0,0,0,211.52,207.49Zm-33.79-36.58c-4.49-4-6.84-9.62-10.21-14.45C169.71,162.16,172.65,167.33,177.73,170.91Zm5.91.5c-.19.12-.5.22-.52.35,0,.28,0,.72.19.85,1.4,1,2.84,1.89,4.28,2.8a.57.57,0,0,0,.81-.19.69.69,0,0,0-.12-.64C187,173.17,185.15,172.58,183.64,171.41ZM182.29,170l-.07.12h.11Z" transform="translate(-0.42 -0.42)"/><path class="cls-14" d="M312.15,153.06c-2-1-4.2-1.07-6.36-1.35-.88-.12-2.4-.06-2.24-1.42s1.54-1.42,2.65-1.21c2.25.42,4.72.41,6.19,2.68C312.47,152.22,312.78,152.72,312.15,153.06Z" transform="translate(-0.42 -0.42)"/><path class="cls-19" d="M414.65,167.9a24.69,24.69,0,0,0-5.18,6.67l0,0c-2.51,1.36-4.52,3.37-6.75,5.1-.05,0,.12.35.19.53l0,0c-.38-.78-1.2.2-1.74-.6.48-1.11,1.73-1.52,2.67-2.19a31.24,31.24,0,0,0,7.43-7.35,7,7,0,0,1,3.11-2.75C414.49,167.48,414.57,167.69,414.65,167.9Z" transform="translate(-0.42 -0.42)"/><path class="cls-19" d="M165.61,159.92a4,4,0,0,1,3,2.32c2.17,3.59,4.38,7.13,7.72,9.8a1,1,0,0,1,.2.89,21.18,21.18,0,0,1-6.35-6.33c-1.47-2-2.18-4.68-4.75-5.8C165.48,160.51,165.55,160.22,165.61,159.92Z" transform="translate(-0.42 -0.42)"/><path class="cls-19" d="M165.33,164a3.49,3.49,0,0,1,2.66,1.67c2.34,3.14,4.25,6.61,7.15,9.4a3.44,3.44,0,0,1-2.49-1.54,50.91,50.91,0,0,1-4.68-6.35,7.41,7.41,0,0,0-2.66-2.53C165.32,164.38,165.33,164.17,165.33,164Z" transform="translate(-0.42 -0.42)"/><path class="cls-10" d="M247.44,325.25a4.76,4.76,0,0,1-.25,2.84A1.74,1.74,0,0,1,247.44,325.25Z" transform="translate(-0.42 -0.42)"/><path class="cls-10" d="M246.92,334.62a4.8,4.8,0,0,1-.21,2.83A1.78,1.78,0,0,1,246.92,334.62Z" transform="translate(-0.42 -0.42)"/><path class="cls-10" d="M338.71,345.41a.87.87,0,0,1-.18-1C339.25,344.63,339.48,344.93,338.71,345.41Z" transform="translate(-0.42 -0.42)"/><path class="cls-10" d="M338.28,341.66a.81.81,0,0,1-.22-1C338.75,340.86,339,341.15,338.28,341.66Z" transform="translate(-0.42 -0.42)"/><path class="cls-10" d="M246.39,344.94c0,.29,0,.57,0,.86A.53.53,0,0,1,246.39,344.94Z" transform="translate(-0.42 -0.42)"/><path class="cls-17" d="M279,517.13c-5.74.24-11.49.62-17.24.45-.91,0-1.89.24-2.69-.47,0-3.51.1-7,.1-10.51a4,4,0,0,0-.89-2.82l20.6-.28Z" transform="translate(-0.42 -0.42)"/><path class="cls-10" d="M246.75,384.64a5,5,0,0,1,.16,2.83C246.45,386.55,245.52,385.66,246.75,384.64Z" transform="translate(-0.42 -0.42)"/><path class="cls-10" d="M247.24,396.8a3.51,3.51,0,0,1,.17,2.41C246.18,398.49,246.43,397.67,247.24,396.8Z" transform="translate(-0.42 -0.42)"/><path class="cls-10" d="M288.14,392.12c.83.58.86,1.08-.15,1.48A1.59,1.59,0,0,1,288.14,392.12Z" transform="translate(-0.42 -0.42)"/><path class="cls-17" d="M283.17,502.69c-.05.3-.2.44-.51.37Z" transform="translate(-0.42 -0.42)"/><path class="cls-10" d="M287.54,402c0,.11.08.22.1.33s-.09.08-.14.12Z" transform="translate(-0.42 -0.42)"/><path class="cls-14" d="M355.63,473.53c.2,4.76.17,9.5-1.63,14.11q.51-7,1-14.11Z" transform="translate(-0.42 -0.42)"/><path class="cls-14" d="M419.9,387.9a19.89,19.89,0,0,1-10.7,3.66c-.38,0-.79-.06-.92-.52a.47.47,0,0,1,.46-.64C412.68,390.54,416.16,388.72,419.9,387.9Z" transform="translate(-0.42 -0.42)"/><path class="cls-14" d="M407.73,380.88c-.72-.12-1.82.17-1.78-.91,0-.87,1.05-.72,1.72-.7a11.15,11.15,0,0,0,4.52-1c.44-.18,1-.31,1.25.18.33.66-.27,1-.78,1.18A15.84,15.84,0,0,1,407.73,380.88Z" transform="translate(-0.42 -0.42)"/><path class="cls-14" d="M400.52,366.79c-.15.68-.53,1-1.13,1a1,1,0,0,1-1-1.05,1,1,0,0,1,1.2-1A1.1,1.1,0,0,1,400.52,366.79Z" transform="translate(-0.42 -0.42)"/><path class="cls-14" d="M412.41,366.77a1,1,0,0,1-1-1,1,1,0,0,1,1.12-1.12.9.9,0,0,1,.89,1.08A1.06,1.06,0,0,1,412.41,366.77Z" transform="translate(-0.42 -0.42)"/><path class="cls-4" d="M319.55,265.45a6.73,6.73,0,0,1,0,1.62c-.19.79-.62,1.39-1.38.42-3-3.77-5.94-7.54-8.86-11.35-.84-1.09-.19-1.45.93-1.55a7.73,7.73,0,0,1,8.07,5A13.12,13.12,0,0,1,319.55,265.45Z" transform="translate(-0.42 -0.42)"/><path class="cls-4" d="M224.93,270.45c-2.9-.89-4.91-2.93-7.32-4.25-1.83-1-3.5-2.29-5.23-3.46-.49-.33-1.29-.48-1.13-1.28s.87-.84,1.42-1.08a7.59,7.59,0,0,1,8.86,2.15A13.86,13.86,0,0,1,224.93,270.45Z" transform="translate(-0.42 -0.42)"/><path class="cls-4" d="M321.49,290c-5.14,2-10,3.82-14.84,5.62-.88.33-1.39.21-1.2-1.1.55-3.76,4.21-7.54,10.09-6.64A18.81,18.81,0,0,1,321.49,290Z" transform="translate(-0.42 -0.42)"/><path class="cls-4" d="M226.71,242c4.73.9,9,1.61,13.15,2.58,1.09.25,3-.45,3.19,1.11s-1.7,2-2.85,2.74a6.29,6.29,0,0,1-5.58.6C231.16,247.78,228.8,245.46,226.71,242Z" transform="translate(-0.42 -0.42)"/><path class="cls-4" d="M266.71,246.87q-3.16-4-6.32-7.91c-.92-1.16-1.8-2.34-2.7-3.51-.42-.54-1.23-1.09-.84-1.75s1.36-.63,2.15-.6a8.49,8.49,0,0,1,8.18,8.33c.11,1.71,0,3.43,0,5.14Z" transform="translate(-0.42 -0.42)"/><path class="cls-4" d="M281.28,244.82c0-4.18,3.69-7.83,8.4-8.41,1.13-.14,2.75-1.28,3.37,0,.41.8-1.12,2-1.93,2.9-2.4,2.65-4.86,5.24-7.31,7.84-.42.44-.79,1.21-1.42,1.08-.85-.18-.6-1.14-.78-1.78A12.09,12.09,0,0,1,281.28,244.82Z" transform="translate(-0.42 -0.42)"/><path class="cls-4" d="M249.43,219.29c-4.85,1.83-9.41,3.56-14,5.24-.51.18-1.17.78-1.69.15s0-1.18.15-1.76c1.8-5.93,5.79-6.31,11.11-5.55A8.57,8.57,0,0,1,249.43,219.29Z" transform="translate(-0.42 -0.42)"/><path class="cls-4" d="M300,271c-3.63,4.16-7,8-10.33,11.83-.83.95-1.16.5-1.51-.48a7.88,7.88,0,0,1,3.44-9.49A13.62,13.62,0,0,1,300,271Z" transform="translate(-0.42 -0.42)"/><path class="cls-4" d="M341.72,241.47a15,15,0,0,1,5.88,1.19,1.33,1.33,0,0,1,.81.72c.13.57-.43.72-.86.88-4.21,1.56-8.41,3.13-12.64,4.66-.46.17-1,.68-1.49.17a2.16,2.16,0,0,1-.1-2C334.19,243.62,337.48,241.45,341.72,241.47Z" transform="translate(-0.42 -0.42)"/><path class="cls-4" d="M208.71,233.63c.47,4.23-5.32,8.66-9.29,9.2-.71.1-1-.24-.61-1l7.27-12.51c.63-1.09,1.17-.89,1.51.15C208,230.89,209,232.15,208.71,233.63Z" transform="translate(-0.42 -0.42)"/><path class="cls-4" d="M303.22,213.07c-5.05,1.9-9.79,3.65-14.49,5.49-1.35.53-1.52-.07-1.39-1.12a6.6,6.6,0,0,1,4.36-5.86C295.59,210.25,299.41,210.88,303.22,213.07Z" transform="translate(-0.42 -0.42)"/><path class="cls-4" d="M312,194.68a7,7,0,0,1,7.11,4.21,15.46,15.46,0,0,1,1.41,7.44c0,.55-.1,1.14-.76,1.28s-.77-.39-1-.75c-2.58-3.28-5.18-6.54-7.75-9.83-.45-.58-1.28-1.21-.87-2S311.52,194.85,312,194.68Z" transform="translate(-0.42 -0.42)"/><path class="cls-4" d="M258.94,266.74c-1.2.11-1.75-.16-1.27-1.57a8.24,8.24,0,0,1,6.23-5c3.23-.29,6.09.8,8.84,2.32.4.22.92.42.76,1-.05.19-.46.35-.73.4Z" transform="translate(-0.42 -0.42)"/><path class="cls-4" d="M310.75,230.86c0,4.13-3.41,9.12-6.35,10.27-.88.34-1.27.07-1.07-.75q1.68-7,3.49-13.92c.27-1,.85-.83,1.52-.23A6.8,6.8,0,0,1,310.75,230.86Z" transform="translate(-0.42 -0.42)"/><path class="cls-4" d="M335.06,219.73c.62,3.19-3.4,7.9-6.23,9.35-1,.49-1.3,0-1.07-1,1.09-4.52,2.17-9,3.3-13.56.3-1.22.93-1.21,1.79-.35A6.48,6.48,0,0,1,335.06,219.73Z" transform="translate(-0.42 -0.42)"/><path class="cls-4" d="M260.33,281.87c9.49-1.6,11.43,5.77,11.08,11.78,0,.38,0,.9-.45,1-.72.09-1.06-.58-1.43-1-2.54-3.23-5.06-6.48-7.59-9.73C261.48,283.25,261,282.67,260.33,281.87Z" transform="translate(-0.42 -0.42)"/><path class="cls-4" d="M269.83,198.92c-4.05,3.9-7.39,7.55-11.22,10.69-1.18,1-1.6.43-1.71-.85-.47-5.95,2.16-8.49,9.23-9.82A24.26,24.26,0,0,1,269.83,198.92Z" transform="translate(-0.42 -0.42)"/><path class="cls-14" d="M285.3,151c2.51-2.69,5.61-2.7,8.75-1.89,1.28.33,3.72.14,3.36,2s-2.54.75-3.78.46C290.88,150.89,288.11,151.29,285.3,151Z" transform="translate(-0.42 -0.42)"/><path class="cls-19" d="M296,164.82c.13-.27.15-.39.19-.39,4.23-.62,4.08-.61,3.75-4.84a20,20,0,0,1,1.65-8.45,1.73,1.73,0,0,1,.51,2.18c-.8,2.86-1.41,5.71-.5,8.69a2.46,2.46,0,0,1-1.15,3A4,4,0,0,1,296,164.82Z" transform="translate(-0.42 -0.42)"/><path class="cls-19" d="M294.53,181.11a22.83,22.83,0,0,1-8.46-2.37c-.52-.28-1.74-.38-1.21-1.29.45-.76,1.25.1,1.81.36a21.75,21.75,0,0,0,8.07,2.12c.57,0,1.69-.45,1.6.63C296.26,181.45,295.2,181,294.53,181.11Z" transform="translate(-0.42 -0.42)"/><path class="cls-14" d="M298,170.5c-3.37,1.1-4.72.67-6.33-1.91A23.1,23.1,0,0,1,298,170.5Z" transform="translate(-0.42 -0.42)"/><path class="cls-14" d="M305.44,156.39a1.17,1.17,0,0,1,1.1,1,1,1,0,0,1-1.08,1.18,1,1,0,0,1-1-1A1.08,1.08,0,0,1,305.44,156.39Z" transform="translate(-0.42 -0.42)"/><path class="cls-14" d="M292.3,154c-.19.71-.52,1.15-1.15,1.09a1,1,0,0,1-.94-1.11,1,1,0,0,1,1.07-1C291.89,153.09,292.14,153.59,292.3,154Z" transform="translate(-0.42 -0.42)"/><path class="cls-19" d="M407.15,179.69c-1.89.23-3.18,2-5.08,2.27-.29-1.09,1.19-.91.88-1.81l0,0c2.07-.16,3.39-1.59,4.76-2.88.79-.74,2.18-1.2,1.8-2.75l0,0c1.34.54,1.59-.8,2.25-1.36.91-.78,1.66-1.8,3.18-1.25-2,1.69-4.41,2.87-5.43,5.41h0a3.39,3.39,0,0,0-2.35,2.35Z" transform="translate(-0.42 -0.42)"/><path class="cls-19" d="M409.47,177.37c.94.87,1.31-.22,1.87-.56.94-.58,1.68-1.57,3.58-1.39-4.5,2.72-7,7.15-12.23,9.16,1.06-1.66,2.44-2,3.29-2.88.52-.56,1.88-.71,1.17-2v0c1.66.09,2.56-.58,2.35-2.35Z" transform="translate(-0.42 -0.42)"/><path class="cls-19" d="M395.59,179.36c-1.4,1.67-3.64,1.46-5.4,2.31C391.57,180,393.64,179.79,395.59,179.36Z" transform="translate(-0.42 -0.42)"/><path class="cls-19" d="M177.73,170.91c-5.08-3.58-8-8.75-10.21-14.45C170.89,161.29,173.24,166.86,177.73,170.91Z" transform="translate(-0.42 -0.42)"/><path class="cls-7" d="M183.64,171.41c1.51,1.17,3.36,1.76,4.64,3.17a.69.69,0,0,1,.12.64.57.57,0,0,1-.81.19c-1.44-.91-2.88-1.83-4.28-2.8-.18-.13-.21-.57-.19-.85C183.14,171.63,183.45,171.53,183.64,171.41Z" transform="translate(-0.42 -0.42)"/><polygon class="cls-1" points="181.86 169.58 181.91 169.71 181.79 169.7 181.86 169.58"/><path class="cls-17" d="M409.49,174.55c.38,1.55-1,2-1.8,2.75-1.37,1.29-2.69,2.72-4.76,2.88-.07-.18-.24-.49-.19-.53C405,177.92,407,175.91,409.49,174.55Z" transform="translate(-0.42 -0.42)"/><path class="cls-17" d="M409.49,177.36c.21,1.77-.69,2.44-2.35,2.35A3.39,3.39,0,0,1,409.49,177.36Z" transform="translate(-0.42 -0.42)"/></svg>