<svg id="Calque_1" data-name="Calque 1" xmlns="http://www.w3.org/2000/svg" viewBox="0 0 507.06 389.5"><defs><style>.cls-1{fill:#88b4cd;}.cls-2{fill:#f9ebec;}.cls-3{fill:#2d4c2f;}.cls-4{fill:#6ea5bd;}.cls-5{fill:#fce769;}.cls-6{fill:#4565ad;}.cls-7{fill:#f7e87c;}.cls-8{fill:#888;}.cls-9{fill:#b77565;}.cls-10{fill:#344c32;}.cls-11{fill:#447a7a;}.cls-12{fill:#fae2e7;}.cls-13{fill:#e9cedc;}.cls-14{fill:#f7ebec;}.cls-15{fill:#ae7868;}.cls-16{fill:#8cadc4;}.cls-17{fill:#fff;}.cls-18{fill:#3352a0;}.cls-19{fill:#623e35;}.cls-20{fill:#3f2822;}.cls-21{fill:#5dbdd4;}</style></defs><title>illustration-banner-home</title><path class="cls-1" d="M63.07,415.06l0-98.15q0-52.34,0-104.66c0-1-.6-2.39,1.18-2.63.06,1.17,1.1,1.49,1.86,1.8,5.57,2.29,10.81,5.28,16.27,7.81,4.83,2.24,9.59,4.62,14.35,7,.89.45,1.32.06,1.82-.49.32,1.94,1.92,2.28,3.4,3,8.63,4.08,17.19,8.29,25.77,12.46,7.18,3.49,14.32,7.08,21.56,10.43,2.84,1.32,5.46,3.39,8.83,3.34,0,.26,0,.68.1.75,2.38,1.25,4.54,3,7.39,3.18a1,1,0,0,0,.65.9c2,1,3.92,2,5.93,2.94,6.84,3.13,13.59,6.44,20.37,9.71,3,1.44,5.7,3.75,9.34,3.46-.15.29-.95.53-.08.92,2.38,1.05,4.44,2.87,7.2,3,.06.18.07.47.19.53,4.05,2,8.09,4.11,12.17,6.08q7.8,3.76,15.67,7.41c2.67,1.25,5.18,2.93,8.22,3.28a9.72,9.72,0,0,0,6.83,3.8c4.35.62,8.85.53,12.71-2.25.63-.45,1.79-.34,1.76-1.55.65,0,1.44.16,1.93-.13,2.8-1.68,5.88-2.71,8.79-4.14,8.15-4,16.35-7.89,24.67-11.55.69-.3,1.49-.56,1.65-1.49,2.77.08,4.71-2,7.17-2.76.19-.06.25-.56.38-.85a26.37,26.37,0,0,0,4.74-1.58c9.31-4.41,18.68-8.66,28-13.11,1.49-.72,3.41-.93,4.33-2.64a4.8,4.8,0,0,0,3.61-1.11c1.29-.86,3.29-.62,3.94-2.47a25.15,25.15,0,0,0,5.82-2c3.87-2,7.77-3.88,11.82-5.45a13.61,13.61,0,0,1,.1,1.56c-.31,12.15,0,24.3.55,36.44Q375,307.56,376,329.3c.41,9.31.77,18.62,1.27,27.93.19,3.54.45,7.1.41,10.62-.06,5.75,2.09,11.7-1.44,17.25-1.1,1.75.85,5.14,3.36,4.74a13.76,13.76,0,0,1,2.56.08.69.69,0,0,0,.75.5c2.1-.33,2.25.87,2.21,2.53-.07,3.24,0,6.49.07,9.73-.77.26-2.35.23-1.55,1.48,1.55,2.38,1.48,4.94,1.19,7.42-.27,2.3-.31,4.84-2.26,6.64H65.83c-3.2,0-2.68.14-2.74-2.76C63.09,415.32,63.08,415.19,63.07,415.06Z" transform="translate(-26.7 -39.83)"/><path class="cls-2" d="M158.16,255c-3.37,0-6-2-8.83-3.34-7.24-3.35-14.38-6.94-21.56-10.43-8.58-4.17-17.14-8.38-25.77-12.46-1.48-.7-3.08-1-3.4-3V189.47c.44-.29.34-.57,0-.84,0-7.49.06-15,0-22.46,0-1.59.5-2,2-2q15.06.09,30.14,0c2.71,0,5.47.39,8.08-.79.45,1.46,1.68.76,2.51.76q98.55.06,197.1,0c0,2.21-.13,4.43,0,6.63a9.16,9.16,0,0,0,2.66,6.38,9.32,9.32,0,0,0,2.82,2.84c2,2.08,4.37,2.06,6.3,0l.72-.51c.57.08.84-.17.82-.74l0,0a1.64,1.64,0,0,0,1.61-1.42l.41-.52c.53,0,.77-.29.7-.82l.54-.73c1.48-1.09,2.62-2.39,2.63-4.37l0,0c.37.74.78,1.47,1.1,2.24.51,1.21.58,2.68,2,3.33a.81.81,0,0,1,.14.33c0,1.17.73,1.54,1.77,1.62,1.84.12,2.28-1.3,2.77-2.74.6.37.55,1.3,1.34,1.12l0,0c.86,2.22,1.62,2.45,3.14,1l.07-.09c1.55-.28.69-1.86,1.34-2.73.87.69.88,2,2,2.31,1,1,1.63-.2,2.44-.34.3,5-.26,9.92-.48,14.89l-2.37,0H126.52c-.47,0-.86.08-1.06.65-.71,2,.12,3.28,2.19,3.28H375.27a9.48,9.48,0,0,1-.11,3.64,2.22,2.22,0,0,0,1.49,2.74c-.32,3.12-.63,6.25-.95,9.37-.71,1.27-1.89,1.24-3.14,1.24H127.9c-1.3,0-2.52-.34-2.56,1.84s1,2.11,2.51,2.11q122,0,244.07,0c1.11,0,2.23,0,3.34.05l0,.72s-.11.08-.11.12.06.18.09.27l-.05.76c-.48.22-.67.48-.1.83-.19,3.15-.39,6.29-.58,9.44-1,.7-.76,1.54-.22,2.39a6.1,6.1,0,0,1-.26,2.68c-.92,0-1.83.06-2.75.06q-121.74,0-243.47,0c-1.84,0-2.5.39-2.47,2.35,0,2.18,1.44,1.62,2.55,1.62q123,0,246,0l-.16,3.94c-1.25,1.26-.83,2.62-.22,4a3.64,3.64,0,0,1-.13,1.91c-4.05,1.58-7.95,3.5-11.82,5.46a25.15,25.15,0,0,1-5.82,2C289.91,254.49,224,255.17,158.16,255Z" transform="translate(-26.7 -39.83)"/><path class="cls-3" d="M374.05,234a6.1,6.1,0,0,0,.26-2.68,2.79,2.79,0,0,0,.22-2.39c.19-3.15.39-6.29.58-9.44a.56.56,0,0,0,.1-.83c0-.25,0-.5.05-.76s0-.26,0-.39,0-.48,0-.72c.15-1.74.3-3.48.44-5.22.32-3.12.63-6.25.95-9.37a6.1,6.1,0,0,1,1.35,0c4.62.93,9.26,1.74,13.93,2.38,12.23,1.67,24.47,3.11,36.82,1.71,8.34-1,16.42-2.84,22.79-8.93q1.5,9.12,3,18.24c1.66,10.23,3.24,20.47,4.44,30.77.89,7.63,2,15.23,2.86,22.86,1.07,9.32,2,18.66,3,28,1,10.12,2.09,20.24,3.06,30.36.63,6.67,1.11,13.35,1.67,20,.84,10,1.64,20,2.57,30,.24,2.61,1.65,4.95,2.37,7.47s.51,3.06-1.76,4l-.13,0-1.3.09-.36.07a.25.25,0,0,1-.26.16,70.75,70.75,0,0,1-8.36.47c-3.84,0-7.68,0-11.53,0a27.24,27.24,0,0,1-5.48-.48c-.09-.24-.24-.26-.43-.12l-.73-.07c-1.58-2.06-1.25-4.35-.72-6.61a6.59,6.59,0,0,0-.08-3.47c-1.21-4.36-2.38-8.73-3.47-13.12-3.55-14.38-7-28.8-10.09-43.29q-4.08-18.93-7.85-37.94c-2.58-12.93-5.07-25.87-6.82-39a2.78,2.78,0,0,0-.61,2q-.83,13-1.62,26c-.47,7.93-.9,15.87-1.37,23.8q-1.27,21.52-2.57,43.06c-.47,8-1.09,16-1.32,24-.19,6.54-2.18,13.15.43,19.63,0,.06,0,.13,0,.2.44,4.23-.21,5-4.32,5.38-5.4.14-10.8.25-16.19.43-1.83.06-3.59-.78-5.42-.31a13.76,13.76,0,0,0-2.56-.08c-2.51.4-4.46-3-3.36-4.74,3.53-5.55,1.38-11.5,1.44-17.25,0-3.52-.22-7.08-.41-10.62-.5-9.31-.86-18.62-1.27-27.93q-1-21.75-1.91-43.48c-.51-12.14-.86-24.29-.55-36.44a13.61,13.61,0,0,0-.1-1.56,3.69,3.69,0,0,0,.13-1.92,7.83,7.83,0,0,0,.22-4c.05-1.31.11-2.63.16-3.94S374.45,235.31,374.05,234Z" transform="translate(-26.7 -39.83)"/><path class="cls-4" d="M338.41,164.23q-98.55,0-197.1,0c-.83,0-2.06.7-2.51-.76q23.3-14.4,46.59-28.8,22.8-14.13,45.57-28.28c6.17-3.83,12.34-7.65,18.48-11.51a3.41,3.41,0,0,1,4.13.07c9.25,5.89,18.68,11.52,27.88,17.49,10.11,6.56,20.39,12.83,30.56,19.27,9.74,6.17,19.54,12.23,29.3,18.36a3.85,3.85,0,0,0,1.47.48c-1.73,4.44-3.48,8.87-3.71,13.72Z" transform="translate(-26.7 -39.83)"/><path class="cls-5" d="M451.54,197.31c-6.37,6.09-14.45,8-22.79,8.93-12.35,1.4-24.59,0-36.82-1.71-4.67-.64-9.31-1.45-13.93-2.38a6.1,6.1,0,0,0-1.35,0,2.22,2.22,0,0,1-1.49-2.74,9.48,9.48,0,0,0,.11-3.64,12.3,12.3,0,0,0,.06-4c.22-5,.78-9.92.48-14.89l.09-3.52a2.29,2.29,0,0,1,.51-1.76c.44,1.16.86,2.33,1.34,3.47.33.77.65,1.79,1.73,1.55s.75-1.39.7-2.15c-.18-2.93-.59-5.79.41-8.72.88-2.58,0-5-1.75-7.11a11.56,11.56,0,0,1-2.3-3.15,46.71,46.71,0,0,0,.29-6.24c-.16-2,.12-4.19-.75-6.17-.67-1.51-1.43-1.71-2.66-.58-.72.65-1.36,1.38-2,2.08-.46-.1-.53-.5-.72-.84a18.9,18.9,0,0,0-9.94-8.69,30.39,30.39,0,0,0-10.53-1.61c3.6-9.64,8.3-18.62,15.84-25.82a28.09,28.09,0,0,1,12.58-7.28c-.2,4.66-2.59,8.28-5.53,11.62-1.5,1.7-1.36,2.57.77,3.38.79.3,1.76.84,2.43.61,3.29-1.08,5.67.64,8.13,2.29a5.57,5.57,0,0,0,5.41.62,10.3,10.3,0,0,1,4-.81,20.11,20.11,0,0,1,8.13,2c.4.19.83.51,1.28.21s.21-.58.1-.89c-1.48-4.44,0-8.47,1.69-12.48,1.45-1.21,1.86-3,2.68-4.6.35-.66.51-1.57,1.62-1.18h0l.3.42a1.43,1.43,0,0,0,.14.34l.33.41.43.78.32.42a45.77,45.77,0,0,1,4.69,10.53c.13.46,0,1.23.78,1.1.5-.09.45-.73.49-1.18a46,46,0,0,1,3.26-12.47c.61,0,.72.4.82.89.21,1.09.43,2.19.73,3.26,1,3.56,1,3.56,4.64,3.39a1.34,1.34,0,0,1,.39.07c-.88,4-1,8.19-2.47,12.09-.23.61-.22,1.15.49,1.48,1.28.59,5.05.13,6-.94,1.24-1.45,2.57-1.51,4.37-1.21,2.34.39,4.87,1.59,7.12-.48a21.54,21.54,0,0,1,4.71-3.18c1.1-.56,1.08-1.23.13-1.91a11.94,11.94,0,0,1-4-5c-.84-1.92-2.62-3.77-1-6.13.23-.33-.17-.73-.43-1s-.75-.76-.58-1.37c10.32,2.34,16.36,10.35,19.37,20.57-.79,0-1.57.08-2.35.08-8,0-16,0-24,0-1.66,0-3,.4-3.57,2.1l-6.5,0a1.68,1.68,0,0,0-1.91,2,1.64,1.64,0,0,0,1.86,1.8c2,0,3.94-.06,5.91-.08a10.29,10.29,0,0,1,0,1.57c-1.42,10.24-2.82,20.49-4.33,30.72-.47,3.23-.59,6.52-1.54,9.67-1.42.09-2.85.31-4.27.26-3.7-.14-7.39.2-11.08.27-2-.05-4-.43-5.92.32h-.81a2.42,2.42,0,0,0-1.55.06h-.82l-.53.19a7.76,7.76,0,0,0-1.37.1c-.79.21-1.85.25-1.87,1.38s1.06,1,1.75,1.22c3.58,1.05,7.15,2.14,10.76,3s7.07,2.37,10.81,2.72a1.07,1.07,0,0,0,1.36.58l2.61.62a4.59,4.59,0,0,0,2.6.68c8.76,0,17.53,0,26.29,0Z" transform="translate(-26.7 -39.83)"/><path class="cls-6" d="M451.92,181.15c-8.76,0-17.53,0-26.29,0a4.59,4.59,0,0,1-2.6-.68c.5-.13.88-.32.53-.93a3.5,3.5,0,0,1-.28-2.48,32,32,0,0,0,.68-7.37c1-3.15,1.07-6.44,1.54-9.67,1.51-10.23,2.91-20.48,4.33-30.72a10.29,10.29,0,0,0,0-1.57c-.26-1.29.81-2.35.64-3.63.6-1.7,1.91-2.11,3.57-2.1,8,0,16,0,24,0,.78,0,1.56,0,2.35-.08s1.84.11,2.75.11c16.62,0,33.23.07,49.84,0,3.3,0,4.33,1.53,3.9,4.45-1.86,12.58-3.56,25.19-5.3,37.79-.61,4.41-1.14,8.84-1.78,13.26-.41,2.89-1,3.33-3.82,3.35L487.7,181c-1.29-.23-2.85,0-3.06-2-.29-2.84-1.47-5.43-2.34-8.1a5.51,5.51,0,0,0-2-3.08c-1.23-.81-2.21-.35-2.31,1.11a14.33,14.33,0,0,0,.38,3.5c.36,2.13,1.37,4.22.79,6.73a4.4,4.4,0,0,1-1.16-2.87c-.67-4.21-1.33-8.42-2.11-12.6-.35-1.9-1.69-2.48-3.13-1.54l-.67,0c-1.21-1.21-2-.75-2.68.59-.47,1-.24,2.24-1.2,3-3,2.5-3.32,5.86-2.95,9.41.21,1.94.68,3.88-.43,5.71Z" transform="translate(-26.7 -39.83)"/><path class="cls-7" d="M63.07,415.06c0,.13,0,.26,0,.39.06,2.9-.46,2.76,2.74,2.76H382.56c.16,1.56-.88,2.52-1.77,3.56-1.53,1.78-1.32,2.84.81,3.66a32.93,32.93,0,0,0,12.72,1.88c.94,0,2-.38,2.83.37-.52.59-1.22.37-1.85.38-1.71,0-3.41,0-5.12,0-19.56.53-39.13.15-58.69.48-10.66.19-21.32.16-32,.32-3.15.05-6.3.24-9.46,0-2.88-.21-5.74.75-8.62.36-4-.54-7.91.1-11.89-.16-3-.19-6.2-.83-9.31.12-1.23.37-2.54-.38-3.88-.36-6.44.07-12.88.21-19.31,0-17.46-.59-34.93,0-52.38-.47-8.4-.22-16.8.09-25.18-.32-11.14-.55-22.28-.54-33.41-.84-8-.23-16.09-.57-24.15-.77-5.94-.15-11.88-.6-17.83-.75-7.91-.2-15.8-.85-23.7-1.25-7-.36-13.92-.89-20.85-1.76-3.23-.41-6.47-.76-9.68-1.32-1.22-.21-3.08-.31-3.15-1.66s1.86-1.17,2.89-1.36c6.1-1.07,12.28-1.56,18.44-2.21C53,415.6,58.08,415.77,63.07,415.06Z" transform="translate(-26.7 -39.83)"/><path class="cls-8" d="M441,101.41c-.17.61.23,1,.58,1.37s.66.7.43,1c-1.66,2.36.12,4.21,1,6.13a11.94,11.94,0,0,0,4,5c.95.68,1,1.35-.13,1.91a21.54,21.54,0,0,0-4.71,3.18c-2.25,2.07-4.78.87-7.12.48-1.8-.3-3.13-.24-4.37,1.21-.91,1.07-4.68,1.53-6,.94-.71-.33-.72-.87-.49-1.48,1.49-3.9,1.59-8.07,2.47-12.09a27.51,27.51,0,0,0-1.91-10.84c-.36-1.37-.79-2.74-1.05-4.13s-.37-3,.85-4.2a29.5,29.5,0,0,0,8.83-22.38,5,5,0,0,0-.11-2.47,23.68,23.68,0,0,0-3.12-12.77,9.47,9.47,0,0,0-5.18-4.6c-.81-.26-1.42-.22-1.89.49C420,53,416,57,412.5,61.36a8.31,8.31,0,0,0-2.91,2.71c-.85.12-1.35.82-1.93,1.3-2.6,2.15-5.42,4.17-5.9,7.94-.31,2.41.46,4.65,1.13,6.85,1.8,6,3.59,11.89,3.33,18.2q-.59,4.31-1.19,8.59c-1.69,4-3.17,8-1.69,12.48.11.31.21.68-.1.89s-.88,0-1.28-.21a20.11,20.11,0,0,0-8.13-2,10.3,10.3,0,0,0-4,.81,5.57,5.57,0,0,1-5.41-.62c-2.46-1.65-4.84-3.37-8.13-2.29-.67.23-1.64-.31-2.43-.61-2.13-.81-2.27-1.68-.77-3.38,2.94-3.34,5.33-7,5.53-11.62,0-3.34.07-6.69,0-10a12.14,12.14,0,0,1,2.6-8.45c2.38-2.9,2.63-6.5,3.4-9.93a10.37,10.37,0,0,1,2.61-5.43c3.69-3.39,5.55-7.91,7.91-12.11s4.4-8.18,8.06-11.3c4.28-3.65,9.16-3.79,14.26-2.71a16.55,16.55,0,0,1,5.44,2.23c2.28,1.46,5,2,7.33,3.31,5.21,2.95,7.66,7.47,7.91,13.36a31.62,31.62,0,0,1-.42,6.47c-1.2,7.36-.08,14.52,1.7,21.61A69.71,69.71,0,0,1,441,101.41Z" transform="translate(-26.7 -39.83)"/><path class="cls-9" d="M376.54,155.53a11.56,11.56,0,0,0,2.3,3.15c1.76,2.1,2.63,4.53,1.75,7.11-1,2.93-.59,5.79-.41,8.72.05.76.49,1.88-.7,2.15s-1.4-.78-1.73-1.55c-.48-1.14-.9-2.31-1.34-3.47a27.46,27.46,0,0,0-6-11.81,3,3,0,0,0,.33,1.47,127.33,127.33,0,0,1,5.15,12.1l-.09,3.52c-.81.14-1.48,1.31-2.44.34-1.18-2.76-2.41-5.49-3.51-8.27-.8-2-1.2-4.14-2.16-6.08-.22-.44-.28-1.11-1.07-.69a.94.94,0,0,0-.39,1.35c.73,1.88,1.51,3.75,2.25,5.63,1.07,2.73,2.39,5.41,1.57,8.48l-.07.09c-1.33.6-2.14-.49-3.14-1l0,0L362,164.59a2,2,0,0,0-.49,2.39c.72,2.45,1.48,4.88,2.25,7.31.31,1,.75,2.09-.07,3-1,1.09-1.89-.07-2.78-.46a.81.81,0,0,0-.14-.33c-.77-1.89-1.51-3.79-2.32-5.67-.25-.58-.62-.68-.8.1l0,0a13.82,13.82,0,0,0-2.63,4.37l-.54.73a.87.87,0,0,0-.7.82l-.41.52a1.86,1.86,0,0,0-1.61,1.42l0,0a.93.93,0,0,0-.82.74l-.72.51a8.57,8.57,0,0,1-6.3,0,9.32,9.32,0,0,1-2.82-2.84,2.21,2.21,0,0,0-.42-1.47,12.48,12.48,0,0,1-1.63-6.68c0-1.62,0-3.24,0-4.86.23-4.85,2-9.28,3.71-13.72l.7-2c2.85-.44,5.78-1,8.53.06,1.37.53,1.87.11,2.66-.76,3.1-3.42,6.66-4.13,11-2.19,1.6.72,3.09,1.68,4.63,2.53Z" transform="translate(-26.7 -39.83)"/><path class="cls-4" d="M98.6,189.47v36.28c-.5.55-.93.94-1.82.49-4.76-2.39-9.52-4.77-14.35-7-5.46-2.53-10.7-5.52-16.27-7.81-.76-.31-1.8-.63-1.86-1.8,6.8-4.26,13.58-8.55,20.41-12.76,4.32-2.67,8.71-5.22,13.07-7.83C98.05,189.18,98.32,189.33,98.6,189.47Z" transform="translate(-26.7 -39.83)"/><path class="cls-10" d="M397.15,427.69c-.86-.75-1.89-.39-2.83-.37a32.93,32.93,0,0,1-12.72-1.88c-2.13-.82-2.34-1.88-.81-3.66.89-1,1.93-2,1.77-3.56,1.95-1.8,2-4.34,2.26-6.64.29-2.48.36-5-1.19-7.42-.8-1.25.78-1.22,1.55-1.48,6.14.31,12.28,0,18.43,0,1.2.19,2.13.5.67,1.71-.49.41-.38.93-.43,1.44a15.59,15.59,0,0,0,1.48,8c.77,1.69,1.52,3.69,3.64,4.37a7.85,7.85,0,0,0,2.78,3.71,3,3,0,0,1,1.08,3.33c-.35,1.12-1.54,1-2.46,1.25a6.3,6.3,0,0,0-2.58.78C404.23,427,400.71,427.85,397.15,427.69Z" transform="translate(-26.7 -39.83)"/><path class="cls-10" d="M471.25,403.61c1,.17.93.73.44,1.38-.32.41-.91.78-.75,1.32.75,2.48-.12,5.11.75,7.57a15.37,15.37,0,0,0,1.1,5.07c.89,2.44,2.92,4.1,4,6.37-1.33,2.08-3.68,2.2-5.69,2.64a42.77,42.77,0,0,1-8.14.86c-5.61.12-11.24.26-16.81-.73a15,15,0,0,1-2.88-1.2,4,4,0,0,1,1.48-3.66,23.54,23.54,0,0,0,2.77-2.79c1.75-2.22,4.22-4.07,4-7.35.19-.17.53-.32.56-.51.29-2.25.34-4.54-.92-6.52-.69-1.08-.22-1.35.6-1.7C458.31,404.44,464.77,403.81,471.25,403.61Z" transform="translate(-26.7 -39.83)"/><path class="cls-7" d="M476.81,425.32c-1.1-2.27-3.13-3.93-4-6.37a15.37,15.37,0,0,1-1.1-5.07c7.51.26,15.05.26,22.54.87,6.89.57,13.8.83,20.68,1.53,5.56.56,11.16.93,16.61,2.31.88.23,2.1.34,2.23,1.26s-1.21.8-1.85,1c-3,1-6.1,1.18-9.16,1.7-5.09.87-10.27.64-15.37,1.49a57.77,57.77,0,0,1-8,.38C491.83,424.58,484.35,425.81,476.81,425.32Z" transform="translate(-26.7 -39.83)"/><path class="cls-9" d="M472.76,162.19c1.44-.94,2.78-.36,3.13,1.54.78,4.18,1.44,8.39,2.11,12.6a4.4,4.4,0,0,0,1.16,2.87c.58-2.51-.43-4.6-.79-6.73A14.33,14.33,0,0,1,478,169c.1-1.46,1.08-1.92,2.31-1.11a5.51,5.51,0,0,1,2,3.08c.87,2.67,2.05,5.26,2.34,8.1.21,2,1.77,1.74,3.06,2a22,22,0,0,1-5.59,7.25c-2.8,2.44-6.32,1.66-9.58.65a32.84,32.84,0,0,1-4.71-2,5,5,0,0,1-3-6c1.11-1.83.64-3.77.43-5.71-.37-3.55-.06-6.91,2.95-9.41,1-.79.73-2,1.2-3,.66-1.34,1.47-1.8,2.68-.59a6.33,6.33,0,0,0-.71,4.16c.41,3.56.7,7.14,1.16,10.69.27,2,.43,4.18,2,5.84C474,176,472.6,169.15,472.76,162.19Zm-3.85,19c.81-.41.72-.76.74-1.07.21-3.86-.62-7.69-.37-11.55,0-.42.12-1-.58-1s-.77.54-.78,1a34.87,34.87,0,0,0-.06,4.9C468.09,176,468.54,178.49,468.91,181.17Z" transform="translate(-26.7 -39.83)"/><path class="cls-7" d="M451.59,413.09c.17,3.28-2.3,5.13-4,7.35a23.54,23.54,0,0,1-2.77,2.79,4,4,0,0,0-1.48,3.66c-8.87.56-17.76.27-26.64.47-2.33.06-4.67.32-7,.31-.63,0-1.33.22-1.84-.38a6.3,6.3,0,0,1,2.58-.78c.92-.23,2.11-.13,2.46-1.25a3,3,0,0,0-1.08-3.33,7.85,7.85,0,0,1-2.78-3.71q15.54,0,31.06,0c5.08,0,4.38.64,4.43-4.33,0-.39,0-.79,0-1.18C446.85,412.63,449.19,413.35,451.59,413.09Z" transform="translate(-26.7 -39.83)"/><path class="cls-11" d="M370.33,148.13c-1.54-.85-3-1.81-4.63-2.53-4.37-1.94-7.93-1.23-11,2.19-.79.87-1.29,1.29-2.66.76-2.75-1.05-5.68-.5-8.53-.06-1.08-.36-.44-1.11-.28-1.61,1.24-3.93,2.62-7.82,3.78-11.77.55-1.89,2.24-.91,3.21-1.63a30.39,30.39,0,0,1,10.53,1.61,18.9,18.9,0,0,1,9.94,8.69c.19.34.26.74.72.84,0,.22,0,.44,0,.66l-.08.45Z" transform="translate(-26.7 -39.83)"/><path class="cls-9" d="M471.25,403.61c-6.48.2-12.94.83-19.43.75,0-.79-.1-1.57-.12-2.36a98.1,98.1,0,0,0-.91-12.11c3.85,0,7.69-.1,11.53-.05a70.75,70.75,0,0,0,8.36-.47c.09,2.52.18,5,.28,7.55a4,4,0,0,0,.28,2.77C471.24,401,471.24,402.3,471.25,403.61Z" transform="translate(-26.7 -39.83)"/><path class="cls-12" d="M471.24,399.69a4,4,0,0,1-.28-2.77C472.16,397.73,471.85,398.7,471.24,399.69Z" transform="translate(-26.7 -39.83)"/><path class="cls-13" d="M98.6,189.47c-.28-.14-.55-.29-.82-.44l.8-.4C98.94,188.9,99,189.18,98.6,189.47Z" transform="translate(-26.7 -39.83)"/><path class="cls-9" d="M470.94,389.21l.36-.07Z" transform="translate(-26.7 -39.83)"/><polygon class="cls-9" points="445.9 349.21 446.03 349.2 445.97 349.32 445.9 349.21"/><path class="cls-2" d="M348.24,258.89c-.92,1.71-2.84,1.92-4.33,2.64-9.29,4.45-18.66,8.7-28,13.11a26.37,26.37,0,0,1-4.74,1.58c-4.07.11-8.12-.65-12.18-.33-3.26.26-6.51,0-9.77,0H250.48c-3.91,0-7.82.14-11.74,0-5.42-.14-10.85-.06-16.27,0-1.3,0-2.64.46-3.89.27-5.54-.82-11.1.27-16.64-.26-3.64.29-6.37-2-9.34-3.46-6.78-3.27-13.53-6.58-20.37-9.71-2-.92-3.95-2-5.93-2.94a1,1,0,0,1-.65-.9Z" transform="translate(-26.7 -39.83)"/><path class="cls-2" d="M303.65,279.83c-.16.93-1,1.19-1.65,1.49-8.32,3.66-16.52,7.55-24.67,11.55-2.91,1.43-6,2.46-8.79,4.14-.49.29-1.28.1-1.93.13h-21.3c-3-.35-5.55-2-8.22-3.28q-7.86-3.66-15.67-7.41c-4.08-2-8.12-4-12.17-6.08-.12-.06-.13-.35-.19-.53Z" transform="translate(-26.7 -39.83)"/><path class="cls-4" d="M348.24,258.89H165.65c-2.85-.16-5-1.93-7.39-3.18-.13-.07-.07-.49-.1-.75,65.88.21,131.75-.47,197.63.35-.65,1.85-2.65,1.61-3.94,2.47A4.8,4.8,0,0,1,348.24,258.89Z" transform="translate(-26.7 -39.83)"/><path class="cls-4" d="M303.65,279.83H209.06c-2.76-.15-4.82-2-7.2-3-.87-.39-.07-.63.08-.92,5.54.53,11.1-.56,16.64.26,1.25.19,2.59-.26,3.89-.27,5.42,0,10.85-.12,16.27,0,3.92.1,7.83,0,11.74,0h38.77c3.26,0,6.51.28,9.77,0,4.06-.32,8.11.44,12.18.33-.13.29-.19.79-.38.85C308.36,277.82,306.42,279.91,303.65,279.83Z" transform="translate(-26.7 -39.83)"/><path class="cls-9" d="M403.61,402.71c-6.15,0-12.29.28-18.43,0,0-3.24-.14-6.49-.07-9.73,0-1.66-.11-2.86-2.21-2.53a.69.69,0,0,1-.75-.5c1.83-.47,3.59.37,5.42.31,5.39-.18,10.79-.29,16.19-.43C403.69,394.1,404,398.41,403.61,402.71Z" transform="translate(-26.7 -39.83)"/><path class="cls-4" d="M245.31,297.14h21.3c0,1.21-1.13,1.1-1.76,1.55-3.86,2.78-8.36,2.87-12.71,2.25A9.72,9.72,0,0,1,245.31,297.14Z" transform="translate(-26.7 -39.83)"/><path class="cls-4" d="M375.7,211.53c-.14,1.74-.29,3.48-.44,5.22-1.11,0-2.23-.05-3.34-.05q-122,0-244.07,0c-1.53,0-2.54,0-2.51-2.11s1.26-1.84,2.56-1.84H372.56C373.81,212.77,375,212.8,375.7,211.53Z" transform="translate(-26.7 -39.83)"/><path class="cls-4" d="M375.33,191.81a12.3,12.3,0,0,1-.06,4H127.65c-2.07,0-2.9-1.29-2.19-3.28.2-.57.59-.64,1.06-.65H373Z" transform="translate(-26.7 -39.83)"/><path class="cls-4" d="M374.05,234c.4,1.35-.13,2.67-.11,4q-123,0-246,0c-1.11,0-2.51.56-2.55-1.62,0-2,.63-2.35,2.47-2.35q121.74.08,243.47,0C372.22,234,373.13,234,374.05,234Z" transform="translate(-26.7 -39.83)"/><path class="cls-14" d="M370.06,177.68c.82-3.07-.5-5.75-1.57-8.48-.74-1.88-1.52-3.75-2.25-5.63a.94.94,0,0,1,.39-1.35c.79-.42.85.25,1.07.69,1,1.94,1.36,4.08,2.16,6.08,1.1,2.78,2.33,5.51,3.51,8.27-1.09-.34-1.1-1.62-2-2.31C370.75,175.82,371.61,177.4,370.06,177.68Z" transform="translate(-26.7 -39.83)"/><path class="cls-14" d="M361,176.78c.89.39,1.75,1.55,2.78.46.82-.86.38-1.94.07-3-.77-2.43-1.53-4.86-2.25-7.31a2,2,0,0,1,.49-2.39l4.79,12.19c-.79.18-.74-.75-1.34-1.12-.49,1.44-.93,2.86-2.77,2.74C361.68,178.32,361,178,361,176.78Zm4.15-2.4c-.07-.11-.15-.31-.29-.39s-.35.08-.34.26a.65.65,0,0,0,.24.46C364.93,174.83,365.06,174.66,365.1,174.38Zm-1.1-2.86-.19-.31c-.06.11-.16.22-.15.32s.11.22.17.32Z" transform="translate(-26.7 -39.83)"/><path class="cls-14" d="M339.07,164.23c0,1.62,0,3.24,0,4.86a12.48,12.48,0,0,0,1.63,6.68,2.21,2.21,0,0,1,.42,1.47,9.16,9.16,0,0,1-2.66-6.38c-.15-2.2,0-4.42,0-6.63Z" transform="translate(-26.7 -39.83)"/><path class="cls-14" d="M357.69,170.88c.18-.78.55-.68.8-.1.81,1.88,1.55,3.78,2.32,5.67-1.44-.65-1.51-2.12-2-3.33C358.47,172.35,358.06,171.62,357.69,170.88Z" transform="translate(-26.7 -39.83)"/><path class="cls-15" d="M343.88,180a8.62,8.62,0,0,0,6.3,0C348.25,182.1,345.93,182.11,343.88,180Z" transform="translate(-26.7 -39.83)"/><path class="cls-14" d="M355,175.28a13.82,13.82,0,0,1,2.63-4.37C357.65,172.89,356.51,174.19,355,175.28Z" transform="translate(-26.7 -39.83)"/><path class="cls-2" d="M373.78,241.91a7.83,7.83,0,0,1-.22,4C373,244.53,372.53,243.17,373.78,241.91Z" transform="translate(-26.7 -39.83)"/><path class="cls-14" d="M366.85,176.8c1,.48,1.81,1.57,3.14,1C368.47,179.25,367.71,179,366.85,176.8Z" transform="translate(-26.7 -39.83)"/><path class="cls-14" d="M374.53,228.89a2.79,2.79,0,0,1-.22,2.39C373.77,230.43,373.49,229.59,374.53,228.89Z" transform="translate(-26.7 -39.83)"/><path class="cls-14" d="M351.77,178.77a1.86,1.86,0,0,1,1.61-1.42A1.64,1.64,0,0,1,351.77,178.77Z" transform="translate(-26.7 -39.83)"/><path class="cls-14" d="M350.93,179.53a.93.93,0,0,1,.82-.74C351.77,179.36,351.5,179.61,350.93,179.53Z" transform="translate(-26.7 -39.83)"/><path class="cls-14" d="M375.21,218.62a.56.56,0,0,1-.1.83C374.54,219.1,374.73,218.84,375.21,218.62Z" transform="translate(-26.7 -39.83)"/><path class="cls-14" d="M353.79,176.83a.87.87,0,0,1,.7-.82C354.56,176.54,354.32,176.81,353.79,176.83Z" transform="translate(-26.7 -39.83)"/><path class="cls-14" d="M375.28,217.47c0,.13,0,.26,0,.39,0-.09-.07-.18-.09-.27S375.24,217.51,375.28,217.47Z" transform="translate(-26.7 -39.83)"/><path class="cls-16" d="M403.61,402.71c.35-4.3.08-8.61.15-12.91,4.11-.34,4.76-1.15,4.32-5.38,0-.07,0-.14,0-.2-2.61-6.48-.62-13.09-.43-19.63.23-8,.85-16,1.32-24q1.28-21.53,2.57-43.06c.47-7.93.9-15.87,1.37-23.8q.78-13,1.62-26a2.78,2.78,0,0,1,.61-2c1.75,13.09,4.24,26,6.82,39q3.8,19,7.85,37.94c3.12,14.49,6.54,28.91,10.09,43.29,1.09,4.39,2.26,8.76,3.47,13.12a6.59,6.59,0,0,1,.08,3.47c-.53,2.26-.86,4.55.72,6.6q0,11,0,22c0,.51-.1,1.06.37,1.46,0,.39,0,.79,0,1.18,0,5,.65,4.31-4.43,4.33q-15.52,0-31.06,0c-2.12-.68-2.87-2.68-3.64-4.37a15.59,15.59,0,0,1-1.48-8c0-.51-.06-1,.43-1.44C405.74,403.21,404.81,402.9,403.61,402.71Z" transform="translate(-26.7 -39.83)"/><path class="cls-17" d="M444.47,412.7c-.47-.4-.37-.95-.37-1.46q0-11,0-22l.73.08.43.12a27.24,27.24,0,0,0,5.48.48A98.41,98.41,0,0,1,451.7,402c0,.79.08,1.57.12,2.36-.81.35-1.28.62-.59,1.7,1.26,2,1.21,4.27.92,6.52,0,.19-.37.34-.56.51C449.19,413.35,446.85,412.63,444.47,412.7Z" transform="translate(-26.7 -39.83)"/><path class="cls-13" d="M445.31,389.4l-.43-.12C445.07,389.14,445.22,389.16,445.31,389.4Z" transform="translate(-26.7 -39.83)"/><path class="cls-9" d="M433.38,67.59A29.5,29.5,0,0,1,424.55,90c-1.22,1.22-1.13,2.72-.85,4.2s.69,2.76,1.05,4.13c-3.59.18-3.59.18-4.67,3.23A46,46,0,0,0,416.82,114c0,.45,0,1.09-.49,1.18-.76.13-.65-.64-.78-1.1a45.77,45.77,0,0,0-4.69-10.53l-.32-.42-.43-.78-.33-.41a1.43,1.43,0,0,1-.14-.34l-.3-.42h0c-.61-1.4-1.34-2.68-3.11-2.81.26-6.31-1.53-12.25-3.33-18.2-.67-2.2-1.44-4.44-1.13-6.85.48-3.77,3.3-5.79,5.9-7.94.58-.48,1.08-1.18,1.93-1.3,1,.7,1.85-.24,2.77-.39,2-.33,3.7.5,5.5,1,.81.21,1.67.45,2-.5s-.62-1.31-1.32-1.56a15.52,15.52,0,0,0-6.05-1.24C416,57,420,53,423.08,48.24c.47-.71,1.08-.75,1.89-.49a9.47,9.47,0,0,1,5.18,4.6,23.78,23.78,0,0,1,3.13,12.77c-2.29-1.37-4.81-1-7.29-1-.87,0-1.8.28-1.9,1.07-.39,3-2.3,5.81-1,9.09.71,1.79,0,2.44-2,2.42a5.35,5.35,0,0,0-1,0,1,1,0,0,0-.62.32c-.19.37.13.64.4.79a3.43,3.43,0,0,0,3.37.08,2.34,2.34,0,0,0,1.4-2.76,16.48,16.48,0,0,1,.08-7.36c.19-1.12.69-1.33,1.67-1.42A13.46,13.46,0,0,1,433.38,67.59ZM418.52,92.74c.52-.12,1.25-.07,1.36-.82s-.6-.89-1.07-.88a19.28,19.28,0,0,1-8.84-2.2c-.43-.21-.89-.4-1.13.23-.18.47.13.73.51.92A33.19,33.19,0,0,0,418.52,92.74ZM420,83.3c.67,0,1.29.21,1.46-.51s-.36-.82-.92-1a10.66,10.66,0,0,1-4.29-2.24c-.44-.4-.95-.58-1.37-.1s0,.87.34,1.16A14.73,14.73,0,0,0,420,83.3Zm-2.19-14.71c-.12-.15-.27-.36-.44-.54-1-1-3.91-1-4.87.09a.79.79,0,0,0-.2.89.57.57,0,0,0,.8.32,5.27,5.27,0,0,1,3.79,0C417.44,69.54,417.78,69.26,417.83,68.59Zm11,.21a4.51,4.51,0,0,0-2.3.39c-.47.25-1,.5-.79,1.14s.84.38,1.32.19a3.93,3.93,0,0,1,2.49-.09c.56.15,1.23,1,1.63,0s-.6-1.12-1.24-1.37A7.75,7.75,0,0,0,428.85,68.8Z" transform="translate(-26.7 -39.83)"/><path class="cls-18" d="M424,169.74a32,32,0,0,1-.68,7.37,3.5,3.5,0,0,0,.28,2.48c.35.61,0,.8-.53.93l-2.61-.62a1.11,1.11,0,0,0-1.36-.58c-3.74-.35-7.2-1.83-10.81-2.72s-7.18-2-10.76-3c-.69-.2-1.77-.12-1.75-1.22s1.08-1.17,1.87-1.38a7.76,7.76,0,0,1,1.37-.1l.53-.19h.82a1.07,1.07,0,0,0,1.55-.06h.81c2,.41,4,.92,5.92-.32,3.69-.07,7.38-.41,11.08-.27C421.11,170.05,422.54,169.83,424,169.74Z" transform="translate(-26.7 -39.83)"/><path class="cls-17" d="M370.33,148.13c.33-.8.65-1.6,1-2.4l.09-.45c0-.22,0-.44,0-.66.68-.7,1.32-1.43,2-2.08,1.23-1.13,2-.93,2.66.58.87,2,.59,4.12.75,6.17a46.71,46.71,0,0,1-.29,6.24Z" transform="translate(-26.7 -39.83)"/><path class="cls-11" d="M420.08,101.53c1.08-3,1.08-3,4.67-3.23a27.51,27.51,0,0,1,1.91,10.84,1.34,1.34,0,0,0-.39-.07c-3.62.17-3.63.17-4.64-3.39-.3-1.07-.52-2.17-.73-3.26C420.8,101.93,420.69,101.52,420.08,101.53Z" transform="translate(-26.7 -39.83)"/><path class="cls-11" d="M430.49,124.15c.17,1.28-.9,2.34-.64,3.63-2,0-3.94.07-5.91.08a1.64,1.64,0,0,1-1.86-1.8,1.68,1.68,0,0,1,1.91-2Z" transform="translate(-26.7 -39.83)"/><path class="cls-14" d="M375.9,173.4a127.33,127.33,0,0,0-5.15-12.1,3,3,0,0,1-.33-1.47,27.46,27.46,0,0,1,6,11.81A2.29,2.29,0,0,0,375.9,173.4Z" transform="translate(-26.7 -39.83)"/><path class="cls-11" d="M406.22,98.36c1.77.13,2.5,1.41,3.11,2.81-1.11-.39-1.27.52-1.62,1.18-.82,1.58-1.23,3.39-2.68,4.6Q405.63,102.66,406.22,98.36Z" transform="translate(-26.7 -39.83)"/><path class="cls-6" d="M408.61,170.27c-1.92,1.24-3.92.73-5.92.32C404.63,169.84,406.63,170.22,408.61,170.27Z" transform="translate(-26.7 -39.83)"/><path class="cls-6" d="M419.06,179.32a1.11,1.11,0,0,1,1.36.58A1.07,1.07,0,0,1,419.06,179.32Z" transform="translate(-26.7 -39.83)"/><path class="cls-6" d="M401.88,170.6a1.07,1.07,0,0,1-1.55.06A2.42,2.42,0,0,1,401.88,170.6Z" transform="translate(-26.7 -39.83)"/><path class="cls-6" d="M399.51,170.67l-.53.19Z" transform="translate(-26.7 -39.83)"/><path class="cls-11" d="M410.54,103.13l.32.42Z" transform="translate(-26.7 -39.83)"/><path class="cls-11" d="M409.78,101.94l.33.41Z" transform="translate(-26.7 -39.83)"/><path class="cls-11" d="M409.34,101.18l.3.42Z" transform="translate(-26.7 -39.83)"/><path class="cls-19" d="M472.76,162.19c-.16,7,1.24,13.79,1.74,20.73-1.53-1.66-1.69-3.79-2-5.84-.46-3.55-.75-7.13-1.16-10.69a6.33,6.33,0,0,1,.71-4.16Z" transform="translate(-26.7 -39.83)"/><path class="cls-20" d="M433.38,67.59a13.46,13.46,0,0,0-7-1.27c-1,.09-1.48.3-1.67,1.42a16.48,16.48,0,0,0-.08,7.36,2.34,2.34,0,0,1-1.4,2.76,3.43,3.43,0,0,1-3.37-.08c-.27-.15-.59-.42-.4-.79a1,1,0,0,1,.62-.32,5.35,5.35,0,0,1,1,0c2,0,2.75-.63,2-2.42-1.32-3.28.59-6.08,1-9.09.1-.79,1-1.08,1.9-1.07,2.48,0,5-.36,7.29,1A5.16,5.16,0,0,1,433.38,67.59Z" transform="translate(-26.7 -39.83)"/><path class="cls-20" d="M412.5,61.36a15.52,15.52,0,0,1,6.05,1.24c.7.25,1.69.52,1.32,1.56s-1.2.71-2,.5c-1.8-.48-3.54-1.31-5.5-1-.92.15-1.73,1.09-2.77.39A8.31,8.31,0,0,1,412.5,61.36Z" transform="translate(-26.7 -39.83)"/><path class="cls-19" d="M468.91,181.17c-.37-2.68-.82-5.21-1.05-7.76a34.87,34.87,0,0,1,.06-4.9c0-.43.2-1,.78-1s.61.59.58,1c-.25,3.86.58,7.69.37,11.55C469.63,180.41,469.72,180.76,468.91,181.17Z" transform="translate(-26.7 -39.83)"/><path class="cls-21" d="M371.39,145.28l-.09.45Z" transform="translate(-26.7 -39.83)"/><path class="cls-2" d="M365.1,174.38c0,.28-.17.45-.39.33a.65.65,0,0,1-.24-.46c0-.18.08-.42.34-.26S365,174.27,365.1,174.38Z" transform="translate(-26.7 -39.83)"/><path class="cls-2" d="M364,171.52l-.17.33c-.06-.1-.17-.21-.17-.32s.09-.21.15-.32Z" transform="translate(-26.7 -39.83)"/><path class="cls-19" d="M418.52,92.74A33.19,33.19,0,0,1,409.35,90c-.38-.19-.69-.45-.51-.92.24-.63.7-.44,1.13-.23a19.28,19.28,0,0,0,8.84,2.2c.47,0,1.17.17,1.07.88S419,92.62,418.52,92.74Z" transform="translate(-26.7 -39.83)"/><path class="cls-20" d="M420,83.3a14.73,14.73,0,0,1-4.78-2.66c-.34-.29-.75-.69-.34-1.16s.93-.3,1.37.1a10.66,10.66,0,0,0,4.29,2.24c.56.15,1.07.27.92,1S420.69,83.29,420,83.3Z" transform="translate(-26.7 -39.83)"/><path class="cls-20" d="M417.83,68.59c-.05.67-.39,1-.92.74a5.27,5.27,0,0,0-3.79,0,.57.57,0,0,1-.8-.32.79.79,0,0,1,.2-.89c1-1.06,3.88-1.13,4.87-.09C417.56,68.23,417.71,68.44,417.83,68.59Z" transform="translate(-26.7 -39.83)"/><path class="cls-20" d="M428.85,68.8a7.75,7.75,0,0,1,1.11.3c.64.25,1.65.39,1.24,1.37s-1.07.11-1.63,0a3.93,3.93,0,0,0-2.49.09c-.48.19-1.06.51-1.32-.19s.32-.89.79-1.14A4.51,4.51,0,0,1,428.85,68.8Z" transform="translate(-26.7 -39.83)"/><path class="cls-9" d="M341.86,176.71c-.19-.68-.71-1.24-.92-1.93a11.82,11.82,0,0,1-.51-2.57c-.05-.64-1.05-.64-1,0a14.66,14.66,0,0,0,.5,2.61,5.54,5.54,0,0,0,.36,1,9.8,9.8,0,0,1,.61,1.15.5.5,0,0,0,1-.27Z" transform="translate(-26.7 -39.83)"/><path class="cls-9" d="M353.78,175.24a3.42,3.42,0,0,1-.71.89.5.5,0,0,0,.71.71,5.43,5.43,0,0,0,.58-.69,1,1,0,0,0,.21-.29c0-.1,0-.08-.05.06a.57.57,0,0,0,.12-.18c.28-.58-.59-1.09-.86-.5Z" transform="translate(-26.7 -39.83)"/><path class="cls-9" d="M351.62,178.78a.5.5,0,0,0,0-1,.5.5,0,0,0,0,1Z" transform="translate(-26.7 -39.83)"/><path class="cls-9" d="M352.83,176.39l-.18.27c-.13.2,0,0,0,0a1.14,1.14,0,0,0-.17.15,9.2,9.2,0,0,0-.72.68c-.45.46-1,.83-1.44,1.28a.5.5,0,0,0,.71.71c.47-.47,1-.86,1.5-1.34a6.3,6.3,0,0,0,1.15-1.24c.31-.57-.56-1.07-.86-.5Z" transform="translate(-26.7 -39.83)"/><path class="cls-9" d="M350.61,178.56a2.16,2.16,0,0,0-.59.37.5.5,0,0,0,.51.86h0l-.39-.92L350,179a.51.51,0,0,0,.61.79l.25-.16.12-.11c.48-.38-.13-1-.61-.78a4.51,4.51,0,0,0-1,.73c-.25.2-.71.25-.77.64a.52.52,0,0,0,.23.56c.91.43,2.21-.93,2.55-1.66s-.59-1.09-.86-.51a2.26,2.26,0,0,1-.57.73l-.32.26c-.06.05-.49.22-.29.32l.23.56v0l-.23.29a3.41,3.41,0,0,0,.74-.45,2.86,2.86,0,0,1,.76-.57l-.61-.79c-.31.25.15-.06-.17.12l.61.78,0,0c.42-.31.19-1.13-.39-.92l-.23.1.51.86.25-.18c.08-.06.37-.17.1-.08.61-.2.34-1.17-.27-1Z" transform="translate(-26.7 -39.83)"/><path class="cls-9" d="M349.4,179.71a6.68,6.68,0,0,1-1,.47c-.52.23-.15,1.07.39.91a1.22,1.22,0,0,0,.24-.1.5.5,0,0,0-.25-.93c-.43,0-.87.19-1.32.2a5.3,5.3,0,0,1-2-.29.5.5,0,0,0-.61.62c.2.57,1,.84,1.54.95a3.39,3.39,0,0,0,2.5-.52c.54-.34,0-1.21-.51-.86a2.29,2.29,0,0,1-1.35.41,3.33,3.33,0,0,1-.94-.18c-.07,0-.34-.24-.28-.07l-.62.62a6,6,0,0,0,2.05.36c.29,0,.6,0,.89-.07a4,4,0,0,1,.66-.17l-.25-.93h0l.39.91a4.75,4.75,0,0,0,1-.47c.52-.37,0-1.24-.5-.86Z" transform="translate(-26.7 -39.83)"/><path class="cls-9" d="M342,178.47a7.16,7.16,0,0,0,4,3c.61.21.87-.75.26-1a6.16,6.16,0,0,1-3.43-2.55c-.34-.55-1.2-.05-.87.5Z" transform="translate(-26.7 -39.83)"/><path class="cls-3" d="M375.21,218.65a7.5,7.5,0,0,1-.11.81c0,.32.46.31.5,0a7.17,7.17,0,0,0,.11-.81.25.25,0,0,0-.5,0Z" transform="translate(-26.7 -39.83)"/><path class="cls-3" d="M374.54,228.9a1,1,0,0,1,0,.18l.49.07c0-.09,0-.16,0-.26,0-.27-.44-.35-.49-.06s-.14.86-.19,1.29a3.3,3.3,0,0,0-.06,1.17.25.25,0,0,0,.48-.13,3.74,3.74,0,0,1,.1-1.15c0-.35.1-.7.15-1l-.49-.07c0,.05,0,.18,0,.26,0,.29.4.31.49.06a1.54,1.54,0,0,0,.05-.31c0-.32-.46-.31-.5,0Z" transform="translate(-26.7 -39.83)"/><path class="cls-3" d="M374.23,231a12.29,12.29,0,0,1-.35,2.77l.5.07c0-2,.62-3.9.74-5.9,0-.33-.48-.32-.5,0-.12,2-.75,3.86-.74,5.9,0,.27.43.35.49.07a13.71,13.71,0,0,0,.36-2.91.25.25,0,0,0-.5,0Z" transform="translate(-26.7 -39.83)"/><path class="cls-3" d="M373.85,233.86c0,.6,0,1.21,0,1.81a14.55,14.55,0,0,1,.1,1.75l.49-.07a4.74,4.74,0,0,1-.09-1.72c.05-.32-.43-.45-.48-.13a5.34,5.34,0,0,0,.09,2c.07.29.47.19.49-.07a12.75,12.75,0,0,0-.1-1.75c0-.6,0-1.21,0-1.81a.25.25,0,0,0-.5,0Z" transform="translate(-26.7 -39.83)"/><path class="cls-3" d="M373.71,242.07c0,1.28-.17,2.54-.17,3.81a.25.25,0,0,0,.5,0c0-1.27.17-2.53.17-3.81a.25.25,0,0,0-.5,0Z" transform="translate(-26.7 -39.83)"/><path class="cls-3" d="M373.54,246a9.5,9.5,0,0,1-.19,1.84h.48v-.12c0-.32-.49-.32-.5,0a1,1,0,0,0,0,.25.25.25,0,0,0,.48,0,10.06,10.06,0,0,0,.21-2,.25.25,0,0,0-.5,0Z" transform="translate(-26.7 -39.83)"/><path class="cls-3" d="M373.68,236.62c0,2.35-.15,4.7-.11,7,0,1.4-1.1,4.25.31,5.23.26.18.52-.25.25-.43-.83-.58-.23-2.47-.14-3.19a25.33,25.33,0,0,0,.06-3c0-1.88.16-3.76.13-5.64a.25.25,0,0,0-.5,0Z" transform="translate(-26.7 -39.83)"/><path class="cls-2" d="M373,244.31a14.78,14.78,0,0,1-.13,2c0,.27.05.53,0,.8s-.08.39-.08.6a.25.25,0,0,0,.5,0c0-.19.07-.37.08-.56s0-.66,0-1a12.33,12.33,0,0,0,.09-1.82.25.25,0,0,0-.5,0Z" transform="translate(-26.7 -39.83)"/><path class="cls-2" d="M372.56,248.16s0,0,0,0,0,0,0,0Z" transform="translate(-26.7 -39.83)"/><path class="cls-2" d="M372.6,248.35s0,0,0,0,0,0,0,0Z" transform="translate(-26.7 -39.83)"/><path class="cls-1" d="M373.5,248.49c0-.14,0-.84-.28-.59-.11.08,0,.22.14.14-.14.12-.06.3-.06.45a.1.1,0,0,0,.2,0Z" transform="translate(-26.7 -39.83)"/></svg>