<?xml version="1.0" encoding="utf-8"?>
<!-- Generator: Adobe Illustrator 23.0.3, SVG Export Plug-In . SVG Version: 6.00 Build 0)  -->
<svg version="1.1" id="Calque_1" xmlns="http://www.w3.org/2000/svg" xmlns:xlink="http://www.w3.org/1999/xlink" x="0px" y="0px"
	 viewBox="0 0 595.4 585.1" style="enable-background:new 0 0 595.4 585.1;" xml:space="preserve">
<style type="text/css">
	.st0{fill:#90C99A;}
	.st1{fill:#244D2C;}
	.st2{fill:#FFE64C;}
	.st3{fill:#DFDEDE;}
	.st4{fill:#888888;}
	.st5{fill:#B57263;}
	.st6{fill:#333333;}
	.st7{fill:#66ACAA;}
	.st8{fill:#FAECEC;}
	.st9{fill:#D6B3C7;}
	.st10{fill:#03587D;}
	.st11{fill:#676766;}
	.st12{fill:#362A27;}
	.st13{fill:#D84942;}
	.st14{fill:#437A7A;}
	.st15{fill:#E2B3A7;}
	.st16{fill:#FFFFFF;}
	.st17{fill:#7BB5CE;}
	.st18{fill:#2F5C5E;}
</style>
<title>illustration-banner-blog</title>
<path class="st0" d="M187.3,351.6c-0.4-2-2.3-2.7-3.7-3.7c-8.9-6.5-17.1-13.8-24.4-22c-8.5-9.2-15.9-19.3-22.1-30.1
	c-5.1-8.7-9.5-17.8-13.2-27.2c-2.8-7.3-5.1-14.7-7-22.2c-1.3-5.4-2.4-10.9-3.1-16.4c-1.4-9.1-2-18.2-1.8-27.4
	c0.1-7.1,0.8-14.2,1.6-21.3c1.2-9,3-18,5.6-26.8c2.5-9,5.7-17.7,9.7-26.1c5.7-12.1,12.4-23.7,20.8-34.2c6.1-7.8,12.9-15.2,20.2-21.9
	c7.2-6.6,14.9-12.6,23.1-18.1c8.7-5.9,18-10.9,27.7-15c11.8-5.1,24.2-8.9,36.8-11.4c6.1-1.2,12.4-2,18.6-2.5
	c6.1-0.7,12.2-1,18.4-0.8c6.9,0.4,13.7,0.8,20.6,1.6c7.2,0.9,14.4,2.3,21.4,4c10.6,2.7,20.9,6.4,30.9,11c6.9,3.1,13.6,6.8,20.1,10.8
	c8.1,5.1,15.7,10.8,23,17c6.4,5.7,12.5,11.7,18.1,18.2c15,17.4,26.5,37.6,33.9,59.3c3.3,9.5,5.7,19.3,7.3,29.3
	c1.8,11.6,2.6,23.3,2.2,35c-0.2,8.9-1.2,17.8-2.9,26.5c-2,10.6-4.9,21-8.8,31c-6.1,16.2-14.6,31.5-25.2,45.3
	c-4.9,6.4-10.2,12.4-15.9,18c-0.7,0.7-1.6,1.3-1.5,2.5c-4.1-0.3-8.2,0.6-11.9,2.5c-2.1,1.2-4.3,2.2-6.6,3c-4.6,1.5-8.3,5-10,9.5
	c-1,2.5-0.9,5-1.1,7.6c-7.1,4-14.2,8.1-21.8,11.4c-6.4,2.9-13,5.4-19.7,7.5c-1.4,0.4-3.1,0.5-4.1,2c-0.7-0.7-1.4-0.3-2.2-0.1
	c-7.2,2-14.5,3.5-21.9,4.7c-6.9,1-13.9,1.4-20.9,2H288l-4.4-0.2c-12.5-0.6-25-2.5-37.1-5.7c-4.3-0.9-8.3-2.6-12.7-3.3
	c-0.3-0.3-0.6-0.5-0.9-0.6c-6-2.2-12-4.7-17.8-7.4c-6.8-3.3-13.5-7-19.9-11C192.6,354.4,190.6,351.8,187.3,351.6z M338.4,345.9
	c0.5-0.1,1.1-0.2,1.6-0.3c9.1-2.9,17.9-6.8,26.1-11.6c17.3-10,32.5-23.3,44.8-39.2c3.9-5.2,7.5-10.7,10.8-16.3
	c4.7-8,8.5-16.4,11.5-25.2c2.5-7.1,4.4-14.3,5.8-21.7c1.4-7.3,2.2-14.7,2.4-22.1c0.1-4.9,0-9.8-0.3-14.7c-0.6-9.3-2.1-18.5-4.4-27.5
	c-2.7-10.5-6.5-20.8-11.4-30.4c-4.7-9.2-10.3-17.9-16.8-26c-7.3-9-15.6-17.2-24.7-24.3c-9.3-7.2-19.3-13.3-30-18.1
	c-7.6-3.5-15.5-6.3-23.6-8.5c-6-1.5-12.1-2.7-18.2-3.5c-6.4-0.9-12.8-1.5-19.2-1.6c-6,0-11.9,0.3-17.9,1.2
	c-10,1.2-19.9,3.4-29.5,6.5c-12.2,4-23.8,9.5-34.6,16.5c-8.3,5.5-16.1,11.7-23.3,18.5c-4.9,4.5-8.9,9.7-13,14.9
	c-6.6,8.3-12.3,17.4-16.9,27c-3.7,7.8-6.8,15.8-9.2,24.1c-3.1,10.4-4.9,21.2-5.4,32c-0.3,6.9-0.2,13.9,0.3,20.8
	c0.7,7.9,1.9,15.8,3.8,23.6c2.5,10.6,6.2,20.8,11.1,30.6c3.8,7.6,8.1,14.8,13.1,21.7c4.6,6.3,9.7,12.3,15.3,17.8
	c13.3,13.4,29.1,24.2,46.5,31.6c4.2,1.9,8.6,3.5,13.1,4.8c2.4,0.8,4.9,1.6,7.4,2.2c11.1,3,22.4,4.7,33.9,5.1c2.3,0.1,3-0.7,2.9-2.9
	c-0.2-1.4,0-2.9,0.5-4.2c0.6,1.5,0.9,3.1,0.9,4.6c0.1,1.8,0.8,2.5,2.7,2.5c11.4-0.2,22.7-1.7,33.7-4.5
	C331.6,348.4,335.2,347.8,338.4,345.9z"/>
<path class="st1" d="M187.3,351.6c3.2,0.2,5.2,2.8,7.8,4.3c6.4,4,13.1,7.7,19.9,11c5.8,2.7,11.8,5.1,17.8,7.4
	c0.3,0.2,0.7,0.4,0.9,0.6c-0.4,1.1-0.8,2.2-1.4,3.2c-4.5,9.2-9.1,18.5-13.6,27.7L200.9,442c-5.8,11.7-11.6,23.4-17.3,35.2
	c-9.4,19-18.8,38-28.2,56.9c-0.5,0.8-0.9,1.7-1,2.6c-1.7,3.3-3.5,6.6-5.1,9.9c-0.8,1.7-1.4,1.9-3.1,1c-6.2-3.6-12.6-6.9-18.9-10.3
	c-6-3.4-12-6.8-18.1-10.2c-6.9-3.9-13.8-7.8-20.8-11.5c-1.8-1-1.1-1.9-0.4-3c4.7-7.7,9.5-15.3,14.2-23c10.7-17.3,21.3-34.5,32-51.8
	c8.8-14.2,17.6-28.4,26.4-42.6c8.7-14,17.3-28,26-42C187,352.6,187.2,352.1,187.3,351.6z"/>
<path class="st1" d="M511.3,524.1c-0.1,0.4-0.2,0.7-0.3,1.1c-0.9,1.4-1.6,2.9-2.1,4.5c-0.1,0.2-0.2,0.4-0.3,0.6s-0.1,0.2-0.2,0.3
	l-0.3,0.5c-0.8,0.5-1.4,1.3-1.6,2.3c-0.1,0-0.1,0.1-0.1,0.2l-0.3,0.3l-0.6,0.7c-0.6,0.1-1.1,0.6-1.2,1.2c-0.1,0-0.2,0.1-0.2,0.2
	l-0.3,0.3c-0.1,0-0.1,0.1-0.2,0.2c-0.6,0.2-1.1,0.6-1.4,1.1l-0.5,0.4l-0.3,0.2l-0.6,0.3l-0.3,0.2l-0.7,0.3h-0.2v0.2l-0.7,0.3
	c-1,0.1-1.9,0.5-2.6,1.1c-0.1,0-0.2,0-0.3,0.1c-0.3-0.1-0.6,0-0.7,0.3c0,0,0,0,0,0l-0.7,0.2c-0.2-0.1-0.5,0-0.6,0.2c0,0,0,0.1,0,0.1
	l-0.7,0.2c-1.4,0.2-2.8,0.8-4,1.6l-15.6,5c-1.9,0.1-3.9-0.2-5.7,0.3c-3.4,0.9-6.8,1.5-10.3,2c-8.1,1.1-16.2,2.6-24.5,1.6
	c-1.4-0.6-2.8-0.1-4.2-0.3c0-1.8-0.9-3.4-1.5-5.1c-1.4-4.1-2.5-8.3-1.9-12.7c13-7.8,25.6-16.1,38.5-24.2c-0.4-0.6-1.3-0.7-1.9-0.2
	c0,0-0.1,0.1-0.1,0.1c-2.8,1.8-5.6,3.5-8.5,5.3l-25.7,16.3c-0.5,0.5-1.2,0.7-1.9,0.7c-0.2-0.7,0.5-1.9-1-1.8
	c-4.7,0.2-9.9,5.5-10.1,10.4c-0.8-0.2-1.7-0.1-2.4,0.4c0.2-1.9-1-3-2.5-3.8s-2.8-1.7-4.2-2.5c-1-0.7-2.3-0.6-3.2,0.2
	c-1.1-0.3-2-0.8-2.8-1.7c-4.4-3.5-8.7-7.2-13.2-10.7c-9.7-7.4-19.2-15.1-28.7-22.7c-1.2-1-2.4-2.1-4-2.3c-0.3,0.7,0.1,0.8,0.4,1
	c4.5,3.6,9.1,7.3,13.6,11c8.4,6.6,16.8,13.3,25.3,19.8c3.1,2.3,5.7,5.3,9.3,6.9c-0.8,5.3-2.4,10.4-5.7,14.7c-2.1,2.7-4,5.6-7.5,6.6
	c-0.3-0.2-0.5-0.3-0.8-0.5c-11.9-3.8-23.6-8.2-35-13.3l-1-0.4c-7.8-4.1-15.4-8.6-21.9-14.7c-2.6-2.9-5.6-5.4-8-8.5
	c-3.8-4.8-6.7-9.9-6.5-16.3c0.2-5,2.5-9.2,5.4-13.2l5-3.5c3.5-1.1,7.1-1,10.7-1.1c1.4,0.2,2.9,0.4,4.3,0.8c2.3,0.7,4.7,1.3,7.1,1.7
	l0,0c2.8,1.5,5.8,2.8,8.9,3.8c5,2.9,10.5,4.4,16,5.7c4.1,1.3,8.3,2,12.4,2.9c18.2,4.1,36.8,5.6,55.4,4.4c4.9-0.4,9.8-0.1,14.6-1.2
	c7.6-0.4,15.1-1.8,22.4-4.2c4.7-1.4,9.5-2.3,14.4-2.6c10.5-0.6,16,3.3,18.6,12.4c0.9,4.1,1,8.3,0.4,12.5l-0.1,1.1
	C511.4,523.5,511.2,523.9,511.3,524.1z"/>
<path class="st2" d="M455.8,504.1c-4.8,1.1-9.8,0.9-14.6,1.2c-18.6,1.2-37.2-0.2-55.4-4.4c-4.2-0.9-8.4-1.6-12.4-2.9
	c-0.1-3.6-0.2-7.2-0.4-10.9l28.1-0.1c0.8,0,1.6,0,2.3-0.2c9.6-2.7,19.2-5.3,28.8-8c0.7-0.2,1.7-0.2,1.7-1.3s-1-1.4-1.8-1.5
	c-1.8-0.3-3.7-0.5-5.6-0.6c-7-0.3-14-0.7-21-0.7c-2.5,0-2.7-1.2-3-3.1c-0.8-6.5-1.8-12.9-2.6-19.4c-1-7.6-2-15.3-3.1-22.9
	c1.9,0,3.9,0,5.8,0.1c1.4,0,2.5-0.3,2.6-2s-1-2.1-2.5-2c-2.2,0-4.4,0-6.5,0c-0.7-2.1-2.3-2.4-4.2-2.4c-9.5,0-18.9,0-28.4-0.1
	c0.8-3.1,2.1-6,3.9-8.7c3.9-6.9,9.4-11.7,17.2-13.5c0.1,0.6-0.1,1.3-0.7,1.6c-0.5,0.4-0.9,1-0.3,1.3c1.6,0.9,0.8,2.1,0.4,3.1
	c-0.8,2.5-2,4.7-3.7,6.7c-0.9,1.1-2.9,2.2-2.8,3.1c0.1,1.4,2.5,1.5,3.5,2.6c3,3.1,6.5,3.7,10.4,2.2c1.5-0.7,3.2-0.2,4.2,1.1
	c1.4,1.7,3.2,2,5.3,1.6c1.6-0.3,2.3-0.9,1.7-2.7c-1.2-4-1.9-8.2-2-12.4c4,0.7,4,0.7,5-3.2c0.3-0.9,0.5-1.8,0.6-2.7
	c0.1-0.9,0-1.9,1-2.4c2.3,5,3.3,10.4,4.2,15.9c1.8-6.1,4.7-11.9,8.3-17.2c1.2,2.4,2.1,5,3.8,7.1l0,0c0,0.4,0.1,0.7,0.5,0.9
	c2.3,4.2,2.8,9.3,1.3,13.9c1.2,0.2,1.9-0.5,2.6-0.8c3.7-1.4,7.4-2.7,11.3-1.1c2.7,1.3,5.9,0.8,8-1.3c1.8-1.6,3.8-2.6,6.4-1.8
	c0.8,0.2,1.7,0.2,2.5,0c3.2-0.7,3.8-2.2,1.8-4.7c-0.3-0.4-0.7-0.8-1.1-1.2c-2.3-3.1-4.5-6.4-4.5-10.5c5.6,1.2,10.2,4.2,14.1,8.2
	c7.7,7.8,12.7,17.2,16.5,27.4c-2.2,0.2-4.5-0.1-6.7,0.3c-7.3,1.4-12.8,5.3-16.2,12c-0.2-0.3-0.4-0.7-0.6-1c-0.8-1.1-1.6-2.6-3.2-2.3
	s-1.6,2.1-1.9,3.4c-0.6,3.7-0.5,7.4,0.1,11.1c-0.7,1.7-2,2.9-3,4.4c-1.3,1.9-2.4,4.1-1.6,6.3c0.9,2.9,1.2,6.1,0.6,9.1
	c0,0.5,0,1.1,0,1.6c0,0.7-0.2,1.5,0.8,1.7s1.3-0.5,1.6-1.1c0.6-1,1-2.1,1.5-3.1l0.8,0.5l0,3.5v1.2
	C455.1,490.3,455.6,497.2,455.8,504.1z M424.7,422.4l-0.3-0.1c0,0.1,0,0.2,0,0.2C424.5,422.5,424.6,422.4,424.7,422.4L424.7,422.4z"
	/>
<path class="st3" d="M352.4,543.5l1,0.4c0,0.5-0.1,0.9-0.3,1.3c-1.8,3.1-2,6.9-0.7,10.3c-32.5,0-64.9,0.2-97.3-0.1
	c-14.1-0.2-28.1,0.1-42.2-0.5c-10.3-0.4-20.6,0.2-30.8-0.4c-8.5-0.5-17,0.1-25.4-0.5c-6.7-0.5-13.4,0-20.1-0.4
	c-9.2-0.5-18.3-0.4-27.5-1c-7.5-0.4-15-0.7-22.6-0.9c-8.1-0.2-16.3-0.6-24.4-1.4c-9.2-0.9-18.6-1-27.7-2.8c-1.3-0.3-2.6-0.6-3.9-1
	c-0.6-0.2-1.4-0.3-1.3-1.1c0.2-0.6,0.7-1.1,1.3-1.1c2.7-0.5,5.5-1,8.2-1.4c8.4-1.3,17-1.5,25.4-2.3c3.2-0.3,6.3-0.3,9.5-0.5
	c12.4-0.8,24.8-1.2,37.2-1.6c4.7-0.1,9.5-0.1,14.2-0.3c0.8,0,1.8,0.4,2.1-0.9c6.3,3.4,12.7,6.8,18.9,10.3c1.7,1,2.3,0.7,3.1-1
	c1.6-3.4,3.4-6.6,5.1-9.9c1.9,1.4,3.8,0,5.6,0c8.4-0.1,16.8,0.1,25.2-0.3c12.3-0.6,24.6,0,36.9-0.5c11-0.5,22-0.1,33-0.1
	c-0.5,0.6-0.9,1.2-1.4,1.9c-1.6,2.3-1.3,3,1.2,4.2c3.3,1.3,6.8,2,10.4,1.9c4.7,0.1,9.4,0.1,14.1,0c2,0,4-0.2,6-0.7
	c4.2-1,4.6-2.4,1.6-5.5c-0.4-0.4-0.7-0.8-1-1.2c0.8-0.8,1.8-0.4,2.7-0.4c12.5,0,25,0,37.6,0l-3.3,3.6c-0.8,0.9-2.1,1.8-1.6,3.1
	s1.9,1.5,3.1,1.7c8.4,1.7,16.8,1.2,25.3,0.2C350.5,544.4,352,545,352.4,543.5z"/>
<path class="st4" d="M452.6,400c0,4.1,2.2,7.4,4.5,10.5c0.3,0.4,0.7,0.8,1.1,1.2c1.9,2.5,1.4,4-1.8,4.7c-0.8,0.2-1.7,0.2-2.5,0
	c-2.6-0.8-4.6,0.3-6.4,1.8c-2.1,2-5.3,2.5-8,1.3c-3.9-1.6-7.6-0.3-11.3,1.1c-0.8,0.3-1.4,1-2.6,0.8c1.5-4.6,1-9.6-1.4-13.9l-0.5-0.9
	l0,0c-0.1-3-1.1-6-1-9c0.1-2.5-0.1-5,0.3-7.4c0.9-5.4,2.8-10.6,4.2-15.9c0.9-3,0.3-6.2-1.7-8.6c-1.9-2.2-4.1-4-6.6-5.4
	c-0.6-1.3-1.7-2.3-3-2.8c-3.7-4.6-7.9-8.8-11-13.8c-0.5-1-1.7-1.5-2.8-1c-0.1,0-0.2,0.1-0.2,0.1c-2,0.9-3.7,2.4-4.9,4.2
	c-2.8,4.6-3.6,9.7-3.9,14.9c0,0.7,0,1.5-0.1,2.2c0.1,1.3,0.3,2.6,0.4,3.9c0.6,7.2,3,13.6,8.1,18.8c2.3,2.3,2.6,4.5,2,7.3
	c-0.2,1.1-0.5,2.1-0.7,3.2c-1.8,3.8-2,7.8-1.9,11.8c0.1,4.2,0.8,8.4,2,12.4c0.5,1.8-0.1,2.3-1.7,2.7c-2.1,0.4-3.9,0.1-5.3-1.6
	c-0.9-1.3-2.7-1.8-4.2-1.1c-4,1.5-7.4,0.9-10.4-2.2c-1.1-1.1-3.4-1.3-3.5-2.6c-0.1-0.9,1.9-2,2.8-3.1c1.6-2,2.9-4.3,3.7-6.7
	c0.3-0.9,1.1-2.2-0.4-3.1c-0.6-0.3-0.2-1,0.3-1.3c0.6-0.3,0.9-1,0.7-1.6c0.5-3.6,0-7.4,1-10.9c2.9-11,4.2-22,2.2-33.2
	c0.3-2.5,0.1-5.1,1.1-7.6c1.7-4.5,5.4-8,10-9.5c2.3-0.8,4.5-1.8,6.6-3c3.7-1.9,7.8-2.8,12-2.5c6,0.7,9.8,4.4,13,9
	c3,4.3,5.2,9,7.7,13.6c0.8,1.7,1.9,3.2,3.2,4.6c3.1,2.8,4.9,6.8,5.1,10.9c0.3,2.7,1.3,5.2,2.9,7.3c2.2,2.9,3.3,6.4,3.1,10
	C452.3,393,452.3,396.5,452.6,400z"/>
<path class="st5" d="M455.4,482.2c0-1.2,0-2.3,0-3.5c0.8-2.1,1.6-4.1,2.3-6.2s2.1-3.7,2.5-5.9l0.6-1c0.3-0.4,0.4-0.8-0.1-0.9
	s-0.6,0.4-0.6,0.9l-0.2,0.8c-0.4,0.3-0.9,0.5-1,0.9c-1.9,3.4-3.4,7.1-4.3,10.9c-0.5,1-1,2.1-1.5,3.1c-0.3,0.6-0.8,1.3-1.6,1.1
	s-0.7-1-0.8-1.7c0-0.5,0-1.1,0-1.6c0.5-3,0.3-6.2-0.6-9.1c-0.8-2.2,0.3-4.4,1.6-6.3c1-1.5,2.3-2.7,3-4.4c2.4-2.5,4.7-5.2,6.6-8.1
	c0.8,0.1,1.3-0.5,1.9-0.8c6.8-4.1,9.6-4,15.7,1.1c0.7,0.5,1.6,0.7,2.4,0.3c3-1,6.2-1,9.1,0c2.4,6.3,4.9,12.6,5.3,19.5
	c0.2,3.9-0.2,7.6-2.2,11c-3.2,5.4-7.7,6.1-12.3,1.9c-2-1.9-3.7-4.2-5.1-6.6c-0.3-0.6-0.4-1.5-1.3-1.4c-0.7,0.1-0.8,0.9-1,1.5
	c-0.9,2.1-1.6,4.2-3.3,5.9h-1.4l-1.1-0.7c0.1-1.3,0.3-2.5,0.4-3.8l-0.1-0.5c0.5-0.3,0.7-0.8,0.7-1.3l0.3-0.9c1.1-2,1.7-4.2,1.8-6.4
	l-0.8-0.3l-4,10.9l-1.9,2.8l-0.9,0.6h-1l-0.9-0.6l-0.2-0.4c0.1-0.6-0.1-1.2-0.4-1.7c0.1,0,0.2-0.2,0.1-0.3c0,0,0,0,0,0
	c0.5-0.9,0.7-1.9,0.5-2.8c1.7-3.2,3.1-6.5,4.1-10c0.1-0.5,0.4-1.2-0.3-1.4s-0.8,0.6-1,1.1c-1.1,3.1-2.2,6.3-3.2,9.4
	c-0.3,0.1-0.4,0.2-0.4,0.5l-1.8,4.2l-1,1.1C456.8,483.3,455.9,483,455.4,482.2z M461.2,464.1l0.1,0.1V464L461.2,464.1z"/>
<path class="st3" d="M499.7,539l0.7-0.3h0.5c6.5-0.1,13.1,0.4,19.6,0.6c8.4,0.2,16.8,1.3,25.2,1.7c5.5,0.2,11,0.6,16.5,1.1
	c5.2,0.5,10.2,1.5,15.4,2.3c0.8,0.1,1.7,0.5,1.6,1.4s-1,0.8-1.7,1c-5.2,1.3-10.5,2.1-15.8,2.3c-8.9,0.6-17.7,1.7-26.6,2
	c-5.8,0.2-11.6,0.6-17.4,0.8c-8.5,0.3-16.9,0.4-25.4,1c-4,0.3-8.1,0.2-12.1,0.4c-1-0.6-1.9-1.3-2.7-2.1c-1.1-1.2-3.1-1.3-4-2.9
	l15.6-5c1.5-0.2,3-0.3,4-1.6l0.7-0.2c0.3,0.1,0.5,0,0.6-0.3l0.7-0.2c0.3,0.1,0.6,0.1,0.7-0.3c0.1-0.1,0.2-0.1,0.3-0.1
	c1-0.1,2-0.1,2.6-1.1l0.7-0.3h0.1L499.7,539z"/>
<path class="st6" d="M473.6,548.3c0.9,1.5,2.8,1.6,4,2.9c0.8,0.8,1.7,1.5,2.7,2.1c1.5,2.7,3.3,5.2,4.4,8.1c1.2,3,0.6,6.5-1.7,8.9
	c-2.9,3.7-7.6,5.5-12.2,4.6c-9.1-1.4-18.4-1.6-27.5-0.6c-5.5,0.6-10.5-0.3-14.5-4.5c-0.2-2.4-0.9-4.8,0.1-7.1
	c0.8,1.1,0.3,2.4,0.4,3.6c0.1,2.9,0.8,3.5,3.6,2.8c0.6-0.1,1-0.8,1.8-0.6c0.1,0.3,0.1,0.7,0.2,1c0.1,0.6-0.4,1.6,0.6,1.7
	c0.8,0,1-0.9,1.2-1.6c0.5-1.4,0.9-2.8,1.2-4.2c0.6-2.5,0.9-5.2,0.7-7.8c0-0.9-0.4-1.7-1.2-1.7c-1,0-0.5,1.1-0.6,1.7s0.2,1.3-0.4,2.1
	c-1-1.5-2.1-2.9-3.9-3.1c0.4-1.4,1.3-2.7,0.7-4.3c8.3,1,16.4-0.5,24.5-1.6c3.5-0.5,6.9-1.1,10.3-2
	C469.6,548.1,471.6,548.4,473.6,548.3z M446,560.6c0.5,0.7,0.7,1.6,0.6,2.5c0.3,2.6-0.7,5.1-0.5,7.6c0,0.5-0.2,1.2,0.4,1.4
	s1.1-0.5,1.3-1.1c0.2-0.3,0.3-0.7,0.4-1.1c0.3-3.8,0.3-7.6,0.1-11.4c0-0.9-1-2.1-1.8-1.8c-1,0.4-2.9-0.1-2.8,1.9
	c0,3.9-1,7.7-2.8,11.1c-0.3,0.6-1.1,1.5,0,2s1.5-0.6,1.9-1.2c0.2-0.4,0.3-0.9,0.4-1.3L446,560.6z M441.9,560.2c0-0.5,0-0.9,0-1.4
	c0-0.9,0.2-2.2-1.1-2.1s-0.8,1.4-0.7,2.1c0.2,3.3-0.4,6.5-1.5,9.6c-0.2,0.6-0.3,1.2-0.4,1.8c0,0.6-0.3,1.4,0.5,1.6
	c0.9,0.3,0.9-0.7,1.1-1.2C441.3,567.3,441.4,563.7,441.9,560.2L441.9,560.2z M453.6,560c-0.1-1,0.2-1.8-0.3-2.5
	c-0.2-0.4-0.7-0.8-1-0.8c-0.6,0-0.6,0.6-0.6,1.1c0.1,3.8-0.6,7.6-1.9,11.2c-0.2,0.6-0.8,1.4,0.2,1.8s1.2-0.6,1.4-1.2
	C452.6,566.5,453.3,563.3,453.6,560L453.6,560z M461.4,561.8c0.1-1.2,0.1-2.3,0-3.5c-0.1-0.7-0.7-1.3-1.5-1.2c-1,0.1-0.8,1-0.6,1.7
	c0.7,3.1,0.6,6.4-0.3,9.4c-0.2,0.9-0.5,1.9,0.6,2.1s1.4-1,1.4-1.8C461.2,566.4,461.8,564.2,461.4,561.8L461.4,561.8z M458.4,559.9
	c-0.1-1.2-0.4-2.1-1.6-2.4c-0.7-0.2-0.9,0.4-0.9,1c0.3,3.5-0.3,7-1.8,10.2c-0.2,0.5-0.4,1.3,0.4,1.6s1.3-0.4,1.5-1
	C456.8,566.2,457.6,563,458.4,559.9L458.4,559.9z"/>
<path class="st6" d="M352.4,555.6c-1.4-3.4-1.1-7.2,0.7-10.3c0.2-0.4,0.3-0.9,0.3-1.3c11.4,5.1,23.1,9.6,35,13.3
	c0.3,0.1,0.6,0.3,0.8,0.5c-0.5,2.2,1.2,3.2,2.5,4.4c-1,1.2-2.4,0.8-3.7,1c-8,1.4-16.1,2.1-24.1,0.3
	C359.3,562.3,354.9,560.2,352.4,555.6z"/>
<path class="st5" d="M428.8,562.6c-1,2.3-0.3,4.7-0.1,7.1h-2.4c-0.4-0.4-0.9-0.5-1.4-0.3c-5.7-1.2-10.5-4.6-15.8-6.6
	c-2.2-0.8-4.4-1.8-6.6-2.7c0.3-0.9,0.9-1.8,1.6-2.5c3.6-5,7.1-10.2,8.2-16.4c0.7-0.4,1.6-0.6,2.4-0.4c0.9,5.8,7.6,11.1,14.1,11.1
	c1.4,0.2,2.9-0.3,4.2,0.3c0.6,1.6-0.3,2.9-0.7,4.3c-0.1,0-0.3,0.1-0.4,0.2c-0.5,0-0.9,0.3-1,0.8c-0.5,0.2-0.8,0.7-0.9,1.2
	c-0.7,0.7-1.1,1.6-1.1,2.6C428.9,561.7,428.9,562.1,428.8,562.6z"/>
<path class="st1" d="M490.3,451.9c-3-1-6.2-1-9.1,0c-0.8,0.3-1.7,0.2-2.4-0.3c-6.1-5.1-8.9-5.3-15.7-1.1c-0.6,0.4-1.1,0.9-1.9,0.8
	c-0.4-1.1-0.7-2.1-1-3.2c3.4-6.7,8.9-10.6,16.2-12c2.2-0.4,4.5-0.1,6.7-0.3c2.6-0.2,3.7,1.2,4.3,3.6c0.9,3.6,2.2,7,3.3,10.6
	C490.9,450.5,491.9,451.6,490.3,451.9z"/>
<path class="st7" d="M412.3,541c-1.1,6.3-4.5,11.4-8.2,16.4c-0.7,0.7-1.3,1.6-1.6,2.5c-1.7,1.2-2.7,3-4,4.5s-2.2,1.8-3.5,0.1
	c-0.8-1.1-2-1.9-3.3-2.4c-1.2-1.2-3-2.2-2.5-4.4c3.5-1,5.4-4,7.5-6.6c3.4-4.3,4.9-9.4,5.7-14.7V535c0.9-0.9,2.2-0.9,3.2-0.2
	c1.4,0.8,2.8,1.7,4.2,2.5S412.5,539.1,412.3,541z"/>
<path class="st8" d="M424.9,569.3c0.5-0.2,1,0,1.4,0.3C425.7,570.3,425.2,570.2,424.9,569.3z"/>
<path class="st8" d="M461.5,483.4l0.9,0.6"/>
<path class="st9" d="M500.9,538.6h-0.5l0.3-0.2C500.8,538.5,500.9,538.6,500.9,538.6z"/>
<path class="st9" d="M501.3,538.1l0.3-0.2L501.3,538.1z"/>
<path class="st9" d="M503.7,536.3l0.3-0.3L503.7,536.3z"/>
<path class="st9" d="M506,533.9l0.3-0.3L506,533.9z"/>
<path class="st9" d="M508.4,530.6c0.1-0.1,0.1-0.2,0.2-0.3L508.4,530.6z"/>
<path class="st6" d="M246,346.3l-0.1-1c0-0.3,0-0.6,0-0.9c0.1-2.5,0.2-5,0.3-7.5c0.4-0.9,0.4-1.9,0.2-2.8l0.3-6.5
	c0.4-0.9,0.5-1.9,0.2-2.8c0.8-8.6,1.2-17.3,2.4-25.9c9.3,1.5,18.7,2.2,28.1,2.4c12.8,0.3,25.6,0.1,38.4,0.1c2.3,0,4.7-0.2,7-0.6
	c2.9-0.5,5.9-1,8-3.5c2.8,14.2,4.7,28.6,6.8,42.9c-0.2,0.3-0.1,0.8,0.2,1c0.1,0.9,0.2,1.8,0.2,2.8c-0.2,0.3-0.1,0.7,0.2,1l0.1,0.9
	c-3.2,1.9-6.8,2.5-10.4,3.4c-11,2.8-22.4,4.3-33.7,4.5c-1.9,0-2.6-0.6-2.7-2.5c0-1.6-0.3-3.2-0.9-4.6c-0.5,1.3-0.7,2.8-0.5,4.2
	c0.1,2.2-0.6,2.9-2.9,2.9c-11.5-0.4-22.9-2.1-33.9-5.1C250.9,347.9,248.5,347.1,246,346.3z"/>
<path class="st6" d="M246.8,396.4l-0.3-9.3c0.2-0.9,0.2-1.9-0.2-2.8c0.3-2-0.4-4,0.1-5.9c12.1,3.2,24.6,5.1,37.2,5.7l4.4,0.2
	l-0.2,7.5c-0.3,0.4-0.3,1-0.1,1.5l-0.5,8.4v0.5c-0.2,2.9-0.4,5.7-0.6,8.6c-1.5,26.9-3.1,53.8-4.6,80.7c-0.1,0.8,0,1.7,0.4,2.5
	c1.3,2.6,1.5,5.6,0.5,8.4l-0.5,0.4c-1.3,0.1-2.6-0.1-3.8,0.4l-20.6,0.3c-1.6-0.1-3.3-0.2-4.9-0.3c-3.5-0.2-5.6-3.2-3.8-6
	c2.3-3.5,1.8-7.1,1.6-10.7c-0.9-20-1.8-40-2.6-60c-0.5-9.2-0.9-18.4-1.3-27.6C247.2,398,247.2,397.1,246.8,396.4z"/>
<path class="st6" d="M342.3,377.6c1.5,15.1,3.1,30.3,4.6,45.4h-41.7l-8-38.8c7-0.6,14-1.1,20.9-2c7.4-1.1,14.7-2.7,21.9-4.7
	C340.9,377.4,341.6,376.9,342.3,377.6z"/>
<path class="st10" d="M305.2,423h41.7c5.5,0.2,11.1,0.2,16.6,0c9.5,0,18.9,0.1,28.4,0.1c1.9,0,3.5,0.4,4.2,2.4
	c0.2,1.3,0.4,2.6,0.6,3.9c1,7.6,2,15.3,3.1,22.9c0.9,6.5,1.8,12.9,2.6,19.4c0.2,1.9,0.5,3.1,3,3.1c7,0.1,14,0.4,21,0.7
	c1.9,0.1,3.7,0.3,5.6,0.6c0.8,0.1,1.8,0.4,1.8,1.5s-1,1.1-1.7,1.3c-9.6,2.7-19.2,5.3-28.8,8c-0.8,0.2-1.5,0.2-2.3,0.2l-28.1,0.1
	l-14.3-0.1c-0.7-1.8-0.9-3.8-0.4-5.7c0.7-3.2,0.2-6.5-1.6-9.2c-1.1-1.7-2.8-2.9-3.1-5.1c-0.1-0.6-0.6-1-1.1-1.1
	c-3.1-0.7-5,0.5-5.9,3.6c-1.4,4.4-1.2,9.1-2.2,13.5c-0.2,0.7-0.1,1.5-1.1,2c-0.2-1-0.2-2.1,0.1-3.1c0.5-2.5,1.4-5,1.2-7.6
	c-0.1-0.9,0-1.8-1.1-2.1c-0.9-0.2-1.8,0.2-2.2,1c-0.5,0.7-0.9,1.5-1.2,2.3c-1.4,3.4-2.4,6.9-3,10.5c-3.6,0.2-7.2,0-10.7,1.1
	c-2-0.3-4-0.3-5.9,0.1c-2.1-0.4-4.2-0.1-6.3-0.2c-2.8-0.1-3.6-0.8-4-3.4c-1.7-12.1-3.4-24.2-5.1-36.2c-0.9-6.2-1.8-12.5-2.7-18.7
	C302,425.1,302.3,424.2,305.2,423z"/>
<path class="st5" d="M337.1,486.1c0.7-3.6,1.7-7.1,3-10.5c0.3-0.8,0.7-1.6,1.2-2.3c0.4-0.8,1.3-1.2,2.2-1c1.1,0.3,1,1.2,1.1,2.1
	c0.2,2.6-0.7,5.1-1.2,7.6c-0.3,1-0.3,2.1-0.1,3.1c1-0.5,1-1.3,1.1-2c1-4.5,0.8-9.1,2.2-13.5c1-3.1,2.9-4.3,5.9-3.6
	c0.6,0.1,1,0.5,1.1,1.1c0.3,2.2,2,3.5,3.1,5.1c1.7,2.7,2.3,6,1.6,9.2c-0.5,1.9-0.3,3.9,0.4,5.7c0.3,2,0.3,3.8-1.4,5.2
	c-3.1-1-6-2.3-8.9-3.8c1.4-0.5,1.3-1.8,1.4-2.7c0.7-5.6,1.2-11.3,1.8-16.9c0.1-0.8-0.3-1.5-1-1.8c-0.3,7.4-1.8,14.3-2.2,21.5
	c-2.4-0.4-4.8-1-7.1-1.7C340,486.6,338.5,486.4,337.1,486.1z M355.2,473.1h-0.6c-0.3,4.7-0.7,9.4-1,14.1
	C355.4,482.6,355.4,477.9,355.2,473.1L355.2,473.1z"/>
<path class="st11" d="M326.2,535.9c2.3-1.8,4-4,4.3-7.1c6.5,6,14.1,10.5,21.9,14.7c-0.5,1.6-1.9,0.9-2.8,1c-8.4,1-16.9,1.5-25.3-0.2
	c-1.2-0.2-2.7-0.3-3.1-1.7s0.8-2.2,1.6-3.1L326.2,535.9z"/>
<path class="st7" d="M428.8,551.8c-6.5-0.1-13.1-5.4-14.1-11.1c0.1-4.9,5.3-10.3,10.1-10.4c1.6,0,0.8,1.1,1,1.8
	c-0.4,0.6-0.6,1.3-0.4,2c-0.6,4.4,0.6,8.6,1.9,12.7C427.9,548.4,428.8,550,428.8,551.8z"/>
<path class="st12" d="M402.5,535v1.3c-3.6-1.6-6.2-4.5-9.3-6.9c-8.5-6.5-16.9-13.2-25.3-19.8c-4.6-3.6-9.1-7.3-13.6-11
	c-0.3-0.2-0.7-0.4-0.4-1c1.7,0.2,2.8,1.4,4,2.3c9.6,7.6,19,15.3,28.7,22.7c4.5,3.4,8.8,7.1,13.2,10.7
	C400.5,534.1,401.4,534.7,402.5,535z"/>
<path class="st12" d="M425.4,534.1c-0.2-0.7,0-1.4,0.4-2c0.7,0,1.4-0.2,1.9-0.7l25.7-16.3c2.8-1.8,5.6-3.6,8.5-5.3
	c0.5-0.5,1.4-0.5,1.9,0c0,0,0.1,0.1,0.1,0.1C451,517.9,438.4,526.3,425.4,534.1z"/>
<path class="st12" d="M348.5,488.6c0.4-7.1,2-14.1,2.2-21.5c0.7,0.3,1.1,1,1,1.8c-0.6,5.6-1.1,11.3-1.8,16.9
	C349.8,486.9,349.9,488.1,348.5,488.6L348.5,488.6z"/>
<path class="st13" d="M320.6,487.3c2-0.3,3.9-0.3,5.9-0.1l-5,3.5C321.2,489.6,320.8,488.5,320.6,487.3z"/>
<polygon class="st3" points="499.7,539 499.7,539.1 499.5,539.1 499.6,538.9 "/>
<path class="st5" d="M418.7,360.4c2.5,1.4,4.8,3.2,6.6,5.4c2,2.4,2.7,5.6,1.7,8.6c-1.4,5.3-3.3,10.5-4.2,15.9
	c-0.4,2.5-0.1,5-0.3,7.4c-1.3,0.1-2.5,0.4-2.8,2c-3.7,5.2-6.5,11-8.3,17.1c-0.9-5.5-1.9-10.9-4.2-15.9c-0.1-3.2-2.4-3.5-4.8-3.6
	c0.2-1.1,0.5-2.1,0.7-3.2c0.6-2.8,0.3-5-2-7.3c-5.1-5.1-7.5-11.6-8.1-18.8c-0.1-1.3-0.3-2.6-0.4-3.9c2.5-1,5-2,7.9-1.5
	c0.8,0.2,1.3,0.3,1.6,1.2c0.8,2.5,1.4,4.9,0.5,7.5c-0.6,1.4,0,3.1,1.4,3.8c1.4,0.9,3.1,0.6,4.2-0.6c-0.5-0.8-1.1-0.5-1.7-0.5
	c-2.8,0-3-0.3-2.5-2.9c0.7-3.4-0.3-6.6-1.3-9.8c-0.2-0.5-0.7-0.9-1.3-0.9c-3-0.1-6.1-0.7-8.8,1.5c0.3-5.2,1.2-10.3,3.9-14.9
	c1.2-1.8,2.9-3.3,4.9-4.2c1-0.6,2.2-0.3,2.9,0.6c0.1,0.1,0.1,0.2,0.1,0.2c3.1,5.1,7.3,9.2,11,13.8c-2.1,0-4.2,0.3-6.2,1
	c-0.9,0.3-2,0.6-1.7,1.8c0.4,1.4,1.4,0.8,2.3,0.5c1.9-0.6,3.8-1.2,5.9-0.9C416.9,360.1,417.7,361,418.7,360.4z M419.5,387.5
	c-3.7,0.8-7.2,2.6-11.2,2.5c-0.3,0-0.5,0.2-0.5,0.4c0,0.1,0,0.1,0,0.2c0.1,0.5,0.5,0.5,0.9,0.5C412.6,391,416.3,389.7,419.5,387.5z
	 M407.3,380.5c1.7-0.1,3.4-0.5,4.9-1.2c0.5-0.2,1.1-0.5,0.8-1.2c-0.2-0.5-0.8-0.4-1.2-0.2c-1.4,0.6-3,1-4.5,1
	c-0.7,0-1.7-0.2-1.7,0.7C405.5,380.6,406.6,380.3,407.3,380.5L407.3,380.5z M400.1,366.4c0-0.5-0.4-1-0.9-1.1
	c-0.5-0.1-1.1,0.2-1.2,0.8c0,0.1,0,0.1,0,0.2c0,0.6,0.4,1,0.9,1c0,0,0,0,0.1,0C399.6,367.4,399.9,367,400.1,366.4L400.1,366.4z
	 M412,366.4c0.5,0,1-0.5,1-1c0.1-0.5-0.2-1-0.7-1.1c-0.1,0-0.1,0-0.2,0c-0.5-0.1-1,0.3-1.1,0.9c0,0.1,0,0.2,0,0.3
	C411,366,411.5,366.4,412,366.4L412,366.4z"/>
<path class="st1" d="M402.6,397.3c2.4,0.1,4.7,0.4,4.8,3.6c-1,0.5-0.9,1.5-1,2.4c-0.1,0.9-0.3,1.8-0.6,2.7c-1,3.9-1,3.9-5,3.2
	C400.5,405.1,400.7,401.1,402.6,397.3z"/>
<path class="st1" d="M396.8,429.5c-0.2-1.3-0.4-2.6-0.6-3.9c2.2,0,4.4,0,6.5,0c1.4,0,2.5,0.4,2.5,2s-1.2,2-2.6,2
	C400.7,429.5,398.7,429.5,396.8,429.5z"/>
<path class="st1" d="M419.8,399.6c0.3-1.6,1.5-1.8,2.8-2c-0.1,3.1,0.9,6,1,9C421.8,404.6,421,402,419.8,399.6z"/>
<path class="st14" d="M423.6,406.7l0.5,0.9C423.7,407.4,423.5,407.1,423.6,406.7z"/>
<path class="st4" d="M424.7,422.4c-0.1,0-0.2,0.1-0.3,0.1c0,0,0-0.1,0-0.2L424.7,422.4z"/>
<path class="st11" d="M278.6,516.7c1.8,0.6,0.7,1.5,0.5,2.6c-0.6,4.6,0,9,2.9,12.8c1.2,1.5,2.6,2.8,4,4.2c0.3,0.4,0.6,0.9,1,1.2
	c3,3.1,2.6,4.6-1.6,5.5c-2,0.4-4,0.7-6,0.7c-4.7,0.1-9.4,0.1-14.1,0c-3.6,0.1-7.1-0.6-10.4-1.9c-2.5-1.1-2.8-1.9-1.2-4.2
	c0.4-0.6,0.9-1.2,1.4-1.9c3.2-4.7,3-10.1,2.8-15.5c0-0.4,0-0.9-0.3-1.1c-2.7-2.1,0.1-2,1-2.7c0.8,0.7,1.8,0.4,2.7,0.5
	C267.1,517.3,272.8,516.9,278.6,516.7z"/>
<path class="st12" d="M392.8,362c2.6-2.1,5.8-1.5,8.8-1.5c0.6,0,1.1,0.3,1.3,0.9c1,3.2,2,6.4,1.3,9.8c-0.5,2.6-0.3,2.9,2.5,2.9
	c0.6,0,1.3-0.3,1.7,0.5c-1.1,1.2-2.9,1.4-4.2,0.6c-1.4-0.7-2-2.4-1.4-3.8c0.9-2.6,0.3-5-0.5-7.5c-0.3-1-0.8-1.1-1.6-1.2
	c-2.8-0.5-5.3,0.5-7.9,1.5C392.8,363.4,392.8,362.7,392.8,362z"/>
<path class="st12" d="M418.7,360.4c-1,0.6-1.8-0.3-2.6-0.4c-2.1-0.4-4,0.3-5.9,0.9c-0.9,0.3-2,0.9-2.3-0.5c-0.3-1.2,0.8-1.5,1.7-1.8
	c2-0.7,4.1-1,6.2-1C417,358.1,418.1,359.1,418.7,360.4z"/>
<polygon class="st15" points="461.2,464.1 461.3,464 461.3,464.1 "/>
<path class="st16" d="M432,556.6c0.1-0.1,0.2-0.2,0.4-0.2c1.9,0.2,2.9,1.6,3.9,3.1c0.6-0.8,0.2-1.5,0.4-2.1s-0.4-1.7,0.6-1.7
	c0.8,0,1.2,0.9,1.2,1.7c0.2,2.6-0.1,5.3-0.7,7.8c-0.4,1.4-0.8,2.8-1.2,4.2c-0.2,0.6-0.4,1.6-1.2,1.6c-1,0-0.5-1.1-0.6-1.7
	c-0.1-0.4-0.1-0.7-0.2-1c-0.8-0.2-1.2,0.5-1.8,0.6c-2.8,0.7-3.6,0-3.6-2.8c0-1.2,0.4-2.5-0.4-3.6c0-0.5,0.1-1,0.1-1.4
	c1.1-0.6,1-1.6,1.1-2.6c0.1-0.5,0.4-1,0.9-1.2C431.6,557.4,431.9,557.2,432,556.6z"/>
<path class="st16" d="M445.9,560.6l-2.7,8.6c-0.1,0.5-0.2,0.9-0.4,1.3c-0.5,0.7-0.8,1.8-1.9,1.2s-0.3-1.5,0-2
	c1.8-3.4,2.8-7.3,2.8-11.1c0-2,1.9-1.4,2.8-1.9c0.7-0.3,1.7,0.9,1.8,1.8c0.2,3.8,0.2,7.6-0.1,11.4c-0.1,0.4-0.2,0.8-0.4,1.1
	c-0.3,0.5-0.6,1.2-1.3,1.1s-0.4-0.9-0.4-1.4c-0.2-2.6,0.8-5.1,0.5-7.6C446.6,562.2,446.4,561.4,445.9,560.6z"/>
<path class="st16" d="M441.8,560.2c-0.4,3.5-0.5,7.1-2.1,10.4c-0.2,0.5-0.1,1.5-1.1,1.2c-0.8-0.2-0.5-1-0.5-1.6
	c0-0.6,0.1-1.2,0.4-1.8c1.2-3.1,1.7-6.3,1.5-9.6c0-0.7-0.5-2,0.7-2.1s1.1,1.2,1.1,2.1C441.8,559.2,441.8,559.7,441.8,560.2z"/>
<path class="st16" d="M453.6,560c-0.3,3.3-1,6.5-2.1,9.5c-0.2,0.6-0.5,1.5-1.4,1.2s-0.4-1.2-0.2-1.8c1.3-3.6,2-7.3,1.9-11.2
	c0-0.5,0-1.1,0.6-1.1c0.4,0,0.8,0.5,1,0.8C453.7,558.2,453.5,559.1,453.6,560z"/>
<path class="st16" d="M461.4,561.8c0.4,2.4-0.2,4.5-0.5,6.7c-0.1,0.8-0.4,2-1.4,1.8s-0.8-1.3-0.6-2.1c0.9-3.1,1-6.3,0.3-9.4
	c-0.1-0.6-0.4-1.5,0.6-1.7c0.7-0.1,1.4,0.5,1.5,1.2C461.4,559.5,461.4,560.7,461.4,561.8z"/>
<path class="st16" d="M458.3,559.9c-0.8,3.1-1.5,6.3-2.4,9.4c-0.2,0.7-0.6,1.4-1.5,1s-0.6-1.1-0.4-1.6c1.4-3.2,2.1-6.6,1.8-10.1
	c0-0.6,0.2-1.2,0.9-1C457.9,557.8,458.3,558.8,458.3,559.9z"/>
<path class="st8" d="M430,558.6c0,1,0,2-1.1,2.6C428.9,560.2,429.3,559.3,430,558.6z"/>
<path class="st8" d="M432,556.6c-0.1,0.6-0.5,0.8-1,0.8C431.1,556.9,431.5,556.5,432,556.6z"/>
<path class="st17" d="M330.9,297.3c-2.1,2.5-5.1,2.9-8,3.5c-2.3,0.4-4.7,0.6-7,0.6c-12.8,0-25.6,0.2-38.4-0.1
	c-9.4-0.1-18.8-0.9-28.1-2.3c-0.9-1.5-1.3-3.2-1.3-4.9c-0.4-8.5,0.4-17,1.1-25.5c0.2-2.9,0.2-5.8,0.2-8.6c0-0.6,0.3-1.4-0.5-1.6
	s-1.1,0.5-1.5,1c-3.1,4.1-6.8,7.7-10.8,10.8c-2.4,1.8-5,3.4-7.7,4.8c-6.1,3.2-11.6,2.2-16.9-2c-4.2-3.6-7.8-7.8-10.6-12.6
	c-3.6-5.7-6.7-11.7-9.3-18c-0.8-1.9-0.7-4,0.3-5.8c1.3-2.5,2.6-5,3.8-7.5c1.5-2.4,3.1-4.8,4.6-7.2c3.2-5.1,6.8-9.9,10.4-14.7
	c3.8-2.8,4.3-2.7,7,1.3c2.3,3.5,4.2,7.3,5.7,11.2c1.2,2.9,1.5,2.9,4,0.9c4.5-3.5,8.3-8,11-13c7.1-12.6,18.5-19.2,31.7-23.3
	c0.6-0.1,1.2-0.2,1.8-0.2c2.3,2.1,4.4,4.4,6.4,6.8c2.6,3.6,4.9,7.4,7.1,11.2c0.7,1.2,1.2,1.3,1.8,0c1.6-3.5,4.2-6.3,6.5-9.4
	c2.7-3.5,6.3-6.1,9.2-9.3c1.1,0,2.2,0.3,3.1,0.8c4.2,1.9,8.3,3.9,12.6,5.5c9,3.3,15.1,9.9,20.3,17.5c2.3,3.4,4.8,6.7,6.9,10.2
	c1.1,1.9,1.9,1.7,3.2,0.3c2.6-2.7,5.4-5.2,8.1-7.8c0.6-0.6,1.1-1.4,2.1-1c0.4,3,1.6,5.8,2.4,8.7c1.9,6.8,3.9,13.5,5.9,20.2
	c0.9,3.6,1.9,7.2,2.9,10.8c0.3,1.1,0.5,1.9-0.6,2.7c-7.1,5.3-14,10.9-22,15c-5.3,2.7-9.5,0.5-13.6-2.5c-1.7-1.2-3.1-2.7-5-4.4
	c0.4,4.4,0.9,8.5,1.2,12.7c0.4,7.2,1.5,14.4,0.8,21.6C331.8,295,331.5,296.2,330.9,297.3z M319.1,265c0-2-0.4-4-1.3-5.8
	c-1.2-3.3-4.6-5.4-8.1-5c-1.1,0.1-1.8,0.5-0.9,1.5c2.9,3.8,5.9,7.6,8.9,11.4c0.8,1,1.2,0.4,1.4-0.4
	C319.2,266.1,319.2,265.6,319.1,265L319.1,265z M224.5,270c-0.3-2.9-1.5-5.7-3.4-7.9c-2.1-2.6-5.8-3.5-8.9-2.1
	c-0.6,0.2-1.3,0.4-1.4,1.1s0.6,1,1.1,1.3c1.7,1.2,3.4,2.5,5.2,3.5C219.6,267.1,221.6,269.1,224.5,270L224.5,270z M321.1,289.6
	c-1.8-1-3.9-1.8-6-2.1c-5.9-0.9-9.5,2.9-10.1,6.6c-0.2,1.3,0.3,1.4,1.2,1.1C311.1,293.4,315.9,291.6,321.1,289.6z M226.3,241.6
	c2.1,3.5,4.4,5.8,7.9,7c1.9,0.7,3.9,0.5,5.6-0.6c1.1-0.7,3-1.3,2.9-2.7s-2.1-0.9-3.2-1.1C235.3,243.1,231,242.4,226.3,241.6z
	 M266.3,246.5l0.5-0.3c0-1.7,0.1-3.4,0-5.1c-0.1-4.5-3.7-8.2-8.2-8.4c-0.8,0-1.8-0.1-2.1,0.6s0.4,1.2,0.8,1.8
	c0.9,1.2,1.8,2.4,2.7,3.5C262.1,241.2,264.2,243.8,266.3,246.5L266.3,246.5z M280.9,244.4c0.1,0.5,0.2,1.1,0.3,1.6
	c0.2,0.6-0.1,1.6,0.8,1.8c0.6,0.1,1-0.6,1.4-1.1c2.5-2.6,4.9-5.2,7.3-7.8c0.8-0.9,2.3-2.1,1.9-2.9c-0.6-1.2-2.2-0.1-3.4,0
	C284.6,236.6,280.8,240.2,280.9,244.4L280.9,244.4z M249,218.9c-1.3-1.1-2.8-1.7-4.4-1.9c-5.3-0.8-9.3-0.4-11.1,5.6
	c-0.2,0.6-0.6,1.2-0.1,1.8s1.2,0,1.7-0.1C239.6,222.4,244.2,220.7,249,218.9L249,218.9z M299.6,270.6c-2.9-0.3-5.9,0.3-8.4,1.9
	c-3.3,1.9-4.7,5.9-3.4,9.5c0.4,1,0.7,1.4,1.5,0.5C292.6,278.6,295.9,274.8,299.6,270.6z M341.3,241c-4.2,0-7.5,2.1-8.4,5.6
	c-0.3,0.6-0.3,1.4,0.1,2c0.5,0.5,1,0,1.5-0.2c4.2-1.5,8.4-3.1,12.6-4.7c0.4-0.2,1-0.3,0.9-0.9c-0.2-0.3-0.5-0.6-0.8-0.7
	C345.3,241.4,343.3,241,341.3,241L341.3,241z M208.3,233.2c0.3-1.5-0.7-2.7-1.1-4.1c-0.3-1-0.9-1.2-1.5-0.1l-7.3,12.5
	c-0.4,0.7-0.1,1.1,0.6,1C203,241.9,208.8,237.4,208.3,233.2L208.3,233.2z M302.9,212.6c-3.8-2.2-7.6-2.8-11.5-1.5
	c-2.5,0.9-4.2,3.2-4.4,5.9c-0.1,1.1,0,1.6,1.4,1.1C293,216.3,297.8,214.6,302.9,212.6L302.9,212.6z M311.6,194.3
	c-0.5,0.2-1.5-0.4-1.9,0.4s0.4,1.4,0.9,2c2.6,3.3,5.2,6.6,7.8,9.8c0.3,0.4,0.5,0.9,1,0.8s0.7-0.7,0.8-1.3c0.2-2.6-0.3-5.1-1.4-7.4
	C317.5,195.7,314.6,194,311.6,194.3z M258.5,266.3l13.8-2.8c0.3,0,0.7-0.2,0.7-0.4c0.2-0.6-0.4-0.8-0.8-1c-2.8-1.5-5.6-2.6-8.8-2.3
	c-2.8,0.5-5.2,2.4-6.2,5C256.8,266.2,257.3,266.4,258.5,266.3L258.5,266.3z M310.3,230.4c-0.2-1.8-1-3.5-2.4-4.6
	c-0.7-0.6-1.2-0.8-1.5,0.2c-1.2,4.6-2.4,9.3-3.5,13.9c-0.2,0.8,0.2,1.1,1.1,0.8C306.9,239.6,310.3,234.6,310.3,230.4L310.3,230.4z
	 M334.6,219.3c0.2-2.1-0.6-4.1-2.2-5.5c-0.9-0.9-1.5-0.9-1.8,0.4c-1.1,4.5-2.2,9-3.3,13.6c-0.2,1,0.1,1.4,1.1,1
	C331.2,227.2,335.3,222.5,334.6,219.3L334.6,219.3z M259.9,281.4c0.7,0.8,1.1,1.4,1.6,2c2.5,3.2,5,6.5,7.6,9.7
	c0.4,0.5,0.7,1.1,1.4,1c0.5-0.1,0.4-0.6,0.5-1C271.3,287.2,269.4,279.8,259.9,281.4L259.9,281.4z M269.4,198.4
	c-1.2-0.1-2.5-0.1-3.7,0c-7.1,1.3-9.7,3.9-9.2,9.8c0.1,1.3,0.5,1.8,1.7,0.9C262,206,265.4,202.4,269.4,198.4L269.4,198.4z"/>
<path class="st15" d="M303.4,183.4c-2.9,3.2-6.5,5.8-9.2,9.3c-2.3,3-4.9,5.9-6.5,9.4c-0.6,1.3-1.1,1.2-1.8,0
	c-2.2-3.9-4.6-7.6-7.1-11.2c-2-2.4-4.1-4.7-6.4-6.8c3.1-2.7,5-6.3,6.4-10.1c0.3-0.9,0.1-1.9-0.5-2.6c-2.2-2.9-3.6-6.4-4-10
	c-0.1-0.8-0.4-1.5-1-2c-2.3-2-3.6-7.2-2.4-10.1c0.3-1,1.2-1.7,2.3-1.7c1.6,0.2,1.9-0.7,2.3-2c1.6-5.7,4.1-10.8,9-14.6
	c5.4-4.1,11-3.8,16.8-1.6c7.6,2.9,10.4,9.1,11,16.6c0.1,1.8,0,3.6-0.1,5.4c-1.5-2.3-3.9-2.3-6.2-2.7c-1.1-0.2-2.5-0.1-2.6,1.2
	s1.4,1.3,2.2,1.4c2.2,0.3,4.4,0.4,6.4,1.4c-0.6,8.3-2.6,16.2-7.9,22.9c-1.4,1.8-1,3.8-0.9,5.8C303.1,182.1,303.2,182.7,303.4,183.4z
	 M284.9,150.6c2.8,0.3,5.6-0.1,8.3,0.6c1.2,0.3,3.4,1.5,3.8-0.5s-2.1-1.6-3.4-2C290.5,147.9,287.4,147.9,284.9,150.6z M295.6,164.4
	c1.3,1,3.1,1.1,4.5,0.2c1.1-0.6,1.6-1.9,1.1-3c-0.9-3-0.3-5.8,0.5-8.7c0.4-0.8,0.2-1.7-0.5-2.2c-1.2,2.7-1.7,5.5-1.6,8.4
	c0.3,4.2,0.5,4.2-3.8,4.8C295.7,164,295.7,164.1,295.6,164.4z M294.1,180.7c0.7-0.1,1.7,0.3,1.8-0.6c0.1-1.1-1-0.6-1.6-0.6
	c-2.8-0.2-5.5-0.9-8.1-2.1c-0.6-0.3-1.4-1.1-1.8-0.4c-0.5,0.9,0.7,1,1.2,1.3C288.3,179.6,291.2,180.5,294.1,180.7L294.1,180.7z
	 M297.6,170.1c-2-0.9-4.1-1.6-6.3-1.9C292.9,170.7,294.2,171.2,297.6,170.1z M305,156c-0.6,0-1,0.5-1,1.1c0,0.6,0.4,1,1,1
	c0.5,0.1,1-0.3,1.1-0.9c0-0.1,0-0.2,0-0.3C306,156.4,305.5,156,305,156L305,156z M291.9,153.6c-0.2-0.4-0.4-0.9-1-1
	c-0.6,0-1,0.4-1.1,0.9c0,0,0,0,0,0.1c-0.1,0.5,0.3,1,0.9,1.1c0,0,0,0,0.1,0C291.4,154.7,291.7,154.3,291.9,153.6z"/>
<path class="st15" d="M368.1,237.9c-2-6.8-4-13.5-5.9-20.2c-0.8-2.9-2-5.7-2.4-8.7c5.2-6.8,10.4-13.6,15.8-20.2
	c3.4-4.1,6.6-8.5,11.3-11.4c3.4-2.1,6-4.9,8.7-7.7c0.8-0.8,1.5-1.5,2.3-2.3c0.5-0.6,1.4-0.8,2.1-0.4c0.7,0.4,0.6,1.2,0.5,1.9
	c-0.3,1.8-1.3,3.3-2.2,4.9c-0.7,1.1-1.3,2.3-1.8,3.5c2.6-1.1,5-2.7,7-4.8c2.8-2.6,5.4-5.4,8.1-8.1c0.9-0.9,2-2.2,3.1-1
	c0.8,1,0.7,2.5-0.3,3.3c-0.1,0.1-0.3,0.2-0.5,0.3c-1.3,0.6-2.4,1.5-3.1,2.8c-2,2.8-4.6,5.3-7.4,7.4c-0.9,0.7-2.2,1.1-2.7,2.2
	c0.5,0.8,1.4-0.2,1.7,0.6s-1.2,0.7-0.9,1.8c1.9-0.3,3.2-2,5.1-2.3c0.7,1.3-0.6,1.4-1.2,2c-0.9,0.9-2.2,1.2-3.3,2.9
	c5.2-2,7.7-6.4,12.2-9.2c-1.9-0.2-2.6,0.8-3.6,1.4c-0.6,0.3-0.9,1.4-1.9,0.6c1-2.5,3.4-3.7,5.4-5.4c-1.5-0.6-2.3,0.5-3.2,1.2
	c-0.7,0.6-0.9,1.9-2.2,1.4c1.3-2.5,3.1-4.8,5.2-6.7c0.5,0,1.2,0.4,1.1,0.7c-0.5,2.2,1,4.2,0,6.6c-2.6,6.1-7.1,10.5-11.8,14.7
	c-3.8,3.4-8.9,4.8-13.6,6.5c-2.2,0.8-4.1,2.4-5.2,4.4c-5.3,9.4-8.9,19.6-13.2,29.4C370.5,232.6,369.3,235.2,368.1,237.9z
	 M395.1,178.9c-2,0.4-4,0.6-5.4,2.3C391.6,180.4,393.8,180.6,395.1,178.9L395.1,178.9z"/>
<path class="st15" d="M211.1,207.1c-3.6,4.8-7.3,9.6-10.4,14.7c-1.5,2.4-3.1,4.8-4.6,7.2c-2-9.6-3.9-19.2-5.9-28.8
	c-0.4-1.9-0.9-3.8-1.6-5.6c-0.7-2.3-2.3-4.3-4.4-5.5c-3.2-1.9-6.2-4.1-9.1-6.4c-3.1-2.5-4.8-5.9-6.8-9.2c-1.2-2.1-2.3-4.2-3.4-6.4
	c-0.5-0.9-1.1-2,0-2.9c1.1,0.6,2,1.5,2.7,2.5c1.4,2.2,3,4.4,4.7,6.4c0.6,0.9,1.5,1.4,2.5,1.5c-2.9-2.8-4.8-6.3-7.1-9.4
	c-0.6-0.9-1.6-1.6-2.7-1.7c-1.3-1.1-1.9-2.2,0.1-3.1c2.6,1.1,3.3,3.8,4.8,5.8c1.6,2.5,3.8,4.7,6.4,6.3c0.1-0.3,0-0.6-0.2-0.9
	c-3.3-2.7-5.6-6.2-7.7-9.8c-0.5-1.2-1.7-2.1-3-2.3c-0.5-1.1-0.6-2.3,0.4-3.2c0.8-0.7,0.5-1.6,0.6-2.4s-0.1-1.8,1-2.1
	s1.6,0.3,2.1,1.1c2.3,3.6,4.6,7.2,7.1,10.7c1.3,2.2,3,4.1,5.1,5.6c0.4-1.8-0.5-3-0.9-4.3c-0.5-1.4-0.8-2.9-0.8-4.3
	c-0.1-0.8,0.3-1.6,0.9-2c1-0.5,1.4,0.4,1.9,0.9c1.1,1.2,1.9,2.5,2.6,3.9c2,3.8,5.1,6.7,7.7,9.9c5,6.3,8.3,13.5,11.7,20.7
	c1.8,3.9,3.6,7.7,5.5,11.6C210.2,206.2,210.6,206.7,211.1,207.1z M177.3,170.5c-4.5-4-6.8-9.6-10.2-14.4
	C169.3,161.7,172.2,166.9,177.3,170.5L177.3,170.5z M183.2,171c-0.2,0.1-0.5,0.2-0.5,0.4c0,0.3,0,0.7,0.2,0.9c1.4,1,2.8,1.9,4.3,2.8
	c0.3,0.2,0.6,0.1,0.8-0.2c0,0,0,0,0,0c0.1-0.2,0-0.5-0.1-0.6C186.6,172.7,184.7,172.2,183.2,171L183.2,171z M181.9,169.6l-0.1,0.1
	h0.1L181.9,169.6z"/>
<path class="st12" d="M311.7,152.6c-2-1-4.2-1.1-6.4-1.4c-0.9-0.1-2.4-0.1-2.2-1.4s1.5-1.4,2.6-1.2c2.2,0.4,4.7,0.4,6.2,2.7
	C312,151.8,312.4,152.3,311.7,152.6z"/>
<path class="st18" d="M414.2,167.5c-2.1,1.9-3.8,4.2-5.2,6.7l0,0c-2.5,1.4-4.5,3.4-6.8,5.1c0,0,0.1,0.4,0.2,0.5l0,0
	c-0.4-0.8-1.2,0.2-1.7-0.6c0.5-1.1,1.7-1.5,2.7-2.2c2.9-2,5.4-4.5,7.4-7.4c0.7-1.2,1.8-2.2,3.1-2.8
	C414.1,167.1,414.1,167.3,414.2,167.5z"/>
<path class="st18" d="M165.2,159.5c1.3,0.2,2.5,1.1,3,2.3c2.2,3.6,4.4,7.1,7.7,9.8c0.2,0.2,0.3,0.6,0.2,0.9
	c-2.5-1.6-4.7-3.8-6.4-6.3c-1.5-2-2.2-4.7-4.8-5.8C165.1,160.1,165.1,159.8,165.2,159.5z"/>
<path class="st18" d="M164.9,163.6c1.1,0.1,2.1,0.7,2.7,1.7c2.3,3.1,4.2,6.6,7.1,9.4c-1-0.1-1.9-0.7-2.5-1.5c-1.7-2-3.3-4.1-4.7-6.4
	c-0.7-1.1-1.6-1.9-2.7-2.5C164.9,164,164.9,163.7,164.9,163.6z"/>
<path class="st8" d="M246.6,325.2c0.1-0.2,0.3-0.3,0.5-0.4c0.2,0.9,0.1,1.9-0.2,2.8"/>
<path class="st8" d="M246.1,334.5c0.1-0.1,0.2-0.2,0.4-0.3c0.2,0.9,0.1,1.9-0.2,2.8"/>
<path class="st8" d="M338.3,345c-0.3-0.3-0.3-0.7-0.2-1C338.8,344.2,339.1,344.5,338.3,345z"/>
<path class="st8" d="M337.9,341.2c-0.3-0.2-0.4-0.7-0.2-1C338.3,340.4,338.6,340.7,337.9,341.2z"/>
<path class="st8" d="M245.8,344.6c0,0,0.1-0.1,0.1-0.1c0,0.3,0,0.6,0,0.9"/>
<path class="st15" d="M278.6,516.7c-5.7,0.2-11.5,0.6-17.2,0.5c-0.9,0-1.9,0.2-2.7-0.5c0-3.5,0.1-7,0.1-10.5c0.1-1-0.2-2-0.9-2.8
	l20.6-0.3L278.6,516.7z"/>
<path class="st15" d="M282.8,502.3c0,0.3-0.2,0.4-0.5,0.4L282.8,502.3z"/>
<path class="st8" d="M287.1,401.6c0,0.1,0.1,0.2,0.1,0.3s-0.1,0.1-0.1,0.1L287.1,401.6z"/>
<path class="st12" d="M355.2,473.1c0.2,4.8,0.2,9.5-1.6,14.1c0.3-4.7,0.7-9.4,1-14.1H355.2z"/>
<path class="st12" d="M419.5,387.5c-3.1,2.2-6.9,3.5-10.7,3.7c-0.4,0-0.8-0.1-0.9-0.5c-0.1-0.2,0-0.5,0.3-0.6c0.1,0,0.1,0,0.2,0
	C412.3,390.1,415.7,388.3,419.5,387.5z"/>
<path class="st12" d="M407.3,380.5c-0.7-0.1-1.8,0.2-1.8-0.9c0-0.9,1-0.7,1.7-0.7c1.6,0,3.1-0.4,4.5-1c0.4-0.2,1-0.3,1.2,0.2
	c0.3,0.7-0.3,1-0.8,1.2C410.7,379.9,409,380.3,407.3,380.5z"/>
<path class="st12" d="M400.1,366.4c-0.1,0.7-0.5,1-1.1,1c-0.6,0-1-0.4-1-1c0,0,0,0,0-0.1c0-0.6,0.4-1,1-1c0.1,0,0.1,0,0.2,0
	C399.7,365.4,400.1,365.8,400.1,366.4z"/>
<path class="st12" d="M412,366.3c-0.6,0-1-0.4-1-1c-0.1-0.5,0.3-1,0.9-1.1c0.1,0,0.2,0,0.3,0c0.5,0,0.9,0.4,0.9,0.9
	c0,0.1,0,0.1,0,0.2C413,365.9,412.5,366.3,412,366.3z"/>
<path class="st2" d="M319.1,265c0.1,0.5,0.1,1.1,0,1.6c-0.2,0.8-0.6,1.4-1.4,0.4c-3-3.8-5.9-7.5-8.9-11.4c-0.8-1.1-0.2-1.4,0.9-1.6
	c3.5-0.4,6.8,1.7,8.1,5C318.7,261,319.2,263,319.1,265z"/>
<path class="st2" d="M224.5,270c-2.9-0.9-4.9-2.9-7.3-4.2c-1.8-1-3.5-2.3-5.2-3.5c-0.5-0.3-1.3-0.5-1.1-1.3s0.9-0.8,1.4-1.1
	c3.1-1.3,6.7-0.5,8.9,2.1C223.1,264.3,224.2,267.1,224.5,270z"/>
<path class="st2" d="M321.1,289.6c-5.1,2-10,3.8-14.8,5.6c-0.9,0.3-1.4,0.2-1.2-1.1c0.5-3.8,4.2-7.5,10.1-6.6
	C317.2,287.8,319.2,288.5,321.1,289.6z"/>
<path class="st2" d="M226.3,241.6c4.7,0.9,9,1.6,13.1,2.6c1.1,0.2,3-0.4,3.2,1.1s-1.7,2-2.9,2.7c-1.7,1.1-3.7,1.3-5.6,0.6
	C230.7,247.4,228.4,245,226.3,241.6z"/>
<path class="st2" d="M266.3,246.4c-2.1-2.7-4.2-5.3-6.3-7.9c-0.9-1.2-1.8-2.3-2.7-3.5c-0.4-0.5-1.2-1.1-0.8-1.8s1.4-0.6,2.1-0.6
	c4.5,0.2,8.1,3.8,8.2,8.3c0.1,1.7,0,3.4,0,5.1L266.3,246.4z"/>
<path class="st2" d="M280.9,244.4c0-4.2,3.7-7.8,8.4-8.4c1.1-0.1,2.8-1.3,3.4,0c0.4,0.8-1.1,2-1.9,2.9c-2.4,2.6-4.9,5.2-7.3,7.8
	c-0.4,0.4-0.8,1.2-1.4,1.1c-0.9-0.2-0.6-1.1-0.8-1.8C281,245.5,280.9,245,280.9,244.4z"/>
<path class="st2" d="M249,218.9c-4.9,1.8-9.4,3.6-14,5.2c-0.5,0.2-1.2,0.8-1.7,0.1s0-1.2,0.1-1.8c1.8-5.9,5.8-6.3,11.1-5.6
	C246.2,217.2,247.7,217.8,249,218.9z"/>
<path class="st2" d="M299.6,270.6c-3.6,4.2-7,8-10.3,11.8c-0.8,1-1.2,0.5-1.5-0.5c-1.3-3.6,0.2-7.6,3.4-9.5
	C293.7,270.9,296.7,270.3,299.6,270.6z"/>
<path class="st2" d="M341.3,241c2,0,4,0.4,5.9,1.2c0.4,0.1,0.7,0.4,0.8,0.7c0.1,0.6-0.4,0.7-0.9,0.9c-4.2,1.6-8.4,3.1-12.6,4.7
	c-0.5,0.2-1,0.7-1.5,0.2c-0.4-0.6-0.4-1.4-0.1-2C333.8,243.2,337.1,241,341.3,241z"/>
<path class="st2" d="M208.3,233.2c0.5,4.2-5.3,8.7-9.3,9.2c-0.7,0.1-1-0.2-0.6-1l7.3-12.5c0.6-1.1,1.2-0.9,1.5,0.1
	C207.6,230.5,208.6,231.7,208.3,233.2z"/>
<path class="st2" d="M302.8,212.6c-5,1.9-9.8,3.6-14.5,5.5c-1.4,0.5-1.5-0.1-1.4-1.1c0.1-2.7,1.9-5,4.4-5.9
	C295.2,209.8,299,210.5,302.8,212.6z"/>
<path class="st2" d="M311.6,194.3c3-0.3,5.9,1.4,7.1,4.2c1.1,2.3,1.6,4.9,1.4,7.4c0,0.6-0.1,1.1-0.8,1.3s-0.8-0.4-1-0.8
	c-2.6-3.3-5.2-6.5-7.8-9.8c-0.5-0.6-1.3-1.2-0.9-2S311.1,194.4,311.6,194.3z"/>
<path class="st2" d="M258.5,266.3c-1.2,0.1-1.8-0.2-1.3-1.6c1.1-2.6,3.4-4.5,6.2-5c3.2-0.3,6.1,0.8,8.8,2.3c0.4,0.2,0.9,0.4,0.8,1
	c0,0.2-0.5,0.4-0.7,0.4L258.5,266.3z"/>
<path class="st2" d="M310.3,230.4c0,4.1-3.4,9.1-6.4,10.3c-0.9,0.3-1.3,0.1-1.1-0.8c1.1-4.7,2.3-9.3,3.5-13.9c0.3-1,0.9-0.8,1.5-0.2
	C309.3,227,310.2,228.6,310.3,230.4z"/>
<path class="st2" d="M334.6,219.3c0.6,3.2-3.4,7.9-6.2,9.4c-1,0.5-1.3,0-1.1-1c1.1-4.5,2.2-9,3.3-13.6c0.3-1.2,0.9-1.2,1.8-0.4
	C334,215.1,334.9,217.2,334.6,219.3z"/>
<path class="st2" d="M259.9,281.4c9.5-1.6,11.4,5.8,11.1,11.8c0,0.4,0,0.9-0.5,1c-0.7,0.1-1.1-0.6-1.4-1c-2.5-3.2-5.1-6.5-7.6-9.7
	C261.1,282.8,260.6,282.2,259.9,281.4z"/>
<path class="st2" d="M269.4,198.5c-4,3.9-7.4,7.6-11.2,10.7c-1.2,1-1.6,0.4-1.7-0.9c-0.5-5.9,2.2-8.5,9.2-9.8
	C266.9,198.4,268.2,198.4,269.4,198.5z"/>
<path class="st12" d="M284.9,150.6c2.5-2.7,5.6-2.7,8.8-1.9c1.3,0.3,3.7,0.1,3.4,2s-2.5,0.8-3.8,0.5
	C290.5,150.5,287.7,150.9,284.9,150.6z"/>
<path class="st18" d="M295.6,164.4c0.1-0.3,0.1-0.4,0.2-0.4c4.2-0.6,4.1-0.6,3.8-4.8c-0.1-2.9,0.5-5.8,1.6-8.4
	c0.7,0.5,0.9,1.4,0.5,2.2c-0.8,2.9-1.4,5.7-0.5,8.7c0.4,1.1-0.1,2.4-1.1,3C298.6,165.4,296.9,165.4,295.6,164.4z"/>
<path class="st18" d="M294.1,180.7c-2.9-0.2-5.8-1-8.5-2.4c-0.5-0.3-1.7-0.4-1.2-1.3c0.5-0.8,1.2,0.1,1.8,0.4
	c2.5,1.2,5.3,1.9,8.1,2.1c0.6,0,1.7-0.4,1.6,0.6C295.8,181,294.8,180.6,294.1,180.7z"/>
<path class="st12" d="M297.6,170.1c-3.4,1.1-4.7,0.7-6.3-1.9C293.4,168.5,295.6,169.1,297.6,170.1z"/>
<path class="st12" d="M305,156c0.6,0,1,0.4,1.1,1c0.1,0.5-0.3,1.1-0.8,1.2c-0.1,0-0.2,0-0.3,0c-0.6,0-1-0.4-1-1
	C304,156.6,304.4,156,305,156C305,156,305,156,305,156z"/>
<path class="st12" d="M291.9,153.6c-0.2,0.7-0.5,1.1-1.1,1.1c-0.6,0-1-0.5-0.9-1.1c0,0,0,0,0-0.1c0-0.6,0.4-1,1-1c0,0,0,0,0.1,0
	C291.5,152.7,291.7,153.2,291.9,153.6z"/>
<path class="st18" d="M406.7,179.3c-1.9,0.2-3.2,2-5.1,2.3c-0.3-1.1,1.2-0.9,0.9-1.8l0,0c2.1-0.2,3.4-1.6,4.8-2.9
	c0.8-0.7,2.2-1.2,1.8-2.8l0,0c1.3,0.5,1.6-0.8,2.2-1.4c0.9-0.8,1.7-1.8,3.2-1.2c-2,1.7-4.4,2.9-5.4,5.4l0,0
	C408,177.2,407.1,178.1,406.7,179.3L406.7,179.3z"/>
<path class="st18" d="M409,176.9c0.9,0.9,1.3-0.2,1.9-0.6c0.9-0.6,1.7-1.6,3.6-1.4c-4.5,2.7-7,7.1-12.2,9.2c1.1-1.7,2.4-2,3.3-2.9
	c0.5-0.6,1.9-0.7,1.2-2l0,0C408.4,179.4,409.3,178.7,409,176.9L409,176.9z"/>
<path class="st18" d="M395.2,178.9c-1.4,1.7-3.6,1.5-5.4,2.3C391.1,179.6,393.2,179.4,395.2,178.9z"/>
<path class="st18" d="M177.3,170.5c-5.1-3.6-8-8.8-10.2-14.4C170.5,160.9,172.8,166.4,177.3,170.5z"/>
<path class="st5" d="M183.2,171c1.5,1.2,3.4,1.8,4.6,3.2c0.1,0.2,0.2,0.4,0.1,0.6c-0.2,0.3-0.5,0.4-0.8,0.2c0,0,0,0,0,0
	c-1.4-0.9-2.9-1.8-4.3-2.8c-0.2-0.1-0.2-0.6-0.2-0.9C182.7,171.2,183,171.1,183.2,171z"/>
<polygon class="st16" points="181.9,169.6 181.9,169.7 181.8,169.7 "/>
<path class="st15" d="M409.1,174.1c0.4,1.6-1,2-1.8,2.8c-1.4,1.3-2.7,2.7-4.8,2.9c-0.1-0.2-0.2-0.5-0.2-0.5
	C404.6,177.5,406.6,175.5,409.1,174.1z"/>
<path class="st15" d="M409.1,176.9c0.2,1.8-0.7,2.4-2.4,2.4C407,178.2,407.9,177.3,409.1,176.9z"/>
</svg>
