<?xml version="1.0" encoding="utf-8"?>
<!-- Generator: Adobe Illustrator 23.0.3, SVG Export Plug-In . SVG Version: 6.00 Build 0)  -->
<svg version="1.1" id="Calque_1" xmlns="http://www.w3.org/2000/svg" xmlns:xlink="http://www.w3.org/1999/xlink" x="0px" y="0px"
	 viewBox="0 0 216.3 206.1" style="enable-background:new 0 0 216.3 206.1;" xml:space="preserve">
<style type="text/css">
	.st0{fill:#2C492D;}
	.st1{fill:#95C198;}
	.st2{fill:#F7F7F7;}
	.st3{fill:#A46337;}
	.st4{fill:#333333;}
	.st5{fill:#C3A280;}
	.st6{fill:#0D0A07;}
	.st7{fill:#2D482D;}
	.st8{fill:#D4B18C;}
	.st9{fill:#8E532A;}
	.st10{fill:#82ADC5;}
	.st11{fill:#C7C6C7;}
	.st12{fill:#FCE769;}
	.st13{fill:#DDCEE7;}
	.st14{fill:#D4C4B9;}
	.st15{fill:#65A2BD;}
	.st16{fill:#70ADDF;}
	.st17{fill:#FFFFFF;}
</style>
<g>
	<path class="st0" d="M125.3,22.9c16.4,0,32.7,0,49.1,0c1.3,0,1.1-0.1,1.1,1.2c0,13.5,0,27.1,0,40.6c0,0.4,0,0.8,0.1,1.2
		c0,1.2,0,2.5,0,3.7c-0.1,0.7-0.1,1.4,0,2.1c0,0.9,0,1.8,0,2.6c0,0.1-0.1,0.1-0.1,0.2c-0.3,0-0.6-0.1-1-0.1c-2.7,0.1-5.3,0.2-8,0.1
		c-1.4-0.2-2.8,0-4.2-0.1c-0.3,0-0.5,0-0.8,0.2c0-10.4,0-20.8,0-31.2c0-0.7-0.2-1-0.9-1c-3,0-6,0-9,0c-0.3,0-0.7-0.1-0.9,0.2
		c-1,0-2.1,0-3.1,0c-1,0-1,0-1,1.1c0,9.9,0,19.7,0,29.6c0,0.6,0,0.9-0.8,0.9c-8.2,0-16.3,0-24.5,0c-0.6,0-0.8-0.2-0.8-0.8
		c0-2.7,0-5.5,0-8.2c0-13.8,0-27.6,0-41.4c0-0.8,0.2-1,1-1C122.8,23,124.1,23.1,125.3,22.9z"/>
	<path class="st1" d="M51.8,154.4c0.6-1.6,0.7-3.3,1-5c0.5-2.3,0.8-4.6,1.2-6.8c0.7-3.9,1.5-7.9,2.2-11.8c0.3-1.5,0.5-3.1,0.8-4.6
		c0.3-1.3,0.6-2.6,0.8-3.9c0.4-2.3,0.8-4.7,1.3-7c0.3-1.9,0.7-3.8,1-5.7c0-0.3,0.2-0.5,0.1-0.7c0-0.1,0-0.1,0.1-0.2
		c0.7-3.8,1.4-7.6,2.1-11.4c0.1-0.4-0.1-0.4-0.4-0.4c-0.8,0-1.6-0.1-2.3,0c-0.8,0.1-1.1-0.2-1-1c0-2.6,0-5.3,0-7.9
		c0.1,0,0.1,0,0.2-0.1c0,2.5,0,5.1,0,7.6c0,1.1,0,1.1,1.1,1.1c16.9,0,33.7,0,50.6,0c3.1,0,6.3,0,9.4,0c0,0.1,0,0.1,0,0.2
		c-0.3,0.1-0.5,0.1-0.4,0.5c0.2,0.6,0.2,1.3,0.4,2c0.5,2.6,1,5.2,1.5,7.8c0,0.1,0,0.2,0,0.2c1,5.5,2,10.9,3,16.4
		c0.8,4.4,1.6,8.9,2.5,13.3c0.4,2.4,0.9,4.7,1.3,7.1c0,0.1,0,0.2,0.1,0.3c0,0.1,0,0.2,0,0.2c0,0.2,0,0.3,0,0.5
		c0.4,2.3,0.8,4.6,1.2,6.9c0.2,1.3,0.5,2.5,0.8,3.8c0.4,2.1,0.7,4.3,1.1,6.4c0.1,0.9,0.2,1.9,0.4,2.8c0.3,1.3,0.5,2.6,0.7,3.8
		c0.2,1.3,0.7,2.4,0.7,3.7c0,0.1,0.2,0.1,0.2,0c0.2,0.9,0.3,1.8,0.5,2.8c0.7,3.9,1.4,7.8,2.1,11.7c0.1,0.3,0.2,0.4,0.5,0.5
		c-0.5,0.3-0.3,0.7-0.2,1.1c0.2,0.6,0,0.8-0.6,0.8c-1,0-2,0-3.1,0c-0.4,0-0.5-0.1-0.6-0.5c-0.4-1.9-0.8-3.7-1.2-5.6
		c-0.9-4.2-1.8-8.3-2.8-12.5c-0.2-1-0.4-2-0.8-3c-0.3-1.7-0.7-3.3-1.1-5c-0.9-4-1.8-8.1-2.7-12.1c-0.8-3.7-1.6-7.4-2.5-11.1
		c-0.3-1.2-0.4-2.4-0.9-3.5c-0.5-3.3-1.3-6.5-2.2-9.8c0-0.2,0-0.4,0-0.6c-1.2-5.5-2.5-10.9-3.7-16.4c-0.6-2.6-1.2-5.2-1.8-7.8
		c-0.2-1.1-0.5-2.3-0.7-3.4c-0.3-1.4-0.3-1.4-1.8-1.4c-2.8-0.1-5.5-0.1-8.3,0c-0.8,0-1.7,0-2.5,0c-9.2,0-18.4,0-27.5,0
		c-0.6,0-0.9,0.1-1.1,0.8c-0.9,4.2-1.9,8.3-2.8,12.5c-0.1,0.6,0.1,0.6,0.5,0.6c1.7,0,3.5,0,5.2,0c1,0,2-0.1,2.9,0.1
		c-2.7,0-5.3,0-8,0c-0.6,0-0.9,0.2-1,0.8c-0.4,2-0.9,3.9-1.3,5.9c-0.6,2.9-1.3,5.8-1.9,8.6c-0.3,1.4-0.6,2.7-1,4.1
		c-1.1,4.9-2.2,9.8-3.3,14.7c-0.7,3.1-1.4,6.2-2.1,9.4c-0.5,1.5-0.8,3.1-1.1,4.6c-0.2,0.9-0.6,1.7-0.5,2.6c-1,3.6-1.7,7.3-2.5,10.9
		c-1,4.4-2,8.8-3,13.2c-0.3,1.2-0.7,2.4-0.7,3.7c-1.3,0-2.5,0-3.8,0c-0.6,0-0.6-0.3-0.5-0.7c0.3-1.8,0.7-3.7,1-5.5
		c0.8-4.2,1.5-8.4,2.3-12.6c0.5-2.7,1-5.3,1.5-8c0.1-0.3,0.1-0.7,0.1-1C51,159.2,51.5,156.8,51.8,154.4z"/>
	<path class="st2" d="M172.8,101.6c-0.8,1.5-1.6,3-2.4,4.5c-1.4,2.8-3.2,5.5-4.9,8.1c-2.7,4-5.6,7.8-8.4,11.6
		c-2.9,3.9-5.7,7.8-8.6,11.7c-0.8,1.1-1.4,2.2-2.2,3.2c-0.3-0.8-0.6-1.6-0.9-2.4c-3-8-7-15.4-12.6-21.8c-0.7-0.8-1.5-1.5-2.1-2.5
		c0.5-1.9,0.5-3.7,0.2-5.6c-0.7-3.5-2.8-6.1-5.3-8.3c-1.4-1.3-3.1-2.2-4.6-3.3c0.3,0,0.6-0.1,0.9-0.1c16.4,0,32.8,0,49.1,0
		c0.7,0,0.9,0.3,1,0.8C172.2,98.8,172.5,100.2,172.8,101.6z"/>
	<path class="st2" d="M76.1,22.2c1.1,0,2-0.4,3-0.7c2.7-0.8,5.5-1.5,8.3-2c2.2-0.4,4.4-0.7,6.6-0.9c3-0.3,5.9-0.3,8.9-0.3
		c2.7,0,5.5,0.3,8.2,0.8c3.1,0.5,6.2,1.1,9.2,2c1.5,0.4,3,0.9,4.5,1.4c0.2,0.1,0.4,0.1,0.4,0.3c-0.3,0-0.6,0.1-1,0.1
		c-3,0-6-0.1-9-0.1c-0.7,0-0.9,0.2-0.9,0.8c0,1.6,0,3.2,0,4.7c0,13.1,0,26.1,0,39.2c0,0.3,0.2,0.7-0.3,0.9c-0.4-0.5-0.9-1-1.2-1.6
		c-1.9-2.8-3.7-5.7-5.7-8.4c-1.9-2.6-4.4-4.5-7.6-5.3c-0.4-0.1-0.7-0.2-1.1-0.4c-1.3-0.5-2.7-0.8-4.1-0.8c-1.7,0-3.4,0-5,0
		c-1.2,0-2.5,0-3.7,0c-2.2,0-2.2,0-2.2-2.2c0-0.7,0.2-0.9,0.9-0.9c2.3-0.1,4.3-1.7,4.8-4c0.2-0.8,0.2-1.6,0.2-2.4
		c0-3,0.1-5.9-0.1-8.9c0.1-0.2,0.1-0.4,0-0.5c-0.5-2.6-1.9-4.5-4.2-5.7c-2.4-1.1-4.9-1-7.3-0.4c-0.5,0.1-0.6,0.1-0.5-0.4
		C77.5,24.8,77,23.5,76.1,22.2z"/>
	<path class="st2" d="M24.4,84.8c-0.5-1.6-0.6-3.2-0.9-4.8c-0.2-1.6-0.2-3.2-0.2-4.8c0-3.5,0.6-6.9,1.7-10.2c1.2-4,3.2-7.7,5.6-11.2
		c1.4-2,2.9-3.9,4.6-5.7c1.2-1.3,2.4-2.5,3.6-3.7c3-3.1,6.5-5.7,9.9-8.2c2.7-2,5.5-3.7,8.4-5.4c2.4-1.4,4.9-2.5,7.3-3.8
		c0.6-0.3,1-0.6,1-1.3c0,0.4,0,0.9,0.1,1.3c0.6,3.2,3.5,5.3,6.8,4.8c0.3,0,0.7-0.2,0.6,0.4c-0.3,1.7-0.3,3.3-0.3,5
		c-0.3,0.1-0.6,0.1-0.8,0.2c-1.2,0.4-2.1,1.7-2,2.9c0.1,1.4,1.1,2.6,2.5,2.8c0.5,0.1,0.7,0.3,0.7,0.8c0,2.4,0,4.7,0,7.1
		c0,0.6-0.2,0.8-0.9,0.8c-1.5,0-2.9,0-4.4,0c-1.6,0-3.3-0.1-4.9-0.1c-2,0-4,0.2-6.1,0.5c-1.6,0.2-3.3,0.6-4.8,1.2
		c-4.3,1.9-7.9,4.9-11.2,8.2c-1.6,1.6-3,3.4-4.4,5.2c-0.8,1-0.8,1,0,1.9c-2.8,3.4-5.5,6.9-8,10.5C26.9,81.1,25.6,83,24.4,84.8z"/>
	<path class="st3" d="M24.4,84.8c1.3-1.8,2.5-3.7,3.8-5.5c2.5-3.6,5.2-7.1,8-10.5c0.2,0.2,0.5,0.3,0.7,0.5c2.3,1.9,4.6,3.7,6.8,5.6
		c1.5,1.3,3.2,2.4,4.6,3.9c-0.1,0.1-0.3,0.3-0.4,0.4c-4.3,5.3-8.3,10.9-11.9,16.7c-1.3,2.1-2.6,4.1-3.7,6.4c-2,3.5-3.9,7.1-5.4,10.9
		c-0.4,1.2-0.5,2.4-0.5,3.6c0,2,0.1,4-0.1,6c-0.1,1.2-0.5,1.7-1.4,1.8c-1.1,0.1-2.1-0.4-2.5-1.4c-0.2-0.6-0.3-1.2-0.4-1.9
		c-0.4-1.8-1.5-2.6-3.3-2.5c-1.4,0.1-2.8,1.3-3,2.8c-0.5,0.2-0.5,0.8-0.6,1.2c-0.6,1.8-0.5,3.7-0.5,5.6c0.1,1,0.1,2.1,0.2,3.1
		c0.1,0.8-0.1,1.4-0.9,1.7c-0.8,0.3-1.7,0.1-2.2-0.7c-1-1.4-1.8-3-2.2-4.7c-1.1-3.9-0.9-7.8-0.1-11.7c0.9-4.8,2.9-9.2,5-13.5
		c2.9-5.9,6.1-11.7,9.6-17.3C24.1,85.3,24.2,85,24.4,84.8z"/>
	<path class="st4" d="M94.4,177.6c-1.8-1.9-3.8-3.6-5.7-5.4c-0.6-0.6-1.2-1.2-1.8-1.7c-1.9-1.4-3.2-3.2-3.9-5.4
		c-0.2-0.7-0.5-0.9-1.1-0.3c-0.2,0.2-0.5,0.5-0.8,0.5c-1.3-1.3-2.6-2.6-4.1-3.7c-0.1-0.2-0.3-0.4-0.5-0.5c-0.6-0.4-0.5-0.7-0.1-1.2
		c0.8-0.9,1.6-1.7,2.3-2.7c0.8-1,1.7-1.8,2.3-2.9c0,0,0,0,0,0c0.2,0,0.3-0.1,0.4-0.3c2-2.4,4.1-4.7,5.9-7.2c0.7-0.6,1.2-1.4,1.8-2.1
		c1.9-2.3,3.8-4.5,5.5-6.9c0.6-0.7,1.1-1.4,1.7-2.1c0.9-1.2,0.9-1.2,2.1-0.5c0.4,0.6,1.1,1,1.6,1.4c2.8,2.3,5.7,4.6,8.5,7
		c1.3,1.1,2.7,2.1,4,3.2c0.3,0.2,0.5,0.5,0.8,0.7c0.4,0.3,0.5,0.6,0.1,1c-0.4,0.5-0.8,1-1.2,1.5c-2.2,2.8-4.3,5.5-6.5,8.3
		c-0.9,1-1.8,2-2.6,3.1c-0.9,1-1.8,2.1-2.6,3.2c-1,1.2-2,2.5-3.1,3.6c-1.1,1-0.9,2-0.5,3.2c0.6,1.5,1.3,3,2.1,4.4
		c0.8,1.7,0.7,3-0.7,4.3c-0.4,0.4-0.6,0.5-1.1,0.1C96.2,179.3,95.4,178.3,94.4,177.6z"/>
	<path class="st4" d="M136.6,187.5c-0.3-0.1-0.4-0.2-0.5-0.5c-0.7-3.9-1.4-7.8-2.1-11.7c-0.2-0.9-0.3-1.8-0.5-2.8
		c-0.2-1.3-0.3-2.6-0.5-3.9c-0.3-2.2-0.6-4.4-1.2-6.5c-0.2-1.6-0.6-3.1-1-4.7c-0.2-0.8-0.5-1.6,0.7-1.9l0.1,0c0.2,0,0.5,0,0.7-0.1
		c3.9-1.1,7.8-2.2,11.8-3.3c1.7-0.5,3.3-0.9,5-1.4c0.1,0,0.2,0,0.2,0c1.5-0.3,1.5-0.3,1.8,1.2c1,4.5,1.9,9,2.5,13.6
		c0.6,4.2,1.1,8.5,1.3,12.8c0.1,1.1,0.6,1.7,1.5,2.2c1.7,0.8,3.6,1.3,5.3,2.1c0.6,0.3,1.1,0.7,1.4,1.2c0.3,0.5,0.5,1.1,0.3,1.7
		c0,0.2-0.1,0.4-0.1,0.6c-0.1,1.7-0.1,1.7-1.7,1.7c-4.7,0-9.5-0.1-14.2-0.1c-1.3,0-2.4-0.2-3.6-0.7c-0.4-0.2-0.8-0.3-1.2-0.5
		c-0.7-0.3-1.1-0.3-1.1,0.6c0,0.2,0,0.4-0.3,0.5c-0.7-0.1-1.4-0.1-2.1,0C138.5,187.5,137.6,187.5,136.6,187.5z"/>
	<path class="st2" d="M100.5,164.5c0.8-1.1,1.7-2.2,2.6-3.2c1.6-0.5,2.3-1.6,2.6-3.1c2.2-2.8,4.3-5.5,6.5-8.3c0.4-0.5,0.8-1,1.2-1.5
		c0.3-0.4,0.3-0.7-0.1-1c-0.3-0.2-0.5-0.5-0.8-0.7c1.1-1.5,2.1-2.9,3.2-4.4c1.5-2.1,3-4.2,4.5-6.2c0.5,1.1,0.6,2.3,0.9,3.5
		c0.9,3.7,1.7,7.4,2.5,11.1c0.9,4,1.8,8.1,2.7,12.1c0.4,1.7,0.8,3.3,1.1,5c-2.3,3-4.9,5.8-7.7,8.3c-1.6,1.5-3.4,2.8-5.3,3.9
		c-2.8,1.7-5.8,2.2-9,1.6c-0.3-0.1-0.5-0.1-0.8-0.2c-0.4-0.3-0.2-0.7-0.3-1.1c-0.8-3.4-1.6-6.8-2.4-10.2
		C101.5,168.3,101,166.4,100.5,164.5z"/>
	<path class="st0" d="M119.9,96.6c0-0.1,0-0.1,0-0.2c0-2.1,0-4.2,0-6.3c0-0.8,0.3-1.8-0.1-2.3c-0.5-0.5-1.6-0.2-2.4-0.2
		c-3.6,0-7.2,0-10.8,0c-0.3,0-0.7,0.2-0.8-0.3c0-1-0.3-2-0.1-3c10.4,0,20.8,0,31.2,0c0.7,0,1,0.1,0.9,0.9c-0.1,0.6,0,1.1,0,1.7
		c-0.1,0.7,0.2,0.8,0.8,0.8c2.4,0,4.7,0,7.1,0c0.7,0,0.8-0.2,0.8-0.9c0-3.4,0-6.8,0-10.1c0.2,0.3,0.1,0.6,0.1,0.9c0,3.1,0,6.3,0,9.4
		c0,0.6,0.2,0.8,0.8,0.8c1.1,0,2.2,0,3.4,0c3.3,0,6.5,0,9.8,0c0.3,0,0.7,0,1-0.2c0.3,0.2,0.7,0.1,1,0.1c4.6,0,9.1,0,13.7,0
		c0.3,0,0.6,0,0.9-0.1c1.5,0.1,2.9,0.1,4.4,0c0.7,0,0.9,0.1,0.9,0.9c0,2.4,0,4.8,0,7.2c0,0.7-0.2,1-0.9,0.9c-0.5,0-1,0-1.4,0
		c-0.2,0-0.5-0.1-0.7-0.1c-19.3,0-38.6,0-57.9,0c-0.3,0-0.6-0.1-0.8,0.2C120.4,96.6,120.2,96.6,119.9,96.6z"/>
	<path class="st3" d="M149.2,150.7c-1.7,0.5-3.3,0.9-5,1.4c-3.9,1.1-7.8,2.2-11.8,3.3c-0.2,0.1-0.5,0.1-0.7,0.1
		c-0.6-3-1.6-5.9-2.5-8.8c-0.2-0.8-0.4-1.6-0.9-2.2c0-0.1,0-0.2,0-0.2c0-0.1-0.1-0.2-0.1-0.3c-0.4-2.4-0.9-4.7-1.3-7.1
		c-0.8-4.4-1.6-8.9-2.5-13.3c-1-5.5-2-10.9-3-16.4c0-0.1,0-0.2,0-0.2c0.1,0,0.2,0,0.2,0.1c2.7,1.8,5.4,3.7,7.7,6
		c0.4,0.4,0.7,1,1.4,1c0.5,1,1.3,1.7,2.1,2.5c5.6,6.4,9.6,13.8,12.6,21.8c0.3,0.8,0.6,1.6,0.9,2.4c0.5,1.6,1,3.2,1.5,4.8
		C148.2,147.2,148.7,149,149.2,150.7z"/>
	<path class="st1" d="M120.7,96.7c0.2-0.3,0.5-0.2,0.8-0.2c19.3,0,38.6,0,57.9,0c0.2,0,0.5,0,0.7,0.1c-0.4,0.8,0,1.6,0.2,2.4
		c1.1,6.4,2.3,12.7,3.5,19c0.9,5,1.9,10,2.8,14.9c1.2,6.4,2.4,12.8,3.6,19.2c1,5.5,2,11,3.1,16.5c1,5.5,2,11.1,3.1,16.6
		c0.2,1.2,0.4,2.4,0.7,3.6c0.1,0.3,0,0.5-0.4,0.5c-1.1,0-2.3,0-3.4,0c-0.4,0-0.5-0.2-0.6-0.5c-1.2-5.5-2.5-11.1-3.8-16.6
		c-1.3-5.7-2.5-11.4-3.8-17.1c-1.1-4.7-2.2-9.5-3.3-14.2c-1.3-5.7-2.5-11.4-3.8-17c-1.1-4.8-2.2-9.5-3.3-14.3
		c-0.6-2.5-1.1-5.1-1.7-7.7c0-0.1-0.1-0.2-0.1-0.4c-0.3-1.4-0.6-2.8-0.9-4.1c-0.1-0.6-0.4-0.8-1-0.8c-16.4,0-32.8,0-49.1,0
		c-0.3,0-0.6,0.1-0.9,0.1C120.8,96.7,120.8,96.7,120.7,96.7z"/>
	<path class="st2" d="M32.3,102.3c1-2.2,2.4-4.3,3.7-6.4c3.6-5.8,7.6-11.4,11.9-16.7c0.1-0.1,0.3-0.3,0.4-0.4c0.1,0,0.2,0.1,0.3,0.1
		c0.5,0.7,0.9,0.4,1.3-0.1c0.7-0.9,1.4-1.7,2.1-2.6c0.2-0.2,0.3-0.5,0.6-0.4c0.2,0.1,0.1,0.4,0.1,0.7c0,3.4,0,6.9,0,10.3
		c0,0.7,0.2,1.1,1,1.1c0,2.4,0,4.7,0,7.1c0,1.8-0.1,3.5,0.3,5.3c0.9,3.7,2.9,6.6,6.2,8.5c0.1,0.3-0.1,0.5-0.1,0.7
		c-2.2,0-4.4,0-6.7,0c-2.5,0.1-4.3,1.3-5.6,3.4c-0.7,1.1-0.7,2.4-0.8,3.6c-1.1-0.7-1.9-1.6-2.9-2.4c-1.8-1.6-3.7-3.2-5.4-4.9
		c-1.9-2-4-3.9-5.5-6.2C33,102.7,32.8,102.3,32.3,102.3z"/>
	<path class="st1" d="M150.8,87.6c-1.1,0-2.3,0-3.4,0c-0.6,0-0.8-0.2-0.8-0.8c0-3.1,0-6.3,0-9.4c0-0.3,0.1-0.6-0.1-0.9
		c0,0-0.1,0,0-0.1c0-0.2,0-0.5,0-0.7c0-1.4,0.1-1.2-1.2-1.2c-7.9,0-15.8,0-23.7,0c-1,0-2,0-3,0c-1.1,0-2.2-0.1-3.3,0
		c-0.6,0-0.9-0.1-0.8-0.8c0.1-0.9,0-1.8,0-2.6c0-0.4-0.1-0.8-0.3-1.1c0.4-0.6,0.5-1.1,0.1-1.7c0.5-0.2,0.3-0.6,0.3-0.9
		c0-13.1,0-26.1,0-39.2c0-1.6,0-3.2,0-4.7c0-0.7,0.2-0.9,0.9-0.8c3,0.1,6,0.1,9,0.1c0.3,0,0.6,0,1-0.1c0,0.1,0,0.1,0.1,0.2
		c-1.3,0.2-2.5,0.1-3.8,0.1c-0.8,0-1,0.2-1,1c0,13.8,0,27.6,0,41.4c0,2.7,0,5.5,0,8.2c0,0.6,0.2,0.8,0.8,0.8c8.2,0,16.3,0,24.5,0
		c0.8,0,0.8-0.3,0.8-0.9c0-9.9,0-19.7,0-29.6c0-1.1,0-1.1,1-1.1c1,0,2.1,0,3.1,0c0,0.4,0,0.7,0,1.1C150.8,58.5,150.8,73,150.8,87.6z
		"/>
	<path class="st5" d="M76.9,161.6c1.4,1.2,2.8,2.4,4.1,3.7c0,6.9-0.1,13.7,0,20.6c0,2.3-1.5,3.7-3.5,3.5c-0.9-0.1-1.8,0-2.7,0
		c-1.9,0-3.1-1.2-3.1-3.1c0-8.2,0-16.4,0-24.7C73.5,161.6,75.2,161.6,76.9,161.6z"/>
	<path class="st6" d="M72.5,37.3c0.1-1.7,0-3.4,0.3-5c0.1-0.7-0.3-0.5-0.6-0.4c-3.3,0.4-6.2-1.6-6.8-4.8c-0.1-0.4-0.1-0.8-0.1-1.3
		c0.5-3.4,2.4-5.4,5.5-5.7c2.1-0.2,3.8,0.7,5.2,2.2c0.9,1.3,1.4,2.6,1.3,4.2c0,0.5,0,0.5,0.5,0.4c2.5-0.6,5-0.8,7.3,0.4
		c2.4,1.1,3.7,3.1,4.2,5.7c0,0.2,0.1,0.4,0,0.5c-4.6,0-9.1,0-13.7,0c-0.5,0-0.8,0.2-0.9,0.7c-0.2,0.8-0.4,1.5-0.6,2.2
		C73.8,37.6,73.8,37.6,72.5,37.3z"/>
	<path class="st7" d="M47,116.6c0.1-1.3,0.2-2.5,0.8-3.6c1.3-2.2,3.1-3.4,5.6-3.4c2.2,0,4.4,0,6.7,0c-0.3,1.9-0.7,3.8-1,5.7
		c-0.4,2.3-0.8,4.7-1.3,7c-0.2,1.3-0.5,2.6-0.8,3.9c-1.2,0-2.4,0-3.6,0c-3.5-0.1-6.3-2.9-6.4-6.5C47.1,118.6,47.1,117.6,47,116.6z"
		/>
	<path class="st8" d="M49.8,189.3c0.1-1.3,0.5-2.5,0.7-3.7c1-4.4,2-8.8,3-13.2c0.8-3.6,1.6-7.3,2.5-10.9c2,0,4,0,6,0
		c-1.3,5.5-2.6,11.1-3.8,16.6c-0.6,2.8-1.4,5.7-1.9,8.5c-0.3,1.7-1.4,2.6-3.1,2.6C52.1,189.4,51,189.4,49.8,189.3z"/>
	<path class="st7" d="M62.1,161.6c-2,0-4,0-6,0c-0.1-0.9,0.3-1.8,0.5-2.6c0.3-1.5,0.6-3.1,1.1-4.6c2,0,4,0,6.1,0
		c2.6,0.1,5.3,0.1,7.9,0c3.1,0.1,6.2,0.1,9.3,0c-0.6,1.1-1.5,1.9-2.3,2.9c-0.7,0.9-1.5,1.8-2.3,2.7c-0.4,0.5-0.5,0.8,0.1,1.2
		c0.2,0.1,0.4,0.3,0.5,0.5c-1.7,0-3.5,0-5.2,0C68.5,161.6,65.3,161.6,62.1,161.6z"/>
	<path class="st8" d="M100.5,164.5c0.5,1.9,0.9,3.7,1.4,5.6c0.8,3.4,1.6,6.8,2.4,10.2c0.1,0.4-0.1,0.8,0.3,1.1
		c0.1,1.5,0.6,3,0.9,4.5c0.3,1.7-0.6,3.1-2.2,3.4c-1.5,0.2-3,0.2-4.5,0c-1.5-0.2-2.2-1.2-2.4-2.5c-0.5-2.8-1.3-5.6-1.9-8.4
		c-0.1-0.3-0.1-0.5-0.1-0.8c1,0.7,1.8,1.6,2.7,2.5c0.5,0.4,0.7,0.3,1.1-0.1c1.5-1.2,1.6-2.6,0.7-4.3c-0.7-1.4-1.5-2.9-2.1-4.4
		c-0.5-1.2-0.6-2.2,0.5-3.2C98.6,167.1,99.5,165.8,100.5,164.5z"/>
	<path class="st2" d="M177.2,87.5c-0.3,0-0.6,0.1-0.9,0.1c-4.6,0-9.1,0-13.7,0c-0.3,0-0.7,0-1-0.1c0-0.3,0.1-0.5,0.1-0.8
		c1.5-0.4,3-0.8,4.5-1.3c2-0.6,4-0.9,5.9-1.7c1-0.5,1.5-1.3,1.3-2.2c-0.2-1-1-1.7-2.1-1.7c-1,0-2,0-3,0c-0.8,0-1.3-0.4-1.7-1
		c-0.9-1.3-0.8-2.7,0-4c0.3-0.3,0.7-0.4,1.1-0.4c1.1,0,2.2,0,3.4,0c0.7,0,1.3,0.1,2,0.3c0.7,0.2,1.6,0.5,2.3-0.2
		c0-0.1,0.1-0.1,0.1-0.2c1-0.8,1-1.9,0-2.6c-0.1-0.7-0.1-1.4,0-2.1c0.1,0,0.3,0,0.4,0c0.2,1.1,0.5,2.2,0.7,3.3
		c0.4,1.9,0.7,3.8,0.8,5.8c0.1,1.6,0.2,3.1,0.1,4.7C177.6,84.8,177.3,86.1,177.2,87.5z"/>
	<path class="st7" d="M51.8,154.4c-0.3,2.4-0.8,4.8-1.3,7.2c-2-0.2-3.4-1.7-3.4-3.7c0-1.9,1.6-3.4,3.6-3.5
		C51,154.3,51.4,154.4,51.8,154.4z"/>
	<path class="st9" d="M14.6,128.5c0-1.9-0.1-3.8,0.5-5.6c0.1-0.4,0.1-1,0.6-1.2c0.3,1.9,1.5,3.3,2.7,4.7c0.4,0.4,0.7,0.9,0.7,1.5
		c-0.1,1.3-1.3,2.2-2.5,1.7c-0.5-0.2-1-0.5-1.4-0.9C15.1,128.7,14.9,128.4,14.6,128.5z"/>
	<path class="st9" d="M176,69.6c-0.1,0-0.3,0-0.4,0c0-1.2,0-2.5,0-3.7c0.5-0.1,1,0.2,1.5,0.4c0.5,0.2,1,0.6,1,1.2
		c0,0.7-0.3,1.2-0.9,1.6C176.8,69.2,176.4,69.4,176,69.6z"/>
	<path class="st1" d="M139.4,187.5c0.7-0.1,1.4-0.1,2.1,0C140.8,187.7,140.1,187.7,139.4,187.5z"/>
	<path class="st4" d="M161.7,86.6c0,0.3-0.1,0.5-0.1,0.8c-0.3,0.2-0.7,0.2-1,0.2c-3.3,0-6.5,0-9.8,0c0-14.6,0-29.1,0-43.7
		c0-0.4,0-0.7,0-1.1c0.3-0.3,0.6-0.2,0.9-0.2c3,0,6,0,9,0c0.8,0,0.9,0.2,0.9,1c0,10.4,0,20.8,0,31.2c0,2.3,0,4.6,0,6.9
		C161.6,83.3,161.6,85,161.7,86.6z"/>
	<path class="st9" d="M161.7,86.6c0-1.7,0-3.4-0.1-5c0-2.3,0-4.6,0-6.9c0.2-0.2,0.5-0.2,0.8-0.2c1.4,0,2.8-0.1,4.2,0.1
		c0,0.1,0,0.2,0,0.2c-0.8,1.3-0.9,2.7,0,4c0.4,0.6,1,1,1.7,1c1,0,2,0,3,0c1.1,0,1.9,0.7,2.1,1.7c0.2,1-0.3,1.8-1.3,2.2
		c-1.9,0.8-3.9,1.2-5.9,1.7C164.7,85.8,163.2,86.2,161.7,86.6z"/>
	<path class="st3" d="M166.6,74.8c0-0.1,0-0.2,0-0.2c2.7,0.1,5.3,0,8-0.1c0.3,0,0.6,0,1,0.1c-0.7,0.7-1.6,0.4-2.3,0.2
		c-0.7-0.2-1.3-0.3-2-0.3c-1.1,0-2.2,0-3.4,0C167.3,74.4,166.9,74.5,166.6,74.8z"/>
	<path class="st3" d="M175.6,71.7c1,0.8,0.9,1.9,0,2.6C175.6,73.5,175.6,72.6,175.6,71.7z"/>
	<path class="st10" d="M53.7,87.9c-0.8,0.1-1-0.4-1-1.1c0-3.4,0-6.9,0-10.3c0-0.2,0.1-0.6-0.1-0.7c-0.3-0.1-0.5,0.2-0.6,0.4
		c-0.7,0.9-1.5,1.7-2.1,2.6c-0.4,0.5-0.8,0.8-1.3,0.1c-0.1-0.1-0.2-0.1-0.3-0.1c-1.4-1.5-3.1-2.6-4.6-3.9c-2.2-1.9-4.5-3.7-6.8-5.6
		c-0.2-0.2-0.5-0.3-0.7-0.5c-0.8-0.9-0.8-0.9,0-1.9c1.5-1.7,2.9-3.5,4.4-5.2c3.2-3.4,6.8-6.3,11.2-8.2c1.5-0.7,3.1-1,4.8-1.2
		c2-0.3,4-0.5,6.1-0.5c1.6,0,3.3,0,4.9,0.1c0.1,2.7,1.5,4.6,3.8,5.8c4.8,2.7,9.6,2.7,14.3,0c2.2-1.2,3.7-3.1,3.7-5.9
		c1.7,0,3.4,0,5,0c1.4,0,2.8,0.2,4.1,0.8c0.4,0.1,0.7,0.3,1.1,0.4c0,0.3,0.3,0.4,0.4,0.5c2.9,2.1,4.1,5.1,4.1,8.7c-0.1,5,0,10,0,15
		c0,0.3-0.1,0.7,0.2,0.9c-0.1,0.1-0.1,0.2-0.2,0.4c0,0,0,0,0,0c0,1.3,0,2.6,0,3.9c0,0,0,0,0,0c0,0.1,0.1,0.3,0.1,0.4
		c-0.2,0.5-0.1,0.9-0.1,1.4c-0.3,0-0.7,0-1,0c-4.3,0-8.5,0-12.8,0c-0.7,0-1.1,0.2-1,0.9c0.1,0.5,0,1,0,1.4c0.1,0.8-0.2,1-1,1
		c-9.5,0-19.1,0-28.6,0c-0.3,0-0.7-0.1-1,0.1c-0.1,0-0.1,0-0.2,0.1C57,87.8,55.4,87.8,53.7,87.9z"/>
	<path class="st11" d="M58.8,87.7c0.3-0.2,0.7-0.1,1-0.1c9.5,0,19.1,0,28.6,0c0.8,0,1.1-0.2,1-1c-0.1-0.5,0-1,0-1.4
		c-0.1-0.8,0.3-0.9,1-0.9c4.3,0,8.5,0,12.8,0c0.3,0,0.7,0,1,0c0.5,0,1,0,1.5,0c0,0,0.1,0,0.1,0c-0.2,1,0,2,0.1,3
		c0,0.5,0.5,0.3,0.8,0.3c3.6,0,7.2,0,10.8,0c0.8,0,1.9-0.4,2.4,0.2c0.5,0.5,0.1,1.5,0.1,2.3c0,2.1,0,4.2,0,6.3c-3.1,0-6.3,0-9.4,0
		c-16.9,0-33.7,0-50.6,0c-1.1,0-1.1,0-1.1-1.1C58.8,92.8,58.8,90.3,58.8,87.7z"/>
	<path class="st7" d="M64,126.1c0.6-2.9,1.3-5.8,1.9-8.6c0.4-2,0.9-3.9,1.3-5.9c0.1-0.6,0.4-0.8,1-0.8c2.7,0,5.3,0,8,0
		c2.3,0,4.7,0.2,7,0.4c4,0.3,8,0.8,11.8,2.3c0.6,0.2,0.9,0.2,1.2-0.4c0.5,0.2,1,0.3,1.4,0.5c2.7,1,5.4,2.1,7.9,3.6
		c0,0.9,0,1.8,0,2.6c-0.1,2.5-1.3,4.4-3.5,5.6c-0.9,0.5-2,0.8-3.1,0.8c-2.4,0-4.9-0.1-7.3,0.1c-1-0.2-2-0.1-3-0.1
		c-2.2,0-4.3-0.1-6.5,0.1c-0.5-0.1-0.9-0.2-1.3,0.1c-0.7-0.3-1.4-0.1-2.1-0.1c-2.4,0-4.8-0.1-7.2,0.1c-0.5-0.1-1.1-0.2-1.6,0.1
		c-0.1-0.2-0.3-0.2-0.5-0.2C67.7,126.1,65.9,126.1,64,126.1z"/>
	<path class="st12" d="M96.3,113c-0.2,0.6-0.6,0.6-1.2,0.4c-3.8-1.5-7.8-2-11.8-2.3c-2.3-0.2-4.6-0.4-7-0.4c-1-0.2-2-0.1-2.9-0.1
		c-1.7,0-3.5,0-5.2,0c-0.4,0-0.6,0-0.5-0.6c1-4.2,1.9-8.3,2.8-12.5c0.1-0.7,0.4-0.8,1.1-0.8c9.2,0,18.4,0,27.5,0c0.8,0,1.7,0,2.5,0
		c-0.6,2-1.2,4-1.8,6.1c-0.1,0.3-0.3,0.6-0.7,0.7c-0.9,0.4-1.7,0.8-2.6,1.1c-0.6,0.2-0.5,0.5-0.2,0.8c0.6,0.8,1.1,1.5,1.6,2.3
		c0.2,0.3,0.2,0.6,0.1,1C97.5,110.2,96.7,111.5,96.3,113z"/>
	<path class="st9" d="M120.1,136.1c-1.5,2.1-3,4.1-4.5,6.2c-1.1,1.5-2.1,2.9-3.2,4.4c-1.3-1.1-2.7-2.1-4-3.2c-2.8-2.3-5.7-4.6-8.5-7
		c-0.6-0.5-1.2-0.8-1.6-1.4c2.1-2.9,4.3-5.9,6.3-8.9c1.6-2.3,3-4.7,4.5-7c0.3,0,0.6,0.1,0.9,0.3c2.6,1.9,5,3.9,7.2,6.2
		c0.2,0.2,0.4,0.5,0.7,0.6C118.8,129.6,119.6,132.8,120.1,136.1z"/>
	<path class="st3" d="M118,126.4c-0.4,0-0.5-0.3-0.7-0.6c-2.2-2.3-4.6-4.4-7.2-6.2c-0.3-0.2-0.5-0.3-0.9-0.3c0-0.2,0-0.3-0.2-0.4
		c-1.1-0.6-2.1-1.4-3.3-1.8c-2.5-1.5-5.2-2.6-7.9-3.6c-0.5-0.2-1-0.3-1.4-0.5c0.5-1.5,1.2-2.8,1.8-4.3c0.1-0.4,0.1-0.6-0.1-1
		c-0.6-0.7-1.1-1.5-1.6-2.3c-0.3-0.4-0.4-0.6,0.2-0.8c0.9-0.3,1.7-0.8,2.6-1.1c0.4-0.1,0.6-0.4,0.7-0.7c0.6-2,1.2-4,1.8-6.1
		c2.8,0,5.5-0.1,8.3,0c-0.1,1.3-0.7,2.3-2.1,2.5c-0.1,0-0.4,0-0.4,0.2c0,0.2,0.2,0.2,0.3,0.3c1.4,0.6,2.9,1.2,4.3,1.9
		c0.2,0.1,0.3-0.1,0.5-0.1c0.6,2.6,1.2,5.2,1.8,7.8c1.2,5.5,2.5,10.9,3.7,16.4C118,126,118,126.2,118,126.4z"/>
	<path class="st8" d="M64,126.1c1.9,0,3.7,0,5.6,0c0.2,0,0.4,0,0.5,0.2c0,0.3,0,0.7-0.1,1c-0.7,3.1-1.4,6.3-2.2,9.4
		c-0.1,0.3-0.2,0.6-0.3,0.9c-0.5,2.4-1,4.7-1.6,7.1c-0.7,3.2-1.5,6.4-2.2,9.7c-2,0-4,0-6.1,0c0.7-3.1,1.4-6.2,2.1-9.4
		c1.1-4.9,2.2-9.8,3.3-14.7C63.4,128.8,63.7,127.5,64,126.1z"/>
	<path class="st12" d="M53.7,87.9c1.6,0,3.3,0,4.9,0c0,2.6,0.1,5.3,0,7.9c0,0.8,0.2,1.1,1,1c0.8-0.1,1.6,0,2.3,0
		c0.3,0,0.5,0,0.4,0.4c-0.7,3.8-1.4,7.6-2.1,11.4c0,0.1,0,0.1-0.1,0.2c-3.3-1.9-5.3-4.8-6.2-8.5c-0.4-1.7-0.3-3.5-0.3-5.3
		C53.7,92.6,53.7,90.2,53.7,87.9z"/>
	<path class="st9" d="M120.7,96.7c0.1,0,0.1,0,0.2,0.1c1.5,1.1,3.2,2,4.6,3.3c2.6,2.3,4.6,4.9,5.3,8.3c0.4,1.9,0.3,3.8-0.2,5.6
		c-0.7,0-1-0.6-1.4-1c-2.3-2.3-5-4.2-7.7-6c-0.1,0-0.2,0-0.2-0.1c-0.5-2.6-1-5.2-1.5-7.8c-0.1-0.7-0.2-1.3-0.4-2
		c-0.1-0.4,0.1-0.5,0.4-0.5C120.2,96.6,120.4,96.6,120.7,96.7z"/>
	<path class="st9" d="M112.4,101.6c-0.1,0-0.3,0.2-0.5,0.1c-1.4-0.6-2.9-1.2-4.3-1.9c-0.2-0.1-0.3-0.1-0.3-0.3
		c0-0.2,0.2-0.2,0.4-0.2c1.5-0.2,2-1.2,2.1-2.5c1.5-0.1,1.5-0.1,1.8,1.4C111.9,99.3,112.2,100.5,112.4,101.6z"/>
	<path class="st2" d="M128.3,144.4c0.5,0.7,0.6,1.5,0.9,2.2c0.9,2.9,2,5.8,2.5,8.8c0,0-0.1,0-0.1,0c-0.4,0.1-0.8,0.1-1.3,0.2
		c-0.3-1.3-0.5-2.5-0.8-3.8c-0.4-2.3-0.8-4.6-1.2-6.9C128.3,144.8,128.3,144.6,128.3,144.4z"/>
	<path class="st13" d="M131.9,162.1c0.6,2.1,0.8,4.3,1.2,6.5c0.2,1.3,0.3,2.6,0.5,3.9c-0.1,0-0.3,0.1-0.2,0c0.1-1.3-0.5-2.5-0.7-3.7
		c-0.2-1.3-0.4-2.6-0.7-3.8c-0.2-0.9-0.3-1.9-0.4-2.8C131.6,162.1,131.8,162.1,131.9,162.1z"/>
	<path class="st14" d="M131.9,162.1c-0.2,0-0.3,0-0.5,0c-0.4-2.1-0.7-4.3-1.1-6.4c0.4-0.1,0.8-0.1,1.3-0.2c-1.2,0.3-0.9,1.1-0.7,1.9
		C131.4,158.9,131.8,160.5,131.9,162.1z"/>
	<path class="st2" d="M128.2,143.9c0,0.1,0.1,0.2,0.1,0.3C128.2,144.1,128.2,144,128.2,143.9z"/>
	<path class="st3" d="M89.4,51.9c0,2.7-1.5,4.6-3.7,5.9c-4.7,2.7-9.6,2.7-14.3,0c-2.2-1.3-3.7-3.2-3.8-5.8c1.5,0,2.9,0,4.4,0
		c0.6,0,0.9-0.2,0.9-0.8c0-2.4,0-4.7,0-7.1c0-0.5-0.1-0.7-0.7-0.8c-1.4-0.2-2.3-1.3-2.5-2.8c-0.1-1.2,0.8-2.5,2-2.9
		c0.3-0.1,0.6-0.2,0.8-0.2c1.3,0.2,1.3,0.2,1.6-1c0.2-0.7,0.4-1.5,0.6-2.2c0.1-0.5,0.3-0.7,0.9-0.7c4.6,0,9.1,0,13.7,0
		c0.2,3,0,5.9,0.1,8.9c0,0.8,0,1.6-0.2,2.4c-0.6,2.3-2.5,3.9-4.8,4c-0.7,0-0.9,0.2-0.9,0.9c0,2.2,0,2.2,2.2,2.2
		C87,51.9,88.2,51.9,89.4,51.9z M74.5,44.8c0.2,1.4,0.8,2.7,1.9,3.6c1.8,1.5,3.8,1.6,5.9,1c0.2-0.1,0.5-0.1,0.5-0.3
		c0-0.3-0.3-0.3-0.5-0.3c-2.9-0.2-5.2-1.3-7-3.5C75,45,74.9,44.7,74.5,44.8z M84,41.9c1.4,0,1.4,0,1.1-1.4c-0.2-1-0.4-1.9-0.6-2.9
		c-0.1-0.3-0.1-0.6-0.1-0.9c-0.1-0.3-0.2-0.5-0.6-0.4c-0.4,0.1-0.4,0.4-0.3,0.6c0.3,0.9,0.3,1.9,0.6,2.9c0.3,1,0.3,1-0.7,1.2
		c-0.3,0-0.5,0.1-0.5,0.5c0,0.4,0.2,0.4,0.5,0.4C83.6,41.9,83.8,41.9,84,41.9z M80.6,34c-0.9,0.1-1.8,0.5-2.6,1
		c-0.2,0.1-0.2,0.3-0.1,0.6c0.2,0.2,0.4,0.3,0.6,0.1c0.7-0.5,1.4-0.7,2.2-0.9c0.3,0,0.4-0.2,0.4-0.5C81.2,34,80.9,34,80.6,34z
		 M85,34c-0.2,0-0.5,0-0.6,0.3c0,0.2,0,0.5,0.2,0.5c0.9,0.1,1.7,0.4,2.4,0.9c0.2,0.2,0.4,0,0.5-0.2c0.2-0.2,0.1-0.4-0.1-0.5
		C86.8,34.5,85.9,34.1,85,34z M82.4,44.2c0.2,0,0.4,0,0.5-0.3c0-0.2,0-0.4-0.3-0.5c-0.9-0.2-1.4-0.7-1.6-1.5
		c-0.1-0.2-0.3-0.3-0.5-0.2c-0.2,0-0.3,0.2-0.3,0.4C80.2,43,81.5,44.2,82.4,44.2z M86.8,37.1c-0.1-0.4-0.2-0.8-0.7-0.8
		c-0.5,0-0.8,0.3-0.8,0.7c0,0.5,0.3,0.8,0.7,0.8C86.5,37.9,86.7,37.6,86.8,37.1z M73.5,40.8c0.2,0,0.4-0.1,0.3-0.5
		c-0.2-0.6-0.5-1-1.1-1.2c-0.2-0.1-0.5-0.3-0.6,0c-0.1,0.3-0.1,0.6,0.2,0.7c0.3,0.1,0.5,0.3,0.6,0.7C73,40.8,73.2,40.8,73.5,40.8z
		 M80.6,37.1c0-0.4-0.2-0.7-0.7-0.8c-0.5,0-0.8,0.3-0.8,0.7c0,0.5,0.3,0.8,0.8,0.8C80.3,37.9,80.5,37.6,80.6,37.1z"/>
	<path class="st15" d="M104.4,78.2c-0.3-0.3-0.2-0.6-0.2-0.9c0-5-0.1-10,0-15c0.1-3.6-1.1-6.5-4.1-8.7c-0.2-0.1-0.5-0.2-0.4-0.5
		c3.2,0.7,5.7,2.7,7.6,5.3c2,2.7,3.8,5.6,5.7,8.4c0.4,0.6,0.8,1.1,1.2,1.6c0.5,0.6,0.3,1.2-0.1,1.7c-1.3,0.8-2.4,1.9-3.5,2.9
		C108.5,74.7,106.4,76.4,104.4,78.2z"/>
	<path class="st5" d="M71.7,126.1c2.4-0.2,4.8,0,7.2-0.1c0.7,0,1.4-0.2,2.1,0.1c0,9.4,0,18.7,0,28.1c0,0,0,0,0,0
		c-3.1,0.1-6.2,0.1-9.3,0c0-1.2,0-2.4,0-3.6c0-3.3,0-6.6,0-9.9C71.7,135.9,71.7,131,71.7,126.1z"/>
	<path class="st8" d="M82.4,126.1c2.2-0.2,4.3,0,6.5-0.1c1,0,2-0.1,3,0.1c0,0.2,0,0.4,0,0.6c0.7,2.8,1.3,5.7,2,8.5
		c0.2,0.9,0.3,1.8,0.7,2.6c-1.7,2.4-3.6,4.6-5.5,6.9c-0.6,0.7-1.1,1.5-1.8,2.1c-0.1-0.1-0.2-0.2-0.2-0.3c-0.5-2.3-1-4.5-1.5-6.8
		c-0.8-3.4-1.5-6.9-2.4-10.3C83,128.3,82.9,127.2,82.4,126.1z"/>
	<path class="st2" d="M94.6,137.8c-0.5-0.8-0.5-1.7-0.7-2.6c-0.7-2.8-1.3-5.7-2-8.5c0-0.2,0-0.4,0-0.6c2.4-0.2,4.9,0,7.3-0.1
		c1.1,0,2.1-0.2,3.1-0.8c2.2-1.2,3.3-3.1,3.5-5.6c0-0.9,0-1.8,0-2.6c1.2,0.5,2.2,1.2,3.3,1.8c0.2,0.1,0.2,0.3,0.2,0.4
		c-1.4,2.4-2.9,4.7-4.5,7c-2,3-4.2,5.9-6.3,8.9c-1.2-0.7-1.2-0.7-2.1,0.5C95.7,136.4,95.1,137.1,94.6,137.8z"/>
	<path class="st2" d="M82.4,126.1c0.5,1,0.6,2.2,0.9,3.3c0.8,3.4,1.6,6.8,2.4,10.3c0.5,2.3,1,4.5,1.5,6.8c0,0.1,0.1,0.3,0.2,0.3
		c-1.8,2.5-4,4.8-5.9,7.2c-0.1,0.1-0.2,0.3-0.4,0.3c0-9.4,0-18.7,0-28.1C81.4,125.9,81.9,126.1,82.4,126.1z"/>
	<path class="st16" d="M105.7,158.2c-0.3,1.5-1,2.7-2.6,3.1C103.9,160.2,104.8,159.2,105.7,158.2z"/>
	<path class="st9" d="M104.4,78.2c2.1-1.7,4.1-3.5,6.2-5.2c1.2-1,2.3-2.1,3.5-2.9c0.3,0.3,0.3,0.7,0.3,1.1c0,0.9,0,1.8,0,2.6
		c0,0.7,0.2,0.8,0.8,0.8c1.1,0,2.2,0,3.3,0c0.4,0.5,1,0.9,1.5,1.3c5.4,4.1,11.4,5.2,18,3.5c2.9-0.8,5.6-1.8,8.4-2.9c0,0,0,0.1,0,0.1
		c0,3.4,0,6.8,0,10.1c0,0.6-0.1,0.9-0.8,0.9c-2.4,0-4.7,0-7.1,0c-0.6,0-0.9-0.1-0.8-0.8c0.1-0.6,0-1.1,0-1.7
		c0.1-0.7-0.2-0.9-0.9-0.9c-10.4,0-20.8,0-31.2,0c0,0-0.1,0-0.1,0c-0.4-0.5-0.8-1-1.4-1.4c0-0.1-0.1-0.3-0.1-0.4c0,0,0,0,0,0
		c0-1.3,0-2.6,0-3.9c0,0,0,0,0,0C104.3,78.4,104.3,78.3,104.4,78.2z"/>
	<path class="st2" d="M146.5,76.5c-2.7,1.1-5.5,2.1-8.4,2.9c-6.6,1.8-12.6,0.6-18-3.5c-0.5-0.4-1.1-0.7-1.5-1.3c1,0,2,0,3,0
		c7.9,0,15.8,0,23.7,0c1.3,0,1.2-0.2,1.2,1.2C146.5,76,146.5,76.3,146.5,76.5z"/>
	<path class="st17" d="M71.7,140.8c0,3.3,0,6.6,0,9.9c0,1.2,0,2.4,0,3.6c-2.6,0.1-5.3,0.1-7.9,0c0.7-3.2,1.5-6.4,2.2-9.7
		c0.5-2.4,1-4.7,1.6-7.1c0.1-0.3,0.2-0.6,0.3-0.9c0.6,0,0.8,0.4,1.1,0.8C69.9,138.5,70.7,139.8,71.7,140.8z"/>
	<path class="st14" d="M104.3,82.8c0.5,0.4,1,0.9,1.4,1.4c-0.5,0-1,0-1.5,0C104.2,83.7,104.1,83.2,104.3,82.8z"/>
	<path class="st14" d="M104.2,78.5C104.2,78.5,104.2,78.5,104.2,78.5C104.2,78.5,104.2,78.5,104.2,78.5z"/>
	<path class="st14" d="M104.2,82.4C104.2,82.4,104.2,82.4,104.2,82.4C104.2,82.4,104.2,82.4,104.2,82.4z"/>
	<path class="st2" d="M71.7,140.8c-1-1-1.8-2.3-2.7-3.4c-0.3-0.4-0.5-0.8-1.1-0.8c0.7-3.1,1.4-6.3,2.2-9.4c0.1-0.3,0.1-0.7,0.1-1
		c0.5-0.3,1.1-0.2,1.6-0.1C71.7,131,71.7,135.9,71.7,140.8z"/>
	<path class="st9" d="M74.5,44.8c0.4,0,0.6,0.2,0.7,0.4c1.8,2.2,4.2,3.4,7,3.5c0.2,0,0.5,0,0.5,0.3c0,0.3-0.3,0.3-0.5,0.3
		c-2.1,0.6-4.2,0.5-5.9-1C75.2,47.4,74.7,46.2,74.5,44.8z"/>
	<path class="st6" d="M84,41.9c-0.2,0-0.4,0-0.6,0c-0.3,0-0.5-0.1-0.5-0.4c0-0.4,0.2-0.4,0.5-0.5c1-0.1,1-0.1,0.7-1.2
		c-0.3-1-0.3-2-0.6-2.9c-0.1-0.3-0.1-0.5,0.3-0.6c0.3-0.1,0.5,0.1,0.6,0.4c0.1,0.3,0.1,0.6,0.1,0.9c0.2,1,0.4,1.9,0.6,2.9
		C85.4,41.9,85.4,41.9,84,41.9z"/>
	<path class="st6" d="M80.6,34c0.3,0,0.6,0,0.6,0.3c0,0.3-0.1,0.4-0.4,0.5c-0.8,0.1-1.5,0.4-2.2,0.9c-0.2,0.2-0.4,0.1-0.6-0.1
		c-0.2-0.2-0.1-0.4,0.1-0.6C78.8,34.5,79.7,34.1,80.6,34z"/>
	<path class="st6" d="M85,34c0.9,0.2,1.8,0.5,2.5,1c0.2,0.1,0.3,0.3,0.1,0.5c-0.1,0.2-0.3,0.3-0.5,0.2c-0.7-0.5-1.6-0.8-2.4-0.9
		c-0.3,0-0.3-0.3-0.2-0.5C84.5,34,84.8,34,85,34z"/>
	<path class="st6" d="M82.4,44.2c-0.9,0-2.2-1.2-2.2-2.1c0-0.2,0.1-0.4,0.3-0.4c0.2,0,0.5,0,0.5,0.2c0.2,0.9,0.8,1.3,1.6,1.5
		c0.3,0.1,0.3,0.2,0.3,0.5C82.8,44.2,82.6,44.2,82.4,44.2z"/>
	<path class="st6" d="M86.8,37.1c-0.1,0.5-0.3,0.8-0.8,0.8c-0.5,0-0.8-0.3-0.7-0.8c0-0.5,0.3-0.7,0.8-0.7
		C86.6,36.4,86.7,36.7,86.8,37.1z"/>
	<path class="st6" d="M73.5,40.8c-0.3,0-0.5,0-0.6-0.2c-0.1-0.3-0.3-0.5-0.6-0.7c-0.4-0.1-0.4-0.4-0.2-0.7c0.2-0.3,0.4-0.1,0.6,0
		c0.6,0.2,0.9,0.6,1.1,1.2C73.9,40.7,73.7,40.8,73.5,40.8z"/>
	<path class="st6" d="M80.6,37.1c0,0.5-0.2,0.8-0.7,0.8c-0.5,0-0.9-0.3-0.8-0.8c0-0.4,0.3-0.8,0.8-0.7
		C80.3,36.4,80.5,36.7,80.6,37.1z"/>
</g>
</svg>
