<?xml version="1.0" encoding="utf-8"?>
<!-- Generator: Adobe Illustrator 23.0.3, SVG Export Plug-In . SVG Version: 6.00 Build 0)  -->
<svg version="1.1" id="Calque_1" xmlns="http://www.w3.org/2000/svg" xmlns:xlink="http://www.w3.org/1999/xlink" x="0px" y="0px"
	 viewBox="0 0 595.3 406.2" style="enable-background:new 0 0 595.3 406.2;" xml:space="preserve">
<style type="text/css">
	.st0{fill:#E5EAE6;}
	.st1{fill:#D0E7D4;}
	.st2{fill:#7BB5CE;}
	.st3{fill:#5C8799;}
	.st4{fill:#FFE64C;}
	.st5{fill:#888887;}
	.st6{fill:#B77364;}
	.st7{fill:#DDE5E7;}
	.st8{fill:#33323A;}
	.st9{fill:#54352D;}
	.st10{fill:#E9CEDC;}
	.st11{fill:#F8EFF4;}
	.st12{fill:#D6B3C7;}
	.st13{fill:#244D2C;}
	.st14{fill:#373845;}
	.st15{fill:#E6F3F9;}
	.st16{fill:#AD7667;}
	.st17{fill:#494E59;}
	.st18{fill:#2C1A15;}
</style>
<path class="st0" d="M66.8,219.6c-0.3-1.5-0.1-2.9-0.1-4.3c0.1-3.1,0.4-6.2,0.8-9.2c0.4-3,1-5.9,1.7-8.7c0.8-3.1,1.7-6.2,2.8-9.1
	c1.9-4.9,4.2-9.5,7.3-13.6c2.3-3,4.8-5.7,7.7-7.9c1.7-1.3,3.5-2.3,5.4-3.4c1.4-0.8,2.9-1.4,4.4-1.9c4.3-1.5,8.8-2.2,13.5-1.8
	c3.2,0.2,6.3,0.9,9.3,2c3.1,1.1,6,2.7,8.8,4.7c5,3.7,9.4,8.3,13.3,13.5c3,4,5.6,8.2,8.1,12.6c1.4,2.5,2.6,5.1,3.8,7.8
	c1.3,2.7,2.4,5.5,3.4,8.2c1.5,4.1,2.8,8.3,3.8,12.6c0.8,3.7,1.6,7.3,2,11c-0.6,0.1-1.3,0-2-0.1c-4.3-0.6-8.5-1.1-12.8-1.7
	c-4.7-0.6-9.3-1.1-14-1.7c-6.3-0.8-12.5-1.5-18.8-2.5c-2.7-0.4-5.5-0.6-8.2-1c-4.1-0.5-8.1-1.1-12.2-1.6c-3.5-0.5-7.1-0.9-10.6-1.3
	c-4.2-0.5-8.3-1-12.5-1.6C70.2,220.2,68.5,220.1,66.8,219.6z"/>
<g>
	<path class="st1" d="M524.4,228.7c1,0.5,1.2,1.5,1.5,2.5c3.2,9.3,7.1,18.4,10.5,27.7c2.6,7,5.3,13.9,8.1,20.8
		c4,10,7.8,20.1,11.7,30.2c2.7,6.9,5.3,13.9,8.1,20.8c4.2,10.5,8.2,21,12.3,31.6c1.7,4.4,3.5,8.8,5.2,13.3c0.2,0.5,0.7,1.1,0.2,1.6
		c-0.5,0.4-1.1-0.1-1.6-0.2c-10.5-3.7-21.1-7.5-31.6-11.2c-4.7-1.6-9.4-3.3-14.1-5c-7.7-2.7-15.3-5.4-22.9-8.1
		c-7-2.5-14-5.1-21.1-7.5c-3.1-1-6.1-2.3-9.2-3.3c-0.6-0.3-1.1-0.7-1.7-0.9c-9.9-3.6-19.9-7.1-29.9-10.6
		c-12.9-4.6-25.7-9.1-38.6-13.7c-24.9-8.8-49.8-17.6-74.7-26.4c-20.7-7.3-41.3-14.7-62-22c-12.8-4.5-25.6-8.9-38.4-13.5
		c-25.1-8.9-50.2-17.8-75.3-26.7c-11.2-4-22.4-7.9-33.5-11.8c-22.8-8.1-45.6-16.2-68.4-24.3c-13.2-4.7-26.4-9.4-39.6-14
		c-2.8-1-5.4-2.3-8.3-2.7c0,0,0,0,0,0c-0.3-0.5-0.8-0.4-1.3-0.4c-1.2-0.2-3.1-0.3-3-1.3c0.1-1.4,1.9-0.7,3.1-0.9c0.1,0,0.3,0,0.4,0
		c-0.9,0.7-0.4,1.1,0.3,1.1c1.1,0.1,2.3,0.1,3.4,0.2c5.2,0.5,10.3,1.1,15.5,1.6c5.9,0.6,11.7,1.2,17.6,1.8
		c5.4,0.5,10.7,1.1,16.1,1.6c3.3,0.3,6.7,0.6,10,1c4.7,0.5,9.3,1.1,14,1.5c4.9,0.5,9.8,0.9,14.7,1.4c5.1,0.5,10.2,1.1,15.3,1.6
		c4.5,0.5,9.1,0.9,13.6,1.4c5.1,0.5,10.2,1.1,15.3,1.6c4.7,0.5,9.3,0.9,14,1.4c4.8,0.5,9.6,1.1,14.4,1.6c4.9,0.5,9.8,0.8,14.7,1.5
		c1,0.1,2.6-0.3,3.2,1.1c0.2,1.5,0.4,3,0.7,4.4c1.6,9.4,6.4,16.1,15.5,19.6c11.3,4.4,23.1,6.2,35.2,6.9c7.6,0.4,15.1,0,22.7-0.4
		c0.2,4.3,0.2,8.7,1.8,12.9c0.2,1,0.3,2.1,0.5,3.1c0.4,2.7,1,5.2,3.7,6.7c3.9,2.2,7.7,4.6,11.8,6.5c2.6,1.2,5.2,2,8.2,2
		c3.8-0.1,7.4-0.9,10.9-2c1.6-0.5,3.5-1.1,4-3.1c0.4-1.8,1-3.7,0.4-5.5c-0.5-1.6,0.6-3.7-1.3-4.8l0.1,0.1c0-0.3-0.2-0.5-0.5-0.5
		c-1.8-1.5-3.1-3.4-4.7-5.2c-0.2-0.8-0.8-1.3-1.3-1.9c-2.8-3.8-5.7-7.5-8.6-11.3c14.3-2.3,28.3-5.6,42-10.4c5.3-1.9,10.9-2,16.5-1.1
		c5.9,0.9,11.6,2.7,17.1,5c18.6,7.7,37.1,15.5,55.6,23.2c13.3,5.5,26.5,11,39.8,16.6c1,0.4,2,1.1,2.7-0.3c2.6,0.1,4.5,2.1,6.9,2.7
		c-0.3,0.9-0.4,1.7,0.8,2.1c1.8,0.6,3.5,1.4,5.2,2.2c0.8,0.8,1.3,1.9,2.6,1.9c0.9,0.4,1.4,1.2,2,1.9c1,1.3,1.8,2.7,3.5,3.3
		c0.6,1.7,1.7,3.1,3.1,4.2c2.4,1.9,6.2,1.5,8.1-0.5c2.6-1.7,4.3-4.2,6-6.6C511,253.2,519,241.8,524.4,228.7z"/>
	<path class="st0" d="M189,234.6c1.1,0.3,1.5,1.1,1,1.8c-0.5,0.6-1.1,1.2-1.6,1.8c-1.8,2.1-3.9,4-6.1,6c-2.2,1.9-4.6,3.7-7.1,5.4
		c-2.7,1.9-5.6,3.7-8.7,5.4c-5.2,2.8-10.9,5.2-17.2,7.2c-4.7,1.4-9.6,2.6-14.7,3.3c-3,0.4-6,0.6-9.1,0.8c-2.3,0.1-4.6,0.2-6.9,0.1
		c-6.6-0.2-13.1-0.9-19.3-2.4c-4.1-1-8-2.3-11.6-3.9c-3.6-1.6-6.8-3.4-9.4-5.5c-4.8-3.9-8.3-8.1-10.8-12.6c-1.9-3.5-3.2-7-4.2-10.6
		c-0.5-2.1-0.8-4.2-1-6.2c-0.3-2.2-0.3-4.3-0.1-6.4c0.2-3.2,0.6-6.4,1.6-9.5c0.7-2.2,1.4-4.4,2.5-6.5c0.4-0.8,2-1.2,3.4-0.9
		c0,0,0,0,0,0c5.5,1.5,10.9,3,16.4,4.5c6,1.7,12,3.3,18,4.9c8.1,2.2,16.2,4.4,24.2,6.7c3.5,1,7.1,1.9,10.6,2.9
		c5.2,1.4,10.4,2.9,15.6,4.3c4.5,1.3,9.1,2.5,13.7,3.7c5.4,1.5,10.8,2.9,16.1,4.4C185.9,233.7,187.5,234.1,189,234.6z"/>
	<path class="st2" d="M344,144.9c0.3,1.3,1.3,0.8,2.1,0.8c4.6-0.4,9.2-0.8,13.8-1.2c7-0.6,13.9-1.1,20.9-1.7
		c4.1-0.3,8.2-0.6,12.4-0.9c6-0.5,12.1-1.1,18.1-1.6c4.1-0.4,8.2-0.6,12.4-0.9c7-0.5,13.9-1.1,20.9-1.7c5.7-0.5,11.4-0.9,17-1.3
		c6.5-0.5,12.9-1.1,19.4-1.6c4.1-0.3,8.2-0.6,12.4-0.9c6-0.5,12.1-1.1,18.1-1.6c4.1-0.4,8.2-0.6,12.4-0.9c6.8-0.5,13.6-1.1,20.4-1.7
		c5.7-0.5,11.4-0.9,17-1.3c1.3-0.1,2.5-0.3,3.8-0.4c1.9-0.2,2.3,0.4,1.5,2.1c-1.6,3.6-3.2,7.2-4.8,10.7c-5.4,12.3-10.8,24.7-16.2,37
		c-4.5,10.1-9,20.2-13.4,30.3c-2.1,4.8-4.1,9.5-6.2,14.3c-0.4,0.8-0.8,1.6-1.3,2.5c-0.2-0.2-0.3-0.4-0.5-0.6
		c-0.2-0.1-0.3-0.2-0.5-0.4l0,0c-0.4-2.8-1.9-4-5.6-4.5c-1.3,0-2.5,0.1-3.6,0.9c-0.1,0.3-0.1,0.5,0.2,0.6l0,0
		c-0.4-0.8-0.9-0.2-1.3,0c-0.6,0-1,0.3-1.3,0.8c-0.3,0.2-0.6,0.3-0.8,0.5c-0.1,0.1-0.3,0.2-0.4,0.3c-1.4,0.6-2.3,1.9-3.6,2.6
		c-4.7-0.5-9.3-0.9-14-1.4c-5.1-0.5-10.1-1.1-15.2-1.6c-4.6-0.5-9.2-0.9-13.8-1.4c-5-0.5-10-1.1-15-1.6c-0.4-0.2-0.8-0.3-1.1-0.5
		c-15.6-9.7-31.4-19.1-47.6-27.8c-15.5-8.2-31.2-15.9-48-21.3c-5.4-1.7-10.9-2.9-16.6-3.3c-4.7-0.3-9.4-0.1-14.2-0.3
		c3.6-3.1,7.5-5.7,10.7-9.2C336.3,152.7,340.2,148.8,344,144.9z"/>
	<path class="st3" d="M281.7,305.4c-3.4-2.5-7.4-4-11.2-5.8c-9.4-4.6-18.8-9-28.3-13.5c-8-3.8-16-7.6-24-11.4
		c-9.2-4.4-18.3-8.8-27.5-13.2c-6.2-2.9-12.5-5.6-18.6-8.7c-14-7.1-28.3-13.6-42.5-20.4c-10.5-5.1-21.1-10-31.7-15
		c-9.6-4.6-19.2-9.2-28.8-13.9c-1.5-0.7-2.9-1.5-4.6-1.8c-1.8-1.6-4.1-2.3-6.2-3.3c-9.2-4.5-18.5-8.8-27.8-13.3
		c-6-2.8-12-5.7-18-8.5c-0.7-0.3-1.5-0.5-1.9-1.3c2.9,0.4,5.6,1.7,8.3,2.7c13.2,4.6,26.4,9.3,39.6,14c22.8,8.1,45.6,16.2,68.4,24.3
		c11.2,4,22.4,7.9,33.5,11.8c25.1,8.9,50.2,17.8,75.3,26.7c12.8,4.5,25.6,8.9,38.4,13.5c20.7,7.3,41.3,14.7,62,22
		c24.9,8.8,49.8,17.6,74.7,26.4c12.9,4.5,25.7,9.1,38.6,13.7c10,3.5,19.9,7.1,29.9,10.6c0.6,0.2,1.1,0.6,1.7,0.9
		c-1.8,9-3.7,17.9-5.5,26.9c-1.6,7.9-3.4,15.8-4.9,23.8c-0.4,1.9-1,2.3-2.7,1.5c-3.3-1.6-6.7-3.2-10.1-4.8
		c-12.8-6.1-25.5-12.3-38.3-18.4c-14.2-6.8-28.4-13.6-42.6-20.4c-13.5-6.5-27.1-12.9-40.7-19.4c-14-6.7-28-13.4-42-20.1
		c-3.2-1.5-6.3-3-9.5-4.5C284,306,282.9,305.5,281.7,305.4z"/>
	<path class="st4" d="M182.2,132.8c-1.3-0.6-1.5-1.5-1.2-2.9c3.1-14.2,7.1-28.1,14.5-40.7c3.5-5.9,7.6-11.4,13.5-15.3
		c3.8-2.5,8.1-3.8,12.4-5.3c0.1,0.9,0,1.7-0.2,2.5c-1.2,5.2-4.1,9.2-8.4,12.2c-1.3,0.9-1.4,1.2,0,2.2c1.6,1.1,3,2.4,4.3,3.8
		c1.3,1.4,2.7,2,4.6,1.9c1.4-0.1,2.9-0.2,4.3-0.3c1.3-0.1,2.7,0,3.4,1.3c1.2,2.2,3,2.5,5.2,2.5c2.1,0.1,2.6-0.8,2.3-2.7
		c-0.1-0.3-0.1-0.7-0.2-1c-0.9-6.8-1.1-13.5,1.5-20c0.4,0.2,0.8,0.3,1.1,0.5c2.4,2.4,5.5,3.4,8.7,4.2c3.7,0.9,7.4,1,11.2,0.5
		c0.2,1-0.1,2.1,0.3,3.2c1,2.6,1.3,5.2,1.4,7.9c0.2,2.8-0.5,5.4-2,8.3c1.5-0.5,2.5-0.8,3.5-1.1c3.5-1,7.2-1.9,10.5-0.1
		c3.7,2,6.8,1.5,10.1-0.4c1.7-1,3.5-1.4,5.5-0.6c1.2,0.5,2.6,0.5,3.8,0.1c2.9-1,3.2-1.4,1.6-3.8c-0.4-0.6-0.9-1.3-1.3-2
		c-2-3.4-3.5-7-3.3-11.1c5.4,2.3,10.3,5.3,14.1,9.8c1.8,2.1,2.4,4.8,3.6,7.2c-0.1,0.4,0,0.7,0.3,0.9c0,0.9,0.4,1.8,0.8,2.6
		c0.7,3.7,1.5,7.4,2,11.1c0.6,4.3,2.2,8,5.4,11.1c2,1.9,3,4.3,3.7,6.9c1,3.4,1.5,7,1.8,10.5c-4.1,2-8.2,4-12.2,6.1
		c-4.3,2.3-8.5,4.8-12.8,7.2c-0.7,0.3-1.4,0.4-2,0.8c-1.2,0.8-2,0.6-2.6-0.7c-2.5-8.1-5.4-16-9.2-23.6c-0.3,0.4-0.4,0.8-0.3,1.1
		c0.9,7.1,1.3,14.3,1.4,21.5c0,0.5-0.1,1,0.3,1.4c0,5.6,0,11.2,0.1,16.8c-0.9,0.1-1.8,0.2-2.8,0.4c-1.3,0.2-2-0.1-2.2-1.6
		c-0.5-3.8-1.3-7.6-1.9-11.4c-2.2-13.7-4.6-27.3-6.3-41c-0.4-3.4-0.3-7-1.9-10.2c-1.3-2.6-3.3-4.3-6.2-4.7c-4.5-0.6-8.7,0.2-12.4,3
		c-4.6,3.6-8.4,8-12.1,12.4c-10.9,13-20.7,26.8-29.9,41c-2.7,4.2-5.4,5.9-10.1,4.4c-0.1-1.4,0.4-2.7,0.7-4c1.1-4.5,2.3-9.1,3.5-13.6
		c0.4-1.4,0.6-2.7-1.5-3c-1.7-0.3-3.4-1.1-5-1.7C191.4,135.8,186.9,134.1,182.2,132.8z M258.7,95.8L258.7,95.8l0,0.1L258.7,95.8z"/>
	<path class="st5" d="M238.3,71.2c-2.6,6.5-2.5,13.2-1.5,20c0,0.4,0.1,0.7,0.2,1c0.4,1.8-0.2,2.7-2.3,2.7c-2.2-0.1-4.1-0.3-5.2-2.5
		c-0.7-1.3-2.1-1.4-3.4-1.3c-1.4,0.1-2.8,0.2-4.3,0.3c-1.8,0.1-3.3-0.6-4.6-1.9c-1.3-1.4-2.8-2.7-4.3-3.8c-1.3-0.9-1.2-1.3,0-2.2
		c4.3-3,7.2-7,8.4-12.2c0.2-0.9,0.2-1.7,0.2-2.5c0.6-6.8,3.3-13.1,5.4-19.5c1.9-5.7,2.9-11.6,2.8-17.6c-0.1-3.1,0.1-6.1,0.8-9.1
		c1.5-6.4,5.6-10.6,11.8-12.3c3.4-0.9,6.6-2.2,10-3.1c3.6-1,7.2-1.1,10.8-0.2c4.9,1.2,8,4.8,10.4,8.9c2.9,5,4.6,10.6,6.8,15.9
		c0.9,2.2,1.9,4.3,3.5,6.1c2,2.4,3,5.2,3,8.3c-0.1,4.1,0.8,7.8,2.9,11.4c2,3.4,1.6,7.1,0.9,10.8c-0.5,2.9-1.5,5.7-1.1,8.6
		c-0.2,4.1,1.3,7.7,3.3,11.1c0.4,0.7,0.8,1.3,1.3,2c1.6,2.4,1.2,2.8-1.6,3.8c-1.2,0.4-2.6,0.4-3.8-0.1c-2-0.9-3.8-0.5-5.5,0.6
		c-3.3,2-6.4,2.4-10.1,0.4c-3.3-1.8-7-0.9-10.5,0.1c-1,0.3-2,0.6-3.5,1.1c1.6-2.9,2.2-5.5,2-8.3c-0.1-2.7-0.5-5.4-1.4-7.9
		c-0.4-1-0.2-2.1-0.3-3.2c-0.3-6.3,1.1-12.3,3.3-18.1c1.4-3.8,3.5-7.3,4.6-11.2c1.3-4.8-1.6-11.2-6-12.7c-0.1-0.2-0.1-0.4-0.2-0.6
		c-0.1-0.5-0.4-0.6-0.9-0.6c0,0,0,0,0,0c-0.2-0.1-0.3-0.3-0.5-0.4c0,0,0,0.1,0,0.1c0.1-0.7-0.3-1-0.7-1.5c-4-5.1-7.6-10.5-10.6-16.2
		c-1-2-2.1-2.2-3.8-1.2c-0.5,0.3-1,0.5-1.5,0.9c-5.9,4-7.7,10.1-8.7,16.6c-0.3,0.7-0.5,1.4-0.4,2.1c0,3.3-0.3,6.6,0,9.8
		c0.5,5.5,2.4,10.7,6.1,14.9c1.6,1.8,1.9,3.5,1.1,5.6C240.3,66.2,239.3,68.7,238.3,71.2z"/>
	<path class="st6" d="M182.2,132.8c4.7,1.3,9.2,3,13.7,4.6c1.7,0.6,3.3,1.4,5,1.7c2.1,0.4,1.9,1.6,1.5,3c-1.2,4.5-2.4,9.1-3.5,13.6
		c-0.3,1.3-0.8,2.6-0.7,4c-0.6,0.6-0.7,1.4-1,2.1c-1.9,4.9-3,10-4.2,15c-2,0.3-3.9,0.7-5.9,0.9c-12,1.2-24.1,1.6-36.1,2.2
		c-5.4,0.3-10.8,0.8-16.2,1.9c-4.3,0.9-8.6,2.1-13.1,2.1c-1.8,0-3.6-0.8-3.2-2.3c0.6-2.2-0.5-4-0.5-5.7c0.1-2-0.7-4-0.4-5.5
		c0.3-2.1,0.1-3.7-0.8-5.4c-0.1-0.2-0.1-0.6-0.1-0.8c0.9-2.4,3.1-2.2,5-2.4c3.3-0.4,3.3-0.4,1.8-3.3c-1.1-2.3-1.8-4.6-2.1-7.1
		c-0.1-1.1,0-2.3,1.2-2.7c1.2-0.4,1.8,0.6,2.4,1.3c1.4,1.9,2.8,3.8,4.2,5.7c2.5,3.2,5.8,5.4,9.5,7.1c1.1,1.1,2.4,1.6,4.1,1.2
		c2.1-0.5,4.4-0.6,6.5-1.1c2.8-0.6,5.7-0.6,8.3-1.8c0.4,0,0.7-0.1,1.1-0.1c0.5,0.4,0.8,0.1,1-0.3c3.5-0.5,6.8-1.4,10.3-2.2
		c3.9-0.9,5.5-3.8,6.7-7.1C179.4,145.2,180.8,139,182.2,132.8z"/>
	<path class="st6" d="M296.3,150.3c4.2-2.4,8.5-4.9,12.8-7.2c4-2.1,8.1-4.1,12.2-6.1c1,0,1.9-0.5,2.8-1c5.8-3.6,11.3-7.5,16.6-11.6
		c2.5-1.7,5.1-3.5,7.6-5.2c0.6-0.4,1-0.8,0.9-1.6c-0.5-3.9,1.8-6.6,4.5-8.7c4.2-3.3,7.5-7.4,10.9-11.4c0.8-0.9,1.6-2.5,3.1-1.6
		c1.3,0.7,0.5,2.2,0.2,3.3c-0.7,2.6-1.8,5-3.1,7.4c2.6-0.7,4.2-2.6,5.8-4.4c2.8-3.1,5.5-6.4,8.2-9.6c0.9-1,1.7-2.7,3.2-1.8
		c1.5,1,0.6,2.6-0.1,4c-1.4,0.3-2,1.5-2.7,2.5c-1.9,3-3.9,5.9-6.9,8c-1,0.7-2.1,1.6-2.9,3.1c1.4-0.4,2.1-1.2,3-1.7
		c4.3-3,6.5-7.7,9.6-11.6c2.6,0.6,0.8,2.6,1.2,3.9c-1.7-0.8-2.5,0.6-3.3,1.5c-2.8,3-5.1,6.7-8.9,8.8c-0.4,0.2-0.7,0.5-0.3,1.2
		c2.8-1.4,5-3.6,7.1-5.9c1.7-1.9,2.7-4.6,5.7-5.2c0.9,0.2,0.9,1,0.7,1.5c-0.8,1.9-0.8,4-1.9,5.8c-4.8,7.4-10,14.3-18.6,17.7
		c-0.6,0.3-1.3,0.7-1.7,1.2c-5.9,6.4-11.8,12.8-17.7,19.2c-3.8,3.9-7.7,7.8-11.5,11.8c-3.3,3.4-7.2,6.1-10.7,9.2
		c-5.5,0.5-11,0.5-16.6,0.6C300.9,161.8,298.2,156.2,296.3,150.3z M371.6,112.5c4.8-1.8,6.8-6.7,10.6-9.5
		C377.6,104.8,375.7,109.9,371.6,112.5z M363.6,108.3c-1.9,0.8-4.1,0.9-5.2,3C360.1,110.2,362.5,110.4,363.6,108.3z"/>
	<path class="st2" d="M117,164.1c0,0.3-0.1,0.6,0.1,0.8c0.9,1.7,1.1,3.3,0.8,5.4c-0.2,1.6,0.5,3.5,0.4,5.5c-0.1,1.7,1.1,3.5,0.5,5.7
		c-0.4,1.5,1.4,2.3,3.2,2.3c4.5,0.1,8.8-1.2,13.1-2.1c5.3-1.1,10.7-1.6,16.2-1.9c12.1-0.6,24.1-1.1,36.1-2.2c2-0.2,4-0.6,5.9-0.9
		c-0.7,5.4-1.2,10.9-1.1,16.4c-0.7-1.5-2.2-1-3.2-1.1c-4.9-0.6-9.8-1-14.7-1.5c-4.8-0.5-9.6-1.1-14.4-1.6c-4.7-0.5-9.3-0.9-14-1.4
		c-5.1-0.5-10.2-1.1-15.3-1.6c-4.5-0.5-9.1-0.9-13.6-1.4c-5.1-0.5-10.2-1.1-15.3-1.6c-4.9-0.5-9.8-0.9-14.7-1.4
		c-4.7-0.5-9.3-1-14-1.5c-3.3-0.4-6.7-0.7-10-1c-5.4-0.5-10.7-1.1-16.1-1.6c-5.9-0.6-11.7-1.2-17.6-1.8c-5.2-0.5-10.3-1.1-15.5-1.6
		c-1.1-0.1-2.3,0-3.4-0.2c-0.7-0.1-1.3-0.5-0.3-1.1c7.5-0.2,15-1,22.6-1.7c4.4-0.4,8.8-0.6,13.2-1c6-0.5,12-1.1,18.1-1.6
		c4-0.3,8.1-0.6,12.1-0.9c6.7-0.5,13.5-1.1,20.2-1.7c5.7-0.5,11.3-0.9,17-1.3C114.4,164.5,115.7,164.3,117,164.1z"/>
	<path class="st7" d="M340.7,124.4c-5.4,4.1-10.9,8-16.6,11.6c-0.8,0.5-1.8,1-2.8,1c-0.3-3.6-0.7-7.1-1.8-10.5
		c-0.8-2.6-1.7-5-3.7-6.9c-3.2-3-4.8-6.8-5.4-11.1c-0.5-3.7-1.4-7.4-2-11.1c1.5,0,2.7,1,3.8,1.7c5.4,3.3,10.4,7.1,15.2,11.3
		C332.2,114.6,336.3,119.6,340.7,124.4z"/>
	<path class="st8" d="M524.1,224c0.2,0.2,0.3,0.4,0.5,0.6c0.5,1.4-0.3,2.8-0.2,4.2c-5.3,13-13.3,24.4-21.3,35.9
		c-1.7,2.4-3.4,4.9-6,6.6c-0.9-0.2-1.9-0.1-2.7-0.5c-3.4-1.5-4.8-3.1-2.6-6.6c7.5-11.5,14.7-23.2,22.1-34.9c1.1-1.8,2.5-3.3,4.1-4.6
		c1.7-1.5,3.6-1.9,5.8-1c0,0,0,0,0,0C523.8,223.8,524,223.9,524.1,224z"/>
	<path class="st2" d="M158.1,160.9c-2.6,1.2-5.5,1.2-8.3,1.8c-2.2,0.5-4.4,0.6-6.5,1.1c-1.7,0.4-2.9-0.1-4.1-1.2
		c4.8-0.9,9.8-1.1,14.7-1.4C155.3,161.1,156.6,160.4,158.1,160.9z"/>
	<path class="st9" d="M381.9,95.2c-3.2,3.9-5.3,8.6-9.6,11.6c-0.8,0.6-1.6,1.4-3,1.7c0.8-1.5,1.9-2.4,2.9-3.1c3-2.1,5-5,6.9-8
		c0.7-1.1,1.3-2.2,2.7-2.5C381.8,94.9,381.9,95,381.9,95.2z"/>
	<path class="st9" d="M383.3,99.4c-3,0.6-3.9,3.3-5.7,5.2c-2.1,2.3-4.3,4.5-7.1,5.9c-0.4-0.7-0.1-1,0.3-1.2c3.8-2.1,6.1-5.7,8.9-8.8
		c0.9-0.9,1.6-2.3,3.3-1.5C383.2,99.1,383.2,99.3,383.3,99.4z"/>
	<path class="st10" d="M160.2,160.5c-0.3,0.4-0.6,0.7-1,0.3C159.4,160.3,159.8,160.3,160.2,160.5z"/>
	<path class="st11" d="M307.5,94.7c-0.3-0.2-0.4-0.5-0.3-0.9C307.7,94,308.1,94.2,307.5,94.7z"/>
	<path class="st12" d="M9.6,174.8c0.5,0,1-0.1,1.3,0.4C10.4,175.3,9.9,175.3,9.6,174.8z"/>
	<path class="st13" d="M192.1,193.2c-0.1-5.5,0.4-10.9,1.1-16.4c1.2-5,2.3-10.1,4.2-15c0.3-0.7,0.3-1.5,1-2.1
		c4.7,1.5,7.4-0.2,10.1-4.4c9.2-14.2,19-28,29.9-41c3.7-4.4,7.5-8.9,12.1-12.4c3.6-2.8,7.9-3.6,12.4-3c2.9,0.4,4.9,2.1,6.2,4.7
		c1.6,3.3,1.4,6.8,1.9,10.2c1.7,13.7,4.1,27.3,6.3,41c0.6,3.8,1.4,7.6,1.9,11.4c0.2,1.6,0.9,1.9,2.2,1.6c0.9-0.2,1.8-0.2,2.8-0.4
		c4.4,0.2,8.7-0.5,13.1-0.7c2.7-0.1,5.4-0.4,8.1-0.5c5.5-0.1,11.1-0.1,16.6-0.6c4.7,0.3,9.4,0,14.2,0.3c5.7,0.4,11.2,1.6,16.6,3.3
		c16.8,5.4,32.5,13.1,48,21.3c16.2,8.6,32,18,47.6,27.8c0.4,0.2,0.8,0.4,1.1,0.5c0.6,0.4,1.1,1,1.7,1.3c7.1,4.2,13.9,9,21,13.4
		c1.4,0.9,1.9,1.7,1.1,3.2c-3,5.5-5.7,11-8.2,16.7c-0.7,1.4-1.7,0.7-2.7,0.3c-13.3-5.5-26.5-11-39.8-16.6
		c-18.5-7.7-37.1-15.5-55.6-23.2c-5.5-2.3-11.1-4.1-17.1-5c-5.6-0.8-11.2-0.7-16.5,1.1c-13.7,4.9-27.7,8.2-42,10.4
		c-1.4-1.6-2.8-3.3-4.2-4.9c-0.4-0.4-0.4-1-0.6-1.5c-0.5-1-0.7-2.3-2.4-2.2c-0.5-2.3-0.9-4.7-1.4-7c-0.3-1.3,0-2.8-1.2-3.9
		c-0.3-1.6-0.6-3.2-0.8-4.8c-0.1-1.1-0.5-1.4-1.7-1.2c-3.4,0.6-6.7,1.1-10.1,1.6c-5.3,0.8-5.3,0.9-4.1,6.3c-0.5,0.6-0.3,1.3-0.2,2
		c0.5,3.3,1,6.6,1.4,9.9c-1.5,2-1.4,2.6,0.5,4.7c-0.1,1.3-0.1,2.7-0.2,4c-7.6,0.4-15.1,0.9-22.7,0.4c-12-0.7-23.9-2.5-35.2-6.9
		c-9.1-3.5-13.9-10.2-15.5-19.6C192.5,196.2,192.3,194.7,192.1,193.2z M257,196.5c-0.9-2.7-1.9-5.4-2.8-8.1c-3-8.9-6-17.8-9-26.6
		c-0.2-0.5,0-1.4-0.9-1.1c-0.7,0.3-0.3,0.9-0.1,1.5c0.1,0.3,0.2,0.5,0.2,0.8c3.6,10.6,7.1,21.3,10.7,31.9c0.2,0.7,0.5,1.3,0.8,1.9
		c0.1,0.2,0.4,0.4,0.7,0.3C257,197,257.1,196.8,257,196.5z"/>
	<path class="st14" d="M300.9,234c1.5,1.7,2.8,3.7,4.7,5.2c0.2,0.2,0.4,0.3,0.5,0.5c0,0-0.1-0.1-0.1-0.1c0.8,1.6-0.7,1.8-1.5,2.2
		c-10.3,5.2-20.3,3.7-30-1.7c1.2-1,0.6-2.4,0.6-3.6c0-2,0.4-3.7,1.9-5.2c1.2-1.2,2.2-2.6,2.6-4.3c0.3-1.3,1.2-1.9,2.4-2.4
		c1.3-0.5,3.1-0.2,4-1.7c0.5,0.1,1.1,0.2,1.6,0.4c0.1,1.7,0.9,2.8,2.6,3.1c1.1,0.3,2,1,2.9,1.6C295.9,229.9,297.9,232.6,300.9,234z"
		/>
	<path class="st15" d="M523.7,223.7c-2.1-0.9-4-0.4-5.8,1c-1.6,1.3-3,2.8-4.1,4.6c-7.3,11.6-14.5,23.3-22.1,34.9
		c-2.2,3.4-0.8,5,2.6,6.6c0.8,0.4,1.8,0.3,2.7,0.5c-2,2.1-5.7,2.4-8.1,0.5c-1.4-1.1-2.5-2.5-3.1-4.2c-0.1-2.6,0.1-5.2,1.6-7.4
		c7-10.7,13.6-21.6,20.8-32.1c1.9-2.7,4.4-4.8,6.5-7.4c0,0,0,0,0,0c0.1,0,0.3,0,0.4,0.1c1-0.4,2.1-0.8,3-1.5
		C521.8,219.7,523.3,220.9,523.7,223.7z"/>
	<path class="st15" d="M274.6,240.1c9.7,5.4,19.7,7,30,1.7c0.8-0.4,2.3-0.6,1.5-2.2c2,1.2,0.8,3.2,1.3,4.8c0.6,1.7,0,3.7-0.4,5.5
		c-0.5,2.1-2.4,2.6-4,3.1c-3.5,1.1-7.1,1.9-10.9,2c-3,0.1-5.6-0.8-8.2-2c-4.1-1.9-7.9-4.3-11.8-6.5c-2.7-1.6-3.3-4-3.7-6.7
		c-0.1-1-0.3-2.1-0.5-3.1C270.1,237.8,272.4,238.9,274.6,240.1z"/>
	<path class="st8" d="M514.7,220.7c-2.1,2.5-4.6,4.6-6.5,7.4c-7.2,10.5-13.9,21.4-20.8,32.1c-1.4,2.2-1.7,4.8-1.6,7.4
		c-1.6-0.6-2.5-2-3.5-3.3c-0.6-0.7-1.1-1.5-2-1.9c-1.3-4.2,0-8.1,1.9-11.8c1.8-3.4,4.7-6,6.7-9.3c0.5-0.1,1.1-0.2,1.5-0.6
		c5.6-5.3,11.2-10.5,16.7-15.7c1.3-0.7,2.2-2.1,3.6-2.6c0.1-0.1,0.3-0.2,0.4-0.3c0.3-0.2,0.6-0.3,0.8-0.5c0.6,0,1.1-0.2,1.3-0.8
		C513.8,220.5,514.3,219.9,514.7,220.7z M494.4,244.4c-0.1-0.5,0.5-1.3-0.6-1.4c-1-0.1-1.2,0.5-1.3,1.3c0,0.2,0,0.4,0,0.6
		c0,2.5-1,4.1-3.6,4.5c-1,0.1-1.9,0.6-2.9,0.9c-2.9,1-4.5,3.2-4.5,6.3c0,0.5-0.1,1,0.7,1.1c0.7,0,1.1-0.2,1.1-0.9
		c0.1-3.5,2.3-4.8,5.4-5.5C493.3,250.1,494.1,249,494.4,244.4z"/>
	<path class="st8" d="M274.6,240.1c-2.2-1.2-4.4-2.3-6.6-3.5c-1.5-4.2-1.5-8.5-1.8-12.9c0.1-1.3,0.1-2.7,0.2-4c3-0.6,6-0.6,9.1-0.8
		c-0.7,1.7,1.2,2.6,1.2,4c0,0,0.4,0,0.6,0c0.2,0.2,0.3,0.3,0.5,0.5c-0.4,0.4-1.6,0.6-0.9,1.5c0.5,0.8,1.2,0.1,1.7-0.2
		c2.4-1.4,4.8-2.4,7.7-1.8c-0.9,1.5-2.6,1.2-4,1.7c-1.2,0.5-2.1,1.1-2.4,2.4c-0.4,1.7-1.4,3.1-2.6,4.3c-1.5,1.5-1.9,3.2-1.9,5.2
		C275.2,237.7,275.8,239.1,274.6,240.1z"/>
	<path class="st16" d="M464.8,253.6c2.5-5.7,5.2-11.3,8.2-16.7c2.2,0.4,4,1.9,6.1,2.7c-1.8,5.9-4.7,11.2-7.4,16.7
		C469.3,255.7,467.4,253.7,464.8,253.6z"/>
	<path class="st15" d="M471.7,256.2c2.7-5.5,5.6-10.8,7.4-16.7c2.7-0.6,4.6,1,6.4,2.6c-2.9,2.7-5.2,5.8-6.7,9.4
		c-1.3,2.9-2.2,5.8-1,9c-1.7-0.7-3.4-1.5-5.2-2.2C471.3,257.9,471.4,257.2,471.7,256.2z"/>
	<path class="st8" d="M300.9,234c-3-1.4-5-4.1-7.7-5.9c-0.9-0.6-1.8-1.4-2.9-1.6c-1.7-0.4-2.5-1.4-2.6-3.1c0.3-0.1,0.8,0,0.8-0.5
		c0-0.5-0.4-0.7-0.9-0.7c-1-0.1-2.1-0.2-3.3-0.3c0.4-0.7,0.9-0.7,1.3-0.7c0.5-0.1,1.3,0.5,1.3-0.4c0-0.7-0.4-1.5-1.5-1.3
		c-0.6,0.1-1.3,0.4-1.9,0c0.1-1.3,2.3-0.1,1.8-1.8c0.2-0.8,0.5-1.5,1.5-1.6c1.4,1.6,2.8,3.3,4.2,4.9c2.9,3.8,5.7,7.5,8.6,11.3
		C300.1,232.7,300.7,233.2,300.9,234z"/>
	<path class="st17" d="M477.7,260.5c-1.2-3.2-0.2-6.1,1-9c1.6-3.6,3.9-6.7,6.7-9.4c1.1-0.3,2.2-1.1,3.4-0.7c-2,3.3-4.9,5.9-6.7,9.3
		c-1.9,3.7-3.2,7.6-1.9,11.8C479,262.4,478.5,261.3,477.7,260.5z"/>
	<path class="st15" d="M306.1,239.6c-0.2-0.2-0.4-0.3-0.5-0.5C305.9,239.2,306.1,239.3,306.1,239.6z"/>
	<path class="st1" d="M488.9,241.4c-1.3-0.4-2.3,0.4-3.4,0.7c-1.8-1.6-3.7-3.2-6.4-2.6c-2.1-0.8-3.8-2.3-6.1-2.7
		c0.8-1.5,0.3-2.3-1.1-3.2c-7-4.4-13.8-9.1-21-13.4c-0.6-0.4-1.1-0.9-1.7-1.3c5,0.5,10,1.1,15,1.6c4.6,0.5,9.2,0.9,13.8,1.4
		c5.1,0.5,10.1,1.1,15.2,1.6c4.7,0.5,9.3,0.9,14,1.4c-5.6,5.2-11.2,10.5-16.7,15.7C490,241.2,489.5,241.2,488.9,241.4z"/>
	<path class="st17" d="M518.1,219.2c-0.9,0.7-1.9,1.1-3,1.5c-0.2-0.2-0.4-0.4-0.6-0.6C515.6,219.3,516.8,219.2,518.1,219.2z"/>
	<path class="st17" d="M513.4,220.7c-0.3,0.6-0.7,0.8-1.3,0.8C512.4,221,512.8,220.7,513.4,220.7z"/>
	<path class="st8" d="M514.5,220.1c0.2,0.2,0.4,0.4,0.6,0.6c-0.1,0-0.3,0-0.4-0.1C514.4,220.6,514.4,220.4,514.5,220.1z"/>
	<path class="st17" d="M511.3,222c-0.1,0.1-0.3,0.2-0.4,0.3C511,222.3,511.1,222.1,511.3,222z"/>
	<path class="st15" d="M524.1,224c-0.2-0.1-0.3-0.2-0.5-0.4C523.8,223.8,524,223.9,524.1,224z"/>
	<path class="st6" d="M238.3,71.2c1-2.5,2.1-5,3-7.5c0.8-2.1,0.5-3.7-1.1-5.6c-3.7-4.2-5.6-9.4-6.1-14.9c-0.3-3.2,0-6.5,0-9.8
		c2.1,0,4.1,0,6.2-0.1c0.8,0,1.9,0,1.9-1.2c0-1-0.9-1.3-1.8-1.4c-2-0.3-3.9,0.1-5.9,0.6c1-6.5,2.8-12.6,8.7-16.6
		c0.5-0.3,1-0.6,1.5-0.9c1.7-1,2.7-0.8,3.8,1.2c3,5.8,6.6,11.1,10.6,16.2c0.4,0.4,0.8,0.8,0.7,1.5c-0.2,0-0.5,0-0.6-0.1
		c-2.9-1.9-6-1.1-9.1-0.7c-0.6,0.1-1.3,0.4-1.3,1.2c0,0.6,0.3,1.1,0.8,1.1c3.9,0.1,7.8,0.1,11.7,0.1c4.4,1.5,7.4,7.9,6,12.7
		c-1.1,3.9-3.2,7.5-4.6,11.2c-2.2,5.8-3.6,11.8-3.3,18.1c-3.8,0.5-7.5,0.4-11.2-0.5c-3.2-0.8-6.3-1.7-8.7-4.2
		C239.1,71.5,238.6,71.4,238.3,71.2z M245.1,38.3c-0.2-1.8-0.3-3.5-0.5-5.3c0-0.4,0.1-1-0.6-0.9c-0.5,0.1-0.6,0.5-0.6,1
		c0,0.9,0,1.7,0.2,2.6c0.6,2.4,0.4,4.7-0.6,6.9c-0.5,1.3-0.4,2.4,0.7,3.3c1.2,1,2.6,1,4.1,0.8c0.2,0,0.5-0.3,0.6-0.5
		c0.1-0.4-0.3-0.6-0.7-0.6c-0.5,0-1,0-1.5,0c-2-0.2-2.5-0.9-1.8-2.8C244.7,41.3,245.2,39.9,245.1,38.3z M249,61.4
		c-0.6,0-1.1,0-1.7,0c-0.6,0.1-1.5-0.4-1.5,0.6c0,0.7,0.8,0.6,1.4,0.6c3.3,0.2,6.4-0.3,9.5-1.3c0.5-0.2,1.4-0.3,1.2-1
		c-0.2-0.7-1-0.4-1.5-0.2C253.9,61,251.5,61.5,249,61.4z M252.3,50.5c-2.5,0.1-4.5,0.5-6.8,1.1C248.1,53.2,249.6,53,252.3,50.5z
		 M253.4,36c-0.4,0-0.9,0-1.4,0.2c-0.5,0.2-1.4,0.3-1.1,1.2c0.2,0.7,1,0.4,1.5,0.3c0.8-0.3,1.5-0.2,2.3,0c0.7,0.2,1.8,1.3,2.1,0.2
		c0.3-1.1-1.1-1.4-2-1.7C254.4,36,254,36.1,253.4,36z M239.6,38.7c0.5-0.1,1-0.3,1-1c0-0.6-0.4-1.1-1-1.1c-0.6,0-1.1,0.4-1.1,1
		C238.4,38.2,238.8,38.7,239.6,38.7z"/>
	<path class="st2" d="M305.2,166.4c-2.7,0.2-5.4,0.4-8.1,0.5c-4.4,0.2-8.7,0.8-13.1,0.7c0-5.6,0-11.2-0.1-16.8
		c2.6-0.1,5.2-0.3,7.8-0.4c0.6,1.3,1.4,1.5,2.6,0.7c0.6-0.4,1.3-0.5,2-0.8C298.2,156.2,300.9,161.8,305.2,166.4z"/>
	<path class="st7" d="M291.7,150.4c-2.6,0.1-5.2,0.3-7.8,0.4c-0.4-0.4-0.3-0.9-0.3-1.4c-0.1-7.2-0.5-14.4-1.4-21.5
		c0-0.3,0-0.7,0.3-1.1C286.3,134.4,289.3,142.3,291.7,150.4z"/>
	<polygon class="st5" points="258.7,95.8 258.8,95.9 258.6,95.8 	"/>
	<path class="st18" d="M261.2,34.3c-3.9,0-7.8,0-11.7-0.1c-0.5,0-0.8-0.5-0.8-1.1c0.1-0.8,0.7-1.1,1.3-1.2c3.1-0.3,6.2-1.2,9.1,0.7
		c0.2,0.1,0.4,0.1,0.6,0.1c0,0,0-0.1,0-0.1c0,0.3,0.2,0.4,0.5,0.4c0,0,0,0,0,0c0.1,0.4,0.5,0.5,0.9,0.6
		C261.1,33.9,261.1,34.1,261.2,34.3z"/>
	<path class="st18" d="M234.4,31.3c1.9-0.5,3.9-0.9,5.9-0.6c0.9,0.1,1.8,0.4,1.8,1.4c0,1.2-1.1,1.2-1.9,1.2
		c-2.1,0.1-4.1,0.1-6.2,0.1C233.9,32.7,234.1,32,234.4,31.3z"/>
	<path class="st6" d="M261,33.7c-0.3-0.1-0.7-0.2-0.9-0.6C260.6,33.1,260.9,33.3,261,33.7z"/>
	<path class="st6" d="M260.2,33.1c-0.3,0-0.5-0.1-0.5-0.4C259.9,32.8,260,33,260.2,33.1z"/>
	<path class="st9" d="M371.6,112.5c4.1-2.6,5.9-7.6,10.6-9.5C378.4,105.8,376.4,110.6,371.6,112.5z"/>
	<path class="st9" d="M363.6,108.3c-1.1,2.1-3.5,1.8-5.2,3C359.5,109.2,361.7,109.1,363.6,108.3z"/>
	<path class="st15" d="M281.3,201.3c1.2,1,0.9,2.6,1.2,3.9c0.6,2.3,1,4.6,1.4,7c0.2,1.5-0.4,2.3-2,2.6c-4.5,0.6-8.9,1.2-13.3,2
		c-1.5,0.2-2.3-0.2-2.7-1.6c-0.5-3.3-1-6.6-1.4-9.9c-0.1-0.7-0.4-1.4,0.2-2c0.5-0.1,1-0.1,1.5-0.2
		C271,201.4,276.1,200.5,281.3,201.3z"/>
	<path class="st16" d="M281.3,201.3c-5.2-0.7-10.3,0.1-15.2,1.7c-0.5,0.1-1,0.1-1.5,0.2c-1.2-5.4-1.2-5.4,4.1-6.3
		c3.4-0.5,6.8-1,10.1-1.6c1.2-0.2,1.5,0.1,1.7,1.2C280.7,198.1,281,199.7,281.3,201.3z"/>
	<path class="st17" d="M265.8,215.1c0.4,1.4,1.2,1.8,2.7,1.6c4.4-0.7,8.9-1.4,13.3-2c1.7-0.2,2.2-1,2-2.6c1.6-0.2,1.8,1.2,2.4,2.2
		c0.2,0.5,0.2,1.1,0.6,1.5c-0.9,0.1-1.3,0.8-1.5,1.6c-0.9-0.6-1.8-0.7-2.8-0.4c-2.4,0.7-4.8,1.3-7.2,2c-3,0.1-6.1,0.2-9.1,0.8
		C264.4,217.7,264.3,217.1,265.8,215.1z"/>
	<path class="st8" d="M257,196.5c0.1,0.3,0,0.5-0.3,0.7c-0.3,0.2-0.6-0.1-0.7-0.3c-0.3-0.6-0.6-1.3-0.8-1.9
		c-3.6-10.6-7.1-21.3-10.7-31.9c-0.1-0.3-0.1-0.6-0.2-0.8c-0.2-0.5-0.6-1.2,0.1-1.5c0.9-0.3,0.7,0.6,0.9,1.1c3,8.9,6,17.8,9,26.6
		C255.1,191.1,256.1,193.8,257,196.5z"/>
	<path class="st11" d="M275.4,219c2.4-0.6,4.8-1.3,7.2-2c1-0.3,2-0.2,2.8,0.4c0.5,1.7-1.7,0.6-1.8,1.8c0.6,0.3,1.2,0.1,1.9,0
		c1.1-0.2,1.5,0.7,1.5,1.3c0,0.9-0.8,0.4-1.3,0.4c-0.4,0-0.8,0.1-1.3,0.7c1.2,0.1,2.2,0.2,3.3,0.3c0.5,0,0.8,0.3,0.9,0.7
		c0,0.5-0.5,0.4-0.8,0.5c-0.5-0.1-1.1-0.2-1.6-0.4c-2.8-0.6-5.3,0.4-7.7,1.8c-0.5,0.3-1.1,1-1.7,0.2c-0.7-1,0.5-1.1,0.9-1.5
		c0.8-0.3,1.8-0.3,2.7-1.2c-1.3-0.2-2.2,0.2-3.1,0.7c-0.2,0-0.6,0-0.6,0C276.6,221.6,274.7,220.7,275.4,219z"/>
	<path class="st15" d="M494.4,244.4c-0.3,4.6-1.1,5.8-5.6,6.8c-3.1,0.7-5.4,1.9-5.4,5.5c0,0.8-0.4,1-1.1,0.9c-0.7,0-0.7-0.6-0.7-1.1
		c0-3.1,1.6-5.3,4.5-6.3c0.9-0.3,1.9-0.7,2.9-0.9c2.6-0.4,3.6-2,3.6-4.5c0-0.2,0-0.4,0-0.6c0-0.8,0.3-1.4,1.3-1.3
		C494.9,243.1,494.3,243.9,494.4,244.4z"/>
	<path class="st9" d="M245.1,38.3c0.1,1.5-0.4,2.9-0.9,4.4c-0.6,1.9-0.2,2.6,1.8,2.8c0.5,0,1,0,1.5,0c0.4,0,0.8,0.1,0.7,0.6
		c0,0.2-0.3,0.5-0.6,0.5c-1.4,0.2-2.9,0.2-4.1-0.8c-1.1-0.9-1.2-2.1-0.7-3.3c1-2.2,1.2-4.5,0.6-6.9c-0.2-0.8-0.1-1.7-0.2-2.6
		c0-0.5,0.1-0.9,0.6-1c0.7-0.1,0.6,0.5,0.6,0.9C244.8,34.8,245,36.6,245.1,38.3z"/>
	<path class="st9" d="M249,61.4c2.5,0.1,5-0.5,7.4-1.2c0.5-0.2,1.3-0.5,1.5,0.2c0.2,0.7-0.6,0.8-1.2,1c-3.1,1-6.2,1.5-9.5,1.3
		c-0.6,0-1.4,0.1-1.4-0.6c0-1,1-0.5,1.5-0.6C247.8,61.4,248.4,61.4,249,61.4z"/>
	<path class="st18" d="M252.3,50.5c-2.6,2.5-4.1,2.7-6.8,1.1C247.8,51,249.8,50.6,252.3,50.5z"/>
	<path class="st9" d="M253.4,36c0.5,0,1,0,1.4,0.1c0.9,0.3,2.4,0.6,2,1.7c-0.3,1.1-1.4,0-2.1-0.2c-0.8-0.2-1.5-0.3-2.3,0
		c-0.5,0.2-1.2,0.4-1.5-0.3c-0.3-0.9,0.6-1,1.1-1.2C252.5,36,253,36.1,253.4,36z"/>
	<path class="st18" d="M239.6,38.7c-0.8,0-1.2-0.5-1.2-1.1c0-0.6,0.5-1,1.1-1c0.7,0,1,0.5,1,1.1C240.6,38.4,240,38.6,239.6,38.7z"/>
	<path class="st8" d="M277.2,223c0.9-0.5,1.8-1,3.1-0.7c-0.8,0.9-1.8,0.9-2.7,1.2C277.5,223.4,277.4,223.2,277.2,223z"/>
</g>
</svg>
